<svg width="80" height="80" viewBox="0 0 80 80" fill="none" xmlns="http://www.w3.org/2000/svg">
<path fill-rule="evenodd" clip-rule="evenodd" d="M8 40C8 57.6448 22.3552 72 40 72C46.1984 72 52.624 69.9904 58.096 66.3424C59.5648 65.3632 59.9616 63.3792 58.9824 61.9072C58 60.4384 56.016 60.0384 54.544 61.0176C50.1152 63.9712 44.9472 65.6 40 65.6C25.8848 65.6 14.4 54.1152 14.4 40C14.4 25.8848 25.8848 14.4 40 14.4C54.3552 14.4 65.6 25.6448 65.6 40C65.6 42.4992 65.0688 48.32 60.16 48.32C57.1104 48.32 54.72 45.9328 54.72 42.88V40.049C54.72 40.033 54.72 40.0173 54.72 40.0013C54.72 39.9853 54.72 39.9693 54.72 39.9536V29.12C54.72 27.3504 53.2864 25.92 51.52 25.92C50.1459 25.92 48.9734 26.7855 48.5203 28.0028C46.1142 26.2896 43.1731 25.2812 40 25.2812C31.8817 25.2812 25.2801 31.8828 25.2801 40.0013C25.2801 48.1165 31.8817 54.7181 40 54.7181C44.2349 54.7181 48.0573 52.9216 50.745 50.0512C52.9101 52.887 56.3251 54.72 60.16 54.72C67.3504 54.72 72 48.9408 72 40C72 22.0576 57.9424 8 40 8C22.3552 8 8 22.3552 8 40ZM48.32 39.9645V40.0381C48.3008 44.6861 44.6534 48.3181 40 48.3181C35.3344 48.3181 31.6801 44.6669 31.6801 40.0013C31.6801 35.3357 35.3344 31.6812 40 31.6812C44.6534 31.6812 48.3008 35.3165 48.32 39.9645Z" fill="black"/>
</svg>
