<svg width="80" height="80" viewBox="0 0 80 80" fill="none" xmlns="http://www.w3.org/2000/svg">
<path d="M65.6 40C65.6 25.5923 54.1579 14.4 39.9969 14.4C25.8611 14.4 14.4 25.8627 14.4 40.0031C14.4 41.7704 12.9673 43.2031 11.2 43.2031C9.43269 43.2031 8 41.7704 8 40.0031C8.00004 22.3295 22.3252 8 39.9969 8C57.6495 8.00004 72 22.0147 72 40C72 44.029 71.0669 47.6609 69.025 50.3687C66.9082 53.1757 63.7916 54.7156 60.1594 54.7156C53.6197 54.7153 48.3195 49.4177 48.3187 42.8781V29.2531C48.3187 27.4862 49.752 26.0538 51.5187 26.0531C53.286 26.0531 54.7187 27.4858 54.7187 29.2531V42.8781C54.7194 45.8831 57.1543 48.3153 60.1594 48.3156C61.8355 48.3156 63.0395 47.6775 63.9156 46.5156C64.8665 45.2545 65.6 43.1289 65.6 40Z" fill="black"/>
<path d="M54.4312 61.1438C55.8903 60.1482 57.8814 60.5229 58.8781 61.9813C59.8748 63.4407 59.5 65.4345 58.0406 66.4313C52.7363 70.0538 46.4481 72 40 72C37.3721 71.9999 34.8129 71.6816 32.3625 71.0813C30.6467 70.6602 29.5951 68.9286 30.0156 67.2125C30.4362 65.496 32.171 64.4451 33.8875 64.8656C35.8427 65.3446 37.8892 65.5999 40 65.6C45.1588 65.6 50.1893 64.0408 54.4312 61.1438Z" fill="black"/>
<path d="M48.3219 39.9969C48.3212 35.4038 44.5932 31.6781 40 31.6781C35.4073 31.6788 31.6819 35.4042 31.6812 39.9969C31.6812 44.5927 35.4063 48.318 40 48.3187C44.5942 48.3187 48.3219 44.5931 48.3219 39.9969ZM54.7219 39.9969C54.7219 48.1289 48.1277 54.7187 40 54.7187C31.8729 54.718 25.2812 48.1285 25.2812 39.9969C25.2819 31.8695 31.8727 25.2788 40 25.2781C48.1278 25.2781 54.7212 31.8691 54.7219 39.9969Z" fill="black"/>
<path d="M16.0312 65.803V60.9717H11.2C9.43269 60.9717 8 59.539 8 57.7717C8.00023 56.0046 9.43283 54.5717 11.2 54.5717H16.0312V49.7405C16.0312 47.9732 17.4639 46.5405 19.2312 46.5405C20.998 46.5411 22.4312 47.9735 22.4312 49.7405V54.5717H27.2625C29.0297 54.5717 30.4623 56.0046 30.4625 57.7717C30.4625 59.539 29.0298 60.9717 27.2625 60.9717H22.4312V65.803C22.4312 67.5699 20.998 69.0023 19.2312 69.003C17.4639 69.003 16.0312 67.5703 16.0312 65.803Z" fill="black"/>
</svg>
