<svg width="80" height="80" viewBox="0 0 80 80" fill="none" xmlns="http://www.w3.org/2000/svg">
<path fill-rule="evenodd" clip-rule="evenodd" d="M72.7217 17.5479C68.2774 16.1035 64.7677 12.5924 63.3306 8.14441C62.8392 6.61853 60.3086 6.61853 59.8172 8.14441C58.3801 12.5924 54.8704 16.1035 50.4261 17.5479C49.665 17.796 49.1478 18.5071 49.1478 19.3108C49.1478 20.1108 49.665 20.8218 50.4261 21.07C54.863 22.5107 58.3727 26.0402 59.8172 30.5105C60.061 31.2734 60.7741 31.7919 61.572 31.7919C62.3737 31.7919 63.0868 31.2734 63.3306 30.5105C64.7751 26.0402 68.2848 22.5107 72.7217 21.07C73.4828 20.8218 74 20.1108 74 19.3108C74 18.5071 73.4828 17.796 72.7217 17.5479Z" fill="black"/>
<path fill-rule="evenodd" clip-rule="evenodd" d="M61.6894 40.3861L44.2038 34.6936L38.5292 17.168C38.0415 15.6495 36.6894 14.6681 35.0934 14.6681C33.4937 14.6681 32.1453 15.6495 31.6539 17.168L26.0273 34.6825L8.5085 40.3824C7.00857 40.8601 6 42.2453 6 43.8341C6 45.4193 7.00857 46.8044 8.50111 47.2785L25.9719 52.9413L31.6539 70.4964C32.1453 72.0148 33.4937 73 35.0934 73C36.6894 73 38.0415 72.0148 38.5292 70.4964L44.1631 52.982L61.6783 47.2822C63.1782 46.8044 64.1905 45.4193 64.1905 43.8341C64.1905 42.2453 63.1782 40.8601 61.6894 40.3861Z" fill="black"/>
</svg>
