<svg width="80" height="80" viewBox="0 0 80 80" fill="none" xmlns="http://www.w3.org/2000/svg">
<path fill-rule="evenodd" clip-rule="evenodd" d="M60.9213 43.9141C60.9213 45.3086 59.7895 46.4404 58.395 46.4404C57.0004 46.4404 55.8686 45.3086 55.8686 43.9141V36.0825C55.8686 34.688 57.0004 33.5562 58.395 33.5562C59.7895 33.5562 60.9213 34.688 60.9213 36.0825V43.9141ZM51.7221 50.4589C51.7221 51.8535 50.5903 52.9853 49.1958 52.9853C47.8013 52.9853 46.6695 51.8535 46.6695 50.4589V29.5411C46.6695 28.1465 47.8013 27.0147 49.1958 27.0147C50.5903 27.0147 51.7221 28.1465 51.7221 29.5411V50.4589ZM42.5263 56.5154C42.5263 57.9099 41.3945 59.0417 40 59.0417C38.6055 59.0417 37.4737 57.9099 37.4737 56.5154V23.488C37.4737 22.0935 38.6055 20.9617 40 20.9617C41.3945 20.9617 42.5263 22.0935 42.5263 23.488V56.5154ZM33.3238 50.4589C33.3238 51.8535 32.192 52.9853 30.7975 52.9853C29.4029 52.9853 28.2712 51.8535 28.2712 50.4589V29.5411C28.2712 28.1465 29.4029 27.0147 30.7975 27.0147C32.192 27.0147 33.3238 28.1465 33.3238 29.5411V50.4589ZM24.1246 43.9141C24.1246 45.3086 22.9928 46.4404 21.5983 46.4404C20.2038 46.4404 19.072 45.3086 19.072 43.9141V36.0859C19.072 34.6914 20.2038 33.5596 21.5983 33.5596C22.9928 33.5596 24.1246 34.6914 24.1246 36.0859V43.9141ZM53.3827 8H26.6139C15.4779 8 8 15.1512 8 25.7954V54.208C8 64.8488 15.4779 72 26.6139 72H53.3827C64.5154 72 72 64.8488 72 54.208V25.7954C72 15.1512 64.5154 8 53.3827 8Z" fill="black"/>
</svg>
