<svg width="80" height="80" viewBox="0 0 80 80" fill="none" xmlns="http://www.w3.org/2000/svg">
<path d="M30.4 59.8333C30.3999 57.7161 28.6839 56.0001 26.5667 56H18.2333C16.1161 56.0001 14.4001 57.7161 14.4 59.8333V61.7667C14.4001 63.8839 16.1161 65.5999 18.2333 65.6H26.5667C28.6839 65.5999 30.3999 63.8839 30.4 61.7667V59.8333ZM36.8 61.7667C36.7999 67.4186 32.2186 71.9999 26.5667 72H18.2333C12.5814 71.9999 8.00014 67.4186 8 61.7667V59.8333C8.00014 54.1814 12.5814 49.6001 18.2333 49.6H26.5667C32.2186 49.6001 36.7999 54.1814 36.8 59.8333V61.7667Z" fill="black"/>
<path d="M65.6 18.2333C65.5999 16.1161 63.8839 14.4001 61.7667 14.4H53.4333C51.3161 14.4001 49.6001 16.1161 49.6 18.2333V20.1667C49.6001 22.2839 51.3161 23.9999 53.4333 24H61.7667C63.8839 23.9999 65.5999 22.2839 65.6 20.1667V18.2333ZM72 20.1667C71.9999 25.8186 67.4186 30.3999 61.7667 30.4H53.4333C47.7814 30.3999 43.2001 25.8186 43.2 20.1667V18.2333C43.2001 12.5814 47.7814 8.00014 53.4333 8H61.7667C67.4186 8.00014 71.9999 12.5814 72 18.2333V20.1667Z" fill="black"/>
<path d="M65.6 47.0333C65.5999 44.9161 63.8839 43.2001 61.7667 43.2H53.4333C51.3161 43.2001 49.6001 44.9161 49.6 47.0333V61.7667C49.6001 63.8839 51.3161 65.5999 53.4333 65.6H61.7667C63.8839 65.5999 65.5999 63.8839 65.6 61.7667V47.0333ZM72 61.7667C71.9999 67.4186 67.4186 71.9999 61.7667 72H53.4333C47.7814 71.9999 43.2001 67.4186 43.2 61.7667V47.0333C43.2001 41.3814 47.7814 36.8001 53.4333 36.8H61.7667C67.4186 36.8001 71.9999 41.3814 72 47.0333V61.7667Z" fill="black"/>
<path d="M30.4 18.2333C30.3999 16.1161 28.6839 14.4001 26.5667 14.4H18.2333C16.1161 14.4001 14.4001 16.1161 14.4 18.2333V32.9667C14.4001 35.0839 16.1161 36.7999 18.2333 36.8H26.5667C28.6839 36.7999 30.3999 35.0839 30.4 32.9667V18.2333ZM36.8 32.9667C36.7999 38.6186 32.2186 43.1999 26.5667 43.2H18.2333C12.5814 43.1999 8.00014 38.6186 8 32.9667V18.2333C8.00014 12.5814 12.5814 8.00014 18.2333 8H26.5667C32.2186 8.00014 36.7999 12.5814 36.8 18.2333V32.9667Z" fill="black"/>
</svg>
