<svg width="80" height="80" viewBox="0 0 80 80" fill="none" xmlns="http://www.w3.org/2000/svg">
<path d="M13.2794 36.7453H66.2206C68.1698 36.7453 69.75 38.3255 69.75 40.2747C69.75 42.2239 68.1698 43.8041 66.2206 43.8041H13.2794C11.3302 43.8041 9.75 42.2239 9.75 40.2747C9.75 38.3255 11.3302 36.7453 13.2794 36.7453Z" fill="black"/>
<path d="M37.1236 59.0378C38.5033 60.4133 38.5087 62.6479 37.134 64.0287C35.7586 65.4099 33.521 65.4143 32.1397 64.039L10.7875 42.7764C10.1232 42.1144 9.75037 41.2153 9.75 40.2775C9.74996 39.339 10.1226 38.4375 10.7875 37.7752L32.1397 16.5091L32.4085 16.2679C33.7972 15.1399 35.8444 15.2245 37.134 16.5195C38.4235 17.8144 38.4985 19.861 37.3649 21.2449L37.1236 21.5137L18.2806 40.2741L37.1236 59.0378Z" fill="black"/>
</svg>
