<svg width="80" height="80" viewBox="0 0 80 80" fill="none" xmlns="http://www.w3.org/2000/svg">
<path fill-rule="evenodd" clip-rule="evenodd" d="M33.8318 64.2909C33.305 64.2909 32.878 63.8636 32.878 63.337V55.8652C32.878 54.4027 34.1179 53.1627 35.5805 53.1627H44.4195C45.9138 53.1627 47.1221 54.4027 47.1221 55.8652V63.337C47.1221 63.8636 46.695 64.2909 46.1682 64.2909H33.8318ZM35.1672 23.8795C35.0082 23.9113 34.8492 23.9113 34.6903 23.9113C33.5774 23.9113 32.56 23.1482 32.3374 22.0036C32.0831 20.7 32.9097 19.4282 34.2133 19.1738C35.5118 18.9205 36.7471 19.7396 37.0081 21.0342C37.0103 21.0445 37.0113 21.055 37.0113 21.0654C37.0113 21.0761 37.0122 21.0869 37.0145 21.0974C37.2586 22.3639 36.4336 23.6262 35.1672 23.8795ZM37.0081 42.2097C37.0103 42.2198 37.0113 42.2303 37.0113 42.2408C37.0113 42.2516 37.0122 42.2621 37.0145 42.2726C37.2586 43.5393 36.4336 44.8016 35.1672 45.055C35.0082 45.0868 34.8492 45.0868 34.6903 45.0868C33.5774 45.0868 32.56 44.3237 32.3374 43.1791C32.0831 41.8755 32.9097 40.6037 34.2133 40.3493C35.5118 40.0959 36.7471 40.915 37.0081 42.2097ZM35.1354 34.5627C34.9764 34.5945 34.8174 34.5945 34.6903 34.5945C33.5456 34.5945 32.56 33.7996 32.3374 32.655C32.0831 31.3831 32.9415 30.1113 34.2451 29.8569C35.5433 29.6036 36.7467 30.4539 37.0081 31.717C37.0103 31.7274 37.0113 31.7382 37.0113 31.7489C37.0113 31.7593 37.0122 31.7698 37.0141 31.7801C37.259 33.0778 36.4021 34.3093 35.1354 34.5627ZM45.7867 23.8795C45.6277 23.9113 45.4687 23.9113 45.3097 23.9113C44.1969 23.9113 43.2113 23.1482 42.9887 22.0036C42.7344 20.7 43.561 19.4282 44.8646 19.1738C46.1313 18.9205 47.398 19.7396 47.6594 21.0342C47.6616 21.0445 47.6626 21.055 47.6626 21.0654C47.6626 21.0761 47.6635 21.0869 47.6657 21.0974C47.9099 22.3639 47.0849 23.6262 45.7867 23.8795ZM47.6594 42.2097C47.6616 42.2198 47.6626 42.2303 47.6626 42.2408C47.6626 42.2516 47.6635 42.2621 47.6657 42.2726C47.9099 43.5393 47.0849 44.8016 45.7867 45.055C45.6277 45.0868 45.4687 45.0868 45.3097 45.0868C44.1969 45.0868 43.2113 44.3237 42.9887 43.1791C42.7344 41.8755 43.561 40.6037 44.8646 40.3493C46.1313 40.0959 47.398 40.915 47.6594 42.2097ZM45.7867 34.5627C45.6277 34.5945 45.4687 34.5945 45.3097 34.5945C44.1969 34.5945 43.2113 33.7996 42.9887 32.655C42.7344 31.3831 43.5928 30.1113 44.8646 29.8569C46.1946 29.6036 47.398 30.4539 47.6594 31.717C47.6616 31.7274 47.6626 31.7382 47.6626 31.7489C47.6626 31.7593 47.6635 31.7698 47.6654 31.7801C47.9102 33.0778 47.0534 34.3093 45.7867 34.5627ZM68.6154 64.2909H68.5518C68.025 64.2909 67.598 63.8636 67.598 63.337V33.3863C67.598 30.0159 64.8318 27.2497 61.4297 27.2497C61.1665 27.2497 60.9528 27.4633 60.9528 27.7266V63.337C60.9528 63.8636 60.5258 64.2909 59.999 64.2909H58.6318C58.105 64.2909 57.678 63.8636 57.678 63.337V17.6477C57.678 15.1677 56.5015 12.942 54.6574 11.5431C54.5303 11.4477 54.4031 11.3523 54.2759 11.2569C53.481 10.6528 52.5272 10.2395 51.5097 10.1123C51.4077 10.0868 51.2853 10.0613 51.1753 10.0522C51.1228 10.0479 51.0703 10.0442 51.0185 10.0359C50.9324 10.022 50.8465 10.01 50.7603 10.0055C50.6049 9.99753 50.4475 9.98507 50.293 9.96679C50.1791 9.95331 50.0656 9.95331 49.9518 9.95331H30.0482C29.663 9.95331 29.3054 9.98091 28.9497 10.0361C28.8978 10.0442 28.8453 10.0476 28.793 10.0525C28.6921 10.0618 28.5912 10.0871 28.4903 10.1123C27.4728 10.2713 26.519 10.6528 25.7241 11.2569C25.5969 11.3523 25.4697 11.4477 25.3426 11.5431C23.4985 12.942 22.3221 15.1677 22.3221 17.6477V63.337C22.3221 63.8636 21.895 64.2909 21.3682 64.2909H20.001C19.4742 64.2909 19.0472 63.8636 19.0472 63.337V27.7266C19.0472 27.4633 18.8336 27.2497 18.5703 27.2497C15.1682 27.2497 12.4021 30.0159 12.4021 33.3863V63.337C12.4021 63.8636 11.975 64.2909 11.4482 64.2909H11.3846C10.081 64.2909 9 65.3719 9 66.6755C9 68.0109 10.081 69.0601 11.3846 69.0601H68.6154C69.919 69.0601 71 68.0109 71 66.6755C71 65.3719 69.919 64.2909 68.6154 64.2909Z" fill="black"/>
</svg>
