<svg width="80" height="80" viewBox="0 0 80 80" fill="none" xmlns="http://www.w3.org/2000/svg">
<path d="M17.3911 17.3793C30.7714 3.99947 53.1103 4.95718 65.1977 20.2467C74.5063 32.0187 74.2001 49.1606 64.5126 60.6142C58.0565 68.2476 48.9742 72.0446 39.9117 72.014L39.9107 72.0129C37.0601 72.0037 24.3392 72.0108 16.8184 72.014L16.8174 72.0129C11.9997 72.0163 9.19934 66.6549 11.8458 62.6944C12.5535 61.6344 13.445 60.3647 14.1457 59.3783C13.1674 57.6804 11.5211 54.784 10.9587 53.4498C5.50663 41.6189 7.61569 27.1513 17.3911 17.3793ZM60.1802 24.2147C50.6467 12.1546 33.1775 11.2228 22.421 21.4097L21.9139 21.9033C14.2144 29.6001 12.4469 40.952 16.581 50.3586L16.783 50.8052L16.8486 50.9562C17.1522 51.7128 18.5853 54.273 19.7181 56.2381C20.9503 58.3743 20.823 61.0176 19.4037 63.0234L19.3995 63.0286C18.8412 63.8142 18.1766 64.759 17.592 65.616C25.173 65.6127 37.1643 65.608 39.9325 65.617C47.189 65.6417 54.4454 62.6119 59.6284 56.4838C67.2351 47.4907 67.5872 34.021 60.5228 24.6572L60.1802 24.2147Z" fill="black"/>
<path d="M53.0461 36.8181C55.2163 36.9283 56.9432 38.7227 56.9432 40.9214C56.9432 43.191 55.1031 45.0297 52.8347 45.0299C50.6352 45.0299 48.8414 43.3022 48.7314 41.1328L48.7262 40.9214L48.7314 40.7101C48.8414 38.5406 50.6352 36.8129 52.8347 36.8129L53.0461 36.8181Z" fill="black"/>
<path d="M40.2336 36.8181C42.4029 36.9283 44.1307 38.7221 44.1307 40.9214C44.1307 43.1917 42.2895 45.0297 40.0222 45.0299C37.8227 45.0299 36.0289 43.3022 35.9189 41.1328L35.9137 40.9214L35.9189 40.7101C36.0289 38.5406 37.8227 36.8129 40.0222 36.8129L40.2336 36.8181Z" fill="black"/>
<path d="M27.4207 36.8181C29.5902 36.9283 31.3178 38.7222 31.3178 40.9214C31.3178 43.1916 29.4769 45.0297 27.2094 45.0299C25.01 45.0299 23.2161 43.3023 23.1061 41.1328L23.1009 40.9214L23.1061 40.7101C23.2161 38.5405 25.01 36.8129 27.2094 36.8129L27.4207 36.8181Z" fill="black"/>
</svg>
