<svg width="80" height="80" viewBox="0 0 80 80" fill="none" xmlns="http://www.w3.org/2000/svg">
<path fill-rule="evenodd" clip-rule="evenodd" d="M67.0769 56.9026C67.0769 63.1713 63.401 67.0769 57.4933 67.0769H36.2913C30.3836 67.0769 26.7405 63.1713 26.7405 56.9026V44.2338H33.1405C38.9826 44.201 43.7087 39.4421 43.7087 33.6328V26.7405H57.4933C63.3354 26.7405 67.0769 30.7118 67.0769 36.9149V56.9026ZM12.9231 43.0851V30.4164H19.3559C25.1979 30.4164 29.9241 25.6574 29.9241 19.8482V12.9231H43.7087C49.1241 12.9231 52.7344 16.3692 53.2267 21.8174H41.6082C39.2779 21.8174 37.0462 22.7692 35.4379 24.4431L24.1805 36.16C22.6379 37.7682 21.8174 39.8687 21.8174 42.0677V53.2595C16.3036 52.9641 12.9231 49.1241 12.9231 43.0851ZM58.1497 21.8503C57.6246 13.6451 51.8482 8 43.7087 8H27.7908C25.5262 8 23.2944 8.95179 21.6205 10.6585L10.3631 22.3754C8.85333 23.9836 8 26.1497 8 28.2831V43.0851C8 51.9138 13.5467 57.92 21.8831 58.1826C22.4082 66.3877 28.1846 72 36.2913 72H57.4933C66.0267 72 72 65.7969 72 56.9026V36.9149C72 28.2503 66.3221 22.1456 58.1497 21.8503Z" fill="black"/>
</svg>
