<svg width="80" height="80" viewBox="0 0 80 80" fill="none" xmlns="http://www.w3.org/2000/svg">
<path fill-rule="evenodd" clip-rule="evenodd" d="M44.2427 40.0006L60.1217 24.1218C61.2947 22.9488 61.2947 21.0528 60.1217 19.8798C58.9487 18.7067 57.0527 18.7067 55.8797 19.8798L40.0007 35.7586L24.1217 19.8798C22.9487 18.7067 21.0528 18.7067 19.8798 19.8798C18.7067 21.0528 18.7067 22.9488 19.8798 24.1218L35.7587 40.0006L19.8798 55.8799C18.7067 57.0526 18.7067 58.9486 19.8798 60.1216C20.4648 60.7066 21.2327 61.0006 22.0007 61.0006C22.7687 61.0006 23.5367 60.7066 24.1217 60.1216L40.0007 44.2429L55.8797 60.1216C56.4647 60.7066 57.2327 61.0006 58.0007 61.0006C58.7687 61.0006 59.5367 60.7066 60.1217 60.1216C61.2947 58.9486 61.2947 57.0526 60.1217 55.8799L44.2427 40.0006Z" fill="black"/>
</svg>
