<svg width="80" height="80" viewBox="0 0 80 80" fill="none" xmlns="http://www.w3.org/2000/svg">
<path fill-rule="evenodd" clip-rule="evenodd" d="M46.8023 66.438H34.1943L35.6528 57.451H45.3404L46.8023 66.438ZM57.2444 8.55841H23.7522C15.3413 8.55841 8.5 15.403 8.5 23.8174V42.1955C8.5 50.6064 15.3413 57.451 23.7522 57.451H30.5362L29.0743 66.438H23.8432C22.4486 66.438 21.3168 67.5698 21.3168 68.9643C21.3168 70.3588 22.4486 71.4906 23.8432 71.4906H57.1501C58.5446 71.4906 59.6764 70.3588 59.6764 68.9643C59.6764 67.5698 58.5446 66.438 57.1501 66.438H51.9223L50.4571 57.451H57.2444C65.6554 57.451 72.5 50.6064 72.5 42.1955V23.8174C72.5 15.403 65.6554 8.55841 57.2444 8.55841Z" fill="black"/>
</svg>
