<svg width="80" height="80" viewBox="0 0 80 80" fill="none" xmlns="http://www.w3.org/2000/svg">
<path d="M7.99994 47.7835V26.5647C7.99994 18.1226 14.8436 11.2789 23.2857 11.2789H40.5065C42.2743 11.2789 43.7074 12.7121 43.7074 14.4799C43.7074 16.2477 42.2743 17.6808 40.5065 17.6808H23.2857C18.3793 17.6808 14.4018 21.6583 14.4018 26.5647V47.7835C14.4021 52.6908 18.3805 56.6705 23.2857 56.6705H26.5648C29.1675 56.6706 31.6631 57.6995 33.5075 59.5433L37.8744 63.9102C38.3932 64.4292 39.2351 64.4289 39.7531 63.9102L44.12 59.5433C45.965 57.6989 48.464 56.6706 51.0627 56.6705H54.3418C59.2471 56.6705 63.2254 52.6907 63.2257 47.7835V37.5899C63.2257 35.822 64.6588 34.3889 66.4266 34.3889C68.1945 34.3889 69.6276 35.822 69.6276 37.5899V47.7835C69.6273 56.2244 62.7847 63.0724 54.3418 63.0724H51.0627C50.1556 63.0725 49.2863 63.4302 48.6464 64.0696L44.2826 68.4334L44.2794 68.4303C41.2598 71.4542 36.3609 71.4579 33.3418 68.4334L28.9812 64.0696C28.3406 63.4296 27.4741 63.0725 26.5648 63.0724H23.2857C14.8427 63.0724 8.00025 56.2244 7.99994 47.7835Z" fill="black"/>
<path d="M54.7295 9.40028C56.6345 8.79082 58.6656 8.88791 60.4781 9.61909C62.2822 8.89702 64.2973 8.80348 66.1891 9.39403L66.2204 9.4034C71.4479 11.0918 72.8492 16.5997 71.5407 20.7099L71.5439 20.713C70.516 23.9794 67.8818 26.5426 65.9516 28.1121C64.9274 28.9448 63.9604 29.6064 63.2508 30.0627C62.894 30.292 62.5983 30.4745 62.3849 30.6003C62.2782 30.6632 62.1913 30.7116 62.1286 30.7472C62.0977 30.7648 62.0728 30.7803 62.0535 30.791C62.0443 30.7962 62.0349 30.8 62.0285 30.8035C62.0253 30.8053 62.0216 30.8084 62.0192 30.8098C61.1833 31.268 60.1875 31.3291 59.3121 30.9879L58.9432 30.816L58.937 30.8129C58.9346 30.8116 58.9306 30.8114 58.9276 30.8098C58.9212 30.8063 58.9149 30.7992 58.9057 30.7941C58.8863 30.7834 58.8589 30.7712 58.8276 30.7535C58.7649 30.7181 58.6778 30.669 58.5713 30.6066C58.3586 30.4818 58.0636 30.3025 57.7085 30.0752C57.0012 29.6223 56.0396 28.9614 55.0171 28.1308C53.0834 26.5602 50.4624 24.0063 49.4092 20.7318V20.7255C48.0999 16.627 49.4746 11.0967 54.7232 9.4034L54.7295 9.40028ZM58.5556 15.8147C58.0178 15.4115 57.3206 15.2927 56.6832 15.4958C56.1147 15.6807 55.7522 16.0478 55.536 16.5774C55.2981 17.161 55.2474 17.963 55.5078 18.7781C55.9733 20.2171 57.3597 21.7886 59.0527 23.1637C59.551 23.5685 60.0387 23.9199 60.4687 24.2172C60.9064 23.9142 61.4052 23.5577 61.9129 23.145C63.6243 21.7534 64.9997 20.1864 65.4389 18.7906L65.442 18.7749C65.7015 17.9656 65.6527 17.1677 65.4139 16.5837C65.1967 16.053 64.8301 15.6851 64.2636 15.499C63.6143 15.3025 62.9177 15.4231 62.3818 15.8209C61.2449 16.6651 59.689 16.6633 58.5556 15.8147Z" fill="black"/>
<path d="M47.9398 33.5979C50.2087 33.5979 52.0529 35.4368 52.0535 37.7085C52.0535 39.9818 50.2083 41.8223 47.9398 41.8223C45.6692 41.8217 43.8292 39.9792 43.8292 37.7085C43.8297 35.4394 45.6688 33.5985 47.9398 33.5979Z" fill="black"/>
<path d="M29.6845 33.5979C31.9536 33.5979 33.7977 35.437 33.7982 37.7085C33.7982 39.9816 31.9532 41.8223 29.6845 41.8223C27.4135 41.8218 25.5739 39.9787 25.5739 37.7085C25.5745 35.4399 27.4131 33.5984 29.6845 33.5979Z" fill="black"/>
</svg>
