<svg width="80" height="80" viewBox="0 0 80 80" fill="none" xmlns="http://www.w3.org/2000/svg">
<path d="M11 42.5442V21.1217C11 17.5524 12.1225 14.2462 14.3932 11.802C16.6874 9.3326 19.9188 8 23.602 8H40.1991C43.4428 8 46.3448 9.02347 48.5709 10.9791C50.787 12.9261 52.1336 15.6208 52.5983 18.6238C52.8685 20.3702 51.6747 22.005 49.9318 22.2758C48.2433 22.538 46.6591 21.4241 46.3161 19.7665L46.2869 19.604L46.2318 19.2873C45.9303 17.7272 45.2451 16.5688 44.3606 15.7915C43.427 14.9713 42.0721 14.3999 40.1991 14.3999H23.602C21.507 14.3999 20.0335 15.1234 19.0683 16.1624C18.0796 17.2266 17.3873 18.8818 17.3873 21.1217V42.5442C17.3873 44.5848 17.9652 46.1425 18.8115 47.1983C19.5857 48.164 20.7093 48.8713 22.2432 49.1295L22.5551 49.1754L22.7173 49.2004C24.3815 49.4934 25.5411 51.046 25.3308 52.7451C25.1205 54.4442 23.6175 55.6661 21.9324 55.543L21.7692 55.5274L21.1641 55.4378C18.1721 54.9286 15.6327 53.4521 13.8319 51.2055C11.9314 48.8348 11 45.7954 11 42.5442Z" fill="black"/>
<path d="M62.6127 37.4693C62.6127 35.2264 61.9241 33.5765 60.9411 32.5184C59.982 31.4861 58.5107 30.7621 56.3991 30.7621H39.8072C37.7076 30.7621 36.2339 31.4849 35.2704 32.5204C34.2838 33.5807 33.5925 35.231 33.5925 37.4693V58.8929C33.5925 61.1359 34.282 62.7857 35.2652 63.8439C36.2243 64.8761 37.6956 65.6001 39.8072 65.6001H56.396C58.5095 65.6001 59.9808 64.875 60.94 63.8428C61.9232 62.7848 62.6127 61.1359 62.6127 58.8929V37.4693ZM69 58.8929C69 62.4561 67.8862 65.7602 65.6151 68.2042C63.3198 70.6741 60.0859 72 56.396 72H39.8072C36.1182 72 32.8849 70.6741 30.5901 68.2042C28.3195 65.7603 27.2052 62.4562 27.2052 58.8929V37.4693C27.2053 33.9015 28.3275 30.5976 30.5995 28.1559C32.8946 25.6896 36.1258 24.3622 39.8072 24.3622H56.3991C60.088 24.3622 63.3214 25.6881 65.6161 28.158C67.8866 30.6019 68.9999 33.9062 69 37.4693V58.8929Z" fill="black"/>
</svg>
