<svg width="80" height="80" viewBox="0 0 80 80" fill="none" xmlns="http://www.w3.org/2000/svg">
<path d="M53.9482 10.4102C57.2098 10.4104 59.4908 13.636 58.4043 16.7109C58.3833 16.7704 58.3597 16.8296 58.335 16.8877L52.5478 30.4707H64.6797C68.7414 30.4709 70.9107 35.2565 68.2344 38.3115L41.5322 68.79C38.2375 72.5505 32.1234 69.2882 33.4111 64.458L35.956 54.9131L37.4658 49.1025L37.5078 48.9541C37.9841 47.4401 39.5696 46.5497 41.123 46.9531C42.7267 47.3697 43.6891 49.0077 43.2725 50.6113L41.7578 56.4404C41.7562 56.4466 41.7546 56.4528 41.7529 56.459L40.6133 60.7324L61.8701 36.4707H50.6162C47.3545 36.4706 45.0735 33.2449 46.1601 30.1699C46.1811 30.1106 46.2039 30.052 46.2285 29.9941L52.0166 16.4102H39.9101L34.6553 29.2334C34.027 30.7665 32.2743 31.5004 30.7412 30.8721C29.2081 30.2438 28.4742 28.4911 29.1025 26.958L34.6582 13.4043L34.6592 13.4053C35.369 11.6019 37.1096 10.4102 39.0547 10.4102H53.9482Z" fill="black"/>
<path d="M30.6055 24.6484C33.4069 24.6484 35.366 27.4194 34.4326 30.0605C34.4116 30.1198 34.3889 30.1785 34.3643 30.2363L31.5 36.958H37.1904C40.5709 36.958 42.4245 40.8161 40.4473 43.4424L40.2441 43.6924L23.8584 62.3945C21.0295 65.6235 15.7764 62.8237 16.8828 58.6738L19.3555 49.4014H14.6494C11.8281 49.4014 9.86591 46.5938 10.8379 43.9443L10.8789 43.8398L17.6963 27.2051L17.6973 27.2061C18.3105 25.6659 19.8013 24.6484 21.4668 24.6484H30.6055ZM17.543 43.4014H21.8818C24.5488 43.4014 26.4919 45.9299 25.8047 48.5068L24.8213 52.1895L32.9111 42.958H28.5615C25.7601 42.958 23.8007 40.1872 24.7344 37.5459L24.8027 37.3701L27.667 30.6484H22.7695L17.543 43.4014Z" fill="black"/>
</svg>
