<svg width="80" height="80" viewBox="0 0 80 80" fill="none" xmlns="http://www.w3.org/2000/svg">
<path d="M27.8724 58.6945C27.8724 55.704 25.4462 53.2779 22.4558 53.2779C19.4657 53.2781 17.0405 55.7041 17.0405 58.6945C17.0406 61.6844 19.4656 64.1096 22.4558 64.1098C25.4462 64.1098 27.8723 61.6845 27.8724 58.6945ZM27.8724 21.3054C27.8722 18.3152 25.4461 15.8901 22.4558 15.8901C19.4657 15.8903 17.0407 18.3153 17.0405 21.3054C17.0405 24.2957 19.4656 26.7218 22.4558 26.722C25.4463 26.722 27.8724 24.2958 27.8724 21.3054ZM35.9091 58.6945C35.909 66.1231 29.8846 72.1465 22.4558 72.1465C15.0272 72.1463 9.00402 66.1229 9.00392 58.6945C9.00392 51.2658 15.027 45.2415 22.4558 45.2413C29.8848 45.2413 35.9091 51.2656 35.9091 58.6945ZM35.9091 21.3054C35.9091 28.7344 29.8847 34.7587 22.4558 34.7587C15.0271 34.7585 9.00392 28.7342 9.00392 21.3054C9.00413 13.8768 15.0272 7.85372 22.4558 7.85352C29.8846 7.85352 35.9089 13.8767 35.9091 21.3054Z" fill="black"/>
<path opacity="0.4" d="M66.4087 13.4349C68.0389 12.0703 70.4709 12.2089 71.9326 13.7855C73.4414 15.4129 73.3442 17.9562 71.7168 19.465L49.5716 39.9961L71.7168 60.5284L71.8659 60.6723C73.3493 62.1947 73.394 64.6302 71.9326 66.2066C70.4238 67.834 67.8805 67.93 66.2531 66.4212L43.6619 45.4754L32.55 55.7789C30.9226 57.2877 28.3793 57.1918 26.8705 55.5644C25.3617 53.937 25.4576 51.3937 27.085 49.8849L37.7508 39.9961L27.085 30.1072L26.9372 29.9621C25.4538 28.4396 25.4089 26.0042 26.8705 24.4277C28.3323 22.8512 30.7643 22.7124 32.3944 24.0772L32.55 24.2132L43.6606 34.5154L66.2531 13.571L66.4087 13.4349Z" fill="black"/>
</svg>
