<svg width="80" height="80" viewBox="0 0 80 80" fill="none" xmlns="http://www.w3.org/2000/svg">
<path fill-rule="evenodd" clip-rule="evenodd" d="M15.3131 42.5744C16.6749 44.0144 18.3397 44.9169 20.0762 45.6727C22.6272 46.7804 25.2825 47.4744 27.9801 47.9956C30.6157 48.5071 33.2742 48.8199 35.9425 48.9665C41.1031 49.25 46.241 49.0186 51.3462 48.0999C54.451 47.5395 57.5005 46.7478 60.4033 45.3925C61.9541 44.6693 63.4333 43.8059 64.6322 42.4734C65.4695 41.5449 65.9158 40.4632 65.9028 39.1242C65.8774 36.1777 65.8738 30.7443 65.8686 28.4269C65.8676 27.9339 65.3551 27.6505 64.9345 27.9081C64.6925 28.0566 64.4536 28.2001 64.2119 28.337C59.9994 30.7219 55.4415 31.8165 50.7923 32.5235C48.6258 32.8526 46.4397 33.0481 44.2569 33.2012C40.0313 33.5009 35.809 33.3608 31.5964 32.8819C28.5502 32.5366 25.5333 31.9827 22.5621 31.1421C20.2131 30.4743 17.9162 29.6467 15.7627 28.4087C15.4917 28.2519 15.2229 28.0894 14.9469 27.9206C14.5139 27.6557 13.9627 27.9641 13.9639 28.4717C13.9694 30.8227 13.9784 36.1686 13.948 39.0525C13.9317 40.4763 14.4041 41.6133 15.3131 42.5744Z" fill="black"/>
<path fill-rule="evenodd" clip-rule="evenodd" d="M65.8911 49.2815C65.8914 49.0596 65.6536 48.9394 65.4588 49.0453C64.237 49.7067 63.0446 50.4527 61.7838 51.0131C57.3171 52.9939 52.6191 53.916 47.8462 54.46C44.9499 54.7858 42.0438 54.8933 39.1344 54.8738C36.2869 54.8543 33.446 54.7109 30.6278 54.2874C28.23 53.929 25.8419 53.4631 23.4733 52.9092C20.7041 52.2609 18.026 51.2868 15.5206 49.8044C15.3316 49.693 15.144 49.5796 14.9528 49.4626C14.5188 49.1968 13.9659 49.5043 13.9677 50.0132C13.9759 52.3492 13.9893 57.6196 13.9438 60.4645C13.9145 62.1684 14.5563 63.4292 15.69 64.4848C17.0063 65.7098 18.5342 66.5276 20.1307 67.2052C22.9716 68.4107 25.9266 69.1372 28.9304 69.6519C31.7811 70.1439 34.6514 70.4176 37.5347 70.5055C42.4999 70.6619 47.439 70.372 52.3324 69.3946C55.1473 68.8309 57.9068 68.0783 60.5393 66.8273C62.0379 66.1138 63.4649 65.2667 64.6247 63.9766C65.4718 63.035 65.9149 61.9403 65.9051 60.5883C65.8771 57.3639 65.8875 51.1102 65.8911 49.2815Z" fill="black"/>
<path fill-rule="evenodd" clip-rule="evenodd" d="M15.6356 21.4448C17.1277 22.8718 18.9033 23.7579 20.7441 24.4975C24.0639 25.83 27.5141 26.5598 31.0132 27.0322C33.965 27.4297 36.933 27.6317 39.3276 27.5958C44.9118 27.6023 49.8639 27.1332 54.7378 25.9017C57.1683 25.2892 59.5433 24.491 61.7653 23.2301C62.987 22.5395 64.1273 21.7282 65.0102 20.5488C66.1765 18.985 66.1961 17.1638 65.0069 15.6228C64.6029 15.095 64.1305 14.6063 63.6256 14.1925C61.7327 12.645 59.5531 11.7458 57.3149 11.003C53.3271 9.68351 49.2286 9.03192 45.0845 8.7387C39.4286 8.33471 33.7956 8.53997 28.1983 9.58252C25.1586 10.1461 22.1776 10.9378 19.3399 12.2769C17.8249 12.9903 16.3816 13.8407 15.2218 15.1504C14.2574 16.2385 13.6906 17.4798 14.0978 19.0339C14.3552 20.0243 14.9416 20.7834 15.6356 21.4448Z" fill="black"/>
</svg>
