<svg width="80" height="80" viewBox="0 0 80 80" fill="none" xmlns="http://www.w3.org/2000/svg">
<g clip-path="url(#clip0_5_279)">
<path d="M75.2439 17.446C74.4818 17.074 74.1518 17.785 73.7079 18.148C73.5548 18.265 73.4259 18.418 73.2969 18.556C72.1809 19.747 70.8789 20.527 69.1778 20.434C66.6908 20.296 64.5668 21.076 62.6889 22.978C62.2899 20.632 60.9639 19.234 58.9479 18.334C57.8918 17.866 56.8239 17.401 56.0829 16.384C55.5669 15.661 55.4258 14.854 55.1679 14.062C55.0028 13.582 54.8379 13.093 54.2889 13.012C53.6889 12.919 53.4548 13.42 53.2208 13.84C52.2818 15.556 51.9188 17.446 51.9548 19.36C52.0358 23.668 53.8539 27.1 57.4688 29.539C57.8799 29.818 57.9849 30.1 57.8559 30.508C57.6099 31.348 57.3159 32.164 57.0579 33.007C56.8929 33.544 56.6469 33.658 56.0709 33.427C54.1246 32.5906 52.3567 31.3889 50.8629 29.887C48.2919 27.403 45.9698 24.661 43.0718 22.513C42.4004 22.0169 41.7109 21.5455 41.0048 21.1C38.0498 18.229 41.3948 15.871 42.1688 15.592C42.9788 15.298 42.4478 14.296 39.8318 14.308C37.2159 14.32 34.8218 15.193 31.7708 16.36C31.3175 16.5337 30.851 16.6712 30.3758 16.771C27.5247 16.2338 24.6088 16.1306 21.7268 16.465C16.0718 17.095 11.5568 19.771 8.23585 24.334C4.24585 29.818 3.30685 36.052 4.45585 42.55C5.66485 49.402 9.16285 55.075 14.5358 59.509C20.1098 64.108 26.5268 66.361 33.8498 65.929C38.2958 65.674 43.2488 65.077 48.8318 60.349C50.2418 61.051 51.7179 61.33 54.1719 61.54C56.0619 61.717 57.8799 61.45 59.2869 61.156C61.4919 60.688 61.3388 58.645 60.5438 58.273C54.0788 55.261 55.4979 56.488 54.2049 55.495C57.4929 51.607 62.4429 47.569 64.3809 34.486C64.5309 33.445 64.4019 32.791 64.3809 31.951C64.3689 31.441 64.4859 31.24 65.0709 31.183C66.694 31.0146 68.2685 30.5305 69.7059 29.758C73.8939 27.469 75.5859 23.713 75.9849 19.207C76.0449 18.517 75.9728 17.809 75.2439 17.446ZM38.7429 58C32.4758 53.074 29.4368 51.451 28.1828 51.52C27.0068 51.592 27.2198 52.933 27.4778 53.809C27.7478 54.673 28.0988 55.267 28.5908 56.026C28.9328 56.527 29.1668 57.274 28.2518 57.835C26.2328 59.083 22.7258 57.415 22.5608 57.334C18.4778 54.928 15.0608 51.754 12.6578 47.413C10.3358 43.234 8.98585 38.752 8.76385 33.967C8.70385 32.809 9.04285 32.401 10.1948 32.191C11.7072 31.9016 13.2567 31.8621 14.7818 32.074C21.1778 33.01 26.6199 35.869 31.1858 40.396C33.7898 42.976 35.7608 46.057 37.7918 49.069C39.9518 52.267 42.2738 55.315 45.2318 57.811C46.2758 58.687 47.1068 59.353 47.9049 59.842C45.4988 60.112 41.4848 60.172 38.7429 58ZM41.7429 38.68C41.7423 38.531 41.7781 38.3841 41.8471 38.252C41.916 38.1198 42.0161 38.0065 42.1387 37.9217C42.2613 37.837 42.4026 37.7833 42.5506 37.7654C42.6985 37.7475 42.8486 37.7659 42.9879 37.819C43.1653 37.8827 43.3185 38.0001 43.4261 38.155C43.5336 38.3099 43.5902 38.4945 43.5878 38.683C43.5883 38.8048 43.5644 38.9255 43.5177 39.038C43.471 39.1505 43.4024 39.2526 43.3158 39.3384C43.2293 39.4241 43.1265 39.4917 43.0135 39.5373C42.9006 39.5829 42.7797 39.6056 42.6578 39.604C42.5369 39.6044 42.4172 39.5807 42.3056 39.5343C42.1939 39.4878 42.0927 39.4196 42.0078 39.3335C41.9229 39.2475 41.8559 39.1454 41.811 39.0332C41.766 38.9209 41.7409 38.8009 41.7429 38.68ZM51.0728 43.468C50.4728 43.711 49.8758 43.921 49.3028 43.948C48.4408 43.9781 47.5949 43.7088 46.9089 43.186C46.0868 42.496 45.4988 42.112 45.2528 40.912C45.168 40.3256 45.1843 39.7289 45.3008 39.148C45.5108 38.167 45.2768 37.537 44.5838 36.967C44.0228 36.499 43.3058 36.37 42.5198 36.37C42.2507 36.3544 41.9893 36.2741 41.7579 36.136C41.4278 35.974 41.1578 35.566 41.4158 35.062C41.4998 34.9 41.8958 34.504 41.9918 34.432C43.0598 33.826 44.2929 34.024 45.4298 34.48C46.4859 34.912 47.2838 35.704 48.4328 36.826C49.6058 38.179 49.8188 38.554 50.4879 39.568C51.0159 40.363 51.4958 41.179 51.8228 42.112C52.0238 42.697 51.7659 43.174 51.0728 43.468Z" fill="#4D6BFE"/>
</g>
<defs>
<clipPath id="clip0_5_279">
<rect width="72" height="72" fill="white" transform="translate(4 4)"/>
</clipPath>
</defs>
</svg>
