<svg width="80" height="80" viewBox="0 0 80 80" fill="none" xmlns="http://www.w3.org/2000/svg">
<path d="M61.5879 24.4258C61.5878 23.5963 60.914 22.9237 60.083 22.9237H51.6213C50.3678 22.9237 49.2288 22.1944 48.7064 21.0571L46.0837 15.3468L46.0305 15.2405C45.7463 14.7245 45.2015 14.3999 44.606 14.3999H34.394C33.7587 14.4 33.182 14.7697 32.9173 15.3457L30.2936 21.0571C29.7712 22.1944 28.6322 22.9237 27.3787 22.9237H18.917C18.0859 22.9238 17.4122 23.5963 17.4121 24.4258V27.9132L17.4162 27.9184C17.4184 27.9206 17.4215 27.9226 17.4215 27.9226H61.5796C61.5796 27.9226 61.582 27.9202 61.5838 27.9184C61.5862 27.9159 61.5879 27.9132 61.5879 27.9132V24.4258ZM68 27.908C68 31.4507 65.1228 34.3225 61.5733 34.3225H17.4267C13.8773 34.3223 11 31.4507 11 27.908V24.4258C11.0001 20.0617 14.5446 16.5239 18.917 16.5238H25.3217L27.0876 12.6791C28.397 9.82778 31.2518 8.00009 34.394 8H44.606C47.6504 8 50.424 9.7156 51.7851 12.4145L51.9124 12.6791L53.6782 16.5238H60.083C64.4553 16.5238 67.9999 20.0617 68 24.4258V27.908Z" fill="black"/>
<path d="M15.9374 59.1554V31.3621C15.9374 29.5948 17.3728 28.1622 19.1435 28.1622C20.9141 28.1622 22.3495 29.5948 22.3495 31.3621V59.1554C22.3495 62.7526 25.2243 65.6001 28.6864 65.6001H50.3167C53.7789 65.6001 56.6536 62.7525 56.6536 59.1554V31.3621C56.6536 29.595 58.0892 28.1624 59.8597 28.1622C61.6303 28.1622 63.0657 29.5948 63.0657 31.3621V59.1554C63.0657 66.2116 57.3954 72 50.3167 72H28.6864C21.6077 72 15.9374 66.2115 15.9374 59.1554Z" fill="black"/>
<path d="M30.875 57.0387V42.6119C30.875 40.8446 32.3104 39.4119 34.081 39.4119C35.8517 39.4119 37.2871 40.8446 37.2871 42.6119V57.0387C37.287 58.8059 35.8516 60.2387 34.081 60.2387C32.3105 60.2387 30.8751 58.8059 30.875 57.0387ZM41.7131 57.0387V42.6119C41.7131 40.8446 43.1485 39.4119 44.9192 39.4119C46.6896 39.4121 48.1252 40.8447 48.1252 42.6119V57.0387C48.1251 58.8058 46.6895 60.2384 44.9192 60.2387C43.1486 60.2387 41.7132 58.8059 41.7131 57.0387Z" fill="black"/>
</svg>
