<svg width="80" height="80" viewBox="0 0 80 80" fill="none" xmlns="http://www.w3.org/2000/svg">
<path fill-rule="evenodd" clip-rule="evenodd" d="M33.4037 32.493L39.29 30.5509C39.7637 30.393 40.2784 30.3898 40.7647 30.5477L46.6005 32.4424L46.5582 10.9629C46.5573 10.4395 46.1319 10.0161 45.6086 10.0173L34.3245 10.0444C33.8019 10.0456 33.379 10.4701 33.3797 10.9928L33.4037 32.493Z" fill="black"/>
<path fill-rule="evenodd" clip-rule="evenodd" d="M69.9337 27.3968C69.9211 22.2179 68.1843 17.6484 65.0453 14.5253C62.0674 11.5632 58.0064 10 53.3011 10H53.2285L52.2419 10.0032C51.7193 10.0049 51.2968 10.4296 51.2977 10.9523L51.3432 35.6989C51.3432 36.46 50.9832 37.1737 50.3674 37.6189C49.7548 38.0642 48.9653 38.1905 48.2421 37.9568L40.0379 35.2916L31.78 38.0168C31.5369 38.0989 31.2874 38.1368 31.0379 38.1368C30.5453 38.1368 30.0622 37.9853 29.6517 37.6884C29.0359 37.2432 28.6727 36.5295 28.6695 35.7716L28.6422 11.0061C28.6416 10.4822 28.2158 10.0582 27.6918 10.0598L26.6232 10.0632C16.6569 10.0979 9.97481 17.1179 10.0001 27.5295L10.0569 52.6032C10.0695 57.6242 11.6264 61.9379 14.5632 65.0832C17.5727 68.3011 21.7664 70 26.6927 70H26.7622L53.3674 69.9368C63.3337 69.9021 70.0127 62.8853 69.9937 52.4705L69.9337 27.3968Z" fill="black"/>
</svg>
