<svg width="80" height="80" viewBox="0 0 80 80" fill="none" xmlns="http://www.w3.org/2000/svg">
<path fill-rule="evenodd" clip-rule="evenodd" d="M33.4036 32.493L39.2899 30.5509C39.7636 30.393 40.2783 30.3898 40.7646 30.5477L46.6004 32.4424L46.5581 10.9629C46.5571 10.4395 46.1318 10.0161 45.6085 10.0173L34.3244 10.0444C33.8018 10.0456 33.3789 10.4701 33.3796 10.9928L33.4036 32.493Z" fill="black"/>
<path fill-rule="evenodd" clip-rule="evenodd" d="M69.9336 27.3968C69.921 22.2179 68.1841 17.6484 65.0452 14.5253C62.0673 11.5632 58.0062 10 53.301 10H53.2283L52.2418 10.0032C51.7192 10.0049 51.2966 10.4296 51.2976 10.9523L51.3431 35.6989C51.3431 36.46 50.9831 37.1737 50.3673 37.6189C49.7547 38.0642 48.9652 38.1905 48.242 37.9568L40.0378 35.2916L31.7799 38.0168C31.5368 38.0989 31.2873 38.1368 31.0378 38.1368C30.5452 38.1368 30.0621 37.9853 29.6515 37.6884C29.0357 37.2432 28.6726 36.5295 28.6694 35.7716L28.642 11.0061C28.6415 10.4822 28.2157 10.0582 27.6917 10.0598L26.6231 10.0632C16.6568 10.0979 9.97469 17.1179 9.99995 27.5295L10.0568 52.6032C10.0694 57.6242 11.6263 61.9379 14.5631 65.0832C17.5726 68.3011 21.7663 70 26.6926 70H26.7621L53.3673 69.9368C63.3336 69.9021 70.0126 62.8853 69.9936 52.4705L69.9336 27.3968Z" fill="black"/>
</svg>
