<svg width="80" height="80" viewBox="0 0 80 80" fill="none" xmlns="http://www.w3.org/2000/svg">
<path fill-rule="evenodd" clip-rule="evenodd" d="M46.5823 53.4663H29.2006C27.8418 53.4663 26.739 52.3635 26.739 51.0047C26.739 49.646 27.8418 48.5432 29.2006 48.5432H46.5823C47.941 48.5432 49.0438 49.646 49.0438 51.0047C49.0438 52.3635 47.941 53.4663 46.5823 53.4663ZM29.1973 36.4619H39.9985C41.3572 36.4619 42.46 37.5647 42.46 38.9235C42.46 40.2823 41.3572 41.385 39.9985 41.385H29.1973C27.8385 41.385 26.7358 40.2823 26.7358 38.9235C26.7358 37.5647 27.8385 36.4619 29.1973 36.4619ZM65.7724 30.4624H56.0477C50.2483 30.4328 45.4631 25.6312 45.4631 19.776V9.47036C45.4631 8.67282 44.8296 8 44.0058 8H27.0869C19.2002 8 12.8002 14.4952 12.8002 22.4312V56.9288C12.8002 65.2488 19.5153 72 27.7532 72H52.9429C60.8296 72 67.2001 65.5672 67.2001 57.6312V31.9032C67.2001 31.1024 66.5667 30.4624 65.7724 30.4624Z" fill="black"/>
<path fill-rule="evenodd" clip-rule="evenodd" d="M56.4685 25.7892C58.6773 25.8122 61.746 25.8221 64.352 25.8122C65.6845 25.8089 66.3639 24.1975 65.4383 23.2292C63.7677 21.4766 61.4408 19.0282 59.1007 16.5732C56.754 14.1084 54.3975 11.6305 52.681 9.83191C51.7358 8.83417 50.0783 9.52012 50.0783 10.8986V19.3335C50.0783 22.8748 52.9632 25.7892 56.4685 25.7892Z" fill="black"/>
</svg>
