<svg width="80" height="80" viewBox="0 0 80 80" fill="none" xmlns="http://www.w3.org/2000/svg">
<path d="M60.813 34.5531V30.3938C60.8127 29.5298 60.4797 28.696 59.8786 28.0688L47.7443 15.4313C47.1143 14.7745 46.2386 14.4 45.3224 14.4H27.2224C22.4372 14.38 18.5177 18.1944 18.4036 22.9781V56.5938C18.2991 61.4603 22.1559 65.4896 27.0193 65.5969C27.513 65.597 26.456 65.5961 29.388 65.5969C30.983 65.5973 32.576 65.5997 33.7693 65.6H35.7568L36.0849 65.6156C37.6981 65.78 38.9568 67.1436 38.9568 68.8C38.9563 70.4573 37.696 71.8215 36.0818 71.9844L35.7568 72H33.7693C32.5761 71.9997 30.9829 71.9973 29.388 71.9969H26.8755C18.4764 71.8109 11.8223 64.8489 12.0036 56.4531V22.825C12.2008 14.5614 18.9714 7.97445 27.238 8.00313L45.3224 8C47.9735 8 50.5177 9.07749 52.3599 10.9969L64.4942 23.6375C66.2393 25.4567 67.2127 27.8779 67.213 30.3938V34.5531C67.213 36.3204 65.7803 37.7531 64.013 37.7531C62.2461 37.7527 60.813 36.3202 60.813 34.5531Z" fill="black"/>
<path d="M43.6692 11.4C43.6692 9.63268 45.1019 8.19999 46.8692 8.19999C48.6365 8.19999 50.0692 9.63268 50.0692 11.4V20.6594C50.0676 23.409 52.2964 25.6412 55.0505 25.6469H63.8067C65.5736 25.6469 67.0061 27.0801 67.0067 28.8469C67.0067 30.6142 65.574 32.0469 63.8067 32.0469H55.0348C48.754 32.0334 43.6648 26.9382 43.6692 20.6531V11.4Z" fill="black"/>
<path d="M44.0974 43.55L44.4255 43.5656C46.0388 43.7298 47.2974 45.0934 47.2974 46.75C47.2966 48.4059 46.0383 49.7671 44.4255 49.9312L44.0974 49.95H28.9661C27.1993 49.95 25.767 48.5166 25.7661 46.75C25.7661 44.9827 27.1988 43.55 28.9661 43.55H44.0974ZM36.863 30.3375L37.188 30.3531C38.8022 30.5165 40.063 31.8803 40.063 33.5375C40.063 35.1947 38.8022 36.5585 37.188 36.7219L36.863 36.7375H28.963C27.1957 36.7375 25.763 35.3048 25.763 33.5375C25.763 31.7702 27.1957 30.3375 28.963 30.3375H36.863Z" fill="black"/>
<path d="M53.976 45.1775C55.7931 42.0303 59.819 40.9505 62.9667 42.7681L65.4604 44.2088C68.6068 46.0262 69.6844 50.0517 67.8667 53.1994L60.0979 66.6556C58.9643 68.6193 57.1544 70.1048 55.0073 70.8338L52.9323 71.54C49.6943 72.6397 46.2275 70.6361 45.5604 67.2838L45.1323 65.1306C44.6909 62.9079 45.0739 60.6004 46.2073 58.6369L53.976 45.1775ZM59.7667 48.3119C59.6807 48.2623 59.5698 48.2915 59.5198 48.3775L51.7479 61.8369C51.3913 62.4555 51.2713 63.183 51.4104 63.8838L51.6729 65.2056L52.951 64.7744C53.6276 64.5447 54.1966 64.0749 54.5542 63.4556L62.326 49.9994C62.3754 49.914 62.3461 49.8032 62.2604 49.7525L59.7667 48.3119Z" fill="black"/>
</svg>
