<svg width="80" height="80" viewBox="0 0 80 80" fill="none" xmlns="http://www.w3.org/2000/svg">
<path fill-rule="evenodd" clip-rule="evenodd" d="M56.6703 25.7892C58.8791 25.8122 61.9478 25.8221 64.5537 25.8122C65.8863 25.8089 66.5656 24.1975 65.6401 23.2292C63.9695 21.4766 61.6426 19.0282 59.3025 16.5732C56.9558 14.1084 54.5993 11.6305 52.8828 9.83191C51.9375 8.83417 50.2801 9.52012 50.2801 10.8986V19.3335C50.2801 22.8748 53.165 25.7892 56.6703 25.7892Z" fill="black"/>
<path fill-rule="evenodd" clip-rule="evenodd" d="M49.585 45.9438H27.5034C26.1446 45.9438 25.0418 44.841 25.0418 43.4823C25.0418 42.1235 26.1446 41.0207 27.5034 41.0207H49.585C50.9437 41.0207 52.0465 42.1235 52.0465 43.4823C52.0465 44.841 50.9437 45.9438 49.585 45.9438ZM42.138 57.1717H27.5034C26.1446 57.1717 25.0418 56.0689 25.0418 54.7102C25.0418 53.3514 26.1446 52.2486 27.5034 52.2486H42.138C43.5 52.2486 44.5995 53.3514 44.5995 54.7102C44.5995 56.0689 43.5 57.1717 42.138 57.1717ZM27.5034 29.7961H37.1624C38.5212 29.7961 39.6239 30.8989 39.6239 32.2576C39.6239 33.6164 38.5212 34.7192 37.1624 34.7192H27.5034C26.1446 34.7192 25.0418 33.6164 25.0418 32.2576C25.0418 30.8989 26.1446 29.7961 27.5034 29.7961ZM65.9755 30.4624H56.2475C50.4514 30.4328 45.6662 25.6312 45.6662 19.776V9.47036C45.6662 8.67282 45.0328 8 44.209 8H27.2901C19.4 8 13 14.4952 13 22.4312V56.9288C13 65.2488 19.7184 72 27.9563 72H53.1427C61.0328 72 67.3999 65.5672 67.3999 57.6312V31.9032C67.3999 31.1024 66.7665 30.4624 65.9755 30.4624Z" fill="black"/>
</svg>
