<svg width="80" height="80" viewBox="0 0 80 80" fill="none" xmlns="http://www.w3.org/2000/svg">
<path d="M60.8132 30.3938C60.8129 29.5335 60.479 28.697 59.8757 28.0656L47.7445 15.4313C47.1156 14.7754 46.2396 14.4 45.3195 14.4H27.2226C22.4375 14.38 18.518 18.1945 18.4038 22.9781V56.5938C18.2965 61.4583 22.1544 65.4896 27.0195 65.5969H52.2132C57.0463 65.3823 60.8473 61.3885 60.8132 56.5469V30.3938ZM67.2132 56.5C67.2722 64.8044 60.7374 71.6584 52.4413 71.9969C52.3979 71.9986 52.3536 72 52.3101 72L26.9476 71.9969C26.9247 71.9969 26.9017 71.9974 26.8788 71.9969C18.4805 71.8117 11.8186 64.8518 12.0038 56.4531V22.825C12.201 14.5615 18.9716 7.97451 27.2382 8.00313L45.3195 8C47.9723 8 50.5175 9.07666 52.3601 10.9969L64.4945 23.6375L64.4976 23.6406C66.2341 25.4557 67.2129 27.8742 67.2132 30.3938V56.5Z" fill="black"/>
<path d="M46.707 47.5282C48.474 47.5282 49.9066 48.9612 49.907 50.7282C49.907 52.4955 48.4743 53.9282 46.707 53.9282H29.7601C27.9935 53.9274 26.5601 52.495 26.5601 50.7282C26.5605 48.9617 27.9937 47.529 29.7601 47.5282H46.707ZM40.2914 35.7501L40.6164 35.7657C42.2303 35.9292 43.4914 37.2929 43.4914 38.9501C43.4914 40.6072 42.2303 41.9709 40.6164 42.1344L40.2914 42.1501H29.757C27.9897 42.1501 26.557 40.7174 26.557 38.9501C26.557 37.1828 27.9897 35.7501 29.757 35.7501H40.2914Z" fill="black"/>
<path d="M43.6694 11.4C43.6694 9.63268 45.1021 8.19999 46.8694 8.19999C48.6367 8.19999 50.0694 9.63268 50.0694 11.4V20.6594C50.0681 23.4093 52.2969 25.6412 55.0506 25.6469H63.8069C65.5738 25.6469 67.0062 27.0801 67.0069 28.8469C67.0069 30.6142 65.5742 32.0469 63.8069 32.0469H55.035C48.754 32.0334 43.6654 26.9379 43.6694 20.6531V11.4Z" fill="black"/>
</svg>
