<svg width="80" height="80" viewBox="0 0 80 80" fill="none" xmlns="http://www.w3.org/2000/svg">
<path d="M8 49.8563V49.6C8 47.8327 9.43269 46.4 11.2 46.4C12.9673 46.4 14.4 47.8327 14.4 49.6V49.8563C14.4 53.2243 14.4018 55.5581 14.55 57.3719C14.6951 59.1472 14.964 60.1413 15.3406 60.8813C16.1689 62.5069 17.4931 63.8311 19.1188 64.6594C19.8586 65.0361 20.8528 65.3049 22.6281 65.45C24.4419 65.5982 26.7756 65.6 30.1438 65.6H49.8563C53.2244 65.6 55.5581 65.5982 57.3719 65.45C59.1471 65.305 60.1413 65.0361 60.8813 64.6594C62.5069 63.8311 63.8311 62.5069 64.6594 60.8813C65.0361 60.1413 65.3049 59.1472 65.45 57.3719C65.5982 55.5581 65.6 53.2243 65.6 49.8563V49.6C65.6 47.8327 67.0327 46.4 68.8 46.4C70.5673 46.4 72 47.8327 72 49.6V49.8563C72 53.1187 72.0025 55.7589 71.8281 57.8937C71.6506 60.0658 71.2727 61.995 70.3594 63.7875C68.9175 66.6174 66.6174 68.9175 63.7875 70.3594C61.995 71.2727 60.0658 71.6506 57.8938 71.8281C55.7589 72.0026 53.1189 72 49.8563 72H30.1438C26.8812 72 24.2411 72.0026 22.1063 71.8281C19.9343 71.6506 18.005 71.2728 16.2125 70.3594C13.3826 68.9176 11.0825 66.6174 9.64063 63.7875C8.72734 61.995 8.34938 60.0657 8.17188 57.8937C7.99747 55.7589 8 53.1187 8 49.8563Z" fill="black"/>
<path d="M36.8 11.2C36.8001 9.43295 38.233 8.00034 40 8C41.7673 8.00007 43.2 9.43275 43.2 11.2V43.4719L51.2031 35.2313L53.4969 37.4625L55.7937 39.6906L42.2937 53.5906C41.6914 54.211 40.8646 54.5622 40 54.5625C39.135 54.5625 38.3057 54.2112 37.7031 53.5906L24.2031 39.6906L28.7969 35.2313L36.8 43.475V11.2ZM24.2719 35.1656C25.5398 33.9349 27.5658 33.9635 28.7969 35.2313L24.2031 39.6906C22.9724 38.4227 23.0041 36.3967 24.2719 35.1656ZM51.2031 35.2313C52.4344 33.964 54.4604 33.9346 55.7281 35.1656C56.9956 36.3969 57.0248 38.4229 55.7937 39.6906L51.2031 35.2313Z" fill="black"/>
</svg>
