<svg width="80" height="80" viewBox="0 0 80 80" fill="none" xmlns="http://www.w3.org/2000/svg">
<path d="M65.6 30.2406C65.5999 22.7894 60.7713 17.4 54.1375 17.4H25.8625C19.2285 17.4 14.4001 22.7894 14.4 30.2406V50.0218C14.4004 57.4829 19.2264 62.8568 25.8531 62.8406H54.1469C60.7734 62.8569 65.5996 57.4829 65.6 50.0218V30.2406ZM72 50.0218C71.9995 60.2548 65.0223 69.2607 54.1375 69.2375L25.8625 69.2406C14.9775 69.2638 8.00047 60.2547 8 50.0218V30.2406C8.00009 20.0135 14.9801 11 25.8625 11H54.1375C65.0197 11 71.9999 20.0135 72 30.2406V50.0218Z" fill="black"/>
<path d="M54.9813 28.5687C56.3523 27.4539 58.3662 27.6605 59.4813 29.0312C60.596 30.4021 60.3892 32.4161 59.0188 33.5312L46.2219 43.9375L46.1938 43.9594C42.6183 46.8004 37.5536 46.8004 33.9781 43.9594L33.9594 43.9469L21.0531 33.5406L20.8094 33.3219C19.6567 32.1814 19.5321 30.3302 20.5719 29.0406C21.6119 27.7515 23.4475 27.4806 24.8063 28.3656L25.0719 28.5594L37.9563 38.95C39.2006 39.9384 40.9683 39.9386 42.2125 38.95L54.9813 28.5687Z" fill="black"/>
</svg>
