<svg width="80" height="80" viewBox="0 0 80 80" fill="none" xmlns="http://www.w3.org/2000/svg">
<path d="M42.7177 42.3097V36.9046C42.7177 35.2017 44.0982 33.8212 45.8012 33.8212C47.5041 33.8212 48.8846 35.2017 48.8846 36.9046V42.3097C48.8844 44.0124 47.504 45.3931 45.8012 45.3931C44.0984 45.3931 42.7179 44.0124 42.7177 42.3097Z" fill="black"/>
<path d="M33.3005 18.6375C33.6941 11.8091 40.0907 6.82968 46.8869 8.23993L62.9906 11.5823C68.235 12.6709 72 17.2915 72 22.6484V56.5661C72 61.9229 68.2351 66.5437 62.9906 67.6322L46.8869 70.9746C40.0905 72.3851 33.6941 67.4051 33.3005 60.577L33.2824 59.9085V19.306L33.3005 18.6375ZM39.4493 59.9085L39.4824 60.5077C39.822 63.4535 42.6402 65.5557 45.6342 64.9342L61.7379 61.5918C64.1237 61.0966 65.8331 58.9969 65.8331 56.5661V22.6484C65.8331 20.2177 64.1238 18.118 61.7379 17.6227L45.6342 14.2803C42.4409 13.6175 39.4493 16.0539 39.4493 19.306V59.9085Z" fill="black"/>
<path d="M16.4966 54.0164C16.4966 52.3135 17.8771 50.933 19.5801 50.933C21.283 50.933 22.6635 52.3135 22.6635 54.0164C22.6635 56.4857 24.6673 58.4906 27.1441 58.491H35.9397L36.2529 58.5091C37.808 58.6663 39.0226 59.978 39.0231 61.5745C39.0231 63.1715 37.8084 64.4856 36.2529 64.6428L35.9397 64.6579H27.1441C21.2658 64.6575 16.4966 59.896 16.4966 54.0164Z" fill="black"/>
<path d="M15.3352 31.0435C16.5485 30.0584 18.3341 30.135 19.4605 31.2663C20.6618 32.4731 20.6582 34.425 19.4515 35.6265L18.5511 36.5238H29.1775L29.4937 36.5389C31.0484 36.6969 32.261 38.0109 32.261 39.6072C32.2605 41.2032 31.048 42.5145 29.4937 42.6726L29.1775 42.6907H18.5511L19.4515 43.588C20.6581 44.7897 20.6622 46.7446 19.4605 47.9512C18.334 49.0813 16.5479 49.1557 15.3352 48.171L15.1003 47.9602L8.90636 41.7903C8.32621 41.212 8.00025 40.4264 8 39.6072C8.00006 38.7872 8.32825 37.9997 8.90937 37.4211L15.1003 31.2543L15.3352 31.0435Z" fill="black"/>
<path d="M16.4966 25.1965C16.4972 19.3174 21.2661 14.5555 27.1441 14.5551H35.9397L36.2529 14.5701C37.8085 14.7273 39.0231 16.0415 39.0231 17.6385C39.0231 19.2356 37.8085 20.5497 36.2529 20.7069L35.9397 20.722H27.1441C24.6677 20.7223 22.6641 22.7276 22.6635 25.1965C22.6635 26.8995 21.283 28.28 19.5801 28.28C17.8771 28.28 16.4966 26.8995 16.4966 25.1965Z" fill="black"/>
</svg>
