<svg width="80" height="80" viewBox="0 0 80 80" fill="none" xmlns="http://www.w3.org/2000/svg">
<path d="M8 40C8 38.2327 9.43269 36.8 11.2 36.8C12.9673 36.8 14.4 38.2327 14.4 40C14.4 54.1386 25.8616 65.5999 40 65.6C54.1386 65.6 65.6 54.1386 65.6 40C65.6 38.2328 67.0329 36.8002 68.8 36.8C70.5673 36.8 72 38.2327 72 40C72 57.6732 57.6732 72 40 72C22.3269 71.9999 8 57.6732 8 40Z" fill="black"/>
<path d="M36.8003 47.2V18.925L31.4628 24.2625C30.2131 25.5122 28.1875 25.5122 26.9378 24.2625C25.6882 23.0128 25.6881 20.9872 26.9378 19.7375L37.7378 8.9375L37.9722 8.725C38.5416 8.25831 39.2576 8.00004 40.0003 8C40.8489 8 41.6627 8.33744 42.2628 8.9375L53.0628 19.7375L53.2815 19.9812C54.3068 21.2381 54.2344 23.0909 53.0628 24.2625C51.8912 25.4341 50.0384 25.5065 48.7815 24.4813L48.5378 24.2625L43.2003 18.925V47.2C43.2003 48.9673 41.7676 50.4 40.0003 50.4C38.233 50.3999 36.8003 48.9673 36.8003 47.2Z" fill="black"/>
</svg>
