<svg width="80" height="80" viewBox="0 0 80 80" fill="none" xmlns="http://www.w3.org/2000/svg">
<path fill-rule="evenodd" clip-rule="evenodd" d="M56.4682 25.7893C58.6779 25.8123 61.7479 25.8221 64.3516 25.8123C65.6847 25.809 66.3611 24.2001 65.4384 23.2282C63.7672 21.4749 61.4392 19.0288 59.1015 16.5728C56.7538 14.107 54.3964 11.6313 52.6824 9.83197C51.7335 8.8371 50.0787 9.52004 50.0787 10.8991V19.3341C50.0787 22.8736 52.9648 25.7893 56.4682 25.7893Z" fill="black"/>
<path fill-rule="evenodd" clip-rule="evenodd" d="M33.4036 28.6753C33.4036 30.0347 32.3004 31.1379 30.9411 31.1379C29.5818 31.1379 28.4785 30.0347 28.4785 28.6753V24.0884C28.4785 22.7258 29.5818 21.6259 30.9411 21.6259C32.3004 21.6259 33.4036 22.7258 33.4036 24.0884V28.6753ZM33.4036 42.2981C33.4036 43.6574 32.3004 44.7607 30.9411 44.7607C29.5818 44.7607 28.4785 43.6574 28.4785 42.2981V37.7112C28.4785 36.3519 29.5818 35.2487 30.9411 35.2487C32.3004 35.2487 33.4036 36.3519 33.4036 37.7112V42.2981ZM33.4036 55.9242C33.4036 57.2836 32.3004 58.3868 30.9411 58.3868C29.5818 58.3868 28.4785 57.2836 28.4785 55.9242V51.3373C28.4785 49.978 29.5818 48.8748 30.9411 48.8748C32.3004 48.8748 33.4036 49.978 33.4036 51.3373V55.9242ZM65.7747 30.4648H56.046C50.2508 30.4319 45.4636 25.6316 45.4636 19.7773V9.47072C45.4636 8.67285 44.8299 7.99976 44.009 7.99976H33.4036V15.0492C33.4036 16.4085 32.3004 17.5118 30.9411 17.5118C29.5818 17.5118 28.4785 16.4085 28.4785 15.0492V7.99976H27.0897C19.1996 7.99976 12.8003 14.4976 12.8003 22.4336V56.9257C12.8003 65.2458 19.5181 71.9998 27.7529 71.9998H28.4785V64.9569C28.4785 63.5975 29.5818 62.4943 30.9411 62.4943C32.3004 62.4943 33.4036 63.5975 33.4036 64.9569V71.9998H52.9431C60.8299 71.9998 67.1997 65.5676 67.1997 57.6316V31.9029C67.1997 31.105 66.566 30.4648 65.7747 30.4648Z" fill="black"/>
</svg>
