<svg width="80" height="80" viewBox="0 0 80 80" fill="none" xmlns="http://www.w3.org/2000/svg">
<path d="M59.332 31.7031C65.9039 31.7031 70.6804 37.9412 68.9688 44.2832L64.0166 62.6201C62.8413 66.9737 58.8934 69.999 54.3828 69.999H25.6133C21.1041 69.999 17.1523 66.9744 15.9766 62.6191L11.0283 44.2832C9.31689 37.9421 14.0921 31.7031 20.6621 31.7031H59.332ZM20.6621 37.7031C18.0436 37.7031 16.1385 40.1901 16.8213 42.7197L21.7695 61.0557L21.8701 61.375C22.4361 62.9384 23.927 63.999 25.6133 63.999H54.3828C56.1804 63.999 57.7547 62.7934 58.2236 61.0557L63.1758 42.7197L63.2324 42.4834C63.739 40.0383 61.8725 37.7031 59.332 37.7031H20.6621Z" fill="black"/>
<path d="M58.9473 20.1338L59.1016 20.1377C60.6864 20.2182 61.9472 21.5289 61.9473 23.1338C61.9473 24.7387 60.6865 26.0493 59.1016 26.1299L58.9473 26.1338H21.0449C19.3881 26.1338 18.0449 24.7906 18.0449 23.1338C18.045 21.477 19.3881 20.1338 21.0449 20.1338H58.9473ZM50.6816 10C52.3385 10 53.6816 11.3431 53.6816 13C53.6816 14.6569 52.3385 16 50.6816 16H29.3096C27.6527 16 26.3096 14.6569 26.3096 13C26.3096 11.3431 27.6527 10 29.3096 10H50.6816Z" fill="black"/>
</svg>
