<svg width="80" height="80" viewBox="0 0 80 80" fill="none" xmlns="http://www.w3.org/2000/svg">
<path d="M60.914 29.7874C63.9475 29.7874 67.0789 30.6 69.3033 32.7618C71.6546 35.0474 72.4622 38.3163 71.75 42.0085L71.7437 42.0399L67.9653 60.6306L67.9558 60.6683C66.8498 65.7616 62.3444 69.3965 57.1324 69.3967H26.9017C22.9773 69.3967 19.9713 68.5368 17.8968 67.6222C16.8643 67.1668 16.0694 66.6997 15.5098 66.3281C15.2307 66.1428 15.0101 65.9803 14.8471 65.8538C14.7655 65.7905 14.6956 65.7344 14.6429 65.6905C14.6174 65.6693 14.5957 65.6501 14.577 65.634C14.5674 65.6257 14.5565 65.6188 14.5487 65.612L14.533 65.5963C14.533 65.5963 14.5294 65.5932 16.5588 63.3098L14.5299 65.5932C13.3318 64.5284 13.1608 62.7182 14.1372 61.4472C15.1138 60.177 16.9052 59.8765 18.2423 60.7594C19.8675 61.8325 21.1645 61.6521 22.2124 61.0452C23.4369 60.3358 24.4036 58.9548 24.7157 57.6279L28.871 38.4907L28.8741 38.4844C29.9896 33.4043 34.4935 29.7874 39.6913 29.7874H60.914ZM39.6913 35.8995C37.3631 35.8995 35.3445 37.5163 34.8418 39.7847L30.6864 58.9377L30.6801 58.9722C30.335 60.4753 29.6371 61.97 28.6574 63.2846H57.1324C59.4678 63.2843 61.4889 61.6561 61.9851 59.3711L65.7509 40.8495C66.1613 38.7199 65.6117 37.6948 65.0443 37.1433C64.3491 36.4676 62.9967 35.8995 60.914 35.8995H39.6913Z" fill="black"/>
<path d="M8 50.5328V28.8514C8.00009 23.6082 8.94703 18.8258 11.7376 15.3238C14.644 11.6768 19.0662 10 24.6591 10H30.2184C33.1762 10 35.9569 11.3955 37.7282 13.7565L40.266 17.1297L40.5173 17.425C41.1377 18.0732 42.0015 18.449 42.9138 18.452H47.5999C52.3027 18.4522 56.2669 19.4813 59.1991 22.0295C62.1447 24.5895 63.5539 28.2526 64.0643 32.4508C64.2679 34.1259 63.0759 35.6487 61.4009 35.8524C59.8304 36.0433 58.3939 35.0074 58.0527 33.4968L57.9993 33.1889L57.8203 31.9986C57.3361 29.3608 56.4099 27.7029 55.1914 26.6434C53.7854 25.4215 51.4916 24.5643 47.5999 24.5642H42.8949C39.946 24.5548 37.1665 23.1675 35.3883 20.8108L35.3851 20.8045L32.8473 17.4313L32.8442 17.425C32.225 16.5982 31.2507 16.1121 30.2184 16.1121H24.6591C20.3046 16.1121 17.926 17.3667 16.518 19.1336C14.9944 21.0456 14.1122 24.1602 14.1121 28.8514V50.5328C14.1121 54.9062 15.3912 58.0038 17.3974 60.0056C19.2794 61.8832 22.1283 63.1243 26.0945 63.2721L26.9017 63.2878L27.2158 63.3035C28.7559 63.4605 29.9577 64.7622 29.9577 66.3438C29.9573 67.9251 28.7558 69.2273 27.2158 69.3842L26.9017 69.3967L25.8652 69.3779C20.7234 69.184 16.2907 67.532 13.0819 64.3305C9.65871 60.9149 8 56.1067 8 50.5328Z" fill="black"/>
</svg>
