<svg width="80" height="80" viewBox="0 0 80 80" fill="none" xmlns="http://www.w3.org/2000/svg">
<path d="M32.3887 10.041C35.3554 10.0411 38.1419 11.441 39.9189 13.8066L42.4844 17.2188L42.6104 17.376C43.2619 18.1423 44.2192 18.5899 45.2334 18.5928H53.1846C58.7055 18.5928 63.1772 20.0065 66.1572 23.4961C69.0444 26.877 70 31.6105 70 36.9971C70 37.0026 70 37.0082 70 37.0137L69.9209 50.9639C69.9209 56.5838 68.2538 61.4226 64.8184 64.8584C61.3829 68.2941 56.5443 69.9619 50.9229 69.9619H29.0332C23.402 69.9618 18.5549 68.295 15.1133 64.8604C11.6711 61.4249 10 56.5853 10 50.9639V29.0254C10 23.7285 10.9555 18.9137 13.7598 15.3936C16.6777 11.731 21.1212 10.0411 26.7627 10.041H32.3887ZM16 50.9639C16 55.4063 17.3001 58.5657 19.3516 60.6133C21.404 62.6616 24.5742 63.9618 29.0332 63.9619H50.9229C55.3685 63.9619 58.5292 62.6635 60.5762 60.6162C62.6233 58.5689 63.9219 55.4082 63.9219 50.9639C63.9219 50.9584 63.9218 50.9528 63.9219 50.9473L64 36.9971L63.9893 36.1035C63.8841 31.7486 62.9989 29.037 61.5947 27.3926C60.1897 25.7473 57.7542 24.5928 53.1846 24.5928H45.2158C42.258 24.5842 39.4743 23.1924 37.6934 20.8311L37.6904 20.8271L35.123 17.4111L35.1221 17.4102C34.474 16.5473 33.4612 16.0411 32.3887 16.041H26.7627C22.3374 16.0411 19.8998 17.3168 18.4531 19.1328C16.8927 21.0915 16 24.2697 16 29.0254V50.9639Z" fill="black"/>
</svg>
