<svg width="80" height="80" viewBox="0 0 80 80" fill="none" xmlns="http://www.w3.org/2000/svg">
<path d="M59.5788 31.8375C62.7691 31.8375 65.9338 32.8668 68.3129 35.2074C70.7125 37.5685 72 40.9549 72 45.0565V45.0973L71.799 60.5116C71.777 66.4565 66.9505 71.2714 61.0015 71.2714L18.8007 71.262C17.1137 71.2616 15.745 69.8931 15.7448 68.2061C15.745 66.5189 17.1134 65.1503 18.8007 65.1503C21.3899 65.1503 23.4896 63.0522 23.4896 60.4582L23.4928 45.0565C23.4928 40.9549 24.7803 37.5685 27.1799 35.2074C29.559 32.8668 32.7236 31.8375 35.914 31.8375H59.5788ZM29.6013 60.4582L29.5856 61.0141C29.5108 62.4907 29.1395 63.8886 28.5304 65.1503L61.0015 65.1566C63.5876 65.1566 65.6873 63.0616 65.6873 60.4707V60.4299L65.8883 45.0565C65.8883 42.2531 65.039 40.5576 64.029 39.5635C62.9983 38.5492 61.4791 37.9492 59.5788 37.9492H35.914C34.0136 37.9492 32.4945 38.5493 31.4637 39.5635C30.4538 40.5576 29.6045 42.2531 29.6045 45.0565L29.6013 60.4582Z" fill="black"/>
<path d="M8 60.4581V27.9965C8.00004 22.3953 9.01118 17.3266 11.9572 13.628C15.0193 9.78404 19.6893 8 25.6441 8H31.6082C34.7048 8.00451 37.6242 9.46207 39.4849 11.9415L42.2079 15.5627L42.4905 15.8987C43.1937 16.6364 44.177 17.064 45.2166 17.067H50.1317C55.1162 17.067 59.4914 18.1302 62.6817 20.773C65.9643 23.4924 67.5026 27.4689 67.5968 32.1924V35.6219C67.5968 37.3093 66.2283 38.6778 64.541 38.6778C62.8538 38.6776 61.4851 37.3092 61.4851 35.6219V32.252C61.4053 28.8512 60.3516 26.7761 58.7842 25.4777C57.1151 24.0951 54.3652 23.1756 50.1317 23.1756H45.1978C42.2987 23.1671 39.5536 21.8904 37.6853 19.6863L37.3242 19.2341L34.6012 15.6129L34.5981 15.6098C33.9803 14.7862 33.0527 14.2571 32.0385 14.1368L31.5988 14.1117H25.6441C20.929 14.1117 18.3015 15.471 16.7373 17.4345C15.0573 19.5433 14.1117 22.9468 14.1117 27.9965V60.4581C14.1117 62.8897 15.9564 64.8846 18.3201 65.1251L18.8007 65.1503L19.1116 65.166C20.6528 65.3219 21.8565 66.6238 21.8565 68.2061C21.8564 69.7883 20.6527 71.0904 19.1116 71.2463L18.8007 71.262L18.2448 71.2463C12.5374 70.9571 8.00001 66.2387 8 60.4581Z" fill="black"/>
</svg>
