<svg width="80" height="80" viewBox="0 0 80 80" fill="none" xmlns="http://www.w3.org/2000/svg">
<path d="M65.6007 58.9613V50.9257C65.6007 49.1584 67.0334 47.7257 68.8008 47.7257C70.5679 47.7259 72.0008 49.1585 72.0008 50.9257V58.9613C72.0008 66.1622 66.1617 71.9998 58.959 72H50.9255C49.1582 72 47.7255 70.5673 47.7255 68.8C47.7256 67.0327 49.1583 65.5999 50.9255 65.5999H58.959C62.6284 65.5997 65.6007 62.6262 65.6007 58.9613Z" fill="black"/>
<path d="M8 58.9613V50.9257C8 49.1584 9.43271 47.7257 11.2 47.7257C12.9674 47.7257 14.4001 49.1584 14.4001 50.9257V58.9613C14.4001 62.6262 17.3723 65.5999 21.0419 65.5999H29.0743C30.8415 65.5999 32.2742 67.0327 32.2743 68.8C32.2743 70.5673 30.8416 72 29.0743 72H21.0419C13.8391 72 8 66.1624 8 58.9613Z" fill="black"/>
<path d="M8 29.0774V21.0419C8 13.8383 13.8383 8.00002 21.0419 8H29.0743C30.8416 8 32.2743 9.43271 32.2743 11.2C32.2743 12.9674 30.8416 14.4001 29.0743 14.4001H21.0419C17.373 14.4001 14.4001 17.373 14.4001 21.0419V29.0774C14.4001 30.8447 12.9674 32.2774 11.2 32.2774C9.43271 32.2774 8 30.8447 8 29.0774Z" fill="black"/>
<path d="M65.6007 29.0774V21.0419C65.6007 17.3731 62.6277 14.4003 58.959 14.4001H50.9255C49.1582 14.4001 47.7255 12.9674 47.7255 11.2C47.7255 9.43271 49.1582 8 50.9255 8H58.959C66.1624 8.0002 72.0008 13.8385 72.0008 21.0419V29.0774C72.0008 30.8446 70.5679 32.2772 68.8008 32.2774C67.0334 32.2774 65.6007 30.8447 65.6007 29.0774Z" fill="black"/>
</svg>
