<svg width="80" height="80" viewBox="0 0 80 80" fill="none" xmlns="http://www.w3.org/2000/svg">
<path fill-rule="evenodd" clip-rule="evenodd" d="M58.9756 39.9911C57.5225 39.9911 56.345 38.8136 56.345 37.3606C56.345 35.9075 57.5225 34.7301 58.9756 34.7301C60.4286 34.7301 61.6061 35.9075 61.6061 37.3606C61.6061 38.8136 60.4286 39.9911 58.9756 39.9911ZM53.9507 45.016C52.4977 45.016 51.3202 43.8385 51.3202 42.3854C51.3202 40.9324 52.4977 39.7549 53.9507 39.7549C55.4038 39.7549 56.5813 40.9324 56.5813 42.3854C56.5813 43.8385 55.4038 45.016 53.9507 45.016ZM48.9259 39.9911C47.4728 39.9911 46.2954 38.8136 46.2954 37.3606C46.2954 35.9075 47.4728 34.7301 48.9259 34.7301C50.3789 34.7301 51.5564 35.9075 51.5564 37.3606C51.5564 38.8136 50.3789 39.9911 48.9259 39.9911ZM53.9507 29.7053C55.4038 29.7053 56.5813 30.8828 56.5813 32.3358C56.5813 33.7888 55.4038 34.9663 53.9507 34.9663C52.4977 34.9663 51.3202 33.7888 51.3202 32.3358C51.3202 30.8828 52.4977 29.7053 53.9507 29.7053ZM30.3368 40.2237H28.0105V42.5501C28.0105 44.0317 26.808 45.2343 25.3263 45.2343C23.8446 45.2343 22.6421 44.0317 22.6421 42.5501V40.2237H19.9579C18.4762 40.2237 17.2737 39.0212 17.2737 37.5395C17.2737 36.0578 18.4762 34.8553 19.9579 34.8553H22.6421V32.1712C22.6421 30.6895 23.8446 29.487 25.3263 29.487C26.808 29.487 28.0105 30.6895 28.0105 32.1712V34.8553H30.3368C31.8185 34.8553 33.0211 36.0578 33.0211 37.5395C33.0211 39.0212 31.8185 40.2237 30.3368 40.2237ZM73.9284 49.4538C73.8891 49.2105 73.8461 48.7237 73.7781 48.0437C73.1733 41.845 71.3373 22.9804 61.9604 17.9556C61.9461 17.9484 61.9318 17.9413 61.9139 17.9341C59.7594 16.8533 53.1813 13.5642 45.4901 18.0164C40.3794 21.2089 38.9764 20.9154 34.1198 17.9986C26.4966 13.4247 20.6093 16.4524 18.0933 17.748L17.6781 17.9556C6.31853 24.0434 6 49.6972 6 49.9549C6 54.833 6.72653 60.7705 12.5137 63.4368C14.4821 64.1919 16.2394 64.4783 17.7676 64.4783C21.2857 64.4783 23.6084 62.9572 24.5747 62.1484C25.8166 61.2608 26.5396 60.3195 27.2375 59.4033C28.1465 58.2187 29.0019 57.0985 31.2387 55.7957C34.9752 53.6162 45.3505 53.9347 48.7398 55.785C50.4863 56.8336 51.3202 57.8429 52.2794 59.0096C53.0703 59.9688 53.9651 61.0568 55.4217 62.1484C58.6893 64.4818 62.9482 64.9543 67.4827 63.4368C73.3236 61.1892 74 54.6684 74 49.9549C74 49.7831 73.9749 49.6149 73.9284 49.4538Z" fill="black"/>
</svg>
