<svg width="80" height="80" viewBox="0 0 80 80" fill="none" xmlns="http://www.w3.org/2000/svg">
<path fill-rule="evenodd" clip-rule="evenodd" d="M56.4683 25.7877C58.6781 25.8107 61.7483 25.8205 64.3521 25.8107C65.6853 25.8074 66.3617 24.1984 65.439 23.2265C63.7677 21.4731 61.4396 19.0268 59.1017 16.5707C56.754 14.1047 54.3964 11.6289 52.6823 9.82953C51.7334 8.83461 50.0785 9.51759 50.0785 10.8967V19.3322C50.0785 22.8719 52.9647 25.7877 56.4683 25.7877Z" fill="black"/>
<path fill-rule="evenodd" clip-rule="evenodd" d="M65.7726 30.4611H56.0467C50.2479 30.4316 45.4638 25.631 45.4638 19.7731V9.46927C45.4638 8.66808 44.83 7.99823 44.0059 7.99823H27.0856C19.1985 7.99823 12.7988 14.4931 12.7988 22.4295V56.9267C12.7988 65.2472 19.5137 71.9982 27.7522 71.9982H52.9405C60.8309 71.9982 67.201 65.5657 67.201 57.6326V31.9026C67.201 31.1014 66.5673 30.4611 65.7726 30.4611Z" fill="black"/>
</svg>
