<svg width="80" height="80" viewBox="0 0 80 80" fill="none" xmlns="http://www.w3.org/2000/svg">
<path fill-rule="evenodd" clip-rule="evenodd" d="M26.3259 40.0003C26.3259 36.6881 26.5295 33.3725 26.913 30.1826C21.1675 29.5208 15.7512 28.462 10.7421 27.0366C8.99095 31.0072 8 35.3883 8 40.0003C8 44.6123 8.98756 48.9902 10.7387 52.9608C15.7613 51.5286 21.181 50.4664 26.913 49.808C26.5295 46.6214 26.3259 43.3092 26.3259 40.0003Z" fill="black"/>
<path fill-rule="evenodd" clip-rule="evenodd" d="M47.6635 25.5931C45.8648 17.0308 42.6782 12.0014 40.2381 12.0014C37.7981 12.0014 34.6148 17.0308 32.8161 25.5931C37.7472 25.9189 42.7121 25.9189 47.6635 25.5931Z" fill="black"/>
<path fill-rule="evenodd" clip-rule="evenodd" d="M32.8123 54.3966C34.6111 62.9657 37.7977 67.9985 40.2378 67.9985C42.6812 67.9985 45.8679 62.9657 47.6665 54.3966C42.7152 54.0675 37.7502 54.0675 32.8123 54.3966Z" fill="black"/>
<path fill-rule="evenodd" clip-rule="evenodd" d="M53.5651 30.184C53.9486 33.3742 54.1522 36.6898 54.1522 40.002C54.1522 43.3109 53.9486 46.6197 53.5651 49.8064C59.297 50.4647 64.7167 51.5269 69.7394 52.9557C71.4905 48.9885 72.4781 44.6106 72.4781 40.002C72.4781 35.39 71.4871 31.0121 69.736 27.0381C64.7269 28.4668 59.3072 29.5257 53.5651 30.184Z" fill="black"/>
<path fill-rule="evenodd" clip-rule="evenodd" d="M52.7869 54.8395C51.2055 62.9334 48.253 69.5206 44.0143 71.998C53.7405 70.8577 62.1433 65.3769 67.2508 57.5443C62.7406 56.3259 57.9012 55.413 52.7869 54.8395Z" fill="black"/>
<path fill-rule="evenodd" clip-rule="evenodd" d="M27.6921 54.8416C22.5778 55.4185 17.7385 56.3314 13.2283 57.5497C18.3357 65.3823 26.7385 70.8597 36.4647 72C32.2261 69.5192 29.2736 62.9355 27.6921 54.8416Z" fill="black"/>
<path fill-rule="evenodd" clip-rule="evenodd" d="M27.6937 25.1491C29.2752 17.062 32.2277 10.4782 36.463 8.00085C26.7401 9.14112 18.3407 14.6185 13.2333 22.4443C17.7299 23.6593 22.5693 24.5722 27.6937 25.1491Z" fill="black"/>
<path fill-rule="evenodd" clip-rule="evenodd" d="M31.9826 30.6323C31.6263 33.4933 31.4159 36.6189 31.4159 39.999C31.4159 43.3757 31.6263 46.5013 31.9826 49.3587C37.4702 48.9718 42.9917 48.9718 48.4963 49.3587C48.8526 46.5013 49.063 43.3757 49.063 39.999C49.063 36.6189 48.8526 33.4933 48.4963 30.6323C45.744 30.8257 42.9883 30.9581 40.2327 30.9581C37.477 30.9581 34.7247 30.8257 31.9826 30.6323Z" fill="black"/>
<path fill-rule="evenodd" clip-rule="evenodd" d="M52.7852 25.1517C57.9097 24.5747 62.7491 23.6618 67.2457 22.4503C62.1416 14.6211 53.7388 9.14367 44.0126 8C48.2513 10.4808 51.2038 17.0611 52.7852 25.1517Z" fill="black"/>
</svg>
