<svg width="80" height="80" viewBox="0 0 80 80" fill="none" xmlns="http://www.w3.org/2000/svg">
<path d="M40 6.09879C21.215 6.09879 6 21.3138 6 40.0988C5.99615 47.2363 8.23997 54.1939 12.4131 59.9843C16.5863 65.7747 22.4769 70.104 29.2492 72.358C30.9492 72.6538 31.585 71.6338 31.585 70.7396C31.585 69.9338 31.5408 67.258 31.5408 64.4088C23 65.983 20.79 62.328 20.11 60.4138C19.7258 59.4346 18.07 56.4188 16.625 55.6096C15.435 54.9738 13.735 53.3996 16.5808 53.3588C19.26 53.3146 21.1708 55.8238 21.81 56.8438C24.87 61.9846 29.7592 60.5396 31.7108 59.6488C32.01 57.4388 32.9008 55.953 33.88 55.103C26.315 54.253 18.41 51.3188 18.41 38.3138C18.41 34.6146 19.7258 31.558 21.895 29.1746C21.555 28.3246 20.365 24.8396 22.235 20.1646C22.235 20.1646 25.0808 19.2738 31.585 23.653C34.3528 22.8848 37.2126 22.4982 40.085 22.5038C42.975 22.5038 45.865 22.8846 48.585 23.6496C55.0858 19.2296 57.935 20.168 57.935 20.168C59.805 24.843 58.615 28.328 58.275 29.178C60.4408 31.558 61.76 34.5738 61.76 38.3138C61.76 51.363 53.8142 54.253 46.2492 55.103C47.48 56.1638 48.5442 58.2038 48.5442 61.393C48.5442 65.9388 48.5 69.5938 48.5 70.743C48.5 71.6338 49.1392 72.6946 50.8392 72.3546C57.5883 70.0759 63.4529 65.7382 67.6077 59.9519C71.7624 54.1656 73.9981 47.2222 74 40.0988C74 21.3138 58.785 6.09879 40 6.09879Z" fill="black"/>
</svg>
