<svg width="80" height="80" viewBox="0 0 80 80" fill="none" xmlns="http://www.w3.org/2000/svg">
<path d="M19.7508 40C19.7508 37.7919 20.1275 35.6736 20.794 33.6886L9.09266 24.9372C6.74167 29.6098 5.52079 34.7693 5.52836 40C5.52836 45.4131 6.80919 50.519 9.08687 55.0512L20.7824 46.2853C20.1005 44.2599 19.7521 42.1372 19.7508 40Z" fill="#FBBC05"/>
<path d="M40.3021 19.9095C45.1994 19.9095 49.6243 21.6076 53.1017 24.3895L63.2179 14.4993C57.0543 9.24555 49.152 6 40.3021 6C26.5606 6 14.7492 13.6937 9.09266 24.9372L20.7998 33.6886C23.4948 25.6732 31.1798 19.9095 40.3021 19.9095Z" fill="#EA4335"/>
<path d="M40.3021 60.0905C31.1769 60.0905 23.4919 54.3268 20.794 46.3114L9.09265 55.0628C14.7463 66.3063 26.5577 74 40.3021 74C48.7811 74 56.8775 71.0529 62.9571 65.5268L51.8469 57.1174C48.7144 59.0502 44.7676 60.0905 40.2992 60.0905" fill="#34A853"/>
<path d="M73.4936 40C73.4936 37.9918 73.1748 35.8272 72.7025 33.819H40.2992V46.9547H58.9495C58.0193 51.4348 55.4808 54.8774 51.8498 57.1174L62.9571 65.5268C69.341 59.7254 73.4936 51.0841 73.4936 40Z" fill="#4285F4"/>
</svg>
