<svg width="80" height="80" viewBox="0 0 80 80" fill="none" xmlns="http://www.w3.org/2000/svg">
<path fill-rule="evenodd" clip-rule="evenodd" d="M31.81 49.87L55.744 32.179C56.917 31.309 58.594 31.648 59.155 32.995C62.095 40.102 60.781 48.64 54.925 54.502C49.072 60.364 40.924 61.648 33.478 58.72L25.345 62.491C37.012 70.474 51.178 68.5 60.031 59.632C67.054 52.6 69.229 43.015 67.195 34.372L67.213 34.393C64.264 21.697 67.939 16.621 75.463 6.244C75.643 5.998 75.823 5.752 76 5.5L66.097 15.415V15.385L31.801 49.876M26.869 54.169C18.493 46.159 19.939 33.766 27.082 26.617C32.365 21.328 41.023 19.168 48.58 22.342L56.695 18.592C55.0083 17.3513 53.1629 16.3423 51.208 15.592C46.2934 13.5805 40.8937 13.0672 35.688 14.1166C30.4824 15.1661 25.7034 17.7314 21.952 21.49C14.353 29.098 11.962 40.798 16.066 50.782C19.132 58.243 14.107 63.52 9.046 68.848C7.249 70.738 5.449 72.625 4 74.623L26.86 54.178" fill="black"/>
</svg>
