<svg width="80" height="80" viewBox="0 0 80 80" fill="none" xmlns="http://www.w3.org/2000/svg">
<path d="M33.3371 9.83507C37.5119 7.38847 42.6818 7.38815 46.8564 9.83507L64.6008 20.2386C70.0861 23.4519 70.0861 31.3789 64.6008 34.5922L46.8564 44.9926C42.6812 47.4407 37.5125 47.4403 33.3371 44.9926L15.5896 34.5922C10.1092 31.3786 10.1093 23.4523 15.5896 20.2386L33.3371 9.83507ZM43.6188 15.3571C41.4427 14.082 38.7479 14.0813 36.5716 15.3571L18.8272 25.7607C17.5644 26.5016 17.5643 28.3293 18.8272 29.0702L36.5716 39.4737C38.7479 40.7496 41.4428 40.7489 43.6188 39.4737L61.3663 29.0702C62.6313 28.3291 62.6313 26.5017 61.3663 25.7607L43.6188 15.3571Z" fill="black"/>
<path d="M28.0119 36.5361C29.4833 35.5584 31.4679 35.959 32.4465 37.4298C33.4252 38.9015 33.0274 40.8887 31.5558 41.8675L18.2491 50.7116L18.2522 50.7147C17.0736 51.5011 17.127 53.2493 18.3428 53.9617L36.5685 64.6433C38.7456 65.9196 41.4434 65.9182 43.6156 64.6433L61.7725 53.9992C62.9992 53.2798 63.047 51.5224 61.8538 50.7397L48.4658 41.9894L48.2002 41.7956C46.9394 40.7757 46.6315 38.948 47.5376 37.5611C48.4439 36.1744 50.2412 35.7223 51.6815 36.4673L51.9659 36.6329L65.3602 45.3833L65.3664 45.3864C70.3633 48.6644 70.3459 55.9253 65.4946 59.215L65.0102 59.5213L46.8501 70.1623C42.6768 72.6111 37.5056 72.6129 33.3309 70.1654L15.1083 59.4838C9.80821 56.3779 9.59638 48.791 14.7052 45.3864L28.0119 36.5361Z" fill="black"/>
</svg>
