<svg width="80" height="80" viewBox="0 0 80 80" fill="none" xmlns="http://www.w3.org/2000/svg">
<path fill-rule="evenodd" clip-rule="evenodd" d="M9.53608 29.0664C12.9151 17.4984 25.048 9.25012 39.1153 9.25012C53.1828 9.25012 65.316 17.4999 68.6952 29.0679C70.1183 33.9524 65.6619 37.8253 61.0301 37.8253H17.2006C12.5688 37.8253 8.11301 33.9508 9.53608 29.0664ZM39.1146 20.0189C37.7974 20.0189 36.73 21.0865 36.73 22.4035C36.73 23.7205 37.7974 24.7881 39.1146 24.7881H39.3731C40.6901 24.7881 41.7577 23.7205 41.7577 22.4035C41.7577 21.0865 40.6901 20.0189 39.3731 20.0189H39.1146ZM51.0996 24.5079C49.7827 24.5079 48.715 25.5755 48.715 26.8925C48.715 28.2094 49.7827 29.2771 51.0996 29.2771H51.3581C52.6751 29.2771 53.7427 28.2094 53.7427 26.8925C53.7427 25.5755 52.6751 24.5079 51.3581 24.5079H51.0996ZM24.7665 26.8925C24.7665 25.5755 25.8341 24.5079 27.1511 24.5079H27.4096C28.7266 24.5079 29.7942 25.5755 29.7942 26.8925C29.7942 28.2094 28.7266 29.2771 27.4096 29.2771H27.1511C25.8341 29.2771 24.7665 28.2094 24.7665 26.8925Z" fill="black"/>
<path d="M9.28214 58.302C9.28214 56.2621 11.0847 54.6104 13.311 54.6104H66.6578C68.8837 54.6104 70.6833 56.2646 70.6833 58.302C70.6833 65.4524 64.3558 71.2501 56.5521 71.2501H23.4136C15.6097 71.2501 9.28214 65.4524 9.28214 58.302Z" fill="black"/>
<path d="M21.5736 49.8078C20.4083 50.3073 19.0629 50.6103 17.3909 50.6103C15.6068 50.6103 14.2025 50.2634 12.996 49.7089C12.0095 49.2558 11.1819 48.6654 10.5592 48.2212C10.467 48.1554 10.3781 48.0921 10.295 48.0336C9.21785 47.276 8.95882 45.7886 9.71652 44.7114C10.4742 43.6342 11.9617 43.3751 13.0388 44.1327L13.3574 44.3578C13.9995 44.8125 14.438 45.1228 14.9874 45.3753C15.5497 45.6338 16.2725 45.8411 17.3909 45.8411C18.4501 45.8411 19.153 45.6567 19.6947 45.4242C20.2781 45.1743 20.7644 44.8363 21.4671 44.3343L21.5225 44.2949C22.1787 43.8256 23.0403 43.21 24.1329 42.7417C25.2981 42.2422 26.6436 41.9389 28.3156 41.9389C29.988 41.9389 31.3342 42.2419 32.4996 42.7417C33.5963 43.212 34.4589 43.8304 35.1155 44.3009L35.1651 44.3365C35.8674 44.8398 36.3501 45.1769 36.9284 45.4265C37.4642 45.6576 38.1586 45.8411 39.2059 45.8411C40.2653 45.8411 40.968 45.6567 41.5101 45.4242C42.0935 45.1743 42.5799 44.8363 43.2829 44.3343L43.3379 44.2949C43.9945 43.8256 44.8564 43.2097 45.9495 42.7414C47.1151 42.2422 48.4613 41.9389 50.1337 41.9389C51.8058 41.9389 53.1514 42.2422 54.3163 42.7417C55.4091 43.21 56.2707 43.8256 56.9267 44.2949L56.9823 44.3343C57.685 44.8363 58.1711 45.1743 58.7546 45.4242C59.2963 45.6567 59.9993 45.8411 61.0584 45.8411C63.0459 45.8411 63.9215 45.2258 65.1812 44.3318C66.2552 43.5693 67.7435 43.8221 68.506 44.8961C69.2681 45.9701 69.0153 47.4588 67.9413 48.2209C66.4543 49.2765 64.5644 50.6103 61.0584 50.6103C59.3866 50.6103 58.0411 50.3073 56.8758 49.8078C55.7833 49.3394 54.9217 48.7236 54.2655 48.2546L54.2101 48.2152C53.5071 47.7131 53.021 47.3752 52.4376 47.1252C51.8958 46.8928 51.1931 46.7081 50.1337 46.7081C49.0737 46.7081 48.3701 46.8928 47.8277 47.1252C47.2439 47.3755 46.7575 47.7135 46.0545 48.2152L45.9988 48.2552C45.3426 48.7242 44.4809 49.3397 43.3888 49.8078C42.2235 50.3073 40.878 50.6103 39.2059 50.6103C37.5411 50.6103 36.2007 50.3063 35.0398 49.8059C33.9563 49.3385 33.0999 48.7242 32.4483 48.2571L32.3869 48.2129C31.688 47.7122 31.2027 47.3745 30.6205 47.1249C30.0792 46.8931 29.3759 46.7081 28.3156 46.7081C27.2564 46.7081 26.5535 46.8928 26.0117 47.1252C25.4284 47.3752 24.9421 47.7131 24.2394 48.2152L24.1839 48.2546C23.5277 48.7236 22.6661 49.3394 21.5736 49.8078Z" fill="black"/>
</svg>
