<svg width="80" height="80" viewBox="0 0 80 80" fill="none" xmlns="http://www.w3.org/2000/svg">
<path d="M64.3534 25.8122C61.7496 25.8221 58.6796 25.8122 56.4699 25.7892C52.9665 25.7892 50.0804 22.8736 50.0804 19.3341V10.899C50.0804 9.51998 51.7385 8.83703 52.6842 9.83191L54.8197 12.0751C56.1426 13.4649 57.6247 15.0221 59.1032 16.5727C61.441 19.0287 63.7689 21.4748 65.4402 23.2315C66.3661 24.2001 65.6864 25.8089 64.3534 25.8122Z" fill="black"/>
<path fill-rule="evenodd" clip-rule="evenodd" d="M65.775 30.4647C66.5663 30.4647 67.2 31.105 67.2 31.9028V57.6315C67.2 65.5675 60.8335 71.9997 52.9435 71.9997H27.7564C19.5183 71.9997 12.8005 65.249 12.8005 56.9289V22.4335C12.8005 14.4975 19.2031 7.99969 27.0898 7.99969H44.0093C44.8335 7.99969 45.4672 8.67279 45.4672 9.47394V19.7773C45.4672 25.6316 50.2511 30.4319 56.0495 30.4647H65.775ZM43.722 58.8865C43.0916 58.8865 42.4612 58.6468 41.9818 58.1641C41.0198 57.2021 41.0198 55.6425 41.9818 54.6837L47.3666 49.3022L42.0902 44.0225C41.1281 43.0605 41.1281 41.5041 42.0902 40.5421C43.0522 39.5801 44.6118 39.5801 45.5706 40.5421L52.5905 47.5587C53.0535 48.0217 53.3128 48.6488 53.3128 49.3022C53.3128 49.9556 53.0535 50.5795 52.5905 51.0424L45.4622 58.1641C44.9829 58.6468 44.3524 58.8865 43.722 58.8865ZM34.538 51.5586C35.0174 52.0412 35.6478 52.2809 36.2782 52.2809C36.9086 52.2809 37.5391 52.0412 38.0184 51.5586C38.9805 50.5965 38.9805 49.0369 38.0184 48.0782L32.6338 42.6967L37.9101 37.417C38.8721 36.4549 38.8721 34.8986 37.9101 33.9366C36.948 32.9746 35.3884 32.9746 34.4297 33.9366L27.4099 40.9532C26.9469 41.4161 26.6875 42.0433 26.6875 42.6967C26.6875 43.3501 26.9469 43.9739 27.4099 44.4369L34.538 51.5586Z" fill="black"/>
</svg>
