<svg width="80" height="80" viewBox="0 0 80 80" fill="none" xmlns="http://www.w3.org/2000/svg">
<path d="M36.8 68.8V64.4104C36.8 62.6432 38.2329 61.2106 40 61.2104C41.7673 61.2104 43.2 62.6431 43.2 64.4104V68.8C43.2 70.5673 41.7673 72 40 72C38.2329 71.9998 36.8 70.5672 36.8 68.8ZM20.5969 54.8844C21.8529 53.7492 23.7924 53.7864 25.0031 54.9969C26.2528 56.2465 26.2528 58.2732 25.0031 59.5229L21.899 62.6271C20.6494 63.8767 18.6237 63.8766 17.374 62.6271C16.1244 61.3776 16.1236 59.3518 17.3729 58.1021L20.4771 54.9979L20.5969 54.8844ZM62.6271 58.1021L62.7406 58.2208C63.8756 59.477 63.8376 61.4164 62.6271 62.6271C61.3773 63.8767 59.3507 63.8768 58.101 62.6271L54.9969 59.5229L59.5229 54.9979L62.6271 58.1021ZM54.9979 54.9969C56.2477 53.7477 58.2734 53.7483 59.5229 54.9979L54.9969 59.5229C53.7474 58.2732 53.7482 56.2464 54.9979 54.9969ZM15.5896 36.8C17.3568 36.8 18.7894 38.2328 18.7896 40C18.7896 41.7673 17.3569 43.2 15.5896 43.2H11.2C9.43269 43.2 8 41.7673 8 40C8.00017 38.2328 9.4328 36.8 11.2 36.8H15.5896ZM68.8 36.8C70.5672 36.8 71.9998 38.2328 72 40C72 41.7673 70.5673 43.2 68.8 43.2H64.4104C62.6431 43.2 61.2104 41.7673 61.2104 40C61.2106 38.2328 62.6432 36.8 64.4104 36.8H68.8ZM25.0031 20.4781L25.1167 20.5969C26.2517 21.853 26.2138 23.7925 25.0031 25.0031C23.7925 26.2138 21.853 26.2517 20.5969 25.1167L20.4781 25.0031L17.3729 21.899L21.899 17.3729L25.0031 20.4781ZM58.101 17.3719C59.3507 16.1222 61.3774 16.1222 62.6271 17.3719C63.8766 18.6214 63.8764 20.6472 62.6271 21.8969L59.5229 25.001C58.2734 26.2506 56.2477 26.2513 54.9979 25.0021C53.7483 23.7525 53.7474 21.7258 54.9969 20.476L58.101 17.3719ZM17.3729 17.3729C18.6225 16.1233 20.6493 16.1235 21.899 17.3729L17.3729 21.899C16.1235 20.6493 16.1233 18.6225 17.3729 17.3729ZM36.8 15.5896V11.2C36.8 9.43281 38.2329 8.00019 40 8C41.7673 8 43.2 9.43269 43.2 11.2V15.5896C43.2 17.3569 41.7673 18.7896 40 18.7896C38.2329 18.7894 36.8 17.3568 36.8 15.5896Z" fill="black"/>
<path d="M50.226 40.0011C50.226 34.3546 45.6494 29.7752 40.001 29.775C34.3523 29.775 29.775 34.3545 29.775 40.0011C29.7752 45.6508 34.3529 50.2292 40.001 50.2292C45.6489 50.229 50.2258 45.6506 50.226 40.0011ZM56.626 40.0011C56.6258 49.1835 49.1853 56.629 40.001 56.6292C30.8164 56.6292 23.3752 49.1836 23.375 40.0011C23.375 30.8208 30.8167 23.375 40.001 23.375C49.185 23.3752 56.626 30.8209 56.626 40.0011Z" fill="black"/>
</svg>
