<svg width="80" height="80" viewBox="0 0 80 80" fill="none" xmlns="http://www.w3.org/2000/svg">
<path d="M32.463 10.1316C35.3746 9.2944 37.3412 12.4127 36.1358 14.6792L36.1349 14.6783C31.7641 22.9022 33.0717 33.3944 40.0079 40.3339C46.9473 47.2703 57.4367 48.5763 65.6576 44.1815L65.6616 44.1796C67.9984 42.9346 71.0246 45.0106 70.2112 47.8534L70.2122 47.8544C66.5601 60.6322 54.791 69.9924 40.8729 69.9924C24.0025 69.9922 10.3505 56.3068 10.3504 39.4698C10.3504 25.5257 19.6781 13.7797 32.463 10.1296V10.1316ZM16.3489 39.4698C16.3489 52.9981 27.3195 63.9937 40.8729 63.9939C49.827 63.9939 57.6891 59.1619 61.9672 51.9491C52.8667 54.1427 42.8632 51.6687 35.7678 44.576L35.7668 44.575C28.6698 37.4754 26.1979 27.4662 28.381 18.3639C21.1689 22.6322 16.3489 30.4847 16.3489 39.4698Z" fill="black"/>
</svg>
