<svg width="80" height="80" viewBox="0 0 80 80" fill="none" xmlns="http://www.w3.org/2000/svg">
<path d="M32.4629 10.1316C35.3745 9.29442 37.3411 12.4127 36.1358 14.6793L36.1348 14.6783C31.7641 22.9022 33.0717 33.3945 40.0079 40.3339C46.9472 47.2703 57.4367 48.5763 65.6576 44.1815L65.6615 44.1796C67.9983 42.9347 71.0245 45.0106 70.2111 47.8535L70.2121 47.8544C66.5601 60.6322 54.7909 69.9924 40.8729 69.9924C24.0024 69.9922 10.3504 56.3068 10.3503 39.4698C10.3503 25.5258 19.6781 13.7797 32.4629 10.1296V10.1316ZM16.3488 39.4698C16.3489 52.9981 27.3194 63.9938 40.8729 63.9939C49.827 63.9939 57.689 59.1619 61.9671 51.9491C52.8666 54.1427 42.8632 51.6687 35.7677 44.576L35.7667 44.575C28.6698 37.4754 26.1978 27.4662 28.3809 18.3639C21.1689 22.6322 16.3488 30.4847 16.3488 39.4698Z" fill="black"/>
</svg>
