<svg width="80" height="80" viewBox="0 0 80 80" fill="none" xmlns="http://www.w3.org/2000/svg">
<path fill-rule="evenodd" clip-rule="evenodd" d="M23.8087 23.2609L35.5612 25.1823C35.5612 26.4953 35.4651 27.8402 35.3691 29.2172C31.6544 31.1386 25.7621 33.2842 21.5671 32.8999C22.0475 29.6015 22.848 26.2711 23.8087 23.2609ZM33.1594 50.9289C40.6529 42.731 40.3967 25.0542 40.3326 23.0688C40.3006 21.916 39.468 20.9553 38.3152 20.7632L22.5919 18.2013C21.439 18.0092 20.3182 18.6817 19.9339 19.7704C19.2615 21.6278 13.4333 38.3438 17.9805 48.4951C18.8772 50.5126 20.5104 52.1137 22.5598 53.0104L20.9907 62.9695L17.7884 62.4571C16.4755 62.233 15.2266 63.1296 15.0344 64.4426C14.8103 65.7555 15.7069 66.9724 17.0199 67.1965L28.0678 68.9898C28.1959 69.0219 28.324 69.0219 28.4521 69.0219C29.6049 69.0219 30.6296 68.1893 30.8218 67.0044C31.0459 65.6915 30.1493 64.4746 28.8363 64.2504L25.7301 63.7381L27.2992 53.7789C29.5408 53.5547 31.6223 52.5941 33.1594 50.9289Z" fill="black"/>
<path fill-rule="evenodd" clip-rule="evenodd" d="M47.1215 27.8723L58.938 26.5273C59.7706 29.5695 60.4111 32.9319 60.7313 36.2303C56.5363 36.4224 50.7401 34.0207 47.1215 31.9392C47.0575 30.5622 47.0575 29.1852 47.1215 27.8723ZM63.069 65.9476L59.8987 66.2999L58.7459 56.3087C60.8594 55.5082 62.5886 53.9711 63.6134 51.9856C68.609 42.0585 63.5493 25.0863 62.9729 23.1969C62.6207 22.1082 61.5319 21.4036 60.4111 21.5317L44.5597 23.325C43.4068 23.4531 42.5102 24.3818 42.4141 25.5346C42.286 27.52 41.1973 45.1967 48.3064 53.7149C49.7474 55.4441 51.7648 56.5009 53.9744 56.8211L55.1273 66.8443L51.957 67.2286C50.612 67.3567 49.6833 68.5415 49.8435 69.8865C49.9716 71.1034 51.0283 72 52.2132 72H52.5014L58.0414 71.3595H58.0734L63.6134 70.7191C64.9583 70.559 65.887 69.3741 65.7269 68.0612C65.5988 66.7482 64.446 65.8196 63.069 65.9476Z" fill="black"/>
<path fill-rule="evenodd" clip-rule="evenodd" d="M33.356 18.1103C33.83 18.6259 34.4769 18.8853 35.1238 18.8853C35.7034 18.8853 36.2894 18.6771 36.7505 18.2512C37.7272 17.3514 37.7881 15.8335 36.8914 14.8568L33.8556 11.5648C32.9557 10.5849 31.4379 10.5273 30.4612 11.4239C29.4877 12.3238 29.4236 13.8417 30.3235 14.8184L33.356 18.1103Z" fill="black"/>
<path fill-rule="evenodd" clip-rule="evenodd" d="M49.0128 20.7718C49.4803 20.7718 49.9511 20.6373 50.3674 20.3523L54.0628 17.8225C55.158 17.0731 55.4366 15.5777 54.6873 14.4825C53.9379 13.3873 52.4425 13.1087 51.3473 13.858L47.655 16.3878C46.5598 17.1372 46.278 18.6327 47.0306 19.7278C47.4949 20.4067 48.2474 20.7718 49.0128 20.7718Z" fill="black"/>
<path fill-rule="evenodd" clip-rule="evenodd" d="M44.9318 15.1677L45.5434 10.7326C45.7227 9.41961 44.8037 8.20594 43.4907 8.02661C42.1746 7.82807 40.9641 8.76314 40.7848 10.0761L40.1732 14.5113C39.9938 15.8242 40.9097 17.0379 42.2226 17.2204C42.3347 17.2364 42.4468 17.2396 42.5557 17.2396C43.7341 17.2396 44.7653 16.3686 44.9318 15.1677Z" fill="black"/>
</svg>
