<svg width="80" height="80" viewBox="0 0 80 80" fill="none" xmlns="http://www.w3.org/2000/svg">
<path d="M11.5 51.2598V28.7402C11.5 23.9452 13.0071 19.6099 15.957 16.4453C18.9288 13.2574 23.1421 11.5 28.0488 11.5H34.3613C36.0182 11.5 37.3613 12.8431 37.3613 14.5C37.3613 16.1569 36.0182 17.5 34.3613 17.5H28.0488C24.6285 17.5 22.0676 18.691 20.3467 20.5371C18.604 22.4066 17.5 25.1912 17.5 28.7402V51.2598C17.5 54.8126 18.5993 57.5972 20.3379 59.4648C22.0539 61.3082 24.6137 62.5 28.0488 62.5H51.9453C55.3821 62.5 57.9431 61.3075 59.6602 59.4639C61.3996 57.5961 62.5 54.8121 62.5 51.2598V46.3271C62.5 44.6703 63.8431 43.3271 65.5 43.3271C67.1569 43.3271 68.5 44.6703 68.5 46.3271V51.2598C68.5 56.0514 67.0006 60.3874 64.0518 63.5537C61.0803 66.7442 56.8638 68.5 51.9453 68.5H28.0488C23.1314 68.5 18.9166 66.7435 15.9463 63.5527C12.9987 60.3863 11.5 56.0509 11.5 51.2598Z" fill="black"/>
<path d="M68.4988 28.2217C68.4988 29.8785 67.1557 31.2217 65.4988 31.2217C63.8421 31.2216 62.4988 29.8785 62.4988 28.2217V21.7422L46.2283 38.0127C45.0568 39.1843 43.1577 39.1843 41.9861 38.0127C40.8147 36.8411 40.8146 34.942 41.9861 33.7705L58.2567 17.5H51.7772C50.1204 17.4999 48.7772 16.1568 48.7772 14.5C48.7772 12.8432 50.1204 11.5001 51.7772 11.5H65.4988C67.1557 11.5 68.4988 12.8431 68.4988 14.5V28.2217Z" fill="black"/>
</svg>
