<svg width="80" height="80" viewBox="0 0 80 80" fill="none" xmlns="http://www.w3.org/2000/svg">
<path d="M8.0002 28.3C8.00042 22.8152 9.6724 18.16 13.0814 14.8907C16.4702 11.6409 21.1696 10.1501 26.4658 10.1501H53.5314C58.8305 10.1501 63.5331 11.6766 66.922 14.9751C70.3246 18.2872 72 22.9937 72.0001 28.5438V51.2281C72.0001 56.7169 70.3151 61.3645 66.9001 64.625C63.5074 67.8636 58.8112 69.3499 53.5314 69.3499H26.4377C21.1467 69.3499 16.4474 67.865 13.0596 64.6218C9.64892 61.3565 7.98252 56.7055 8.0002 51.2187V28.3ZM14.4002 51.2406C14.387 55.4138 15.6263 58.2209 17.4846 60C19.3663 61.8013 22.3011 62.9499 26.4377 62.95H53.5314C57.6512 62.95 60.5896 61.8027 62.4813 59.9968C64.3501 58.2128 65.6001 55.3998 65.6001 51.2281V28.5438C65.6 24.2806 64.3409 21.3908 62.4595 19.5594C60.5639 17.7144 57.6319 16.5501 53.5314 16.5501H26.4658C22.3343 16.5501 19.3998 17.7029 17.5127 19.5126C15.6467 21.3024 14.4004 24.1221 14.4002 28.3V51.2406Z" fill="black"/>
<path d="M47.8314 49.7999C49.5987 49.7999 51.0314 51.2326 51.0314 52.9999C51.0314 54.7672 49.5987 56.1999 47.8314 56.1999H32.1626C30.3953 56.1999 28.9627 54.7672 28.9627 52.9999C28.9627 51.2326 30.3953 49.7999 32.1626 49.7999H47.8314Z" fill="black"/>
<path d="M40.3501 36.1499C42.1435 36.3318 43.547 37.8467 43.547 39.6936C43.5461 41.6596 41.9536 43.2525 39.9876 43.253C38.1435 43.253 36.6262 41.8521 36.4438 40.0561L36.4251 39.6936L36.4438 39.328C36.6264 37.5297 38.1468 36.1311 39.9876 36.1311L40.3501 36.1499Z" fill="black"/>
<path d="M40.3501 25.3063C42.1421 25.4882 43.5462 26.9997 43.547 28.8469C43.547 30.8148 41.9531 32.4089 39.9876 32.4094C38.0217 32.4094 36.4251 30.8151 36.4251 28.8469C36.4259 26.8765 38.0259 25.2876 39.9876 25.2876L40.3501 25.3063Z" fill="black"/>
<path d="M26.1189 36.1499C27.9132 36.3319 29.3158 37.8477 29.3158 39.6936C29.315 41.6585 27.7236 43.2525 25.7564 43.253C23.9113 43.253 22.395 41.8512 22.2127 40.0561L22.1939 39.6936L22.2127 39.328C22.3952 37.5306 23.9146 36.1311 25.7564 36.1311L26.1189 36.1499Z" fill="black"/>
<path d="M26.1189 25.3063C27.9118 25.4882 29.315 27.0007 29.3158 28.8469C29.3158 30.8136 27.723 32.4089 25.7564 32.4094C23.7894 32.4094 22.1939 30.814 22.1939 28.8469C22.1947 26.8776 23.7935 25.2876 25.7564 25.2876L26.1189 25.3063Z" fill="black"/>
<path d="M54.6064 36.1499C56.3997 36.3318 57.8032 37.8467 57.8032 39.6936C57.8024 41.6596 56.2099 43.2525 54.2439 43.253C52.3998 43.253 50.8825 41.8521 50.7001 40.0561L50.6814 39.6936L50.7001 39.328C50.8827 37.5298 52.403 36.1311 54.2439 36.1311L54.6064 36.1499Z" fill="black"/>
<path d="M54.6064 25.3063C56.3983 25.4882 57.8025 26.9997 57.8032 28.8469C57.8032 30.8148 56.2093 32.4089 54.2439 32.4094C52.278 32.4094 50.6814 30.815 50.6814 28.8469C50.6822 26.8765 52.2821 25.2876 54.2439 25.2876L54.6064 25.3063Z" fill="black"/>
</svg>
