<svg width="80" height="80" viewBox="0 0 80 80" fill="none" xmlns="http://www.w3.org/2000/svg">
<path fill-rule="evenodd" clip-rule="evenodd" d="M27.3321 27.8454V13.7062H25.6573C24.3368 13.7062 23.2417 12.6111 23.2417 11.2906C23.2417 9.97006 24.3368 8.875 25.6573 8.875H53.8391C55.1596 8.875 56.2547 9.97006 56.2547 11.2906C56.2547 12.6111 55.1596 13.7062 53.8391 13.7062H52.1965V27.8132C52.1965 29.8101 52.7762 31.7425 53.9035 33.3529L57.6074 38.6994C52.0676 38.635 45.7871 40.2776 38.9269 43.7238C29.7155 48.394 22.0178 49.489 16.1238 47.0412C19.7311 41.8558 23.1773 36.8636 25.5929 33.3851C26.7202 31.7425 27.3321 29.8423 27.3321 27.8454Z" fill="black"/>
<path fill-rule="evenodd" clip-rule="evenodd" d="M67.1087 64.1436C64.8864 68.3628 60.7315 70.875 55.9648 70.875L23.596 70.8106C18.8614 70.8106 14.7066 68.2984 12.4843 64.0792C10.2941 59.8599 10.584 55.0288 13.2895 51.1316C16.1882 52.4521 19.3123 53.1607 22.7586 53.1607C28.2017 53.1607 34.3534 51.4537 41.0848 48.0397C48.4926 44.368 54.9341 42.9186 60.2484 43.756C60.5383 43.7882 60.8604 43.7882 61.118 43.7238L66.3035 51.1638C69.009 55.0932 69.2988 59.9243 67.1087 64.1436Z" fill="black"/>
</svg>
