<svg width="80" height="80" viewBox="0 0 80 80" fill="none" xmlns="http://www.w3.org/2000/svg">
<path fill-rule="evenodd" clip-rule="evenodd" d="M27.332 27.8454V13.7062H25.6572C24.3367 13.7062 23.2416 12.6111 23.2416 11.2906C23.2416 9.97006 24.3367 8.875 25.6572 8.875H53.839C55.1595 8.875 56.2545 9.97006 56.2545 11.2906C56.2545 12.6111 55.1595 13.7062 53.839 13.7062H52.1964V27.8132C52.1964 29.8101 52.7761 31.7425 53.9034 33.3529L57.6073 38.6994C52.0675 38.635 45.787 40.2776 38.9267 43.7238C29.7154 48.394 22.0177 49.489 16.1237 47.0412C19.731 41.8558 23.1772 36.8636 25.5928 33.3851C26.7201 31.7425 27.332 29.8423 27.332 27.8454Z" fill="black"/>
<path fill-rule="evenodd" clip-rule="evenodd" d="M67.1086 64.1436C64.8862 68.3628 60.7314 70.875 55.9647 70.875L23.5958 70.8106C18.8613 70.8106 14.7065 68.2984 12.4842 64.0792C10.294 59.8599 10.5839 55.0288 13.2893 51.1316C16.188 52.4521 19.3122 53.1607 22.7584 53.1607C28.2016 53.1607 34.3532 51.4537 41.0847 48.0397C48.4925 44.368 54.934 42.9186 60.2483 43.756C60.5382 43.7882 60.8603 43.7882 61.1179 43.7238L66.3034 51.1638C69.0088 55.0932 69.2987 59.9243 67.1086 64.1436Z" fill="black"/>
</svg>
