<svg width="80" height="80" viewBox="0 0 80 80" fill="none" xmlns="http://www.w3.org/2000/svg">
<path fill-rule="evenodd" clip-rule="evenodd" d="M68.4935 57.9899H26.4142C24.475 57.9899 22.9076 59.5574 22.9076 61.4965C22.9076 63.4357 24.475 65.0031 26.4142 65.0031H68.4935C70.4326 65.0031 72.0001 63.4357 72.0001 61.4965C72.0001 59.5574 70.4326 57.9899 68.4935 57.9899Z" fill="black"/>
<path fill-rule="evenodd" clip-rule="evenodd" d="M68.4935 36.9503H26.4142C24.475 36.9503 22.9076 38.5178 22.9076 40.4569C22.9076 42.3961 24.475 43.9635 26.4142 43.9635H68.4935C70.4326 43.9635 72.0001 42.3961 72.0001 40.4569C72.0001 38.5178 70.4326 36.9503 68.4935 36.9503Z" fill="black"/>
<path fill-rule="evenodd" clip-rule="evenodd" d="M26.4142 22.9241H68.4935C70.4326 22.9241 72.0001 21.3566 72.0001 19.4175C72.0001 17.4783 70.4326 15.9109 68.4935 15.9109H26.4142C24.475 15.9109 22.9076 17.4783 22.9076 19.4175C22.9076 21.3566 24.475 22.9241 26.4142 22.9241Z" fill="black"/>
<path fill-rule="evenodd" clip-rule="evenodd" d="M12.4219 15C9.98479 15 8.00006 16.9953 8.00006 19.4533C8.00006 21.8869 9.98479 23.8682 12.4219 23.8682C14.859 23.8682 16.8472 21.8869 16.8472 19.4533C16.8472 16.9953 14.859 15 12.4219 15Z" fill="black"/>
<path fill-rule="evenodd" clip-rule="evenodd" d="M12.4219 36.5327C9.98479 36.5327 8.00006 38.5139 8.00006 40.951C8.00006 43.3846 9.98479 45.3693 12.4219 45.3693C14.859 45.3693 16.8472 43.3846 16.8472 40.951C16.8472 38.5139 14.859 36.5327 12.4219 36.5327Z" fill="black"/>
<path fill-rule="evenodd" clip-rule="evenodd" d="M12.4219 57.0792C9.98479 57.0792 8.00006 59.0745 8.00006 61.5326C8.00006 63.9662 9.98479 65.9474 12.4219 65.9474C14.859 65.9474 16.8472 63.9662 16.8472 61.5326C16.8472 59.0745 14.859 57.0792 12.4219 57.0792Z" fill="black"/>
</svg>
