<svg width="80" height="80" viewBox="0 0 80 80" fill="none" xmlns="http://www.w3.org/2000/svg">
<path d="M65.5967 28.7031V23.6562C65.5962 18.543 61.4538 14.4 56.3405 14.4H52.3186C50.5513 14.4 49.1186 12.9673 49.1186 11.2C49.1186 9.43269 50.5513 8 52.3186 8H56.3405C64.9885 8 71.9962 15.0086 71.9967 23.6562V28.7031C71.9967 30.4704 70.564 31.9031 68.7967 31.9031C67.0301 31.9022 65.5967 30.4699 65.5967 28.7031Z" fill="black"/>
<path d="M8 28.7031V23.6562C8.00049 15.0088 15.0088 8.00049 23.6562 8H27.7812C29.5485 8 30.9812 9.43269 30.9812 11.2C30.9812 12.9673 29.5485 14.4 27.7812 14.4H23.6562C18.5434 14.4005 14.4005 18.5434 14.4 23.6562V28.7031C14.4 30.4704 12.9673 31.9031 11.2 31.9031C9.43269 31.9031 8 30.4704 8 28.7031Z" fill="black"/>
<path d="M8 56.3466V51.2997C8 49.5324 9.43269 48.0998 11.2 48.0998C12.9673 48.0998 14.4 49.5324 14.4 51.2997V56.3466L14.4469 57.2935C14.921 61.9586 18.8624 65.5993 23.6562 65.5997H27.6812L28.0062 65.6185C29.6198 65.782 30.8806 67.1432 30.8812 68.7997C30.8812 70.4568 29.6202 71.8205 28.0062 71.9841L27.6812 71.9997H23.6562C15.2794 71.9992 8.44148 65.4235 8.02187 57.1529L8 56.3466Z" fill="black"/>
<path d="M65.6 56.3466V51.2997C65.6 49.5328 67.0332 48.1004 68.8 48.0998C70.5673 48.0998 72 49.5324 72 51.2997V56.3466C72 64.9922 64.9915 71.9997 56.3438 71.9997H52.2188C50.4515 71.9997 49.0188 70.567 49.0188 68.7997C49.0194 67.0329 50.4519 65.5997 52.2188 65.5997H56.3438C61.458 65.5997 65.6 61.4565 65.6 56.3466Z" fill="black"/>
<path d="M48.6968 39.9968C48.6968 35.1945 44.8019 31.2999 39.9999 31.2999C35.1987 31.3 31.3062 35.1935 31.3062 39.9968C31.3062 44.7998 35.1987 48.6937 39.9999 48.6937C44.8019 48.6937 48.6967 44.7987 48.6968 39.9968ZM55.0968 39.9968C55.0967 48.3333 48.3365 55.0937 39.9999 55.0937C31.6619 55.0936 24.9062 48.3323 24.9062 39.9968C24.9062 31.661 31.6619 24.9 39.9999 24.9C48.3365 24.9 55.0968 31.6599 55.0968 39.9968Z" fill="black"/>
</svg>
