<svg width="80" height="80" viewBox="0 0 80 80" fill="none" xmlns="http://www.w3.org/2000/svg">
<path fill-rule="evenodd" clip-rule="evenodd" d="M59.5301 52.6202C59.0484 53.048 58.4522 53.2569 57.8526 53.2569C57.1587 53.2569 56.4648 52.9706 55.963 52.4114L46.5415 41.811L45.9587 42.2792C44.1263 43.6501 42.0446 44.3339 39.9764 44.3339C37.9251 44.3339 35.8838 43.6636 34.1019 42.323L33.6269 41.9457L24.0067 52.4384C23.5116 52.9807 22.8278 53.2569 22.144 53.2569C21.5343 53.2569 20.9213 53.0379 20.4396 52.5933C19.4088 51.6535 19.3381 50.0535 20.2846 49.0261L29.6724 38.7828L20.5642 31.5002C19.4762 30.6278 19.3011 29.0413 20.1701 27.9499C21.0493 26.8619 22.6358 26.6901 23.7238 27.5524L37.1975 38.3314C38.9221 39.6282 41.0644 39.6282 42.8632 38.2842L56.2728 27.5524C57.3642 26.6901 58.9507 26.8619 59.8265 27.9499C60.6989 29.0413 60.5204 30.6278 59.4324 31.5002L50.4926 38.6514L59.7389 49.0531C60.6686 50.0973 60.5743 51.6939 59.5301 52.6202ZM54.821 11H25.1789C15.2253 11 8 18.7945 8 29.5263V50.4106C8 60.9706 15.3836 68.9369 25.1789 68.9369H54.821C64.7747 68.9369 72 61.1423 72 50.4106V29.5263C72 18.9663 64.613 11 54.821 11Z" fill="black"/>
</svg>
