<svg width="80" height="80" viewBox="0 0 80 80" fill="none" xmlns="http://www.w3.org/2000/svg">
<path fill-rule="evenodd" clip-rule="evenodd" d="M53.5062 54.1783C53.5062 55.5371 52.4034 56.6399 51.0447 56.6399C49.6859 56.6399 48.5831 55.5371 48.5831 54.1783V30.8068C48.5831 29.448 49.6859 28.3452 51.0447 28.3452C52.4034 28.3452 53.5062 29.448 53.5062 30.8068V54.1783ZM31.0996 50.4368C31.0996 51.7956 29.9969 52.8983 28.6381 52.8983C27.2793 52.8983 26.1766 51.7956 26.1766 50.4368V27.0652C26.1766 25.7064 27.2793 24.6037 28.6381 24.6037C29.9969 24.6037 31.0996 25.7064 31.0996 27.0652V50.4368ZM69.5718 10.714C67.898 9.62439 65.8041 9.46029 63.9727 10.271L52.2 15.5058C51.6584 15.7454 51.0578 15.7684 50.4998 15.5616L31.6871 8.71855C29.9148 8.07526 28.0047 8.14419 26.298 8.9089L13.4488 14.6164C10.2914 16.0244 8.25 19.1653 8.25 22.6246V64.1853C8.25 66.1874 9.25431 68.0384 10.9314 69.1281C12.6086 70.2177 14.6959 70.3818 16.5241 69.5646L28.3001 64.333C28.8383 64.0934 29.4422 64.0704 30.0002 64.2739L48.8129 71.117H48.8194C49.6203 71.4091 50.4539 71.5535 51.281 71.5535C52.2787 71.5535 53.2732 71.3402 54.202 70.9299L67.0512 65.2192C70.2086 63.8144 72.25 60.6735 72.25 57.2208V15.6535C72.25 13.6482 71.2457 11.8037 69.5718 10.714Z" fill="black"/>
</svg>
