<svg width="80" height="80" viewBox="0 0 80 80" fill="none" xmlns="http://www.w3.org/2000/svg">
<path fill-rule="evenodd" clip-rule="evenodd" d="M44.8223 57.7707H33.8843C32.6423 57.7707 31.6345 56.7627 31.6345 55.5207C31.6345 54.2787 32.6423 53.2707 33.8843 53.2707H44.8223C46.0643 53.2707 47.0723 54.2787 47.0723 55.5207C47.0723 56.7627 46.0643 57.7707 44.8223 57.7707ZM49.0994 43.6683C48.767 43.4373 48.3242 43.4376 47.9921 43.6689C45.5729 45.3534 42.6632 46.3767 39.4973 46.3767C36.3287 46.3767 33.4211 45.3531 30.9997 43.6686C30.6677 43.4376 30.225 43.4373 29.8929 43.6683C27.4781 45.3483 24.5997 46.3767 21.5095 46.3767C19.5563 46.3767 17.7132 45.9666 16.0108 45.2715C15.3865 45.0165 14.6695 45.4554 14.6695 46.1298V52.5267C14.6695 61.2297 20.2555 67.0767 28.5655 67.0767H50.4233C58.7393 67.0767 64.3253 61.2297 64.3253 52.5267V46.0899C64.3253 45.4116 63.6005 44.9727 62.975 45.2352C61.2665 45.9522 59.4242 46.3767 57.4883 46.3767C54.3956 46.3767 51.5144 45.3483 49.0994 43.6683Z" fill="black"/>
<path fill-rule="evenodd" clip-rule="evenodd" d="M65.231 18.093C64.01 14.448 60.608 12 56.768 12H22.184C18.326 12 14.918 14.463 13.709 18.132C12.644 21.39 11 28.545 11 31.38C11 37.167 15.713 41.88 21.509 41.88C24.7476 41.88 27.6776 40.3083 29.6155 37.9158C30.0435 37.3872 30.9081 37.3914 31.3328 37.9224C33.2543 40.326 36.1859 41.88 39.497 41.88C42.8081 41.88 45.7397 40.3236 47.6612 37.9194C48.086 37.3884 48.9503 37.3842 49.3784 37.9128C51.3164 40.3062 54.2468 41.88 57.488 41.88C63.185 41.88 68 37.071 68 31.38C68 28.536 66.32 21.36 65.231 18.093Z" fill="black"/>
</svg>
