<svg width="80" height="80" viewBox="0 0 80 80" fill="none" xmlns="http://www.w3.org/2000/svg">
<path fill-rule="evenodd" clip-rule="evenodd" d="M35.6638 49.1375H40.4477L41.0387 44.4619H36.2581L35.6638 49.1375Z" fill="black"/>
<path fill-rule="evenodd" clip-rule="evenodd" d="M56.3676 25.7895C58.5774 25.8125 61.6474 25.8224 64.2511 25.8125C65.5841 25.8092 66.2605 24.2004 65.3379 23.2285C63.6666 21.4751 61.3387 19.029 59.0009 16.573C56.6533 14.1072 54.2958 11.6315 52.5819 9.83221C51.633 8.83734 49.9781 9.52029 49.9781 10.8993V19.3344C49.9781 22.8739 52.8643 25.7895 56.3676 25.7895Z" fill="black"/>
<path fill-rule="evenodd" clip-rule="evenodd" d="M48.6237 44.4621H46.0035L45.4092 49.1377H47.7766C49.1359 49.1377 50.2391 50.2409 50.2391 51.6002C50.2391 52.9596 49.1359 54.0628 47.7766 54.0628H44.7854L44.4341 56.857C44.2765 58.1014 43.2159 59.0109 41.9912 59.0109C41.8894 59.0109 41.7844 59.0043 41.6826 58.9912C40.3331 58.8204 39.3776 57.5892 39.5451 56.2397L39.8209 54.0628H35.037L34.6857 56.857C34.5149 58.2064 33.2935 59.1422 31.9309 58.9912C30.5847 58.8204 29.6292 57.5892 29.8 56.2397L30.0758 54.0628H28.0138C26.6545 54.0628 25.5512 52.9596 25.5512 51.6002C25.5512 50.2409 26.6545 49.1377 28.0138 49.1377H30.6996L31.2939 44.4621H28.8576C27.4983 44.4621 26.3951 43.3589 26.3951 41.9996C26.3951 40.6402 27.4983 39.537 28.8576 39.537H31.9178L32.2724 36.7461C32.4398 35.3967 33.6448 34.4346 35.0239 34.6119C36.3733 34.7827 37.3288 36.0172 37.1581 37.3634L36.8823 39.537H41.6629L42.0142 36.7461C42.1849 35.3967 43.39 34.4346 44.769 34.6119C46.1152 34.7827 47.0706 36.0139 46.9032 37.3634L46.6274 39.537H48.6237C49.983 39.537 51.0862 40.6402 51.0862 41.9996C51.0862 43.3589 49.983 44.4621 48.6237 44.4621ZM65.6711 30.465H55.9457C50.1472 30.4322 45.3633 25.6319 45.3633 19.7776V9.47096C45.3633 8.6731 44.7296 8 43.9054 8H26.9861C19.0994 8 12.7 14.4946 12.7 22.4305V56.9259C12.7 65.246 19.4146 72 27.6526 72H52.8396C60.7296 72 67.0994 65.5678 67.0994 57.6318V31.9032C67.0994 31.1053 66.4657 30.465 65.6711 30.465Z" fill="black"/>
</svg>
