<svg width="80" height="80" viewBox="0 0 80 80" fill="none" xmlns="http://www.w3.org/2000/svg">
<path d="M29.2811 11.3573C32.7972 8.48617 37.9868 8.691 41.2639 11.9718L68.0318 38.7397C71.3092 42.0178 71.5115 47.2026 68.6464 50.7191L68.0318 51.3997L62.8338 56.5977L62.8303 56.5942C52.6971 66.7295 36.0481 68.5552 24.6873 59.1741C11.8172 48.5453 11.1387 29.4336 22.6664 17.906L28.6005 11.9718L29.2811 11.3573ZM36.2326 16.9962C35.5149 16.2784 34.3493 16.2779 33.6319 16.9962L27.6943 22.9339C19.1063 31.5218 19.6083 45.7536 29.2116 53.6879C37.4404 60.4828 49.9746 59.4004 57.8059 51.5663L63.0039 46.3718C63.7231 45.649 63.7195 44.484 63.0039 43.7676L36.2326 16.9962Z" fill="black"/>
<path d="M48.6287 9.04125C50.0173 7.65304 52.2681 7.6528 53.6566 9.04125C55.0447 10.4297 55.0447 12.6806 53.6566 14.0691L45.9967 21.729C44.6082 23.117 42.3573 23.117 40.9688 21.729C39.5804 20.3405 39.5806 18.0897 40.9688 16.7011L48.6287 9.04125Z" fill="black"/>
<path d="M65.9311 26.3332C67.3196 24.945 69.5705 24.9448 70.9589 26.3332C72.347 27.7217 72.347 29.9726 70.9589 31.3611L63.2991 39.021C61.9106 40.409 59.6597 40.409 58.2712 39.021C56.8828 37.6325 56.883 35.3817 58.2712 33.9931L65.9311 26.3332Z" fill="black"/>
<path d="M49.3128 41.4274C50.7012 42.816 50.7013 45.0702 49.3128 46.4587C47.9243 47.8472 45.67 47.8471 44.2814 46.4587L49.3128 41.4274ZM33.5486 30.6946C34.9372 29.306 37.1879 29.306 38.5765 30.6946L49.3128 41.4274L46.7954 43.9413L44.2814 46.4587L33.5486 35.7224C32.1601 34.3339 32.1601 32.0831 33.5486 30.6946Z" fill="black"/>
<path d="M22.6699 52.306C24.0585 50.9179 26.3093 50.9176 27.6977 52.306C29.0857 53.6944 29.0857 55.9454 27.6977 57.3338L14.069 70.9626C12.6806 72.3504 10.4295 72.3504 9.04113 70.9626C7.65278 69.5742 7.65313 67.3233 9.04113 65.9347L22.6699 52.306Z" fill="black"/>
</svg>
