<svg width="80" height="80" viewBox="0 0 80 80" fill="none" xmlns="http://www.w3.org/2000/svg">
<path d="M40 40C40 34.1 44.8 29.3 50.7 29.3C56.6 29.3 61.4 34.1 61.4 40C61.4 45.9 56.6 50.7 50.7 50.7C44.8 50.7 40 45.9 40 40Z" fill="#1ABCFE"/>
<path d="M18.7 61.3C18.7 55.4 23.5 50.6 29.4 50.6H40V61.3C40 67.2 35.2 72 29.3 72C23.4 72 18.7 67.2 18.7 61.3Z" fill="#0ACF83"/>
<path d="M40 8V29.3H50.7C56.6 29.3 61.4 24.5 61.4 18.6C61.4 12.7 56.6 8 50.7 8H40Z" fill="#FF7262"/>
<path d="M18.7 18.7C18.7 24.6 23.5 29.4 29.4 29.4H40V8H29.3C23.4 8 18.7 12.8 18.7 18.7Z" fill="#F24E1E"/>
<path d="M18.7 40C18.7 45.9 23.5 50.7 29.4 50.7H40V29.3H29.3C23.4 29.3 18.7 34.1 18.7 40Z" fill="#A259FF"/>
</svg>
