<svg width="80" height="80" viewBox="0 0 80 80" fill="none" xmlns="http://www.w3.org/2000/svg">
<path d="M48.3807 8.14562L12.8613 10.761C9.99838 11.0085 9 12.8751 9 15.113V53.9347C9 55.6777 9.62292 57.1688 11.1184 59.1613L19.4681 69.9857C20.8398 71.7286 22.0857 72.1019 24.7054 71.9782L65.9527 69.4886C69.4406 69.2412 70.439 67.622 70.439 64.885V21.2099C70.439 19.7956 69.878 19.3881 68.2268 18.1807C68.1328 18.1126 68.0389 18.0443 67.9452 17.9759L56.6067 10.0123C53.8633 8.02402 52.7433 7.77229 48.3807 8.14562ZM25.6397 20.4953C22.2713 20.7214 21.5075 20.7726 19.594 19.2217L14.73 15.3647C14.2351 14.8655 14.4847 14.2426 15.7284 14.1189L49.8761 11.6314C52.7412 11.3818 54.2366 12.3781 55.3587 13.2485L61.2168 17.4809C61.4664 17.6047 62.0872 18.3492 61.3405 18.3492L26.0749 20.4654L25.6397 20.4953ZM21.7123 64.5116V27.4349C21.7123 25.8157 22.2094 25.0691 23.7048 24.9432L64.2055 22.5795C65.5794 22.4558 66.2023 23.3262 66.2023 24.9432V61.7725C66.2023 63.3917 65.9527 64.7612 63.7063 64.885L24.9507 67.1249C22.7086 67.2487 21.7123 66.5041 21.7123 64.5116ZM59.9731 29.4231C60.2205 30.5431 59.9731 31.6631 58.8488 31.7911L56.98 32.1602V59.5347C55.3587 60.405 53.8654 60.9021 52.6196 60.9021C50.6249 60.9021 50.1236 60.2792 48.6303 58.4147L36.415 39.2534V57.7917L40.2806 58.6643C40.2806 58.6643 40.2806 60.9042 37.1617 60.9042L28.5645 61.4013C28.317 60.9021 28.5645 59.6584 29.4391 59.4109L31.6791 58.7901V34.2785L28.5645 34.0268C28.317 32.9068 28.9378 31.2898 30.685 31.166L39.9072 30.5431L52.6196 49.9561V32.7831L49.377 32.4119C49.1295 31.0402 50.1236 30.0461 51.3716 29.9223L59.9731 29.4231Z" fill="black"/>
</svg>
