<svg width="80" height="80" viewBox="0 0 80 80" fill="none" xmlns="http://www.w3.org/2000/svg">
<path d="M20.8 72H59.2C66.272 72 72 66.272 72 59.2V20.8C72 13.728 66.272 8 59.2 8H20.8C13.728 8 8 13.728 8 20.8V59.2C8 66.272 13.728 72 20.8 72Z" fill="#FF4F00"/>
<path d="M19.712 38.8287L14 44.1727V46.7407H23.52V44.1727H17.672L17.664 44.1407L23.432 38.8047V36.2367H14.176V38.8047H19.704L19.712 38.8287ZM29.2016 35.9919C30.7776 35.9919 31.9136 36.3599 32.6176 37.1039C33.2776 37.7943 33.6288 38.7519 33.6696 39.9759L33.6736 40.2239V46.7359H31.1296L30.7376 44.1679H30.6416C30.5056 44.7519 30.2496 45.3039 29.8896 45.7839C29.2816 46.5679 28.4176 46.9599 27.2896 46.9599C26.3776 46.9599 25.6256 46.7119 25.0256 46.2079C24.4256 45.6959 24.1296 44.9279 24.1296 43.8959C24.1296 42.8879 24.4256 42.0719 25.0256 41.4559C25.588 40.8783 26.4952 40.5759 27.74 40.5399L27.9936 40.5359H30.6896V40.2559C30.6896 39.6879 30.5616 39.2639 30.3056 38.9599C30.0752 38.6799 29.7152 38.5279 29.232 38.5007L29.0656 38.4959C28.6336 38.4719 28.2016 38.6079 27.8576 38.8719C27.584 39.1023 27.3952 39.4687 27.284 39.9839L27.2496 40.1599L24.4416 39.7599C24.5136 39.0719 24.7296 38.4159 25.0736 37.8239C25.4336 37.2319 25.9616 36.7599 26.5936 36.4799C27.2656 36.1519 28.1296 35.9919 29.2016 35.9919ZM30.6888 42.8575L30.6904 42.5295H28.0424C27.9064 42.5215 27.7704 42.5455 27.6504 42.5855C27.5224 42.6335 27.4104 42.7055 27.3144 42.7935C27.2264 42.8895 27.1544 43.0015 27.1144 43.1215C27.0664 43.2495 27.0424 43.3775 27.0504 43.5055C27.0504 43.6415 27.0744 43.7855 27.1304 43.9055C27.1864 44.0335 27.2664 44.1455 27.3704 44.2415C27.5784 44.4335 27.9544 44.5295 28.4984 44.5295C29.1544 44.5295 29.6904 44.3535 30.0904 44.0175C30.2824 43.8575 30.4344 43.6575 30.5464 43.4335C30.6299 43.2523 30.6782 43.0568 30.6888 42.8575ZM46.0488 36.2367V46.7407H49.0568V36.2367H46.0488ZM67.3016 39.2527V36.2367H66.7976C65.9496 36.2367 65.2776 36.5407 64.7896 37.1487C64.4376 37.5807 64.1736 38.2207 63.9896 39.0767H63.9016L63.5096 36.2367H60.9416V46.7407H63.9496V41.3567C63.9496 40.6767 64.1016 40.1567 64.4216 39.7887C64.7336 39.4287 65.3176 39.2527 66.1656 39.2527H67.3016ZM55.3064 35.9495C56.3784 35.9495 57.2584 36.1575 57.9624 36.5815C58.65 36.989 59.1991 37.5939 59.5384 38.3175C59.8584 39.0279 60.04 39.7959 60.0648 40.5759L60.0664 40.8695V41.5255C60.0664 41.6455 60.0608 41.7823 60.0496 41.9367L60.0184 42.2695H52.9304C53.0104 42.9015 53.1944 43.3895 53.4824 43.7335C53.8824 44.2055 54.4904 44.4375 55.3144 44.4375C56.0024 44.4375 56.4904 44.2935 56.7784 43.9975C57.0328 43.7431 57.2216 43.4375 57.3408 43.1023L57.3944 42.9335L59.9784 43.6615C59.8104 44.2855 59.5304 44.8615 59.1544 45.3815C58.7624 45.9095 58.2424 46.3255 57.6424 46.5895C57.0104 46.8855 56.2104 47.0295 55.2664 47.0295C54.1624 47.0295 53.2184 46.7975 52.4264 46.3335C51.6322 45.8746 50.9898 45.1933 50.5784 44.3735C50.1302 43.4495 49.9081 42.4322 49.9304 41.4055C49.9304 39.7015 50.4104 38.3655 51.3544 37.3975C52.3064 36.4295 53.6264 35.9495 55.3064 35.9495ZM55.2224 38.4535C54.4464 38.4535 53.8624 38.6855 53.4624 39.1575C53.2144 39.4855 53.0544 39.8695 52.9824 40.2695H57.2944C57.1264 39.0615 56.4384 38.4535 55.2224 38.4535ZM49.1664 34.3775C49.2464 34.1695 49.2784 33.9375 49.2704 33.7135C49.2864 33.4815 49.2464 33.2575 49.1664 33.0495C49.0864 32.8335 48.9584 32.6415 48.7984 32.4815C48.6464 32.3215 48.4544 32.1935 48.2464 32.1135C48.0304 32.0335 47.8064 31.9935 47.5824 32.0015C47.3562 31.9917 47.1304 32.0294 46.9196 32.112C46.7088 32.1947 46.5177 32.3206 46.3584 32.4815C46.1904 32.6415 46.0704 32.8335 45.9824 33.0415C45.9024 33.2575 45.8624 33.4815 45.8704 33.7135C45.8624 33.9375 45.9024 34.1695 45.9824 34.3855C46.0704 34.5935 46.1984 34.7935 46.3584 34.9535C46.5184 35.1135 46.7104 35.2415 46.9184 35.3215C47.1287 35.4083 47.3551 35.4492 47.5824 35.4415C47.8097 35.4492 48.0361 35.4083 48.2464 35.3215C48.4544 35.2415 48.6464 35.1135 48.8064 34.9535C48.9584 34.7855 49.0864 34.5935 49.1664 34.3775ZM41.3752 35.9495C42.6312 35.9495 43.5832 36.4375 44.2152 37.4055C44.8552 38.3735 45.1752 39.7095 45.1752 41.4215C45.1752 43.1975 44.8472 44.5815 44.1832 45.5655C43.5272 46.5575 42.5672 47.0535 41.3112 47.0535C40.6872 47.0695 40.0792 46.9255 39.5352 46.6215C39.0072 46.3015 38.5912 45.8295 38.3352 45.2695C38.2145 45.0098 38.1121 44.7419 38.0288 44.4679L37.9512 44.1895H37.8472V49.7655H34.8392V36.2455H37.4072L37.7992 39.0775H37.8952C38.1112 38.1255 38.4472 37.4055 38.9112 36.9255C39.5272 36.2775 40.3512 35.9495 41.3752 35.9495ZM40.0336 38.6735C39.3456 38.6655 38.8096 38.8975 38.4256 39.3615C38.0336 39.8255 37.8416 40.4895 37.8416 41.3615V41.5615C37.8416 42.4175 38.0336 43.0975 38.4256 43.5855C38.6176 43.8335 38.8576 44.0255 39.1376 44.1535C39.3712 44.2663 39.6264 44.3247 39.8816 44.3311L40.0336 44.3295C40.728 44.3295 41.2448 44.1111 41.5968 43.6751L41.6816 43.5615C42.0336 43.0495 42.2096 42.3455 42.2096 41.4415C42.2096 40.5695 42.0336 39.8895 41.6896 39.4015C41.3456 38.9135 40.7936 38.6735 40.0336 38.6735Z" fill="white"/>
</svg>
