<svg width="80" height="80" viewBox="0 0 80 80" fill="none" xmlns="http://www.w3.org/2000/svg">
<path d="M40 71.8578C31.5508 71.8578 23.4476 68.5013 17.4731 62.5268C11.4986 56.5523 8.14221 48.4492 8.14221 40C8.14221 31.5508 11.4986 23.4476 17.4731 17.4731C23.4476 11.4986 31.5508 8.14221 40 8.14221C48.4492 8.14221 56.5523 11.4986 62.5268 17.4731C68.5013 23.4476 71.8578 31.5508 71.8578 40C71.8578 48.4492 68.5013 56.5523 62.5268 62.5268C56.5523 68.5013 48.4492 71.8578 40 71.8578ZM56.1246 36.4592H38.0339C37.6163 36.4592 37.2158 36.6251 36.9204 36.9204C36.6251 37.2158 36.4592 37.6163 36.4592 38.0339V41.9661C36.4592 42.8353 37.1646 43.5408 38.0294 43.5408H49.043C49.9169 43.5408 50.6177 44.2462 50.6177 45.1109V45.8982C50.6177 48.506 48.506 50.6177 45.8982 50.6177H30.9524C30.5363 50.6165 30.1377 50.4507 29.8435 50.1565C29.5493 49.8623 29.3834 49.4637 29.3822 49.0476V34.1018C29.3822 31.494 31.494 29.3822 34.0972 29.3822H56.1246C56.9893 29.3822 57.6947 28.6768 57.6947 27.8076V23.8754C57.6947 23.4586 57.5294 23.0587 57.2351 22.7635C56.9408 22.4684 56.5414 22.3019 56.1246 22.3007H34.0972C32.5477 22.3007 31.0133 22.606 29.5818 23.1991C28.1503 23.7922 26.8497 24.6616 25.7542 25.7574C24.6588 26.8533 23.7899 28.1543 23.1974 29.586C22.6048 31.0178 22.3001 32.5522 22.3007 34.1018V56.1246C22.3007 56.9938 23.0061 57.6993 23.8754 57.6993H47.077C48.4717 57.6999 49.8529 57.4257 51.1416 56.8923C52.4303 56.359 53.6014 55.577 54.5878 54.591C55.5742 53.605 56.3567 52.4343 56.8906 51.1458C57.4245 49.8573 57.6993 48.4762 57.6993 47.0815V38.0339C57.6993 37.6163 57.5334 37.2158 57.238 36.9204C56.9427 36.6251 56.5422 36.4592 56.1246 36.4592Z" fill="#C71D23"/>
</svg>
