<svg width="80" height="80" viewBox="0 0 80 80" fill="none" xmlns="http://www.w3.org/2000/svg">
<path d="M48.6282 9.04052C50.0168 7.6523 52.2676 7.65207 53.6561 9.04052C55.0442 10.429 55.0442 12.6799 53.6561 14.0684L48.5067 19.2143L60.7812 31.4888L65.9306 26.3394C67.3192 24.9512 69.57 24.951 70.9585 26.3394C72.3465 27.7279 72.3465 29.9788 70.9585 31.3673L65.8091 36.5167L68.0313 38.739C71.3087 42.0171 71.511 47.2018 68.6459 50.7183L68.0313 51.3989L62.8333 56.5935C52.8914 66.5393 36.6783 68.478 25.3396 59.6873L14.0685 70.9618C12.6801 72.3497 10.4291 72.3497 9.04067 70.9618C7.6523 69.5734 7.65262 67.3225 9.04067 65.9339L20.3117 54.6594C11.8484 43.7289 12.6278 27.9433 22.6659 17.9053L28.6001 11.9711L29.2806 11.3565C32.7967 8.48545 37.9864 8.69029 41.2635 11.9711L43.4788 14.1864L48.6282 9.04052ZM36.2321 16.9955C35.5144 16.2777 34.3488 16.2772 33.6314 16.9955V16.999L27.6938 22.9331C19.1048 31.5221 19.6079 45.7565 29.2146 53.6906C37.4434 60.4852 49.9743 59.3998 57.8054 51.5656L63.0034 46.371C63.7226 45.6483 63.7191 44.4832 63.0034 43.7668L36.2321 16.9955ZM49.3122 41.4196C50.7007 42.8081 50.7008 45.0624 49.3122 46.4509C47.9237 47.8394 45.6694 47.8394 44.2809 46.4509L49.3122 41.4196ZM33.5481 30.6867C34.8498 29.385 36.9085 29.3047 38.3051 30.4437L38.5759 30.6867L49.3122 41.4196L46.7948 43.9335L44.2809 46.4509L33.5481 35.7146L33.305 35.4438C32.166 34.0472 32.2463 31.9885 33.5481 30.6867Z" fill="black"/>
</svg>
