<svg width="80" height="80" viewBox="0 0 80 80" fill="none" xmlns="http://www.w3.org/2000/svg">
<path d="M33.4854 33.0589C33.4854 31.8549 32.512 30.8812 31.3085 30.8809C30.109 30.8809 29.1346 31.8535 29.1346 33.0589C29.1349 34.2621 30.1102 35.2369 31.3085 35.2369C32.5108 35.2366 33.4851 34.2607 33.4854 33.0589ZM39.7296 33.0589C39.7293 37.709 35.9613 41.4839 31.3085 41.4842C26.6573 41.4842 22.8906 37.708 22.8904 33.0589C22.8904 28.4056 26.6581 24.6336 31.3085 24.6336C35.9605 24.6339 39.7296 28.4046 39.7296 33.0589Z" fill="black"/>
<path d="M64.7558 46.8528V27.6869C64.7558 23.7733 63.5402 20.69 61.6032 18.615C59.6884 16.5638 56.8386 15.2473 53.0479 15.2473H26.9216C23.1317 15.2473 20.2913 16.5634 18.3846 18.6119C16.455 20.6855 15.2442 23.7692 15.2442 27.6869V52.3161L15.2595 53.0421C15.4003 56.6146 16.5835 59.4466 18.3968 61.3911C20.3087 63.4405 23.149 64.7527 26.9216 64.7527H43.9895L44.3066 64.771C45.8812 64.9305 47.1112 66.2591 47.1116 67.8764C47.1116 69.4941 45.8815 70.8253 44.3066 70.9847L43.9895 71H26.9216C21.6045 71 17.0444 69.0997 13.8295 65.6526C10.8366 62.4432 9.20996 58.1131 9.01829 53.2892L9 52.3161V27.6869C9 22.4796 10.6281 17.7799 13.8173 14.3535C17.0299 10.9025 21.5909 9 26.9216 9H53.0479C58.3784 9 62.9479 10.9016 66.1674 14.3505C69.3644 17.7753 71 22.4755 71 27.6869V46.8528C70.9999 48.5778 69.6021 49.9764 67.8779 49.9764C66.154 49.9761 64.7559 48.5776 64.7558 46.8528Z" fill="black"/>
<path d="M67.6721 38.9433C69.393 38.8391 70.8727 40.15 70.9771 41.8717C71.0813 43.5937 69.7713 45.0742 68.0501 45.1784C59.9227 45.6706 50.4193 47.9048 43.3111 51.8741C36.3886 55.7402 32.4906 60.7455 32.9661 66.8914L33.024 67.4923L33.0484 67.8096C33.0811 69.3927 31.9092 70.7735 30.3044 70.9698C28.6993 71.1661 27.2295 70.1079 26.8804 68.563L26.8255 68.2488L26.7341 67.3093C26.0031 57.6791 32.4253 50.7967 40.2683 46.4169C48.4031 41.8742 58.8801 39.4759 67.6721 38.9433Z" fill="black"/>
<path d="M56.9356 48.5068C58.2425 48.5068 59.4126 49.3211 59.8656 50.5476L60.1796 51.4017C61.0533 53.767 62.9135 55.6304 65.2713 56.505L66.125 56.8223C67.3489 57.2765 68.1615 58.4447 68.1617 59.7507C68.1615 61.0567 67.349 62.225 66.125 62.6791L65.2744 62.9964C62.9167 63.8707 61.0533 65.7343 60.1796 68.0997L59.8656 68.9539C59.4124 70.18 58.2423 70.9946 56.9356 70.9946C55.6288 70.9946 54.4587 70.18 54.0055 68.9539L53.6915 68.0997C52.8182 65.7346 50.9574 63.8707 48.5998 62.9964L47.7461 62.6791C46.522 62.2251 45.7097 61.0568 45.7094 59.7507C45.7096 58.4447 46.5223 57.2764 47.7461 56.8223L48.5998 56.505L49.0358 56.3312C51.1866 55.3972 52.8727 53.6193 53.6915 51.4017L54.0055 50.5476L54.2098 50.1083C54.7548 49.1307 55.792 48.5068 56.9356 48.5068ZM56.9356 58.0333C56.4116 58.6514 55.8394 59.226 55.2221 59.7507C55.8388 60.2749 56.412 60.8475 56.9356 61.465C57.4591 60.8475 58.0323 60.2749 58.6491 59.7507C58.0317 59.226 57.4595 58.6514 56.9356 58.0333Z" fill="black"/>
</svg>
