<svg width="80" height="80" viewBox="0 0 80 80" fill="none" xmlns="http://www.w3.org/2000/svg">
<path fill-rule="evenodd" clip-rule="evenodd" d="M35 62.4C35 59.3082 37.4634 56.8 40.5 56.8C43.5366 56.8 46 59.3082 46 62.4C46 65.4918 43.5366 68 40.5 68C37.4634 68 35 65.4918 35 62.4Z" fill="black"/>
<path fill-rule="evenodd" clip-rule="evenodd" d="M35 17.6C35 14.5081 37.4634 12 40.5 12C43.5366 12 46 14.5081 46 17.6C46 20.6919 43.5366 23.2 40.5 23.2C37.4634 23.2 35 20.6919 35 17.6Z" fill="black"/>
<path fill-rule="evenodd" clip-rule="evenodd" d="M35 40C35 36.9081 37.4634 34.4 40.5 34.4C43.5366 34.4 46 36.9081 46 40C46 43.0918 43.5366 45.6 40.5 45.6C37.4634 45.6 35 43.0918 35 40Z" fill="black"/>
</svg>
