<svg width="80" height="80" viewBox="0 0 80 80" fill="none" xmlns="http://www.w3.org/2000/svg">
<path d="M40.4969 8C53.8335 8 64.9869 18.2668 64.9907 31.3438L64.9969 48.6479C64.9969 61.725 53.8431 72 40.5 72C27.1617 72 16.0067 61.7345 16.0062 48.6594L16 31.3521C15.9967 18.274 27.1516 8.00001 40.4969 8ZM40.4969 14.4C30.2926 14.4 22.3636 22.173 22.3662 31.35L22.3724 48.6573C22.3724 57.8313 30.3011 65.6 40.5 65.6C50.7006 65.6 58.6303 57.8279 58.6307 48.65L58.6245 31.3458C58.6219 22.1673 50.6922 14.4 40.4969 14.4Z" fill="black"/>
<path d="M61.8169 30.9501C63.5749 30.9501 65 32.3828 65 34.1501C65 35.9174 63.5749 37.3501 61.8169 37.3501H19.1893C17.4313 37.3501 16.0062 35.9174 16.0062 34.1501C16.0062 32.3828 17.4313 30.9501 19.1893 30.9501H61.8169Z" fill="black"/>
<path d="M37.318 34.1563V11.2375C37.318 9.47019 38.7431 8.0375 40.501 8.0375C42.259 8.0375 43.6841 9.47019 43.6841 11.2375V34.1563C43.6841 35.9235 42.259 37.3563 40.501 37.3563C38.7431 37.3563 37.318 35.9235 37.318 34.1563Z" fill="black"/>
</svg>
