<svg width="80" height="80" viewBox="0 0 80 80" fill="none" xmlns="http://www.w3.org/2000/svg">
<path d="M56.0812 8.00003L56.2093 8.00316C64.4974 8.33702 71.0289 15.1807 70.9812 23.475V56.4531L70.9781 57.2375C70.7442 65.2789 64.2459 71.8168 56.1093 71.9968H29.2031L29.1937 72C20.9279 72.0255 14.1565 65.4359 13.9594 57.1718V23.475C13.8119 15.1073 20.4575 8.18408 28.8344 8.00316C29.3753 7.99975 36.0364 8.0004 42.5281 8.00003H56.0812ZM28.9719 14.4031C24.1085 14.5085 20.252 18.5384 20.3594 23.4031V57.0187L20.425 57.9062C20.968 62.2661 24.6939 65.6171 29.1812 65.6L55.9656 65.5968C60.8286 65.4896 64.6853 61.4606 64.5812 56.5937V23.45C64.6152 18.6083 60.8145 14.6131 55.9874 14.4H29.0062L28.9719 14.4031Z" fill="black"/>
<path d="M54.0375 48.9594L54.3656 48.975C55.9794 49.1387 57.2375 50.5024 57.2375 52.1594C57.2371 53.8161 55.9793 55.1801 54.3656 55.3437L54.0375 55.3593H34.075C32.3079 55.3593 30.8754 53.9264 30.875 52.1594C30.875 50.392 32.3077 48.9594 34.075 48.9594H54.0375ZM54.0375 36.7969L54.3656 36.8125C55.9794 36.9762 57.2375 38.3399 57.2375 39.9969C57.2373 41.6537 55.9793 43.0176 54.3656 43.1812L54.0375 43.1969H34.075C32.3078 43.1969 30.8752 41.764 30.875 39.9969C30.875 38.2296 32.3077 36.7969 34.075 36.7969H54.0375ZM43.7062 24.6375L44.0312 24.6531C45.6454 24.8165 46.9062 26.1803 46.9062 27.8375C46.9062 29.4947 45.6454 30.8585 44.0312 31.0219L43.7062 31.0375H34.075C32.3077 31.0375 30.875 29.6048 30.875 27.8375C30.875 26.0702 32.3077 24.6375 34.075 24.6375H43.7062Z" fill="black"/>
<path d="M22.8375 51.8312L23.1656 51.8468C24.7794 52.0105 26.0375 53.3742 26.0375 55.0312C26.0371 56.6878 24.7791 58.0488 23.1656 58.2125L22.8375 58.2312H12.2C10.433 58.2312 9.00046 56.7981 9 55.0312C9 53.2639 10.4327 51.8312 12.2 51.8312H22.8375ZM22.8375 36.7937C24.6044 36.7937 26.0369 38.2269 26.0375 39.9937C26.0375 41.761 24.6048 43.1937 22.8375 43.1937H12.2C10.4327 43.1937 9 41.761 9 39.9937C9.00061 38.2269 10.4331 36.7937 12.2 36.7937H22.8375ZM22.8375 21.7625C24.6048 21.7625 26.0375 23.1952 26.0375 24.9625C26.0375 26.7298 24.6048 28.1625 22.8375 28.1625H12.2C10.4327 28.1625 9 26.7298 9 24.9625C9 23.1952 10.4327 21.7625 12.2 21.7625H22.8375Z" fill="black"/>
</svg>
