<svg width="80" height="80" viewBox="0 0 80 80" fill="none" xmlns="http://www.w3.org/2000/svg">
<path fill-rule="evenodd" clip-rule="evenodd" d="M14.1833 21.048C14.2015 20.2084 13.382 19.5515 12.6456 19.9552C9.34491 21.7644 7.07538 25.2825 7.07538 29.2711V50.729C7.07538 54.787 9.35041 58.2898 12.6576 60.0905C13.3921 60.4905 14.2046 59.8397 14.1845 59.0038C14.1801 58.8247 14.1782 58.646 14.1782 58.4673V21.5328C14.1782 21.3711 14.1798 21.2094 14.1833 21.048Z" fill="black"/>
<path fill-rule="evenodd" clip-rule="evenodd" d="M68.4689 20.0006C67.7336 19.5924 66.913 20.2492 66.9299 21.0901C66.9329 21.2362 66.934 21.3834 66.934 21.5319V58.4666C66.934 58.6263 66.9325 58.7863 66.9291 58.9455C66.9112 59.7866 67.7336 60.4434 68.4689 60.0352C71.7194 58.2296 73.9246 54.741 73.9246 50.7283V29.2703C73.9246 25.2897 71.7194 21.8053 68.4689 20.0006Z" fill="black"/>
<path fill-rule="evenodd" clip-rule="evenodd" d="M49.6263 8H31.4493C23.9727 8 17.9166 14.0935 17.9166 21.5327V58.4673C17.9166 65.9439 23.9727 72 31.4493 72H49.6263C57.103 72 63.1964 65.9439 63.1964 58.4673V21.5327C63.1964 14.0935 57.103 8 49.6263 8Z" fill="black"/>
</svg>
