<svg width="80" height="80" viewBox="0 0 80 80" fill="none" xmlns="http://www.w3.org/2000/svg">
<path d="M62.6484 41.583C62.6484 37.7502 59.5412 34.6445 55.71 34.6445H24.2891C20.4545 34.6446 17.3477 37.7508 17.3477 41.583V57.0527C17.3477 60.8861 20.4556 63.9941 24.2891 63.9941H55.71C59.5402 63.9941 62.6484 60.8867 62.6484 57.0527V41.583ZM68.6484 57.0527C68.6484 64.1994 62.8549 69.9941 55.71 69.9941H24.2891C17.142 69.9941 11.3477 64.1999 11.3477 57.0527V41.583C11.3477 34.4348 17.1431 28.6446 24.2891 28.6445H55.71C62.8538 28.6445 68.6484 34.4353 68.6484 41.583V57.0527Z" fill="black"/>
<path d="M37.0009 55.5206V52.9737H34.4569C32.8001 52.9737 31.4569 51.6306 31.4569 49.9737C31.457 48.3169 32.8001 46.9737 34.4569 46.9737H37.0009V44.4298C37.0009 42.773 38.3442 41.43 40.0009 41.4298C41.6577 41.4298 43.0009 42.7729 43.0009 44.4298V46.9737H45.5487L45.703 46.9776C47.2881 47.058 48.5487 48.3687 48.5487 49.9737C48.5487 51.5788 47.2881 52.8894 45.703 52.9698L45.5487 52.9737H43.0009V55.5206C43.0009 57.1775 41.6577 58.5206 40.0009 58.5206C38.3442 58.5204 37.0009 57.1773 37.0009 55.5206Z" fill="black"/>
<path d="M57.4541 19.335L57.6084 19.3389C59.1935 19.4192 60.454 20.7299 60.4541 22.335C60.4541 23.94 59.1935 25.2507 57.6084 25.3311L57.4541 25.335H22.5449C20.8881 25.335 19.5449 23.9918 19.5449 22.335C19.545 20.6782 20.8881 19.335 22.5449 19.335H57.4541ZM49.8398 10C51.4967 10 52.8398 11.3431 52.8398 13C52.8398 14.6569 51.4967 16 49.8398 16H30.1553C28.4985 15.9999 27.1553 14.6568 27.1553 13C27.1553 11.3432 28.4985 10.0001 30.1553 10H49.8398Z" fill="black"/>
</svg>
