<svg width="80" height="80" viewBox="0 0 80 80" fill="none" xmlns="http://www.w3.org/2000/svg">
<path d="M28.988 63.8089L29.3037 63.8246C29.6171 63.8559 29.9242 63.9351 30.2162 64.0572C31.5151 64.6009 32.8845 65.0242 34.3005 65.3302L35.7349 65.5973L36.0536 65.6633C37.6235 66.0747 38.6577 67.6245 38.4036 69.2715C38.1494 70.9178 36.6978 72.079 35.0786 71.9934L34.7505 71.9588L33.8536 71.8048C31.8604 71.4348 29.9114 70.867 28.0412 70.1076C26.7207 69.7111 25.7568 68.4844 25.7568 67.0274C25.7568 65.2499 27.1895 63.8089 28.9568 63.8089H28.988Z" fill="black"/>
<path d="M15.3569 55.8951C16.6478 54.8505 18.4989 54.9789 19.6381 56.1402L19.8569 56.3854L20.6225 57.2906C21.1487 57.8809 21.7053 58.4452 22.2881 58.9784L23.1787 59.7547L23.4225 59.9747C24.5644 61.1333 24.6691 62.9971 23.6162 64.2838C22.5631 65.5705 20.7256 65.8233 19.3756 64.9187L19.1131 64.7238L17.9819 63.7401C17.2417 63.0629 16.5291 62.3448 15.8538 61.5871L14.8694 60.421L14.6788 60.1539C13.7948 58.7863 14.0662 56.9399 15.3569 55.8951Z" fill="black"/>
<path d="M10.7195 41.4181C12.3577 41.1682 13.8937 42.2141 14.2975 43.7943L14.3632 44.1149L14.6038 45.4318C14.882 46.743 15.2744 48.0321 15.7475 49.2757C16.3791 50.9358 15.5513 52.7987 13.9007 53.4339C12.2503 54.0686 10.401 53.2363 9.76947 51.5764C9.09523 49.8043 8.53815 47.9075 8.17886 45.9315L8.03823 45.0829L8.00386 44.7529C7.92435 43.1244 9.08243 41.6687 10.7195 41.4181Z" fill="black"/>
<path d="M10.1288 27.5385C10.9001 26.1039 12.64 25.4623 14.1694 26.1021C15.801 26.7848 16.5729 28.6664 15.8944 30.3075C15.1743 32.0484 14.6625 33.9127 14.3632 35.8801C14.0959 37.6371 12.4633 38.8456 10.7163 38.5768C8.96981 38.3079 7.77145 36.6656 8.03823 34.9089L8.19136 33.9911C8.57765 31.8636 9.17184 29.8035 9.98509 27.8371L10.1288 27.5385Z" fill="black"/>
<path d="M19.4756 14.9004C20.8375 13.7677 22.8555 13.9581 23.9818 15.3278C25.1081 16.6975 24.9155 18.7272 23.5537 19.8601C22.2833 20.9168 21.142 22.0405 20.1131 23.264L19.8881 23.5028C18.721 24.6357 16.8689 24.7173 15.6038 23.6411C14.2544 22.4932 14.0844 20.4629 15.2257 19.1057L16.2194 17.9805C17.236 16.8808 18.322 15.8599 19.4756 14.9004Z" fill="black"/>
<path d="M34.7536 8.03909C36.5 7.76885 38.1344 8.97322 38.4036 10.7295C38.6723 12.4862 37.475 14.13 35.7286 14.4006C33.9727 14.6723 32.2504 15.1346 30.6161 15.7804C28.9716 16.4304 27.1129 15.6174 26.4662 13.9637C25.82 12.3097 26.6284 10.4403 28.2724 9.78976C30.361 8.96426 32.5441 8.38108 34.7536 8.03909Z" fill="black"/>
<path d="M65.6001 40.0006C65.6001 38.6037 65.4918 37.2479 65.2751 35.9209L65.2688 35.8801C64.9981 34.0846 64.5426 32.353 63.9032 30.7192L63.8876 30.6783C62.9146 28.0974 61.533 25.7278 59.8251 23.6285L59.8095 23.6097C58.824 22.3783 57.7002 21.2425 56.4501 20.2026C56.437 20.1917 56.4225 20.1823 56.4095 20.1712C54.3517 18.4014 52.0037 16.9642 49.4783 15.9658C49.4588 15.9581 49.4384 15.9488 49.419 15.9407C48.1193 15.397 46.7509 14.9705 45.3346 14.6646L43.9034 14.4006L43.5815 14.3346C42.0125 13.9226 40.9776 12.3728 41.2315 10.7264C41.4856 9.07942 42.9397 7.91814 44.5596 8.00452L44.8846 8.03909L45.7846 8.1931C47.8772 8.58166 49.9241 9.17955 51.8783 9.9972L51.8752 10.0003C55.0463 11.2614 57.9721 13.052 60.5282 15.2429L61.672 16.2424C62.7861 17.263 63.8263 18.365 64.7782 19.552C66.9034 22.1642 68.6323 25.1246 69.8563 28.3588C70.6752 30.4507 71.2507 32.6387 71.5906 34.8743L71.7719 36.1441C71.9258 37.4157 72 38.7002 72 40.0006C72 41.7192 71.8645 43.4139 71.5938 45.0829L71.5969 45.086C71.2342 47.4895 70.6037 49.7384 69.725 51.9095C69.7073 51.9629 69.6924 52.0173 69.6719 52.0698C68.4167 55.276 66.631 58.193 64.4594 60.7603C63.171 62.3748 61.6898 63.8313 60.1251 65.0945L60.122 65.0914C57.5247 67.2282 54.5518 68.9965 51.3252 70.2271L51.3189 70.2303C49.286 70.9996 47.1177 71.6158 44.8815 71.9621C43.1349 72.2325 41.5005 71.0283 41.2315 69.2716C40.9627 67.515 42.1601 65.8713 43.9065 65.6006C45.6329 65.3333 47.3666 64.8489 49.0533 64.2114C51.6134 63.2349 54.0021 61.8184 56.0939 60.094L56.1189 60.0751C57.3622 59.0714 58.5066 57.9438 59.472 56.7341L59.5345 56.6555C61.2724 54.614 62.6785 52.3187 63.6688 49.8288C63.6912 49.7626 63.714 49.6956 63.7407 49.6308C64.4663 47.87 64.9756 46.0639 65.2688 44.1211L65.2751 44.0802C65.4916 42.7575 65.6001 41.3983 65.6001 40.0006Z" fill="black"/>
<path d="M33.288 27.5133C35.3291 26.4255 37.7159 26.4492 39.8379 27.3467C43.6501 28.9324 47.1084 31.0981 50.1253 33.9C51.8491 35.4832 52.9225 37.5992 52.9347 39.9314C52.9466 42.268 51.8931 44.4114 50.1472 46.0415L50.1285 46.0603C47.287 48.6702 43.7444 51.0145 39.8223 52.6198L39.8004 52.6293C37.5786 53.5186 35.1482 53.5434 33.0849 52.3653C31.0093 51.1795 29.8104 49.0631 29.5224 46.7141C29.5197 46.6922 29.5184 46.67 29.5162 46.6481C29.0435 41.9867 29.05 37.4935 29.5193 33.2682L29.5255 33.2116C29.8479 30.7125 31.1939 28.6296 33.288 27.5133ZM37.3661 33.2808C36.7681 33.0254 36.4108 33.1351 36.2848 33.2022C36.2149 33.2395 36.145 33.2963 36.0786 33.3971C36.0109 33.4999 35.9165 33.6973 35.8723 34.0382C35.4657 37.7377 35.4543 41.7273 35.8755 45.9252L35.963 46.3401C36.0701 46.6647 36.217 46.7519 36.2442 46.7675C36.292 46.7948 36.6296 46.9619 37.4161 46.6512C40.5819 45.3543 43.4788 43.4466 45.7941 41.3238C46.4281 40.7316 46.536 40.2413 46.5348 39.966C46.5335 39.7213 46.4435 39.3265 46.016 38.8597L45.7973 38.6396C43.3699 36.3825 40.5611 34.6107 37.3942 33.2933L37.3661 33.2808Z" fill="black"/>
</svg>
