<svg width="80" height="80" viewBox="0 0 80 80" fill="none" xmlns="http://www.w3.org/2000/svg">
<path d="M65.5998 40C65.5998 25.8604 54.1395 14.4002 40 14.4002C25.8604 14.4002 14.4002 25.8604 14.4002 40C14.4002 54.1366 25.8606 65.5998 40 65.5998C54.1393 65.5998 65.5998 54.1366 65.5998 40ZM72 40C72 57.6707 57.6744 72 40 72C22.3256 72 8 57.6707 8 40C8 22.3258 22.3258 8 40 8C57.6741 8 72 22.3258 72 40Z" fill="black"/>
<path d="M36.6313 53.5186V53.4281C36.6313 51.6608 38.0641 50.228 39.8314 50.228C41.5987 50.228 43.0314 51.6608 43.0314 53.4281V53.5186C43.0313 55.2858 41.5986 56.7187 39.8314 56.7187C38.0641 56.7187 36.6314 55.2858 36.6313 53.5186Z" fill="black"/>
<path d="M45.0528 34.2189C45.0528 31.7518 43.0638 29.7752 40.6126 29.7751C38.1392 29.7751 36.1688 31.7458 36.1688 34.2189C36.1687 35.986 34.736 37.419 32.9688 37.419C31.2015 37.419 29.7688 35.986 29.7687 34.2189C29.7687 28.211 34.6047 23.375 40.6126 23.375C46.5863 23.375 51.453 28.2051 51.453 34.2189C51.4529 38.5068 48.9769 41.5228 45.8552 43.2426L45.8544 43.2417C44.7122 43.8921 44.0219 44.2468 43.4734 44.7402C43.073 45.1005 43.0243 45.2924 43.0278 45.5567C43.051 47.3238 41.637 48.7749 39.8699 48.7981C38.1029 48.8213 36.6519 47.4081 36.6285 45.6411C36.5945 43.0533 37.8234 41.2143 39.1923 39.9827C40.4063 38.8904 41.9663 38.0933 42.7263 37.6598L42.7677 37.6369C44.3472 36.7667 45.0527 35.6534 45.0528 34.2189Z" fill="black"/>
</svg>
