<svg width="80" height="80" viewBox="0 0 80 80" fill="none" xmlns="http://www.w3.org/2000/svg">
<path d="M42.5502 12.9649C43.7733 11.7186 45.7326 11.6796 47.0017 12.848L47.1227 12.9649L60.0539 26.1415C60.66 26.7592 61 27.5971 61 28.4705C61 29.344 60.66 30.1819 60.0539 30.7996L47.1227 43.9762L47.0017 44.0931C45.7326 45.2615 43.7733 45.2225 42.5502 43.9762C41.288 42.6898 41.288 40.6045 42.5502 39.3181L49.963 31.7647H41.6747C27.4547 31.7647 20.1633 49.1269 29.982 59.6083L32.6266 62.4317L32.7392 62.5572C33.8558 63.8771 33.7713 65.8719 32.5203 67.0888C31.2288 68.3448 29.1827 68.2964 27.95 66.9805L25.3054 64.1571C11.5593 49.4832 21.7665 25.1764 41.6747 25.1764H49.963L42.5502 17.623C41.288 16.3366 41.288 14.2513 42.5502 12.9649Z" fill="black"/>
</svg>
