<svg width="80" height="80" viewBox="0 0 80 80" fill="none" xmlns="http://www.w3.org/2000/svg">
<path d="M42.9146 9.10276C44.3124 7.67844 46.5516 7.63379 48.0019 8.96918L48.1402 9.10276L62.9188 24.1617C63.6114 24.8677 64 25.8252 64 26.8235C64 27.8218 63.6114 28.7793 62.9188 29.4853L48.1402 44.5442L48.0019 44.6778C46.5516 46.0132 44.3124 45.9685 42.9146 44.5442C41.472 43.074 41.472 40.6908 42.9146 39.2206L51.3863 30.5882H41.9139C25.6625 30.5882 17.3295 50.4307 28.5509 62.4095L31.5732 65.6363L31.7019 65.7797C32.978 67.2881 32.8815 69.5679 31.4518 70.9586C29.9758 72.3941 27.6374 72.3387 26.2285 70.8348L23.2062 67.6081C7.49639 50.8379 19.1617 23.0587 41.9139 23.0587H51.3863L42.9146 14.4263C41.472 12.9562 41.472 10.5729 42.9146 9.10276Z" fill="black"/>
</svg>
