<svg width="80" height="80" viewBox="0 0 80 80" fill="none" xmlns="http://www.w3.org/2000/svg">
<path fill-rule="evenodd" clip-rule="evenodd" d="M69.8299 22.5873C68.0273 21.8265 65.9331 22.6656 65.1687 24.4753L63.3518 28.7775C59.0603 18.2816 48.8205 11 36.7425 11C20.8921 11 7.99988 23.8922 7.99988 39.7425C7.99988 55.5893 20.8921 68.4815 36.7425 68.4815C46.2072 68.4815 55.064 63.8381 60.4328 56.0622C61.5492 54.4445 61.1439 52.2294 59.5297 51.1165C57.9084 49.9965 55.6968 50.4019 54.5804 52.0196C50.5378 57.8755 43.8713 61.3706 36.7425 61.3706C24.8173 61.3706 15.1109 51.6676 15.1109 39.7425C15.1109 27.8139 24.8173 18.111 36.7425 18.111C46.5059 18.111 54.68 24.4255 57.4177 33.2786L50.6623 30.4236C48.8632 29.6592 46.769 30.5054 46.0046 32.3115C45.2401 34.1213 46.0828 36.2084 47.8925 36.9692L60.3688 42.2456C60.5252 42.3238 60.6745 42.3949 60.8452 42.4447L61.3394 42.658C61.7909 42.8465 62.2638 42.9389 62.726 42.9389C64.1127 42.9389 65.4282 42.1247 66.0007 40.7665L71.7179 27.2486C72.4823 25.4388 71.6397 23.3518 69.8299 22.5873Z" fill="black"/>
</svg>
