<svg width="80" height="80" viewBox="0 0 80 80" fill="none" xmlns="http://www.w3.org/2000/svg">
<path d="M63.059 8.88436C64.8226 8.78165 66.3367 10.1268 66.4402 11.8906L67.0808 22.7937C67.1844 24.558 65.8357 26.0714 64.0715 26.175L53.2308 26.8125C51.4666 26.9161 49.9532 25.5705 49.8496 23.8062C49.7461 22.042 51.0916 20.5286 52.8558 20.425L60.4996 19.975L60.0496 12.2656C59.9461 10.5014 61.2947 8.98792 63.059 8.88436Z" fill="black"/>
<path d="M8.00012 40C8.00012 22.3276 22.3277 8 40.0001 8C50.2409 8.0004 59.3577 12.8146 65.2095 20.2906L65.7657 21.0219L65.947 21.2937C66.7734 22.6895 66.4239 24.5131 65.0907 25.4969C63.7574 26.4803 61.9117 26.2762 60.822 25.075L60.6157 24.8219L59.7064 23.6625C55.007 17.9996 47.9246 14.4004 40.0001 14.4C25.8623 14.4 14.4001 25.8622 14.4001 40C14.3994 41.7667 12.967 43.2 11.2001 43.2C9.43324 43.2 8.00081 41.7667 8.00012 40Z" fill="black"/>
<path d="M65.597 40C65.597 38.233 67.0301 36.8005 68.797 36.8C70.5643 36.8 71.997 38.2327 71.997 40C71.997 57.672 57.672 71.9995 40.0001 72C27.2483 72 16.2454 64.5399 11.1032 53.7594L10.622 52.7062L10.5095 52.4C10.0179 50.8538 10.7668 49.1555 12.2876 48.4969C13.8078 47.8386 15.5584 48.4535 16.3501 49.8688L16.497 50.1625L16.8782 51.0063C20.9967 59.6414 29.807 65.6 40.0001 65.6C54.1373 65.5995 65.597 54.1373 65.597 40Z" fill="black"/>
<path d="M42.772 53.4375C41.9266 54.9892 39.9832 55.5637 38.4314 54.7188C36.8797 53.8734 36.3083 51.93 37.1532 50.3781L42.772 53.4375ZM37.2251 25.4469C38.0691 23.8944 40.0132 23.3189 41.5657 24.1625C43.1182 25.0065 43.6937 26.9506 42.8501 28.5031L38.6407 36.2469H46.7501C47.8786 36.2469 48.9233 36.8427 49.5001 37.8125C50.0767 38.7832 50.0995 39.9867 49.5595 40.9781L42.772 53.4375L37.1532 50.3781L41.3626 42.6469H33.2564C32.1281 42.6469 31.0833 42.0539 30.5064 41.0844C29.9296 40.1143 29.9048 38.9103 30.4439 37.9188L37.2251 25.4469Z" fill="black"/>
</svg>
