<svg width="80" height="80" viewBox="0 0 80 80" fill="none" xmlns="http://www.w3.org/2000/svg">
<path fill-rule="evenodd" clip-rule="evenodd" d="M66.4095 32.2776C67.3205 32.2776 68.2314 31.9288 68.9253 31.2348C70.3166 29.8432 70.3166 27.5939 68.9253 26.2022L68.9004 26.1773C67.5162 24.7893 65.2744 24.8 63.8795 26.1916C62.4917 27.5796 62.5024 29.8432 63.8937 31.2348C64.5876 31.9288 65.4986 32.2776 66.4095 32.2776Z" fill="black"/>
<path fill-rule="evenodd" clip-rule="evenodd" d="M59.8902 14.5504L59.8653 14.5255C58.4811 13.141 56.2393 13.1482 54.8444 14.5398C53.4566 15.9278 53.4673 18.1914 54.8587 19.583C55.5525 20.277 56.4635 20.6258 57.3744 20.6258C58.2854 20.6258 59.1963 20.277 59.8902 19.583C61.2815 18.1914 61.2815 15.942 59.8902 14.5504Z" fill="black"/>
<path fill-rule="evenodd" clip-rule="evenodd" d="M43.6797 15.1991C43.8647 15.1991 44.0497 15.1849 44.2419 15.1564C46.1812 14.8468 47.5049 13.0209 47.1954 11.0812L47.1704 10.9282C46.868 8.98493 45.0496 7.73213 43.1139 8.04889C41.171 8.35853 39.8615 10.2591 40.1711 12.1988C40.4487 13.9499 41.961 15.1991 43.6797 15.1991Z" fill="black"/>
<path fill-rule="evenodd" clip-rule="evenodd" d="M65.1132 54.2141C63.5902 52.972 61.3627 53.2176 60.1208 54.7409C58.8825 56.2677 59.1244 58.5206 60.651 59.7592C61.3128 60.2966 62.1028 60.5564 62.8928 60.5564C63.9283 60.5564 64.9531 60.108 65.6576 59.2431C66.8959 57.7163 66.6682 55.474 65.1417 54.2355L65.1132 54.2141Z" fill="black"/>
<path fill-rule="evenodd" clip-rule="evenodd" d="M71.1215 40.9604L71.0966 40.9319C69.8013 39.4585 67.5631 39.3161 66.0864 40.6116C64.6097 41.9071 64.4709 44.1671 65.7626 45.6477C66.4672 46.4521 67.4528 46.8649 68.4421 46.8649C69.2747 46.8649 70.1109 46.5731 70.7835 45.9823C72.2637 44.6868 72.4132 42.441 71.1215 40.9604Z" fill="black"/>
<path fill-rule="evenodd" clip-rule="evenodd" d="M49.5314 63.0168C43.3648 65.5367 36.5825 65.4975 30.4372 62.9029C24.2884 60.3084 19.513 55.4715 16.9937 49.293C13.6773 41.1177 14.9334 32.3125 19.5984 25.6287L23.1035 29.7251C23.7902 30.5295 24.783 30.9744 25.8078 30.9744C26.0818 30.9744 26.3558 30.9424 26.6298 30.8748C27.9286 30.5687 28.9463 29.5579 29.263 28.2624L32.9459 13.2501C33.2234 12.1219 32.9316 10.9296 32.1666 10.0576C31.4016 9.18204 30.2522 8.73716 29.1064 8.86172L13.9904 10.506C12.6809 10.6484 11.5529 11.5061 11.0654 12.734C10.5815 13.9584 10.8128 15.3535 11.6704 16.3572L14.8338 20.0551C7.94119 28.7962 5.88801 40.8472 10.4036 51.973C13.6382 59.9169 19.7728 66.131 27.6724 69.4624C31.6827 71.1529 35.9029 72 40.1231 72C44.2223 72 48.318 71.2028 52.2216 69.6083C54.0435 68.8644 54.9153 66.7859 54.1716 64.9637C53.4279 63.145 51.3355 62.2765 49.5314 63.0168Z" fill="black"/>
</svg>
