<svg width="80" height="80" viewBox="0 0 80 80" fill="none" xmlns="http://www.w3.org/2000/svg">
<path d="M63.0588 8.88436C64.8225 8.78165 66.3366 10.1268 66.4401 11.8906L67.0807 22.7937C67.1843 24.558 65.8356 26.0714 64.0713 26.175L53.2307 26.8125C51.4665 26.9161 49.9531 25.5705 49.8495 23.8062C49.7459 22.042 51.0915 20.5286 52.8557 20.425L60.4995 19.975L60.0495 12.2656C59.9459 10.5014 61.2946 8.98792 63.0588 8.88436Z" fill="black"/>
<path d="M8 40C8 22.3276 22.3276 8 40 8C50.2407 8.0004 59.3575 12.8146 65.2094 20.2906L65.7656 21.0219L65.9469 21.2937C66.7733 22.6895 66.4237 24.5131 65.0906 25.4969C63.7573 26.4803 61.9116 26.2762 60.8219 25.075L60.6156 24.8219L59.7062 23.6625C55.0068 17.9996 47.9245 14.4004 40 14.4C25.8622 14.4 14.4 25.8622 14.4 40C14.3993 41.7667 12.9669 43.2 11.2 43.2C9.43312 43.2 8.00069 41.7667 8 40Z" fill="black"/>
<path d="M65.5969 40C65.5969 38.233 67.03 36.8005 68.7969 36.8C70.5642 36.8 71.9969 38.2327 71.9969 40C71.9969 57.672 57.6718 71.9995 40 72C27.2482 72 16.2452 64.5399 11.1031 53.7594L10.6219 52.7062L10.5094 52.4C10.0177 50.8538 10.7667 49.1555 12.2875 48.4969C13.8077 47.8386 15.5583 48.4535 16.35 49.8688L16.4969 50.1625L16.8781 51.0063C20.9966 59.6414 29.8069 65.6 40 65.6C54.1372 65.5995 65.5969 54.1373 65.5969 40Z" fill="black"/>
<path d="M42.7719 53.4375C41.9265 54.9892 39.9831 55.5637 38.4312 54.7188C36.8795 53.8734 36.3081 51.93 37.1531 50.3781L42.7719 53.4375ZM37.225 25.4469C38.069 23.8944 40.0131 23.3189 41.5656 24.1625C43.118 25.0065 43.6935 26.9506 42.85 28.5031L38.6406 36.2469H46.75C47.8785 36.2469 48.9232 36.8427 49.5 37.8125C50.0765 38.7832 50.0994 39.9867 49.5594 40.9781L42.7719 53.4375L37.1531 50.3781L41.3625 42.6469H33.2562C32.128 42.6469 31.0832 42.0539 30.5062 41.0844C29.9295 40.1143 29.9047 38.9103 30.4437 37.9188L37.225 25.4469Z" fill="black"/>
</svg>
