<svg width="80" height="80" viewBox="0 0 80 80" fill="none" xmlns="http://www.w3.org/2000/svg">
<path d="M13.5145 16.9679C18.1446 16.994 23.1897 17.2602 27.8806 19.8397C33.379 22.8633 37.7807 28.6529 41.4655 38.7862L42.094 40.4253C45.298 48.3378 49.3357 51.9854 53.3348 53.8191C57.2692 55.6231 61.5647 55.8888 66.2182 55.927L68.2358 55.9339L68.5969 55.9513C70.3909 56.1326 71.7917 57.6481 71.7917 59.4899C71.7916 61.3316 70.3908 62.8472 68.5969 63.0285L68.2358 63.0458L66.2286 63.0423C61.4137 63.0135 55.7332 62.7447 50.3692 60.2851C44.008 57.3682 38.5738 51.6429 34.7807 41.217C31.3805 31.8664 27.8101 27.9156 24.4532 26.0695C20.9598 24.1491 17.0444 24.0763 11.5559 24.0763C9.59205 24.0763 8 22.4842 8 20.5203C8 18.5564 9.59205 16.9644 11.5559 16.9644L13.5145 16.9679Z" fill="black"/>
<path d="M68.2358 16.9596C70.1997 16.9596 71.7917 18.5517 71.7917 20.5156C71.7917 22.4795 70.1997 24.0715 68.2358 24.0715C62.8006 24.0715 57.8316 24.1222 53.3348 26.1829C49.3359 28.0156 45.2978 31.6626 42.094 39.5732L41.4655 41.2123C37.7806 51.3463 33.379 57.1377 27.8806 60.1623C22.519 63.1114 16.6948 63.0411 11.5559 63.0411C9.59254 63.0411 8.0008 61.4483 8 59.4851C8 57.5212 9.59205 55.9292 11.5559 55.9292C17.0441 55.9292 20.9596 55.8538 24.4532 53.9324C27.8105 52.0856 31.3804 48.1329 34.7807 38.7815C38.5739 28.3555 44.0107 22.6325 50.3727 19.7169C56.5022 16.9082 63.0445 16.9596 68.2358 16.9596Z" fill="black"/>
<path d="M56.7553 48.0046C58.144 46.6159 60.3949 46.6159 61.7836 48.0046L61.7871 48.0081C61.7897 48.0107 61.7958 48.0133 61.801 48.0185C61.8114 48.0289 61.8257 48.0467 61.8461 48.0671C61.8869 48.1079 61.9489 48.1664 62.0267 48.2442C62.1829 48.4004 62.41 48.631 62.6934 48.9144L70.7499 56.9708C71.4163 57.6378 71.7919 58.5421 71.7916 59.485C71.7914 60.4284 71.4138 61.3324 70.7464 61.9992L61.801 70.9446C61.7959 70.9497 61.7897 70.9524 61.7871 70.955L61.7836 70.9585C60.3949 72.3472 58.144 72.3472 56.7553 70.9585C55.3673 69.5697 55.3668 67.3186 56.7553 65.9302L56.8178 65.8676C56.8586 65.8268 56.9208 65.7681 56.9984 65.6905L59.9258 62.7631C60.9362 61.753 62.0817 60.6031 63.2039 59.4815L57.6651 53.9427C57.3816 53.6593 57.1511 53.4322 56.9949 53.276C56.9171 53.1982 56.8586 53.1362 56.8178 53.0954C56.7973 53.075 56.7796 53.0607 56.7692 53.0503C56.764 53.0451 56.7614 53.039 56.7587 53.0364L56.7553 53.0329C55.3666 51.6442 55.3666 49.3933 56.7553 48.0046Z" fill="black"/>
<path d="M56.7553 9.0421C58.0565 7.74081 60.116 7.65778 61.5127 8.79554L61.7836 9.0421L62.0232 9.28171C62.1795 9.43792 62.4099 9.66502 62.6934 9.94844L70.7499 18.0049C71.4169 18.6719 71.7919 19.5792 71.7916 20.5225C71.791 21.4654 71.4169 22.3703 70.7499 23.0367C68.9995 24.7855 66.758 27.0257 64.9541 28.829L61.801 31.9821C61.796 31.9871 61.7897 31.9899 61.7871 31.9925L61.7836 31.996C60.3948 33.3845 58.1438 33.3848 56.7553 31.996C55.3672 30.6071 55.3666 28.3561 56.7553 26.9677L56.7587 26.9642C56.7614 26.9616 56.7674 26.959 56.7726 26.9538C56.7831 26.9433 56.7975 26.9254 56.8178 26.9052C56.8587 26.8643 56.9206 26.8057 56.9983 26.7281C57.1546 26.5718 57.3816 26.3447 57.6651 26.0613C58.2322 25.4943 59.0237 24.6989 59.9258 23.7972C60.9358 22.7875 62.0824 21.6399 63.2039 20.519L56.7553 14.0704L56.5122 13.803C55.3715 12.4067 55.4533 10.3448 56.7553 9.0421Z" fill="black"/>
</svg>
