<svg width="80" height="80" viewBox="0 0 80 80" fill="none" xmlns="http://www.w3.org/2000/svg">
<path fill-rule="evenodd" clip-rule="evenodd" d="M19 64.003C18.202 64.003 17.44 63.688 16.879 63.124C16.312 62.56 15.997 61.795 16 60.997L16.036 44.494C16.039 42.838 17.38 41.5 19.036 41.5H19.042C20.698 41.503 22.039 42.85 22.036 44.506L22.006 57.997L35.4941 57.967H35.5001C37.1561 57.967 38.4971 59.308 38.5001 60.961C38.5031 62.62 37.1651 63.964 35.5061 63.967L19.006 64.003H19Z" fill="black"/>
<path fill-rule="evenodd" clip-rule="evenodd" d="M60.9587 38.5H60.9527C59.2937 38.497 57.9557 37.15 57.9587 35.494L57.9888 22.006L44.5007 22.036H44.4947C42.8387 22.036 41.4977 20.698 41.4947 19.045C41.4917 17.386 42.8297 16.042 44.4887 16.036L60.9888 16H60.9947C61.7897 16 62.5518 16.315 63.1157 16.879C63.6797 17.443 63.9977 18.208 63.9947 19.006L63.9587 35.506C63.9557 37.162 62.6147 38.5 60.9587 38.5Z" fill="black"/>
</svg>
