<svg width="80" height="80" viewBox="0 0 80 80" fill="none" xmlns="http://www.w3.org/2000/svg">
<path fill-rule="evenodd" clip-rule="evenodd" d="M31.003 66.7548H30.997C29.338 66.7518 28 65.4048 28.003 63.7488L28.03 51.7248L16.006 51.7518H16C14.344 51.7518 13.003 50.4138 13 48.7578C12.997 47.1018 14.335 45.7548 15.994 45.7518L31.03 45.7188H31.036C31.831 45.7188 32.593 46.0338 33.157 46.5978C33.721 47.1618 34.0391 47.9268 34.0361 48.7248L34.0031 63.7608C34 65.4168 32.659 66.7548 31.003 66.7548Z" fill="black"/>
<path fill-rule="evenodd" clip-rule="evenodd" d="M48.965 34.0359C48.167 34.0359 47.405 33.7209 46.844 33.1569C46.277 32.593 45.962 31.828 45.965 31.03L45.998 15.994C46.001 14.341 47.342 13 48.998 13H49.004C50.66 13.003 52.001 14.35 51.998 16.006L51.971 28.03L63.995 28.003H64.001C65.654 28.003 66.998 29.344 67.001 30.997C67.004 32.656 65.663 33.9999 64.007 34.0029L48.971 34.0359H48.965Z" fill="black"/>
</svg>
