<svg width="80" height="80" viewBox="0 0 80 80" fill="none" xmlns="http://www.w3.org/2000/svg">
<path fill-rule="evenodd" clip-rule="evenodd" d="M16.3754 67C15.4775 67 14.6202 66.6457 13.989 66.0112C13.3511 65.3767 12.9966 64.5162 13 63.6185L13.0405 45.0537C13.0439 43.1909 14.5527 41.6857 16.4159 41.6857H16.4226C18.2858 41.6891 19.7946 43.2044 19.7913 45.0672L19.7575 60.2437L34.9333 60.2099H34.94C36.8032 60.2099 38.312 61.7185 38.3154 63.578C38.3188 65.4442 36.8134 66.9561 34.9468 66.9595L16.3821 67H16.3754Z" fill="black"/>
<path fill-rule="evenodd" clip-rule="evenodd" d="M63.5841 38.3109H63.5774C61.7108 38.3075 60.2054 36.7923 60.2087 34.9294L60.2425 19.7563L45.0668 19.7901H45.0601C43.1969 19.7901 41.6881 18.2849 41.6847 16.4254C41.6813 14.5592 43.1868 13.0472 45.0533 13.0405L63.6179 13H63.6246C64.5191 13 65.3764 13.3544 66.011 13.9888C66.6456 14.6233 67.0033 15.4838 67 16.3815L66.9595 34.9429C66.9561 36.8058 65.4473 38.3109 63.5841 38.3109Z" fill="black"/>
</svg>
