<svg width="80" height="80" viewBox="0 0 80 80" fill="none" xmlns="http://www.w3.org/2000/svg">
<path fill-rule="evenodd" clip-rule="evenodd" d="M30.0035 70.0233H29.9968C28.1535 70.02 26.6669 68.5165 26.6702 66.6681L26.7002 53.2472L13.3404 53.2773H13.3338C11.4938 53.2773 10.0038 51.7838 10.0005 49.9355C9.99716 48.0871 11.4838 46.5836 13.3271 46.5802L30.0335 46.5434H30.0401C30.9234 46.5434 31.7701 46.895 32.3968 47.5245C33.0234 48.154 33.3768 49.0079 33.3735 49.8986L33.3368 66.6815C33.3334 68.5299 31.8434 70.0233 30.0035 70.0233Z" fill="black"/>
<path fill-rule="evenodd" clip-rule="evenodd" d="M49.9608 33.5032C49.0742 33.5032 48.2275 33.1516 47.6042 32.5221C46.9742 31.8926 46.6242 31.0387 46.6276 30.148L46.6642 13.3652C46.6676 11.5201 48.1575 10.0233 49.9975 10.0233H50.0042C51.8441 10.0267 53.3341 11.5302 53.3308 13.3785L53.3008 26.7995L66.6605 26.7693H66.6672C68.5038 26.7693 69.9972 28.2661 70.0005 30.1112C70.0038 31.9629 68.5138 33.463 66.6739 33.4663L49.9675 33.5032H49.9608Z" fill="black"/>
</svg>
