<svg width="80" height="80" viewBox="0 0 80 80" fill="none" xmlns="http://www.w3.org/2000/svg">
<path d="M63.2657 39.2999C63.2657 26.0641 52.5357 15.3342 39.2999 15.3341C26.064 15.3341 15.3341 26.064 15.3341 39.2999C15.3342 52.5357 26.0641 63.2657 39.2999 63.2657C52.5357 63.2657 63.2657 52.5357 63.2657 39.2999ZM69.2657 39.2999C69.2657 55.8494 55.8494 69.2657 39.2999 69.2657C22.7504 69.2657 9.33419 55.8494 9.33411 39.2999C9.33411 22.7503 22.7503 9.33411 39.2999 9.33411C55.8494 9.33419 69.2657 22.7504 69.2657 39.2999Z" fill="black"/>
<path d="M55.9309 57.3372C57.1009 56.1642 59 56.1615 60.1731 57.3314L70.7453 67.8763L70.8518 67.9876C71.9175 69.1638 71.8846 70.982 70.7512 72.1185C69.6177 73.2549 67.7994 73.2931 66.6203 72.2308L66.508 72.1243L55.9367 61.5794C54.7637 60.4094 54.761 58.5103 55.9309 57.3372Z" fill="black"/>
</svg>
