<svg width="80" height="80" viewBox="0 0 80 80" fill="none" xmlns="http://www.w3.org/2000/svg">
<path fill-rule="evenodd" clip-rule="evenodd" d="M42.2566 31.1358C42.2566 31.7118 42.7183 32.1788 43.2944 32.1792C50.2509 32.1842 62.3245 32.2351 65.8989 32.2507C66.4704 32.2532 66.9308 31.795 66.9395 31.2233C66.9586 30.0116 66.977 28.892 66.9933 27.9129C67.1463 19.534 67.1741 18.0252 65.2237 16.0608C63.2684 14.1057 50.4505 9.45092 43.5298 7.64588C42.8803 7.47646 42.2566 7.97217 42.2566 8.64335V31.1358Z" fill="black"/>
<path fill-rule="evenodd" clip-rule="evenodd" d="M12.3607 31.2232C12.3696 31.7949 12.8299 32.2532 13.4017 32.2507C16.9664 32.235 28.9839 32.1841 36.0018 32.1792C36.5779 32.1788 37.04 31.7118 37.04 31.1358V8.64335C37.04 7.97217 36.4163 7.47646 35.7668 7.64588C28.8459 9.4513 16.0249 14.1094 14.073 16.0678C12.1261 18.0217 12.1539 19.5306 12.3034 27.8781C12.3225 28.8651 12.3416 29.9974 12.3607 31.2232Z" fill="black"/>
<path fill-rule="evenodd" clip-rule="evenodd" d="M43.2956 37.3931C42.7195 37.3935 42.2575 37.8604 42.2575 38.4365V70.5793C42.2575 71.315 42.9945 71.8198 43.67 71.5288C50.8922 68.4178 66.8516 59.5877 66.8516 42.2539C66.8516 40.8733 66.8558 39.5942 66.8624 38.3816C66.8656 37.8013 66.4004 37.3292 65.8201 37.3316C62.2342 37.3452 50.2994 37.389 43.2956 37.3931Z" fill="black"/>
<path fill-rule="evenodd" clip-rule="evenodd" d="M37.0413 38.4366C37.0413 37.8605 36.5792 37.3935 36.0032 37.3932C29.0009 37.389 17.0675 37.3476 13.4821 37.3348C12.9018 37.3327 12.4367 37.8045 12.4399 38.3851C12.4466 39.5953 12.4507 40.8737 12.4507 42.254C12.4507 59.5874 28.4071 68.4179 35.6287 71.5285C36.3046 71.8198 37.0413 71.315 37.0413 70.5793V38.4366Z" fill="black"/>
</svg>
