<svg width="80" height="80" viewBox="0 0 80 80" fill="none" xmlns="http://www.w3.org/2000/svg">
<path fill-rule="evenodd" clip-rule="evenodd" d="M42.2567 31.1357C42.2567 31.7117 42.7184 32.1787 43.2945 32.1791C50.2511 32.1841 62.3246 32.235 65.899 32.2507C66.4706 32.2532 66.9309 31.7949 66.9396 31.2233C66.9587 30.0115 66.9771 28.892 66.9935 27.9128C67.1464 19.534 67.1743 18.0251 65.2238 16.0608C63.2685 14.1056 50.4506 9.45085 43.5299 7.64582C42.8805 7.4764 42.2567 7.97211 42.2567 8.64329V31.1357Z" fill="black"/>
<path fill-rule="evenodd" clip-rule="evenodd" d="M12.3608 31.2231C12.3697 31.7948 12.8301 32.2532 13.4019 32.2506C16.9665 32.235 28.984 32.1841 36.002 32.1791C36.578 32.1787 37.0401 31.7118 37.0401 31.1357V8.64329C37.0401 7.97211 36.4164 7.4764 35.7669 7.64582C28.846 9.45124 16.025 14.1093 14.0732 16.0677C12.1262 18.0216 12.154 19.5305 12.3035 27.8781C12.3226 28.865 12.3417 29.9974 12.3608 31.2231Z" fill="black"/>
<path fill-rule="evenodd" clip-rule="evenodd" d="M43.2957 37.3931C42.7196 37.3934 42.2576 37.8603 42.2576 38.4364V70.5792C42.2576 71.3149 42.9946 71.8197 43.6702 71.5287C50.8923 68.4178 66.8518 59.5876 66.8518 42.2539C66.8518 40.8733 66.8559 39.5942 66.8625 38.3815C66.8657 37.8012 66.4005 37.3291 65.8202 37.3315C62.2344 37.3451 50.2995 37.3889 43.2957 37.3931Z" fill="black"/>
<path fill-rule="evenodd" clip-rule="evenodd" d="M37.0414 38.4365C37.0414 37.8604 36.5794 37.3935 36.0033 37.3931C29.0011 37.389 17.0677 37.3476 13.4823 37.3347C12.9019 37.3326 12.4368 37.8044 12.44 38.385C12.4467 39.5953 12.4508 40.8737 12.4508 42.2539C12.4508 59.5873 28.4072 68.4178 35.6288 71.5284C36.3047 71.8198 37.0414 71.315 37.0414 70.5793V38.4365Z" fill="black"/>
</svg>
