<svg width="80" height="80" viewBox="0 0 80 80" fill="none" xmlns="http://www.w3.org/2000/svg">
<path d="M36 67.9999V21.6555L18.8279 38.8276C17.2658 40.3898 14.7337 40.3898 13.1716 38.8276C11.6095 37.2655 11.6095 34.7334 13.1716 33.1713L37.1719 9.17095L37.4766 8.89751C39.0477 7.61609 41.3638 7.70647 42.8283 9.17095L66.8286 33.1713L67.1021 33.476C68.3835 35.0471 68.2931 37.3632 66.8286 38.8276C65.3641 40.2921 63.0481 40.3825 61.477 39.1011L61.1723 38.8276L44.0002 21.6555V67.9999C44.0002 70.2091 42.2093 72 40.0001 72C37.7909 72 36 70.2091 36 67.9999Z" fill="black"/>
</svg>
