<svg width="80" height="80" viewBox="0 0 80 80" fill="none" xmlns="http://www.w3.org/2000/svg">
<path d="M62.8801 30.0645C62.8799 28.0169 61.7878 26.1256 60.0144 25.103L60.0123 25.102L42.8101 15.1665C41.0351 14.1443 38.848 14.1432 37.0736 15.1655L37.0747 15.1665L19.8683 25.102C18.097 26.1244 17.0038 28.0165 17.0037 30.0645V49.9324C17.0037 51.9792 18.0953 53.8718 19.8672 54.898L37.0736 64.8304L37.0747 64.8315C38.8488 65.8565 41.0344 65.8565 42.8091 64.8315L42.8101 64.8304L60.0123 54.8991L60.3373 54.697C61.9207 53.6362 62.8801 51.852 62.8801 49.9324V30.0645ZM69.2801 49.9324C69.2801 54.2681 66.967 58.2725 63.2134 60.4408L46.0102 70.3721C42.2548 72.5415 37.6289 72.5427 33.8736 70.3732L16.6683 60.4408L16.6662 60.4398C12.9168 58.2713 10.6036 54.2676 10.6036 49.9324V30.0645C10.6038 25.7302 12.9165 21.725 16.6683 19.5592L33.8736 9.62375L33.8757 9.6227C37.5125 7.52583 41.9659 7.46117 45.6539 9.42687L46.0081 9.6227L46.0112 9.62479L63.2103 19.5582C66.9662 21.7238 69.28 25.7297 69.2801 30.0645V49.9324Z" fill="black"/>
<path d="M45.5946 39.999C45.5946 36.8747 43.0642 34.3438 39.9404 34.3437C36.8161 34.3437 34.2851 36.8748 34.2851 39.999C34.2852 43.1231 36.8162 45.6542 39.9404 45.6542C43.064 45.6541 45.5945 43.1231 45.5946 39.999ZM51.9946 39.999C51.9945 46.6576 46.5988 52.0542 39.9404 52.0543C33.2816 52.0543 27.8852 46.6577 27.8851 39.999C27.8851 33.3401 33.2815 27.9437 39.9404 27.9437C46.5989 27.9438 51.9946 33.3402 51.9946 39.999Z" fill="black"/>
</svg>
