<svg width="80" height="80" viewBox="0 0 80 80" fill="none" xmlns="http://www.w3.org/2000/svg">
<path d="M61.5969 21.1006C61.5969 18.2831 59.3168 16.0005 56.4992 16C53.6816 16 51.3986 18.2827 51.3986 21.1006C51.399 23.9181 53.6819 26.2012 56.4992 26.2012C59.3165 26.2007 61.5965 23.9178 61.5969 21.1006ZM67.5969 21.1006C67.5965 27.2315 62.6302 32.2007 56.4992 32.2012C50.368 32.2012 45.399 27.2317 45.3986 21.1006C45.3986 14.9691 50.3678 10 56.4992 10C62.6305 10.0005 67.5969 14.9694 67.5969 21.1006Z" fill="black"/>
<path d="M29.2012 39.9992C29.2012 37.1818 26.9181 34.899 24.1006 34.8987C21.2828 34.8987 19 37.1816 19 39.9992C19.0004 42.8169 21.283 45.0998 24.1006 45.0998C26.9178 45.0995 29.2008 42.8166 29.2012 39.9992ZM35.2012 39.9992C35.2008 46.1303 30.2315 51.0995 24.1006 51.0998C17.9693 51.0998 13.0004 46.1305 13 39.9992C13 33.8679 17.9691 28.8987 24.1006 28.8987C30.2318 28.899 35.2012 33.8681 35.2012 39.9992Z" fill="black"/>
<path d="M61.5969 58.9009C61.5969 56.0836 59.3168 53.8008 56.4992 53.8003C53.6816 53.8003 51.3986 56.0832 51.3986 58.9009C51.3991 61.7162 53.6827 63.9985 56.4992 63.9985C59.3157 63.9981 61.5964 61.7159 61.5969 58.9009ZM67.5969 58.9009C67.5964 65.0281 62.6309 69.9981 56.4992 69.9985C50.3674 69.9985 45.3991 65.0283 45.3986 58.9009C45.3986 52.7695 50.3679 47.8003 56.4992 47.8003C62.6304 47.8008 67.5969 52.7698 67.5969 58.9009Z" fill="black"/>
<path d="M28.4981 42.5635C29.3323 41.132 31.1711 40.6482 32.6025 41.4824L51.042 52.2285C52.4735 53.0628 52.9573 54.9015 52.1231 56.333C51.3406 57.6745 49.6781 58.1839 48.294 57.5547L48.0215 57.4141L29.5791 46.665C28.1487 45.8304 27.6642 43.9945 28.4981 42.5635ZM47.9922 22.5859C49.4232 21.751 51.2587 22.2331 52.0938 23.6641C52.9285 25.0948 52.4459 26.9304 51.0156 27.7656L32.5996 38.5117C31.1691 39.3462 29.3334 38.8633 28.4981 37.4336C27.6631 36.0025 28.1451 34.1641 29.5762 33.3291L47.9922 22.5859Z" fill="black"/>
</svg>
