<svg width="80" height="80" viewBox="0 0 80 80" fill="none" xmlns="http://www.w3.org/2000/svg">
<path d="M65.6 27.2844C65.6 23.233 64.3451 20.039 62.3427 17.8885C60.3643 15.7639 57.4201 14.4 53.4938 14.4H26.5031C22.5929 14.4 19.6474 15.7623 17.6646 17.8896C15.6585 20.0418 14.4 23.2366 14.4 27.2844V52.7156C14.4 56.7675 15.6546 59.9612 17.6563 62.1115C19.6338 64.2359 22.5768 65.6 26.5031 65.6H53.4906C57.4189 65.6 60.3641 64.2361 62.3427 62.1115C64.3453 59.9611 65.6 56.767 65.6 52.7156V27.2844ZM72 52.7156C72 58.0888 70.3187 62.9373 67.026 66.4729C63.7094 70.0343 58.9994 72 53.4906 72H26.5031C20.9955 72 16.2873 70.0335 12.9719 66.4719C9.68061 62.9362 8.00002 58.0883 8 52.7156V27.2844C8.00001 21.9077 9.68948 17.0598 12.9833 13.526C16.3005 9.96727 21.0075 8 26.5031 8H53.4938C59.0013 8 63.711 9.96573 67.0271 13.5271C70.3191 17.0627 72 21.9112 72 27.2844V52.7156Z" fill="black"/>
<path d="M25.7344 68.8V11.2C25.7344 9.43269 27.1671 8 28.9344 8C30.7017 8 32.1344 9.43269 32.1344 11.2V68.8C32.1344 70.5673 30.7017 72 28.9344 72C27.1671 72 25.7344 70.5673 25.7344 68.8Z" fill="black"/>
<path d="M49.4989 29.3302C50.794 28.1277 52.8182 28.2029 54.0207 29.4979C55.2233 30.793 55.1481 32.8173 53.853 34.0198L47.4051 40.0063L53.853 45.9938L53.9718 46.1083C55.1525 47.3216 55.1857 49.261 54.0207 50.5156C52.8557 51.7703 50.9191 51.8805 49.6218 50.7927L49.4989 50.6833L40.5259 42.3521C39.8739 41.7466 39.503 40.8961 39.503 40.0063C39.5032 39.1166 39.874 38.2668 40.5259 37.6615L49.4989 29.3302Z" fill="black"/>
</svg>
