<svg width="80" height="80" viewBox="0 0 80 80" fill="none" xmlns="http://www.w3.org/2000/svg">
<path d="M65.6 27.2844C65.6 23.2326 64.3454 20.0389 62.3438 17.8885C60.3662 15.7641 57.4232 14.4 53.4969 14.4H26.5094C22.5812 14.4 19.636 15.7639 17.6573 17.8885C15.6547 20.0389 14.4 23.233 14.4 27.2844V52.7156C14.4 56.767 15.6549 59.961 17.6573 62.1115C19.6357 64.2361 22.5799 65.6 26.5063 65.6H53.4969C57.4072 65.6 60.3526 64.2377 62.3354 62.1104C64.3415 59.9582 65.6 56.7634 65.6 52.7156V27.2844ZM72 52.7156C72 58.0923 70.3105 62.9402 67.0167 66.474C63.6995 70.0327 58.9926 72 53.4969 72H26.5063C20.9987 72 16.289 70.0343 12.9729 66.4729C9.68086 62.9374 8.00002 58.0887 8 52.7156V27.2844C8.00001 21.9112 9.68129 17.0627 12.974 13.5271C16.2906 9.96573 21.0006 8 26.5094 8H53.4969C59.0045 8 63.7127 9.96651 67.0281 13.5281C70.3194 17.0638 72 21.9117 72 27.2844V52.7156Z" fill="black"/>
<path d="M47.8656 68.8V11.2C47.8656 9.43269 49.2983 8 51.0656 8C52.8329 8 54.2656 9.43269 54.2656 11.2V68.8C54.2656 70.5673 52.8329 72 51.0656 72C49.2983 72 47.8656 70.5673 47.8656 68.8Z" fill="black"/>
<path d="M25.9802 29.4979C27.1827 28.2028 29.207 28.1277 30.5021 29.3302L39.476 37.6615C40.128 38.2668 40.4978 39.1166 40.4979 40.0063C40.4979 40.8961 40.1281 41.7466 39.476 42.3521L30.5021 50.6833C29.207 51.8858 27.1827 51.8107 25.9802 50.5156C24.7777 49.2205 24.8528 47.1963 26.1479 45.9938L32.5948 40.0063L26.1479 34.0198C24.8528 32.8173 24.7777 30.793 25.9802 29.4979Z" fill="black"/>
</svg>
