<svg width="80" height="80" viewBox="0 0 80 80" fill="none" xmlns="http://www.w3.org/2000/svg">
<path fill-rule="evenodd" clip-rule="evenodd" d="M20.4423 65.2932C20.4158 65.2932 20.3969 65.3046 20.3667 65.2932C19.8907 65.2819 19.4298 65.1837 19.0142 65.0136C18.9084 64.9683 18.8027 64.9192 18.7044 64.8701L18.6818 64.8625L18.6742 64.855L18.6629 64.8512L18.6402 64.8361L18.6327 64.8323C18.6251 64.8248 18.6213 64.8248 18.6213 64.8248L18.6138 64.821L18.6024 64.8172L18.5987 64.8134L18.5836 64.8059L18.5798 64.8021C18.5798 64.8021 18.5722 64.8021 18.5684 64.7945L18.5571 64.7908L18.5496 64.7832L18.5382 64.7794C18.5344 64.7719 18.5269 64.7719 18.5269 64.7719C18.5269 64.7719 18.5231 64.7794 18.5155 64.7643L18.508 64.7605C18.5042 64.753 18.4967 64.753 18.4967 64.753L18.4664 64.7379L18.4551 64.7303L18.4475 64.7265L18.4438 64.7228L18.4362 64.719L18.4249 64.7114C18.4249 64.7114 18.4211 64.7114 18.4135 64.7039L18.406 64.7001C18.202 64.5679 18.0055 64.4168 17.828 64.243C17.8204 64.2354 17.8166 64.2316 17.8166 64.2316L17.8129 64.2279C17.7978 64.209 17.7789 64.1939 17.7638 64.1787L7.10266 53.4912C5.6293 52.0141 5.63308 49.6227 7.11022 48.1493C8.58358 46.6797 10.9787 46.6722 12.4521 48.1569L16.6644 52.3805V18.8217C16.6644 16.7364 18.3531 15.0439 20.4423 15.0439C22.5276 15.0439 24.2201 16.7326 24.2201 18.8217V52.3805L28.4362 48.1569C29.9058 46.6722 32.3009 46.676 33.778 48.1493C35.2551 49.6265 35.2589 52.0141 33.7855 53.4912L23.1207 64.1787L23.0679 64.2354L23.0603 64.2392C23.0603 64.2392 23.0679 64.2543 23.0565 64.243L23.0414 64.2581C22.7619 64.5263 22.4445 64.7416 22.1121 64.9041L22.1045 64.9079L22.0932 64.9117L22.0818 64.9192L22.0743 64.923L22.0629 64.9268C22.0554 64.9305 22.0441 64.9268 22.0516 64.9343L22.0289 64.9419L22.0214 64.9494L22.0101 64.9532C22.0101 64.9532 22.0063 64.957 21.9987 64.957C21.9912 64.9721 21.9874 64.9645 21.9874 64.9645L21.9798 64.9683L21.9572 64.9759C21.9572 64.9759 21.9572 64.9683 21.9458 64.9834L21.9383 64.9872L21.9232 64.991C21.9194 64.9985 21.9156 64.9948 21.9156 64.9948L21.9043 64.9985L21.8967 65.0023C21.4698 65.1837 21.0014 65.2819 20.514 65.2932H20.4423Z" fill="black"/>
<path fill-rule="evenodd" clip-rule="evenodd" d="M70.2222 22.5996H38.22C36.1346 22.5996 34.4421 20.9109 34.4421 18.8217C34.4421 16.7326 36.1346 15.0439 38.22 15.0439H70.2222C72.3075 15.0439 74 16.7326 74 18.8217C74 20.9109 72.3075 22.5996 70.2222 22.5996ZM70.2222 43.9446H45.3299C43.2445 43.9446 41.552 42.2559 41.552 40.1667C41.552 38.0814 43.2445 36.3889 45.3299 36.3889H70.2222C72.3075 36.3889 74 38.0814 74 40.1667C74 42.2559 72.3075 43.9446 70.2222 43.9446ZM70.2222 65.2932H45.3299C43.2445 65.2932 41.552 63.6045 41.552 61.5154C41.552 59.4262 43.2445 57.7375 45.3299 57.7375H70.2222C72.3075 57.7375 74 59.4262 74 61.5154C74 63.6045 72.3075 65.2932 70.2222 65.2932Z" fill="black"/>
</svg>
