<svg width="80" height="80" viewBox="0 0 80 80" fill="none" xmlns="http://www.w3.org/2000/svg">
<path fill-rule="evenodd" clip-rule="evenodd" d="M31.2885 32.6352C31.7841 32.1896 31.6873 31.3974 31.1025 31.0776C25.4602 27.9917 19.0872 26.1057 12.3092 25.778C11.9085 25.7587 11.5363 25.9841 11.3703 26.3492C9.54506 30.3642 8.5 34.8073 8.5 39.4975C8.5 39.5831 8.50205 39.668 8.50546 39.7525C8.52627 40.2719 8.95558 40.6947 9.47435 40.724C9.71398 40.7375 9.95452 40.7472 10.1977 40.7472C18.2989 40.7472 25.6907 37.6695 31.2885 32.6352Z" fill="black"/>
<path fill-rule="evenodd" clip-rule="evenodd" d="M34.8009 27.3891C35.2529 27.6544 35.8357 27.5431 36.1351 27.1129C39.6868 22.0082 41.7931 15.8285 41.7931 9.15041C41.7931 8.92833 41.7863 8.708 41.7762 8.48844C41.752 7.96364 41.3228 7.53019 40.798 7.50699C40.699 7.50264 40.6 7.49988 40.4996 7.49988C30.4462 7.49988 21.4836 12.176 15.6162 19.4537C15.125 20.0629 15.5274 20.955 16.3037 21.0539C22.9764 21.9035 29.2312 24.1188 34.8009 27.3891Z" fill="black"/>
<path fill-rule="evenodd" clip-rule="evenodd" d="M46.8455 9.1507C46.8455 16.8638 44.4222 24.0042 40.3353 29.9125C40.0224 30.3647 40.1117 30.9849 40.5418 31.3274C43.5502 33.7225 46.2695 36.459 48.6456 39.4842C48.9871 39.9191 49.6116 40.0107 50.0661 39.6957C55.9803 35.5953 63.1319 33.1643 70.859 33.1643C71.3781 33.1643 71.7756 32.7179 71.6574 32.2126C68.8973 20.4145 59.5974 11.1099 47.8004 8.34709C47.2918 8.22795 46.8455 8.62819 46.8455 9.1507Z" fill="black"/>
<path fill-rule="evenodd" clip-rule="evenodd" d="M34.2107 69.8122C34.2107 59.8194 38.2478 50.7634 44.7549 44.1461C45.1106 43.7844 45.1588 43.2164 44.8482 42.8156C42.6304 39.9528 40.0735 37.3756 37.2268 35.1346C36.8253 34.8186 36.2527 34.8658 35.8889 35.2242C29.2713 41.7508 20.2039 45.7987 10.1973 45.7987C9.64637 45.7987 9.22477 46.2635 9.35045 46.7998C12.1135 58.5947 21.4172 67.8966 33.216 70.654C33.7491 70.7786 34.2107 70.3596 34.2107 69.8122Z" fill="black"/>
<path fill-rule="evenodd" clip-rule="evenodd" d="M70.8596 38.2167C64.1513 38.2167 57.9457 40.3438 52.8253 43.9248C52.3986 44.2232 52.2867 44.8013 52.5474 45.252C55.7902 50.857 57.9669 57.1425 58.7699 63.8393C58.8632 64.6161 59.7525 65.025 60.3652 64.5383C67.7475 58.6715 72.5 49.6377 72.5 39.5C72.5 39.3993 72.4973 39.2996 72.4929 39.1999C72.471 38.6785 72.0409 38.2547 71.5194 38.2325C71.3005 38.2231 71.0809 38.2167 70.8596 38.2167Z" fill="black"/>
<path fill-rule="evenodd" clip-rule="evenodd" d="M48.8703 48.9902C48.553 48.3991 47.7547 48.2993 47.3077 48.7996C42.3147 54.3871 39.2632 61.7448 39.2632 69.8135C39.2632 70.0486 39.2723 70.2814 39.2851 70.5135C39.3141 71.0376 39.7429 71.4752 40.2677 71.496C40.3445 71.4991 40.4216 71.5011 40.4995 71.5011C45.1092 71.5011 49.4777 70.4912 53.4396 68.7272C53.8064 68.5642 54.0348 68.1933 54.0183 67.7921C53.7397 61.0253 51.9053 54.6461 48.8703 48.9902Z" fill="black"/>
</svg>
