<svg width="80" height="80" viewBox="0 0 80 80" fill="none" xmlns="http://www.w3.org/2000/svg">
<path fill-rule="evenodd" clip-rule="evenodd" d="M47.108 54.3436H32.8906C31.5658 54.3436 30.4906 53.2684 30.4906 51.9436C30.4906 50.6189 31.5658 49.5437 32.8906 49.5437H47.108C48.4328 49.5437 49.508 50.6189 49.508 51.9436C49.508 53.2684 48.4328 54.3436 47.108 54.3436ZM70.7846 31.403L46.6952 12.3248C42.7529 9.22081 37.2458 9.22721 33.297 12.3312L9.21405 31.403C7.82847 32.5006 7.59487 34.5134 8.68926 35.899C9.79005 37.2846 11.8028 37.5118 13.1852 36.4206L13.5884 36.1038V57.8796C13.5884 64.6027 19.0635 70.0714 25.7931 70.0714H54.2088C60.9351 70.0714 66.4102 64.6027 66.4102 57.8796V36.1038L66.8134 36.4206C67.4022 36.8878 68.0998 37.1118 68.7974 37.1118C69.7414 37.1118 70.6758 36.6958 71.3094 35.899C72.407 34.5134 72.1702 32.5006 70.7846 31.403Z" fill="black"/>
</svg>
