<svg width="80" height="80" viewBox="0 0 80 80" fill="none" xmlns="http://www.w3.org/2000/svg">
<path d="M65.6001 19.9748C65.5994 18.1236 64.191 16.6015 62.3877 16.4186L62.022 16.3999H51.8597C49.8848 16.3999 48.2824 18.0004 48.2816 19.9748C48.2816 21.95 49.8843 23.5529 51.8597 23.5529H62.022C63.9975 23.5529 65.6001 21.95 65.6001 19.9748ZM72 19.9748C72 25.4846 67.5319 29.9528 62.022 29.9528H51.8597C46.3498 29.9528 41.8817 25.4846 41.8817 19.9748C41.8825 14.4657 46.3503 10 51.8597 10H62.022L62.5345 10.0125C67.806 10.279 71.9992 14.6374 72 19.9748Z" fill="black"/>
<path d="M65.6001 60.6367C65.6001 58.7845 64.1915 57.2602 62.3877 57.0773L62.022 57.0586H51.8597C49.8843 57.0586 48.2816 58.6613 48.2816 60.6367C48.2824 62.6109 49.8847 64.2116 51.8597 64.2116H62.022C63.997 64.2116 65.5993 62.6109 65.6001 60.6367ZM72 60.6367C71.9992 66.1457 67.5314 70.6115 62.022 70.6115H51.8597C46.3504 70.6115 41.8825 66.1457 41.8817 60.6367C41.8817 55.1267 46.3498 50.6587 51.8597 50.6587H62.022L62.5345 50.6712C67.8065 50.9377 72 55.2984 72 60.6367Z" fill="black"/>
<path d="M31.7184 40.3043C31.7176 38.3298 30.115 36.7293 28.1403 36.7293H17.9748C16.0007 36.7301 14.4006 38.3303 14.3999 40.3043C14.3999 42.2792 16.0004 43.8815 17.9748 43.8823H28.1403C30.1153 43.8823 31.7184 42.2798 31.7184 40.3043ZM38.1183 40.3043C38.1183 45.8141 33.6502 50.2822 28.1403 50.2822H17.9748C12.4657 50.2814 8 45.8137 8 40.3043C8.00071 34.7957 12.4662 30.3302 17.9748 30.3294H28.1403C33.6496 30.3294 38.1175 34.7953 38.1183 40.3043Z" fill="black"/>
<path d="M23.2468 33.5293V30.1419C23.2468 22.7608 29.2311 16.7765 36.6122 16.7765H45.0808C46.8481 16.7765 48.2816 18.2076 48.2816 19.9748C48.2816 21.7421 46.8481 23.1764 45.0808 23.1764H36.6122C32.7656 23.1764 29.6467 26.2954 29.6467 30.1419V33.5293C29.6466 35.2965 28.214 36.7293 26.4468 36.7293C24.6796 36.7293 23.247 35.2965 23.2468 33.5293Z" fill="black"/>
<path d="M23.2468 50.4696V47.0821C23.2468 45.3148 24.6795 43.8822 26.4468 43.8822C28.2141 43.8822 29.6467 45.3148 29.6467 47.0821V50.4696C29.6467 54.3158 32.7655 57.4351 36.6122 57.4351H45.0808L45.409 57.4507C47.0225 57.6146 48.2816 58.9798 48.2816 60.6367C48.2816 62.2934 47.0225 63.6555 45.409 63.8193L45.0808 63.835H36.6122C29.2312 63.835 23.2468 57.8506 23.2468 50.4696Z" fill="black"/>
</svg>
