<svg width="80" height="80" viewBox="0 0 80 80" fill="none" xmlns="http://www.w3.org/2000/svg">
<path d="M35.0973 8.00272C40.3228 8.00668 44.8507 9.92288 48.5222 13.587C55.0678 20.1201 61.6073 26.6596 68.1376 33.2056C73.2263 38.3029 73.3218 46.2599 68.2157 51.4116C62.6572 57.0229 57.0696 62.6042 51.4628 68.1614C46.3144 73.2644 38.3572 73.1743 33.2567 68.0864C26.6547 61.5028 20.0468 54.9139 13.4663 48.296C10.6105 45.4229 8.80987 41.9213 8.26326 37.8805L8.16951 37.068C7.88308 33.9764 8.04502 22.9369 8.05076 20.6588C8.06415 14.5953 12.5917 9.21789 18.56 8.1871C18.9328 8.12209 19.4408 8.09901 19.7569 8.0871C20.1764 8.0713 20.7098 8.05986 21.3162 8.0496C22.5333 8.02901 24.1062 8.016 25.7756 8.00897C29.1165 7.99492 32.8964 8.00118 35.0973 8.00272ZM25.8006 14.4089C24.14 14.4159 22.601 14.4265 21.4256 14.4464C20.8361 14.4564 20.3522 14.4705 19.9975 14.4839C19.5394 14.5012 19.5144 14.5125 19.66 14.487L19.6538 14.4901C16.9399 14.9571 14.7469 17.3747 14.4788 20.1213L14.4507 20.6745C14.4439 23.3466 14.2954 33.7896 14.5444 36.4774C14.8067 39.3201 15.9627 41.7302 18.0038 43.7836C24.5736 50.3908 31.1743 56.9694 37.7785 63.5552C40.4242 66.1943 44.3463 66.2041 46.9566 63.6177C52.5512 58.0726 58.1251 52.5019 63.6689 46.9054L64.1251 46.4023C66.2486 43.8085 66.0824 40.2051 63.6095 37.7274C57.0824 31.1846 50.5435 24.6456 44.0003 18.1151C41.5078 15.6279 38.595 14.4052 35.0911 14.4027C32.8801 14.4011 29.1211 14.3949 25.8006 14.4089Z" fill="black"/>
<path d="M28.2849 19.7995C32.8852 19.815 36.5229 23.6662 36.5036 28.1962C36.483 32.7729 32.6937 36.4589 28.1474 36.4493C23.6031 36.4392 19.825 32.6867 19.8506 28.1212C19.8813 23.4475 23.6238 19.7815 28.2849 19.7995ZM28.2599 26.1994C27.0955 26.1951 26.2578 27.0468 26.2506 28.1619C26.2475 29.1427 27.1206 30.0466 28.1599 30.0493C29.2361 30.0517 30.0992 29.158 30.1036 28.1681C30.108 27.039 29.1884 26.2025 28.2599 26.1994Z" fill="black"/>
</svg>
