<svg width="80" height="80" viewBox="0 0 80 80" fill="none" xmlns="http://www.w3.org/2000/svg">
<path fill-rule="evenodd" clip-rule="evenodd" d="M56.4683 25.7877C58.6782 25.8107 61.7483 25.8205 64.3522 25.8107C65.6853 25.8074 66.3617 24.1984 65.439 23.2265C63.7677 21.4731 61.4396 19.0268 59.1017 16.5707C56.754 14.1047 54.3964 11.6289 52.6824 9.82953C51.7334 8.83461 50.0785 9.51759 50.0785 10.8967V19.3322C50.0785 22.8719 52.9647 25.7877 56.4683 25.7877Z" fill="black"/>
<path fill-rule="evenodd" clip-rule="evenodd" d="M47.2927 41.8945C47.2927 43.2539 46.1894 44.3571 44.83 44.3571C43.4706 44.3571 42.3674 43.2539 42.3674 41.8945V39.5237H37.6259V53.9222H39.9966C41.356 53.9222 42.4593 55.0255 42.4593 56.3849C42.4593 57.7443 41.356 58.8475 39.9966 58.8475H35.2519C35.2223 58.8475 35.1895 58.8475 35.1632 58.8475C35.1337 58.8475 35.1008 58.8475 35.0713 58.8475H30.3364C28.977 58.8475 27.8737 57.7443 27.8737 56.3849C27.8737 55.0255 28.977 53.9222 30.3364 53.9222H32.7005V39.5237H27.9689V41.8945C27.9689 43.2539 26.8656 44.3571 25.5062 44.3571C24.1468 44.3571 23.0436 43.2539 23.0436 41.8945V38.6733C23.0436 36.4273 24.8725 34.5984 27.1152 34.5984H43.2211C45.4638 34.5984 47.2927 36.4273 47.2927 38.6733V41.8945ZM65.7726 30.4611H56.0467C50.2479 30.4316 45.4638 25.631 45.4638 19.7731V9.46927C45.4638 8.66808 44.83 7.99823 44.0059 7.99823H27.0889C19.1985 7.99823 12.7988 14.4931 12.7988 22.4295V56.9267C12.7988 65.2472 19.5137 71.9982 27.7522 71.9982H52.9405C60.8309 71.9982 67.201 65.5657 67.201 57.6326V31.9026C67.201 31.1014 66.5673 30.4611 65.7726 30.4611Z" fill="black"/>
</svg>
