<svg width="80" height="80" viewBox="0 0 80 80" fill="none" xmlns="http://www.w3.org/2000/svg">
<path d="M24.2051 13.7129C32.8689 9.5752 43.2001 11.3477 49.9893 18.1367C56.2644 24.4123 58.2521 33.7138 55.249 41.9277L67.8359 54.5156C71.5999 58.2798 71.7177 64.3093 68.1885 68.2148L67.8359 68.5859C63.9506 72.4716 57.6512 72.4712 53.7656 68.5859L41.1777 55.999C32.9638 59.002 23.6623 57.0143 17.3867 50.7392C10.5977 43.9501 8.82523 33.6188 12.9629 24.9551L13.0459 24.7929C13.4853 24.0001 14.2623 23.4454 15.1621 23.291C16.122 23.1263 17.1024 23.4373 17.791 24.1259L27.8535 34.1894L32.4307 33.1806L33.4395 28.6035L23.376 18.541C22.6874 17.8523 22.3763 16.8719 22.541 15.9121C22.7058 14.9523 23.3263 14.1326 24.2051 13.7129ZM45.7461 22.3789C41.8388 18.4717 36.3357 16.8246 31.0742 17.7529L38.2627 24.9424C39.3479 26.028 39.8057 27.5924 39.4756 29.0918L38.084 35.4072C37.7068 37.1192 36.3693 38.4568 34.6572 38.834L28.3428 40.2256C26.937 40.535 25.4733 40.1523 24.4014 39.209L24.1924 39.0127L17.0029 31.8242C16.0747 37.0857 17.7217 42.5887 21.6289 46.4961C26.62 51.487 34.2157 52.7899 40.585 49.748L40.8018 49.6543C41.9007 49.2318 43.1562 49.4911 43.999 50.334L58.0078 64.3427C59.5503 65.8852 62.0506 65.8857 63.5928 64.3437L63.5938 64.3427C65.1357 62.8006 65.1352 60.3003 63.5928 58.7578L49.584 44.749C48.6851 43.8501 48.4504 42.4821 48.9981 41.3349C52.04 34.9656 50.7371 27.37 45.7461 22.3789Z" fill="black"/>
</svg>
