<svg width="80" height="80" viewBox="0 0 80 80" fill="none" xmlns="http://www.w3.org/2000/svg">
<path d="M24.1657 15.2801C25.4203 14.0254 27.4545 14.0247 28.7094 15.279C29.9644 16.5337 29.965 18.5688 28.7105 19.8238L11.5176 37.022C10.2629 38.277 8.22782 38.2767 6.97277 37.022C5.71809 35.7674 5.71737 33.7332 6.97172 32.4782L24.1657 15.2801Z" fill="black"/>
<path d="M23.2247 23.9157V20.7641H20.1976C18.423 20.7641 16.9843 19.3255 16.9843 17.5508C16.9843 15.7762 18.423 14.3376 20.1976 14.3376H26.438C28.2124 14.3378 29.6513 15.7763 29.6513 17.5508V23.9157C29.6513 25.6902 28.2124 27.1287 26.438 27.1289C24.6633 27.1289 23.2247 25.6903 23.2247 23.9157Z" fill="black"/>
<path d="M6 28.4972C6 26.7225 7.43863 25.2839 9.21327 25.2839C10.9879 25.2839 12.4265 26.7225 12.4265 28.4972V31.5368H15.4536L15.6189 31.541C17.3165 31.6272 18.6669 33.031 18.6669 34.7501C18.6669 36.4691 17.3165 37.873 15.6189 37.9592L15.4536 37.9634H9.21327C7.43866 37.9634 6.00004 36.5247 6 34.7501V28.4972Z" fill="black"/>
<path d="M39.9486 8C44.4922 8 48.1958 11.6444 48.2642 16.1901L48.4221 26.4648C51.3123 26.6744 54.7684 26.9424 57.8203 27.7116C62.1343 28.799 66.6641 31.1075 68.6358 36.432C70.3592 41.0803 70.3247 46.3015 69.2289 50.9723C68.1361 55.6305 65.909 60.0787 62.8505 63.1372L62.8494 63.1361C59.2359 66.7512 53.88 68.6346 48.6512 69.1924C43.5551 69.736 38.095 69.0779 33.6674 67.0816L33.2428 66.8839C28.0019 64.3812 22.6183 60.5276 19.4849 58.1426L19.4807 58.1394C16.6663 55.9902 15.5048 52.4401 16.2434 49.1115L16.2444 49.1094C17.5687 43.1614 24.2027 40.1565 29.5264 43.0186L29.7795 43.1598L29.7805 43.1609L31.633 44.2309V16.3156C31.6332 11.7232 35.3562 8.00018 39.9486 8ZM38.0595 46.4118C38.0592 50.3903 33.7522 52.8739 30.3077 50.8886L30.3046 50.8866L26.5641 48.7245C24.9625 47.8008 22.9202 48.6963 22.5172 50.5058C22.293 51.5192 22.6597 52.4786 23.377 53.0287L24.6071 53.9513C27.6658 56.2139 31.9666 59.153 36.0125 61.0849L36.6307 61.3632C39.7852 62.6997 43.9141 63.235 47.9692 62.8024C52.3261 62.3377 56.084 60.8163 58.3057 58.5934C60.3401 56.5589 62.0895 53.2701 62.9729 49.5048C63.8533 45.752 63.7946 41.8617 62.6099 38.6663V38.6642C61.6957 36.1948 59.6121 34.7913 56.2493 33.9436C52.7251 33.0554 48.885 33.0145 44.9474 32.6372C43.3179 32.481 42.0667 31.1245 42.0416 29.4877L41.8387 16.2884C41.8232 15.2561 40.983 14.4265 39.9486 14.4265C38.9054 14.4267 38.0597 15.2725 38.0595 16.3156V46.4118Z" fill="black"/>
</svg>
