<svg width="80" height="80" viewBox="0 0 80 80" fill="none" xmlns="http://www.w3.org/2000/svg">
<path fill-rule="evenodd" clip-rule="evenodd" d="M36.2585 13.9231H43.7448C46.2753 13.9231 48.3331 15.889 48.5268 18.3735H31.4765C31.6702 15.889 33.728 13.9231 36.2585 13.9231ZM23.4585 65.2413H28.3815V23.2966H23.4585V65.2413ZM51.6185 65.2413H56.5415V23.2966H51.6185V65.2413ZM57.0667 18.3735H53.4498C53.2496 13.1748 48.9895 9 43.7448 9H36.2585C31.0137 9 26.7536 13.1748 26.5534 18.3735H22.9005C14.1374 18.3735 8 24.7735 8 33.9305V54.6074C8 63.9285 14.0062 70.1644 22.9005 70.1644H57.0667C65.9939 70.1644 72 63.9285 72 54.6074V33.9305C72 24.6423 65.9939 18.3735 57.0667 18.3735Z" fill="black"/>
</svg>
