<svg width="80" height="80" viewBox="0 0 80 80" fill="none" xmlns="http://www.w3.org/2000/svg">
<path d="M65.6 27.2844C65.6 23.233 64.3461 20.038 62.3438 17.8875C60.3654 15.7629 57.4201 14.4 53.4938 14.4H26.5031C22.5929 14.4 19.6485 15.7633 17.6656 17.8906C15.6596 20.0429 14.4 23.2366 14.4 27.2844V52.7156C14.4 56.7675 15.6546 59.9622 17.6563 62.1125C19.6338 64.2366 22.5771 65.6 26.5031 65.6H53.4906C57.4188 65.6 60.3651 64.2371 62.3438 62.1125C64.3464 59.9621 65.6 56.767 65.6 52.7156V27.2844ZM72 52.7156C72 58.0888 70.3176 62.9362 67.025 66.4719C63.7084 70.0332 58.9994 72 53.4906 72H26.5031C20.9955 72 16.2873 70.0335 12.9719 66.4719C9.68061 62.9362 8.00002 58.0883 8 52.7156V27.2844C8.00001 21.9076 9.69052 17.0588 12.9844 13.525C16.3015 9.9669 21.008 8 26.5031 8H53.4938C59.0013 8 63.712 9.96677 67.0281 13.5281C70.3195 17.0636 72 21.9118 72 27.2844V52.7156Z" fill="black"/>
<path d="M51.5719 45.1313L51.8969 45.1469C53.5111 45.3102 54.7719 46.674 54.7719 48.3313C54.7717 49.9884 53.511 51.3524 51.8969 51.5156L51.5719 51.5313H28.4375C26.6703 51.5313 25.2377 50.0984 25.2375 48.3313C25.2375 46.5639 26.6702 45.1313 28.4375 45.1313H51.5719ZM51.5719 28.4625L51.8969 28.4781C53.5111 28.6414 54.7719 30.0052 54.7719 31.6625C54.7719 33.3198 53.5111 34.6836 51.8969 34.8469L51.5719 34.8625H28.4375C26.6702 34.8625 25.2375 33.4298 25.2375 31.6625C25.2375 29.8952 26.6702 28.4625 28.4375 28.4625H51.5719Z" fill="black"/>
</svg>
