<svg width="80" height="80" viewBox="0 0 80 80" fill="none" xmlns="http://www.w3.org/2000/svg">
<path d="M31.1912 9.10264C32.664 7.63244 35.0515 7.63246 36.5244 9.10264C37.9973 10.5729 37.9973 12.956 36.5244 14.4262L27.8763 23.0586H37.5458C60.7719 23.0586 72.6806 50.8378 56.6442 67.608L53.5578 70.8348C52.1195 72.3387 49.7325 72.3942 48.2258 70.9585C46.7191 69.5229 46.6636 67.1401 48.1018 65.6362L51.187 62.4094C62.6419 50.4306 54.136 30.5881 37.5458 30.5881H27.8763L36.5244 39.2205L36.6582 39.3602C37.9963 40.8381 37.9514 43.1197 36.5244 44.5441C35.0974 45.9685 32.8116 46.0133 31.3311 44.6777L31.1912 44.5441L16.1049 29.4852C15.3976 28.7791 15 27.8218 15 26.8234C15 25.8249 15.3976 24.8676 16.1049 24.1616L31.1912 9.10264Z" fill="black"/>
</svg>
