<svg width="80" height="80" viewBox="0 0 80 80" fill="none" xmlns="http://www.w3.org/2000/svg">
<path d="M32.2298 12.9648C33.5185 11.6784 35.6076 11.6784 36.8963 12.9648C38.1851 14.2513 38.1851 16.3365 36.8963 17.6229L29.3293 25.1763H37.7901C58.1129 25.1763 68.5331 49.483 54.5012 64.157L51.8005 66.9804C50.542 68.2963 48.4534 68.3449 47.1351 67.0887C45.8167 65.8325 45.7682 63.7476 47.0266 62.4317L49.7262 59.6083C59.7492 49.1268 52.3065 31.7646 37.7901 31.7646H29.3293L36.8963 39.318L37.0134 39.4402C38.1842 40.7333 38.1449 42.7297 36.8963 43.9761C35.6477 45.2224 33.6477 45.2616 32.3522 44.093L32.2298 43.9761L19.0293 30.7995C18.4104 30.1817 18.0625 29.3441 18.0625 28.4705C18.0625 27.5968 18.4104 26.7592 19.0293 26.1414L32.2298 12.9648Z" fill="black"/>
</svg>
