<svg width="80" height="80" viewBox="0 0 80 80" fill="none" xmlns="http://www.w3.org/2000/svg">
<path fill-rule="evenodd" clip-rule="evenodd" d="M66.6241 42.7909C67.6101 32.5804 62.5237 22.2999 52.9242 17.1367C43.901 12.2834 33.3037 13.2496 25.4399 18.7407C24.5495 18.5045 23.6807 18.2966 22.8361 18.1177C19.3681 17.383 16.1601 17.1054 13.4963 17.4607C10.8784 17.8099 8.28314 18.8546 6.89698 21.2555C5.51086 23.6564 5.90372 26.4262 6.91033 28.8681C7.93452 31.3526 9.77896 33.9921 12.1491 36.628C12.7697 37.3184 13.4335 38.0159 14.1378 38.7188C14.0959 39.3247 14.0746 39.9367 14.0746 40.5534C14.0746 55.0538 25.8281 66.8075 40.3253 66.8075C45.8608 66.8075 50.9963 65.0939 55.2301 62.1677C55.8876 62.3338 56.5325 62.4837 57.1638 62.6172C60.6318 63.352 63.84 63.6297 66.5035 63.2743C69.1215 62.925 71.7169 61.8803 73.103 59.4796C74.4892 57.0784 74.0962 54.3087 73.0898 51.8668C72.0655 49.3823 70.2209 46.7428 67.8509 44.1069C67.459 43.671 67.0496 43.2322 66.6241 42.7909ZM20.681 23.0215C18.0089 22.531 15.8194 22.4266 14.1877 22.6443C12.2971 22.8964 11.641 23.4976 11.4259 23.8702C11.2107 24.2428 11.0182 25.1116 11.7451 26.875C12.379 28.4128 13.5825 30.2795 15.374 32.3748C14.7128 34.3926 14.2897 36.5185 14.1378 38.7188C18.8358 43.4062 25.3392 48.314 32.8939 52.6756C40.7934 57.2366 48.6356 60.5035 55.2301 62.1677C57.0203 60.9308 58.6491 59.4771 60.0785 57.8447C62.4084 58.2212 64.3379 58.2874 65.8124 58.0906C67.7028 57.8386 68.3592 57.2374 68.5742 56.8648C68.7893 56.4922 68.9819 55.6233 68.255 53.8599C67.6935 52.4985 66.686 50.8794 65.2193 49.072C64.7824 50.2921 64.2498 51.4953 63.6181 52.6717C62.645 54.5388 61.4539 56.2746 60.0785 57.8447C59.4934 57.7502 58.8825 57.6361 58.2476 57.5015C51.9529 56.168 43.853 52.9645 35.5084 48.1468C27.164 43.3292 20.3399 37.9161 16.0378 33.1315C15.8082 32.8762 15.5869 32.6239 15.374 32.3748C15.9392 30.6496 16.6784 29.0031 17.5708 27.4562C18.4701 25.8445 19.5154 24.3637 20.681 23.0215Z" fill="black"/>
</svg>
