<svg width="80" height="80" viewBox="0 0 80 80" fill="none" xmlns="http://www.w3.org/2000/svg">
<path fill-rule="evenodd" clip-rule="evenodd" d="M30.413 60.7282C29.36 60.0712 27.974 60.3952 27.314 61.4512C26.327 63.0382 25.847 64.8652 25.925 66.7312C25.979 67.9432 26.975 68.8882 28.172 68.8882C28.205 68.8882 28.238 68.8882 28.271 68.8852C29.513 68.8342 30.476 67.7842 30.422 66.5422C30.383 65.5822 30.629 64.6432 31.136 63.8272C31.79 62.7712 31.469 61.3852 30.413 60.7282Z" fill="black"/>
<path fill-rule="evenodd" clip-rule="evenodd" d="M19.2875 49.597C18.6305 48.541 17.2415 48.22 16.1885 48.874C15.3815 49.375 14.4605 49.615 13.5035 49.561C12.2795 49.534 11.2025 50.44 11.1305 51.682C11.0615 52.921 12.0125 53.983 13.2515 54.055C13.4255 54.064 13.5995 54.07 13.7705 54.07C15.4655 54.07 17.1125 53.596 18.5645 52.696C19.6205 52.039 19.9445 50.653 19.2875 49.597Z" fill="black"/>
<path fill-rule="evenodd" clip-rule="evenodd" d="M16.1294 32.4818C18.0543 33.5934 19.9304 34.8031 21.7795 36.1108C22.0867 36.328 22.5177 36.2164 22.6901 35.8819C22.8104 35.6485 22.9349 35.4151 23.0594 35.1817C23.2994 34.7317 23.5394 34.2817 23.7794 33.8318C25.0994 31.4018 26.5694 29.0618 28.1594 26.7818V26.7518C28.5194 26.2118 28.9094 25.7018 29.2994 25.1918C29.4037 25.0473 29.5081 24.9028 29.6136 24.7589C29.9319 24.3247 29.5943 23.6727 29.0575 23.7134L22.2194 24.2318C21.8594 24.2618 21.5294 24.4118 21.2894 24.6518L15.8294 30.1118C15.4994 30.4418 15.3194 30.8918 15.3794 31.3718C15.4394 31.8218 15.7094 32.2418 16.1294 32.4818Z" fill="black"/>
<path fill-rule="evenodd" clip-rule="evenodd" d="M53.2096 51.8614C50.9296 53.4514 48.5596 54.9214 46.1596 56.2414C45.7096 56.4814 45.2896 56.6914 44.8396 56.9314C44.6056 57.0562 44.3716 57.181 44.1376 57.3016C43.8037 57.4738 43.6918 57.9037 43.9075 58.2109C45.1915 60.0406 46.4023 61.9387 47.5396 63.8614C47.7796 64.2514 48.1696 64.5214 48.6496 64.5814C48.7096 64.6114 48.7696 64.6114 48.8296 64.6114C49.2196 64.6114 49.6096 64.4314 49.8796 64.1614L55.3096 58.7314C55.5796 58.4914 55.7296 58.1314 55.7596 57.8014L56.2834 50.8945C56.3233 50.3674 55.7077 50.0455 55.2802 50.3563C55.1206 50.4724 54.9601 50.5846 54.7996 50.6914C54.2896 51.1114 53.7496 51.4714 53.2096 51.8614Z" fill="black"/>
<path fill-rule="evenodd" clip-rule="evenodd" d="M21.2504 55.6072L18.0974 58.7302C17.2154 59.6062 17.2094 61.0282 18.0824 61.9132C18.5234 62.3572 19.1024 62.5792 19.6814 62.5792C20.2544 62.5792 20.8273 62.3602 21.2653 61.9252L24.4183 58.8022C25.3003 57.9292 25.3064 56.5042 24.4334 55.6222C23.5574 54.7402 22.1294 54.7312 21.2504 55.6072Z" fill="black"/>
<path fill-rule="evenodd" clip-rule="evenodd" d="M47.4577 17.8795C47.1709 17.593 47.245 17.1107 47.6089 16.9323C48.6268 16.4334 49.7038 15.9732 50.8285 15.5849C51.1471 15.4749 51.4993 15.5613 51.7378 15.7998L64.1512 28.213C64.3948 28.4567 64.4791 28.8186 64.3603 29.1421C63.9568 30.2433 63.4957 31.3105 62.9989 32.3221C62.8201 32.6858 62.338 32.7599 62.0515 32.4733L47.4577 17.8795ZM48.1696 37.8214C47.2996 39.7414 45.3796 41.0914 43.1296 41.0914C40.0696 41.0914 37.5796 38.6014 37.5796 35.5414C37.5796 33.2914 38.9296 31.3714 40.8796 30.5314C41.5696 30.2014 42.3196 30.0214 43.1296 30.0214C46.1896 30.0214 48.6496 32.5114 48.6496 35.5414C48.6496 36.3514 48.4696 37.1314 48.1696 37.8214ZM67.2796 13.4914C67.1296 13.1314 66.8296 12.8314 66.4696 12.6814C60.1396 10.1314 54.0496 11.0014 48.9496 13.0114C48.9496 13.0114 46.2586 14.1013 43.3996 15.8314C38.6896 18.6814 35.5996 21.8914 35.3296 22.1914C35.0296 22.5514 34.7296 22.9114 34.3996 23.2714V23.3014C33.9495 23.8114 33.5295 24.3514 33.0795 24.8914C32.6895 25.4014 32.2695 25.9414 31.8795 26.4814C29.7495 29.3614 27.8295 32.3914 26.1795 35.5714C25.9395 36.0214 25.6995 36.4714 25.4895 36.9214C25.2495 37.4014 25.0095 37.8214 24.7995 38.3014V38.3314C24.7095 38.5114 24.6495 38.6614 24.5595 38.8414C24.4695 39.0514 24.3495 39.2914 24.2595 39.5014C24.1395 39.7714 24.0195 40.0714 23.8995 40.3414C23.2695 41.8714 22.6995 43.4614 22.2195 45.0514C22.0395 45.5614 22.1895 46.1314 22.5795 46.5214L33.4395 57.3814C33.7395 57.6814 34.0996 57.8314 34.4896 57.8314C34.6096 57.8314 34.7296 57.8314 34.8496 57.8014C36.5296 57.4114 38.1196 56.8414 39.6496 56.1514C40.1596 55.9414 40.6696 55.6714 41.1496 55.4314C41.2396 55.3714 41.3296 55.3414 41.4196 55.3114C41.5096 55.2514 41.5996 55.2214 41.6896 55.1914V55.1614C41.9296 55.0714 42.1996 54.9514 42.4396 54.8014C42.6496 54.7114 42.8596 54.6214 43.0696 54.5314C43.5196 54.2914 43.9396 54.0514 44.3896 53.8114C47.5696 52.1614 50.6296 50.2414 53.5096 48.0814C54.0496 47.6914 54.5896 47.3014 55.0996 46.8814C55.6396 46.4614 56.1796 46.0114 56.7196 45.5614C57.1096 45.2614 57.4696 44.9314 57.8596 44.6014C58.1296 44.3314 61.3996 41.1514 64.2796 36.2914C64.4896 35.9614 64.6996 35.6314 64.8796 35.3014C65.0896 34.9114 65.2996 34.5214 65.5396 34.1014C65.5396 34.0714 65.5696 34.0414 65.5696 34.0114C66.0796 33.0814 66.5596 32.0914 67.0096 31.0714L66.9196 30.9814C68.9896 25.8514 69.8596 19.7314 67.2796 13.4914Z" fill="black"/>
</svg>
