<svg width="80" height="80" viewBox="0 0 80 80" fill="none" xmlns="http://www.w3.org/2000/svg">
<path d="M23.626 54.726V34.7686C23.626 33.162 24.9284 31.8595 26.5351 31.8595C28.1417 31.8595 29.4442 33.162 29.4442 34.7686V54.726L29.43 55.0215C29.2816 56.4891 28.0418 57.6351 26.5351 57.6351C25.0283 57.6351 23.7885 56.4891 23.6402 55.0215L23.626 54.726Z" fill="black"/>
<path d="M37.2017 54.725V25.2193C37.2017 23.6126 38.5042 22.3102 40.1108 22.3102C41.7175 22.3102 43.0199 23.6126 43.0199 25.2193V54.725C43.0199 56.3316 41.7175 57.634 40.1108 57.634C38.5042 57.634 37.2017 56.3316 37.2017 54.725Z" fill="black"/>
<path d="M50.5558 54.7264V45.3144C50.5558 43.7078 51.8583 42.4053 53.4649 42.4053C55.0716 42.4053 56.374 43.7078 56.374 45.3144V54.7264C56.3735 56.3325 55.0713 57.6354 53.4649 57.6354C51.8586 57.6354 50.5564 56.3325 50.5558 54.7264Z" fill="black"/>
<path d="M66.1818 27.1562C66.1817 22.9968 64.8933 19.6878 62.8068 17.446C60.7415 15.2276 57.6776 13.8182 53.6307 13.8182H26.3693C22.3385 13.8182 19.2749 15.2254 17.2045 17.446C15.1131 19.6896 13.8183 22.9996 13.8182 27.1562V52.8438C13.8183 57.0032 15.1067 60.3122 17.1932 62.554C19.2585 64.7724 22.3224 66.1818 26.3693 66.1818H53.6307C57.6776 66.1818 60.7415 64.7724 62.8068 62.554C64.8933 60.3122 66.1817 57.0032 66.1818 52.8438V27.1562ZM72 52.8438C71.9999 58.2044 70.3248 63.0185 67.0653 66.5199C63.7835 70.0449 59.1145 72 53.6307 72H26.3693C20.8855 72 16.2165 70.0449 12.9347 66.5199C9.67518 63.0185 8.00012 58.2044 8 52.8438V27.1562C8.00012 21.7917 9.68357 16.977 12.946 13.4773C16.2297 9.95482 20.8975 8 26.3693 8H53.6307C59.1145 8 63.7835 9.95508 67.0653 13.4801C70.3248 16.9815 71.9999 21.7956 72 27.1562V52.8438Z" fill="black"/>
</svg>
