<svg width="80" height="80" viewBox="0 0 80 80" fill="none" xmlns="http://www.w3.org/2000/svg">
<path fill-rule="evenodd" clip-rule="evenodd" d="M27.1963 23.9619C27.3157 24.4024 27.7154 24.7082 28.1718 24.7082H36.8137C37.4824 24.7082 37.9678 24.0736 37.7893 23.4292C36.4711 18.6652 34.4213 11.1236 33.7752 8.74446C33.6557 8.30415 33.2565 8 32.8001 8H25.2224C24.8335 8 24.4582 8.02718 24.0883 8.06555C23.4755 8.12915 23.0728 8.73857 23.2338 9.33319L27.1963 23.9619Z" fill="black"/>
<path fill-rule="evenodd" clip-rule="evenodd" d="M49.8161 8.74429C49.6966 8.30408 49.2974 8 48.8409 8H40.0674C39.3988 8 38.9144 8.63771 39.0939 9.28182L43.1861 23.9689C43.308 24.4059 43.7059 24.7082 44.1596 24.7082H52.8577C53.5263 24.7082 54.0117 24.0735 53.8332 23.429C52.5131 18.6616 50.4622 11.1227 49.8161 8.74429Z" fill="black"/>
<path fill-rule="evenodd" clip-rule="evenodd" d="M59.2277 23.9684C59.3493 24.4054 59.7474 24.7077 60.2012 24.7077H69.6956C70.2585 24.7077 70.7153 24.2467 70.6836 23.6848C70.1803 14.8161 64.5251 8.77578 56.1346 8.087C55.4626 8.03182 54.9661 8.67344 55.1469 9.32304L59.2277 23.9684Z" fill="black"/>
<path fill-rule="evenodd" clip-rule="evenodd" d="M20.841 24.7056C21.5066 24.7056 21.9904 24.0732 21.8164 23.4307L18.3559 10.6592C18.1931 10.0583 17.529 9.74427 16.9837 10.0446C12.3447 12.5997 9.41379 17.4288 9.05904 23.6826C9.02717 24.2445 9.48395 24.7056 10.0467 24.7056H20.841Z" fill="black"/>
<path fill-rule="evenodd" clip-rule="evenodd" d="M37.731 40.9569C37.4076 40.8255 37.0977 40.7548 36.8181 40.7548C36.5722 40.7548 36.3499 40.8087 36.1747 40.9098C35.8479 41.0984 35.6458 41.4689 35.5751 42.0113C35.1776 45.5652 35.1776 49.3717 35.5818 53.2792C35.6189 53.5487 35.7469 54.1281 36.1612 54.3707C36.5183 54.5795 37.0909 54.5526 37.7411 54.2932C40.6819 53.1175 43.4845 51.3625 45.8459 49.2133C46.2333 48.8596 46.6948 48.2971 46.6914 47.6234C46.6914 46.9463 46.2333 46.3938 45.8527 46.0502C43.5014 43.9044 40.7728 42.1932 37.731 40.9569Z" fill="black"/>
<path fill-rule="evenodd" clip-rule="evenodd" d="M49.2445 52.9506C46.4385 55.5006 43.1137 57.5858 39.6204 58.9837C38.6469 59.3745 37.6767 59.5699 36.7436 59.5699C35.6185 59.5699 34.5473 59.2869 33.594 58.7244C31.9098 57.7306 30.8319 55.9992 30.5624 53.8534C30.1144 49.5315 30.1177 45.3611 30.559 41.403C30.8454 39.2303 31.9401 37.519 33.6513 36.532C35.413 35.5181 37.5993 35.4339 39.6541 36.2861C43.2316 37.738 46.4654 39.7693 49.2479 42.3092C50.8479 43.7543 51.7406 45.6374 51.744 47.608C51.7507 49.582 50.8614 51.4785 49.2445 52.9506ZM10.0106 29.7577C9.45244 29.7577 9 30.2102 9 30.7683V55.0223C9 65.1786 15.5216 72 25.2232 72H54.513C64.2213 72 70.7395 65.1786 70.7395 55.0223V30.7683C70.7395 30.2102 70.2871 29.7577 69.7289 29.7577H10.0106Z" fill="black"/>
</svg>
