<svg width="80" height="80" viewBox="0 0 80 80" fill="none" xmlns="http://www.w3.org/2000/svg">
<path d="M39.9937 14C53.5077 14.0001 65.2939 23.5563 71.7337 38.3214C72.0887 39.1363 72.0887 40.0627 71.7337 40.8776C65.2974 55.6346 53.5204 65.1855 40.0156 65.1959L40.0062 65.199H39.9937L39.9812 65.1959C26.4782 65.1841 14.7023 55.6411 8.26615 40.8776C7.9112 40.0627 7.9112 39.1363 8.26615 38.3214C14.7056 23.5571 26.4917 14 39.9937 14ZM39.9937 20.3999C30.1428 20.3999 20.5532 27.1797 14.7129 39.5995C20.5512 52.0208 30.1375 58.7931 39.9999 58.796C49.8613 58.7931 59.4451 52.0151 65.2838 39.5995C59.4439 27.1812 49.8572 20.3999 39.9937 20.3999Z" fill="black"/>
<path d="M46.6529 39.6155C46.6526 36.0685 43.7186 33.1128 40.0093 33.1125C36.2959 33.1125 33.3629 36.069 33.3626 39.6155C33.3626 43.1582 36.295 46.1154 40.0093 46.1154C43.7195 46.1152 46.6529 43.1587 46.6529 39.6155ZM53.0528 39.6155C53.0528 46.781 47.1657 52.5151 40.0093 52.5153C32.8502 52.5153 26.9627 46.7818 26.9627 39.6155C26.963 32.4467 32.8498 26.7127 40.0093 26.7127C47.1662 26.7129 53.0525 32.4475 53.0528 39.6155Z" fill="black"/>
</svg>
