<svg width="80" height="80" viewBox="0 0 80 80" fill="none" xmlns="http://www.w3.org/2000/svg">
<path d="M48.1855 8C48.249 8 48.3127 8.00143 48.3761 8.00521C52.4546 8.24823 55.8096 9.94499 58.0303 12.7479C60.2168 15.5081 61.0839 19.0599 60.7969 22.6802C60.7956 22.6971 60.7944 22.7144 60.7928 22.7313C60.5081 25.717 58.9892 28.2833 56.9917 30.726C55.0176 33.14 52.2623 35.7973 49.0178 38.9125C48.3351 39.634 48.3374 39.9825 48.3376 39.9979C48.3376 40.0057 48.3273 40.3554 49.024 41.0875C52.2661 44.202 55.0196 46.8597 56.9928 49.274C58.9896 51.7173 60.5081 54.2834 60.7928 57.2688C60.7944 57.2856 60.7956 57.3029 60.7969 57.3198C61.0839 60.9401 60.2168 64.492 58.0303 67.2521C55.8096 70.055 52.4547 71.7518 48.3761 71.9948C48.3127 71.9986 48.2489 72 48.1855 72H32.6646C32.6014 72 32.5382 71.9985 32.4751 71.9948C28.3977 71.7518 25.0427 70.0546 22.8219 67.2521C20.6351 64.4923 19.7662 60.9408 20.0532 57.3198L20.0584 57.2688C20.3431 54.2833 21.861 51.7164 23.8584 49.2729C25.8316 46.8591 28.5853 44.2023 31.8282 41.0885C32.5243 40.3559 32.5146 40.0061 32.5146 39.9979C32.5148 39.9812 32.5159 39.6309 31.8282 38.9073C28.5858 35.7941 25.8314 33.1388 23.8584 30.726C21.8609 28.2833 20.343 25.717 20.0584 22.7313C20.0568 22.7143 20.0545 22.6971 20.0532 22.6802C19.7662 19.0593 20.6342 15.5077 22.8209 12.7479C25.0416 9.94529 28.3967 8.24837 32.474 8.00521L32.6646 8H48.1855ZM32.7907 14.4C30.3759 14.5589 28.8042 15.503 27.8376 16.7229C26.833 17.9908 26.256 19.8472 26.4313 22.1427C26.5439 23.2692 27.1435 24.6316 28.8136 26.674C30.0812 28.2241 31.781 29.9536 33.9719 32.0844L36.3292 34.3573L36.4198 34.4479C37.8355 35.9212 38.9145 37.7848 38.9146 39.9979C38.9146 42.2112 37.8356 44.0755 36.4198 45.549C36.3902 45.5798 36.36 45.61 36.3292 45.6396C32.9638 48.8709 30.5036 51.2565 28.8136 53.324C27.144 55.3664 26.5442 56.7296 26.4313 57.8563C26.2557 60.1523 26.8329 62.009 27.8376 63.2771C28.8042 64.497 30.3759 65.4411 32.7907 65.6H48.0605C50.4765 65.441 52.0476 64.4972 53.0136 63.2781C54.0181 62.0102 54.5947 60.1525 54.4188 57.8552C54.3056 56.7288 53.7062 55.3657 52.0376 53.324C50.3478 51.2564 47.8881 48.8711 44.524 45.6396C44.4937 45.6105 44.4646 45.5803 44.4355 45.55C43.0174 44.0761 41.9378 42.2125 41.9376 39.999C41.9375 37.7863 43.0161 35.9229 44.4292 34.45L44.5219 34.3573C47.8877 31.1258 50.3474 28.7408 52.0376 26.674C53.7076 24.6317 54.3062 23.2692 54.4188 22.1427C54.5942 19.8464 54.0177 17.9905 53.0136 16.7229C52.0475 15.5033 50.4764 14.5588 48.0594 14.4H32.7907Z" fill="black"/>
<path d="M40.423 45.1562C41.8619 45.1562 43.124 46.1172 43.5073 47.5041C43.6664 48.079 44.1374 48.7866 45.2365 49.8843C46.0811 50.7278 47.7112 52.1594 48.873 53.4884C52.7672 57.3615 50.0402 64.0724 44.4928 64.0728H36.3532C30.8043 64.0727 28.0772 57.3591 31.9782 53.4864C33.1393 52.1573 34.7642 50.7276 35.6084 49.8843C36.7077 48.786 37.1795 48.0784 37.3386 47.503L37.4209 47.2489C37.8807 46.0004 39.0739 45.1561 40.423 45.1562ZM40.1313 54.4124C38.7186 55.8236 37.7741 56.5723 36.8167 57.6728H44.0303C43.0712 56.5722 42.1277 55.8236 40.7146 54.4124C40.6183 54.3162 40.5222 54.2154 40.423 54.1134C40.3238 54.2154 40.2275 54.3163 40.1313 54.4124Z" fill="black"/>
</svg>
