<svg width="80" height="80" viewBox="0 0 80 80" fill="none" xmlns="http://www.w3.org/2000/svg">
<path d="M40 72C22.3426 72 8 57.6574 8 40C8 22.3426 22.3426 8 40 8C57.6574 8 72 22.3426 72 40C72 57.6574 57.6574 72 40 72ZM40 12.9231C25.0667 12.9231 12.9231 25.0667 12.9231 40C12.9231 54.9333 25.0667 67.0769 40 67.0769C54.9333 67.0769 67.0769 54.9333 67.0769 40C67.0769 25.0667 54.9333 12.9231 40 12.9231Z" fill="black"/>
<path d="M40 72C31.1713 72 26.5433 55.8851 26.5433 40C26.5433 24.1149 31.1713 8 40 8C48.8287 8 53.4561 24.0821 53.4561 40C53.4561 55.9179 48.8287 72 40 72ZM40 12.9231C36.521 12.9231 31.4663 23.4585 31.4663 40C31.4663 56.5415 36.521 67.0769 40 67.0769C43.479 67.0769 48.533 56.5415 48.533 40C48.533 23.4585 43.479 12.9231 40 12.9231Z" fill="black"/>
<path d="M40 32.5169C36.4882 32.5169 32.9765 32.32 29.4976 31.9589C23.6227 31.3353 18.076 30.2523 13.0873 28.7097C11.7745 28.3158 11.0524 26.9374 11.4463 25.6246C11.8401 24.3446 13.2186 23.5897 14.5314 23.9835C19.2248 25.4276 24.4432 26.4779 30.0227 27.0687C36.6523 27.7579 43.3805 27.7579 50.0431 27.0687C55.6226 26.4779 60.8082 25.4605 65.5344 23.9835C66.8472 23.5897 68.2256 24.3117 68.6195 25.6246C69.0133 26.9374 68.2913 28.3158 66.9785 28.7097C61.9569 30.2523 56.4431 31.3682 50.5682 31.9589C47.0564 32.32 43.5446 32.5169 40.0328 32.5169H40Z" fill="black"/>
<path d="M13.7765 56.1149C12.7262 56.1149 11.7416 55.4257 11.4134 54.3754C11.0196 53.0626 11.7416 51.6841 13.0545 51.2903C18.076 49.7477 23.5898 48.6646 29.4647 48.041C36.4226 47.319 43.5118 47.319 50.5026 48.041C56.3774 48.6646 61.8913 49.7477 66.9128 51.2903C68.2256 51.6841 68.9477 53.0626 68.5538 54.3754C68.16 55.6882 66.7815 56.4103 65.4687 56.0164C60.7426 54.5723 55.5569 53.5221 49.9774 52.9641C43.3149 52.2749 36.5867 52.2749 29.957 52.9641C24.4103 53.5549 19.1919 54.5723 14.4657 56.0164C14.236 56.0821 13.9734 56.1149 13.7437 56.1149H13.7765Z" fill="black"/>
</svg>
