<svg width="80" height="80" viewBox="0 0 80 80" fill="none" xmlns="http://www.w3.org/2000/svg">
<path d="M64 20.8684C64 18.7246 62.235 16.9963 60.0713 17.0012L59.6348 17.0246C53.5768 17.6883 48.2563 20.1856 44.9893 22.0813C41.8967 23.8718 38.1033 23.8748 35.0107 22.0842C31.9476 20.3068 27.0788 17.999 21.4902 17.1711L20.3652 17.0246C18.0054 16.7675 16 18.5816 16 20.8684V51.8937C16.0005 53.8797 17.5663 55.5807 19.7383 55.7375C27.507 56.2976 34.1708 59.4519 38.0195 61.6818L38.4912 61.9162C39.6205 62.3847 40.9018 62.306 41.9805 61.6818L43.5537 60.8088C47.5134 58.7034 53.4646 56.2275 60.2617 55.7375C62.4337 55.5807 63.9995 53.8797 64 51.8937V20.8684ZM70 51.8937C69.9995 57.2157 65.8102 61.351 60.6924 61.7199C54.2053 62.1876 48.4558 64.8648 44.9893 66.8732C41.8967 68.6638 38.1033 68.6638 35.0107 66.8732C31.5442 64.8648 25.7947 62.1876 19.3076 61.7199C14.1896 61.351 10.0005 57.2156 10 51.8937V20.8684C10 14.9245 15.1917 10.425 21.0156 11.0598C28.2242 11.8495 34.3713 14.7752 38.0166 16.8898C39.2493 17.6036 40.7477 17.6033 41.9805 16.8898C45.6255 14.7751 51.7713 11.8497 58.9814 11.0598C64.8021 10.4251 70 14.924 70 20.8684V51.8937Z" fill="black"/>
<path d="M37 65.0481V21.2434C37 19.5865 38.3431 18.2434 40 18.2434C41.6569 18.2434 43 19.5865 43 21.2434V65.0481C42.9997 66.7047 41.6567 68.0481 40 68.0481C38.3433 68.0481 37.0003 66.7047 37 65.0481Z" fill="black"/>
</svg>
