<svg width="80" height="80" viewBox="0 0 80 80" fill="none" xmlns="http://www.w3.org/2000/svg">
<path d="M31.6975 67.0864C29.254 65.661 27.1305 66.1846 26.4324 66.4173C26.2869 66.4755 26.1997 66.6209 26.2288 66.7955C26.3742 67.5518 26.9851 69.6462 29.4286 71.0425C31.8721 72.4678 33.9956 71.9442 34.6937 71.7115C34.8391 71.6533 34.9264 71.5079 34.8973 71.3334C34.7519 70.6061 34.141 68.4826 31.6975 67.0864ZM25.5015 54.9562C25.3852 54.8398 25.2106 54.8398 25.0652 54.9562C24.5125 55.4507 22.9999 57.0506 22.9999 59.8723C22.9999 62.6939 24.5125 64.2938 25.0652 64.7883C25.1816 64.9047 25.3561 64.9047 25.5015 64.7883C26.0542 64.2938 27.5669 62.6939 27.5669 59.8723C27.5669 57.0506 26.0833 55.4798 25.5015 54.9562ZM31.4648 50.8255C31.3194 50.7674 31.1448 50.8255 31.0576 50.971C30.6794 51.611 29.7485 53.6181 30.6212 56.2943C31.4939 58.9705 33.4138 60.0177 34.1119 60.3086C34.2574 60.3668 34.4319 60.3086 34.5192 60.1632C34.8973 59.5232 35.8282 57.516 34.9555 54.8398C34.0828 52.1636 32.1629 51.1164 31.4648 50.8255ZM41.0933 60.3668C38.3298 59.785 36.4972 60.9486 35.8864 61.414C35.77 61.5012 35.7118 61.7049 35.7991 61.8212C36.1772 62.4903 37.399 64.2938 40.1624 64.8465C42.9259 65.4283 44.7585 64.2647 45.3694 63.7993C45.4858 63.712 45.5439 63.5084 45.4567 63.392C45.1076 62.7521 43.8568 60.9486 41.0933 60.3668ZM36.7299 45.8222C36.653 45.8084 36.5736 45.8249 36.5085 45.8682C36.4434 45.9116 36.3977 45.9785 36.3809 46.0549C36.2063 46.7822 35.8864 48.9638 37.4863 51.2619C39.1152 53.5599 41.2387 53.9963 41.9951 54.0835C42.1696 54.1126 42.315 53.9963 42.3441 53.8508C42.5187 53.1236 42.8386 50.9419 41.2387 48.6439C39.6098 46.3458 37.4863 45.9095 36.7299 45.8222ZM48.7146 52.1636C45.9221 52.4254 44.4676 54.0544 44.0313 54.6653C43.944 54.8108 43.944 54.9853 44.0604 55.1016C44.6131 55.6252 46.3003 56.9924 49.1219 56.7306C51.9144 56.4688 53.3689 54.8398 53.8052 54.229C53.8925 54.0835 53.8925 53.909 53.7761 53.7926C53.2235 53.269 51.5072 51.9018 48.7146 52.1636ZM57.7614 42.3897C57.0923 42.0406 55.0852 41.1971 52.4671 42.1861C49.8491 43.1751 48.8892 45.1532 48.6274 45.8804C48.5692 46.0258 48.6274 46.2004 48.7728 46.2876C49.4419 46.6367 51.449 47.4803 54.067 46.4913C56.6851 45.5022 57.645 43.5242 57.9068 42.797C57.965 42.6515 57.9068 42.477 57.7614 42.3897ZM46.5039 45.8804C46.6784 45.8513 46.7657 45.7059 46.7657 45.5604C46.7366 44.8041 46.4748 42.6224 44.2931 40.848C42.1114 39.0445 39.9297 39.219 39.2025 39.3354C39.028 39.3644 38.9407 39.5099 38.9407 39.6553C38.9698 40.4116 39.2316 42.5933 41.4133 44.3678C43.595 46.1713 45.7766 46.0258 46.5039 45.8804ZM48.9474 35.8737C48.9474 36.0483 49.0637 36.1646 49.2382 36.1937C49.9946 36.281 52.1762 36.3683 54.2707 34.5066C56.3651 32.6449 56.5687 30.4632 56.5687 29.7069C56.5687 29.5323 56.4523 29.416 56.2778 29.3869C55.5215 29.2996 53.3398 29.2123 51.2454 31.074C49.1219 32.9357 48.9183 35.1174 48.9474 35.8737ZM47.1147 36.2228C46.8239 35.5247 45.8057 33.5757 43.1295 32.703C40.4533 31.8013 38.4753 32.7321 37.8353 33.1103C37.6899 33.1975 37.6317 33.3721 37.6899 33.5175C37.9808 34.2157 38.9989 36.1646 41.6751 37.0373C44.3513 37.9391 46.3293 37.0082 46.9693 36.6301C47.1147 36.5428 47.1729 36.3683 47.1147 36.2228ZM44.7876 27.8451C44.904 27.7288 44.9331 27.5543 44.8458 27.4088C44.4676 26.7689 43.1586 24.9944 40.3952 24.529C37.6317 24.0345 35.7991 25.2562 35.2173 25.7507C35.1009 25.8671 35.0719 26.0416 35.1591 26.1871C35.5664 26.827 36.8463 28.6015 39.6098 29.0669C42.3732 29.5323 44.2058 28.3106 44.7876 27.8451ZM46.6202 26.7979C46.6493 26.9725 46.7948 27.0888 46.9402 27.0597C47.6965 27.0307 49.8491 26.7979 51.6526 24.6163C53.4562 22.4346 53.3107 20.2529 53.1944 19.4966C53.1653 19.322 53.0198 19.2057 52.8744 19.2348C52.1181 19.2639 49.9655 19.4966 48.1619 21.6783C46.3584 23.8599 46.5039 26.0416 46.6202 26.7979ZM42.5187 18.6821C43.2459 18.4785 45.253 17.664 46.4457 15.075C47.6093 12.5152 46.9111 10.4208 46.5911 9.75173C46.533 9.60628 46.3584 9.51902 46.213 9.57719C45.4858 9.78082 43.4786 10.5953 42.286 13.1842C41.0933 15.7732 41.8205 17.8385 42.1405 18.5075C42.1535 18.5441 42.1736 18.5778 42.1998 18.6064C42.2259 18.6351 42.2576 18.6583 42.2928 18.6745C42.328 18.6908 42.3662 18.6998 42.405 18.7011C42.4438 18.7024 42.4824 18.696 42.5187 18.6821ZM30.8539 20.5147C30.7667 20.6311 30.7958 20.8056 30.9121 20.9219C31.4648 21.4455 33.152 22.8127 35.9736 22.5509C36.8884 22.4825 37.7785 22.2218 38.5855 21.7856C39.3926 21.3495 40.0985 20.7479 40.657 20.0202C40.7442 19.8747 40.7442 19.7002 40.6279 19.5838C40.0752 19.0602 38.3589 17.7221 35.5664 17.9839C32.7447 18.2457 31.3194 19.8747 30.8539 20.5147ZM37.8062 15.0169C37.9808 14.9878 38.0971 14.8714 38.0971 14.6969C38.388 11.2935 34.1992 7.45369 30.883 8.06456C30.7085 8.09365 30.5921 8.21001 30.5921 8.38454C30.2722 11.788 34.4901 15.6277 37.8062 15.0169Z" fill="black"/>
</svg>
