<svg width="80" height="80" viewBox="0 0 80 80" fill="none" xmlns="http://www.w3.org/2000/svg">
<path d="M55.8307 54.9562C55.7144 54.8398 55.5398 54.8398 55.3944 54.9562C54.8417 55.4507 53.3291 57.0506 53.3291 59.8723C53.3291 62.6939 54.8417 64.2938 55.3944 64.7883C55.5108 64.9047 55.6853 64.9047 55.8307 64.7883C56.3834 64.2938 57.8961 62.6939 57.8961 59.8723C57.9252 57.0506 56.4125 55.4798 55.8307 54.9562ZM54.4926 66.4173C53.7945 66.1846 51.671 65.661 49.2275 67.0864C46.784 68.5117 46.1732 70.6061 46.0277 71.3334C45.9986 71.5079 46.0859 71.6533 46.2313 71.7115C46.9586 71.9442 49.053 72.4678 51.4965 71.0425C53.9399 69.6171 54.5508 67.5227 54.6963 66.7955C54.7544 66.6209 54.6672 66.4755 54.4926 66.4173ZM39.8317 60.3668C37.0683 60.9486 35.8465 62.7521 35.4684 63.392C35.3811 63.5375 35.4393 63.712 35.5556 63.7993C36.1665 64.2647 37.9991 65.3992 40.7626 64.8465C43.526 64.2647 44.7478 62.4612 45.1259 61.8212C45.2132 61.6758 45.155 61.5012 45.0387 61.414C44.4278 60.9486 42.5661 59.785 39.8317 60.3668ZM46.8131 60.2795C47.5112 59.9886 49.4311 58.9414 50.3038 56.2652C51.1765 53.589 50.2456 51.611 49.8675 50.9419C49.8278 50.8734 49.7651 50.8212 49.6905 50.7945C49.6159 50.7679 49.5343 50.7686 49.4602 50.7965C48.7621 51.0873 46.8422 52.1346 45.9695 54.8108C45.0969 57.487 46.0277 59.465 46.4059 60.1341C46.4931 60.2795 46.6677 60.3377 46.8131 60.2795ZM38.93 54.1126C39.6863 54.0253 41.8098 53.589 43.4388 51.291C45.0678 48.9929 44.7478 46.8112 44.5442 46.084C44.5273 46.0076 44.4816 45.9407 44.4165 45.8973C44.3514 45.8539 44.2721 45.8374 44.1951 45.8513C43.4388 45.9386 41.3153 46.3749 39.6863 48.673C38.0573 50.971 38.3773 53.1527 38.5809 53.8799C38.61 54.0253 38.7554 54.1126 38.93 54.1126ZM36.8937 54.6653C36.4574 54.0544 35.0029 52.3964 32.2104 52.1636C29.4178 51.9018 27.7016 53.269 27.1489 53.7926C27.0325 53.909 27.0034 54.0835 27.1198 54.229C27.5561 54.8398 29.0106 56.4979 31.8031 56.7306C34.5957 56.9924 36.3119 55.6252 36.8646 55.1016C36.981 54.9853 37.0101 54.7817 36.8937 54.6653ZM41.9843 39.6844C41.9843 39.5099 41.868 39.3935 41.7225 39.3644C40.9662 39.2481 38.8136 39.0735 36.6319 40.8771C34.4502 42.6806 34.1884 44.8332 34.1594 45.5895C34.1594 45.764 34.2757 45.8804 34.4212 45.9095C35.1775 46.0258 37.3301 46.2004 39.5117 44.3969C41.6934 42.5933 41.9552 40.4407 41.9843 39.6844ZM32.1813 46.2876C32.3267 46.2004 32.3849 46.0258 32.3267 45.8804C32.0649 45.1823 31.105 43.2042 28.487 42.1861C25.869 41.168 23.8618 42.0406 23.1928 42.3897C23.0473 42.477 22.96 42.6515 23.0182 42.797C23.28 43.4951 24.24 45.4731 26.858 46.4913C29.5051 47.4803 31.5122 46.6367 32.1813 46.2876ZM31.7159 36.1937C31.8904 36.1646 32.0068 36.0483 32.0068 35.8737C32.0068 35.1174 31.8322 32.9357 29.7087 31.074C27.5852 29.1833 25.4326 29.2705 24.6763 29.3578C24.5018 29.3869 24.3854 29.5323 24.3854 29.6778C24.3854 30.4341 24.5599 32.6158 26.6835 34.4775C28.7779 36.3683 30.9595 36.281 31.7159 36.1937ZM37.7955 32.703C35.1193 33.6048 34.1012 35.5247 33.8103 36.2228C33.7521 36.3683 33.8103 36.5428 33.9557 36.6301C34.5957 37.0082 36.5737 37.9391 39.2499 37.0373C41.9261 36.1355 42.9443 34.2157 43.2352 33.5175C43.2933 33.3721 43.2352 33.1975 43.0897 33.1103C42.4497 32.7321 40.4717 31.8013 37.7955 32.703ZM45.7077 25.7507C45.1259 25.2853 43.3224 24.0636 40.5299 24.529C37.7664 25.0235 36.4574 26.7689 36.0792 27.4088C35.992 27.5543 36.0211 27.7288 36.1374 27.8451C36.7192 28.3106 38.5227 29.5323 41.3153 29.0669C44.0787 28.5724 45.3877 26.827 45.7659 26.1871C45.8532 26.0416 45.8241 25.8671 45.7077 25.7507ZM33.9848 27.0597C34.1594 27.0597 34.2757 26.9434 34.3048 26.7979C34.4502 26.0416 34.5666 23.8599 32.7922 21.6783C30.9886 19.5257 28.807 19.2639 28.0506 19.2348C27.8761 19.2348 27.7597 19.3511 27.7307 19.4966C27.6143 20.2529 27.4689 22.4637 29.2724 24.6163C31.0759 26.7979 33.2285 27.0597 33.9848 27.0597ZM38.4064 18.6821C38.5518 18.7403 38.7263 18.653 38.7845 18.5075C39.1045 17.8094 39.8026 15.7441 38.6391 13.1842C37.4755 10.6244 35.4393 9.80991 34.712 9.57719C34.6386 9.56179 34.5622 9.57045 34.4941 9.60188C34.426 9.63332 34.3698 9.68586 34.3339 9.75173C34.043 10.4499 33.3158 12.5152 34.5084 15.1041C35.672 17.664 37.7082 18.4785 38.4064 18.6821ZM44.9514 22.5509C47.744 22.8127 49.4602 21.4455 50.0129 20.951C50.1293 20.8347 50.1584 20.6601 50.042 20.5147C49.6057 19.9038 48.1803 18.2457 45.3587 17.9839C42.5661 17.7221 40.8498 19.0893 40.2972 19.5838C40.1808 19.7002 40.1517 19.8747 40.2681 20.0202C40.7335 20.6311 42.1589 22.2891 44.9514 22.5509ZM43.1188 15.0169C46.435 15.6277 50.6529 11.788 50.3329 8.38454C50.3329 8.21001 50.2165 8.09365 50.042 8.06456C46.7258 7.45369 42.537 11.2935 42.8279 14.6969C42.8279 14.8714 42.9734 14.9878 43.1188 15.0169Z" fill="black"/>
</svg>
