<svg width="80" height="80" viewBox="0 0 80 80" fill="none" xmlns="http://www.w3.org/2000/svg">
<path d="M62.8698 38.1344C62.8696 25.0256 52.2431 14.4 39.1344 14.4C26.0258 14.4001 15.4002 25.0257 15.4 38.1344C15.4 51.2436 26.0262 61.8718 39.1344 61.8719C52.2428 61.8719 62.8698 51.2437 62.8698 38.1344ZM69.2698 38.1344C69.2698 54.7774 55.7783 68.2719 39.1344 68.2719C22.4906 68.2718 9 54.7773 9 38.1344C9.00019 21.491 22.4912 8.00012 39.1344 8C55.7777 8 69.2696 21.491 69.2698 38.1344Z" fill="black"/>
<path d="M55.2031 55.6083C56.4123 54.3964 58.3519 54.3563 59.6094 55.4896L59.7292 55.6031L70.6854 66.5344C71.9365 67.7826 71.9389 69.8093 70.6906 71.0604C69.4425 72.3112 67.4167 72.3134 66.1656 71.0656L55.2083 60.1344L55.0948 60.0146C53.9586 58.7597 53.994 56.8203 55.2031 55.6083Z" fill="black"/>
<path d="M46.1479 34.9359L46.3125 34.9401C48.0032 35.0259 49.3479 36.4239 49.3479 38.1359C49.3479 39.848 48.0032 41.246 46.3125 41.3318L46.1479 41.3359H31.9938C30.2264 41.3359 28.7938 39.9032 28.7938 38.1359C28.7938 36.3686 30.2264 34.9359 31.9938 34.9359H46.1479Z" fill="black"/>
</svg>
