<svg width="80" height="80" viewBox="0 0 80 80" fill="none" xmlns="http://www.w3.org/2000/svg">
<path d="M23.4004 28.0508C24.6733 26.9902 26.5653 27.1618 27.626 28.4346C28.6866 29.7074 28.5141 31.5995 27.2412 32.6602L18.4355 39.9971L27.2412 47.3369L27.3574 47.4385C28.5237 48.515 28.6527 50.3285 27.625 51.5615C26.5973 52.7944 24.7905 52.9941 23.5215 52.041L23.4004 51.9453L11.8291 42.3008C11.1454 41.7307 10.7499 40.8863 10.75 39.9961C10.7502 39.1061 11.1455 38.2622 11.8291 37.6924L23.4004 28.0508Z" fill="black"/>
<path d="M53.8746 28.4346C54.9022 27.2016 56.71 27.0018 57.9791 27.9551L58.1002 28.0508L69.6705 37.6924C70.3542 38.2622 70.7494 39.106 70.7496 39.9961C70.7497 40.8864 70.3544 41.7307 69.6705 42.3008L58.1002 51.9453C56.8275 53.0061 54.9354 52.8342 53.8746 51.5615C52.8141 50.2889 52.986 48.3977 54.2584 47.3369L63.0631 39.9971L54.2584 32.6601L54.1432 32.5586C52.9765 31.4822 52.847 29.6678 53.8746 28.4346Z" fill="black"/>
<path d="M37.9302 38.9746C38.4965 37.4176 40.2179 36.6145 41.7749 37.1807C43.3318 37.747 44.135 39.4684 43.5688 41.0254L35.854 62.2402C35.2878 63.7973 33.5664 64.6004 32.0093 64.0342C30.4523 63.4679 29.6491 61.7465 30.2153 60.1894L37.9302 38.9746Z" fill="black"/>
<path d="M45.6436 17.7637C46.2099 16.2067 47.9313 15.4035 49.4884 15.9697C51.0454 16.536 51.8485 18.2574 51.2823 19.8144L47.4249 30.4219C46.8587 31.979 45.1373 32.782 43.5802 32.2158C42.0232 31.6495 41.22 29.9281 41.7862 28.3711L45.6436 17.7637Z" fill="black"/>
</svg>
