<svg width="80" height="80" viewBox="0 0 80 80" fill="none" xmlns="http://www.w3.org/2000/svg">
<path d="M35.8932 28.8622C35.8932 27.073 37.3438 25.6226 39.133 25.6225C40.9223 25.6225 42.3727 27.073 42.3727 28.8622V41.8634C42.3727 43.088 41.6825 44.2083 40.5883 44.7583L31.9037 49.1233C30.305 49.9269 28.357 49.2824 27.5534 47.6838C26.75 46.0853 27.3947 44.1383 28.993 43.3346L35.8932 39.8649V28.8622Z" fill="black"/>
<path d="M18.1347 26.6792C17.2077 28.2096 15.2147 28.6988 13.6843 27.7718C12.1542 26.8448 11.6652 24.8526 12.5917 23.3224L18.1347 26.6792ZM16.2069 18.4596C17.4044 17.2335 19.366 17.1485 20.6658 18.2951C22.0075 19.4788 22.1353 21.5261 20.9516 22.8678C19.8807 24.0817 18.9443 25.3427 18.1347 26.6792L12.5917 23.3224C13.6167 21.6303 14.7883 20.0609 16.093 18.5819L16.2069 18.4596Z" fill="black"/>
<path d="M11.6733 45.5736C13.3788 45.0331 15.1991 45.9774 15.7399 47.6828C16.2663 49.343 17.0017 50.9463 17.867 52.4507C18.7589 54.0016 18.225 55.9816 16.6743 56.8737C15.1233 57.7658 13.1423 57.232 12.2502 55.681C11.1877 53.8337 10.2504 51.8047 9.56411 49.6402C9.02356 47.9347 9.96784 46.1144 11.6733 45.5736Z" fill="black"/>
<path d="M33.3327 64.4006C33.6078 64.3954 33.8828 64.4246 34.1511 64.4892C35.9415 64.9198 37.8226 65.1326 39.7394 65.1272C41.5286 65.1221 42.9834 66.5683 42.9887 68.3575C42.9936 70.0908 41.6366 71.5108 39.925 71.6025L39.7584 71.6067L38.8567 71.5962C36.8358 71.5442 34.827 71.2941 32.8708 70.8411C31.449 70.6236 30.2963 69.4753 30.1404 67.9778C29.9552 66.1982 31.2472 64.6059 33.0268 64.4206L33.0574 64.4175L33.3327 64.4006Z" fill="black"/>
<path d="M30.1087 9.51567C31.7652 9.07661 33.4927 10.0092 34.0213 11.6597C34.5668 13.3638 33.6278 15.1881 31.9237 15.7336L31.3025 15.9414C29.8611 16.446 28.4749 17.084 27.1769 17.8471C25.6345 18.7539 23.6491 18.2389 22.7423 16.6965C21.8355 15.1541 22.3505 13.1687 23.8929 12.2619C25.8049 11.1378 27.8445 10.2356 29.9484 9.56207L30.1087 9.51567Z" fill="black"/>
<path d="M40.7401 8.01055C42.8229 8.06404 44.8908 8.3261 46.9053 8.80572L46.9063 8.80466C50.2151 9.53998 53.367 10.8328 56.2164 12.5759C57.9237 13.588 59.5416 14.7604 61.0244 16.1004C63.504 18.3105 65.643 20.9167 67.3351 23.8634L67.7454 24.5879C68.6757 26.2823 69.4382 28.0682 70.0318 29.9253L70.2216 30.5222C70.6498 31.9208 70.981 33.3556 71.214 34.8292C71.4785 36.5024 71.6072 38.1709 71.6021 39.8291L71.5936 40.7445C71.5434 42.7813 71.2828 44.7402 70.8354 46.6745C70.8241 46.7512 70.811 46.8276 70.7942 46.9034C70.0554 50.2391 68.7442 53.3788 66.9934 56.2293C65.9919 57.9594 64.7897 59.5671 63.4816 61.0119L63.4805 61.0108C61.2703 63.4827 58.6406 65.6595 55.6765 67.3554L55.6712 67.3585C53.8037 68.4218 51.7817 69.3531 49.6515 70.0351L49.4912 70.0826C47.8345 70.5217 46.1071 69.5882 45.5786 67.9375C45.033 66.2334 45.9721 64.4102 47.6762 63.8646L48.2889 63.6579C49.7135 63.1546 51.1127 62.4972 52.4589 61.7311L52.8933 61.4759C55.0534 60.1783 57.0004 58.5417 58.6631 56.6796L58.6779 56.6627C59.7305 55.5002 60.6678 54.2372 61.423 52.921L61.4726 52.8376C62.8349 50.6194 63.8431 48.2129 64.4244 45.6906C64.4383 45.5983 64.4563 45.5063 64.4782 45.4153C64.9135 43.6028 65.1337 41.786 65.1226 39.866C65.1225 39.8554 65.1225 39.8449 65.1226 39.8343C65.128 38.5179 65.0261 37.1862 64.8136 35.8416C64.601 34.4973 64.2871 33.2011 63.875 31.9459C63.8721 31.9371 63.8693 31.9283 63.8665 31.9195C63.3276 30.2283 62.6192 28.6299 61.7468 27.1432C61.741 27.1334 61.7345 27.1235 61.7288 27.1137C60.3886 24.7739 58.6909 22.7007 56.7131 20.9379C56.7068 20.9323 56.7004 20.9267 56.6942 20.921C55.5514 19.8863 54.2831 18.9615 52.9134 18.1495C52.899 18.141 52.8844 18.133 52.8701 18.1242C50.6066 16.7343 48.1083 15.7096 45.5016 15.1302C45.4838 15.1262 45.4656 15.1218 45.4478 15.1175C43.8773 14.7403 42.2424 14.5308 40.5745 14.4879L39.8574 14.4795L39.6907 14.4763C37.9786 14.3946 36.6131 12.9827 36.6081 11.2492C36.603 9.46004 38.0492 8.00524 39.8384 8L40.7401 8.01055Z" fill="black"/>
<path d="M18.3594 58.9016C19.5228 57.6168 21.4816 57.4815 22.8087 58.5663L22.9353 58.6749L23.3698 59.0577C24.396 59.938 25.5084 60.7274 26.6728 61.4126C28.2148 62.3201 28.7295 64.3052 27.8223 65.8473C26.9149 67.3893 24.9287 67.9043 23.3867 66.9968C21.9066 66.1258 20.4799 65.115 19.1503 63.9743L18.5861 63.4776L18.4659 63.3626C17.2551 62.1494 17.1959 60.1866 18.3594 58.9016Z" fill="black"/>
<path d="M8.81572 32.6124C9.23615 30.8734 10.9871 29.8045 12.7262 30.2248C14.4654 30.6451 15.5342 32.3961 15.1138 34.1353C14.6812 35.9253 14.469 37.7992 14.48 39.7426C14.4901 41.5317 13.0484 42.9901 11.2592 43.0003C9.47008 43.0104 8.01078 41.5686 8.00051 39.7795C7.98666 37.3384 8.25336 34.9391 8.81572 32.6124Z" fill="black"/>
<path d="M47.5213 59.2551C48.01 57.5339 49.8013 56.535 51.5225 57.0236C53.2438 57.5122 54.2427 59.3035 53.7541 61.0247L52.73 64.6315L56.3748 65.6365L56.534 65.684C58.1613 66.2224 59.0973 67.9488 58.6369 69.6198C58.1763 71.2907 56.4882 72.294 54.815 71.9231L54.6526 71.883L47.862 70.0111C47.0296 69.7816 46.3229 69.229 45.8993 68.4766C45.4758 67.7241 45.3704 66.8332 45.6062 66.0025L47.5213 59.2551Z" fill="black"/>
</svg>
