<svg width="80" height="80" viewBox="0 0 80 80" fill="none" xmlns="http://www.w3.org/2000/svg">
<path d="M36.8 68.8V64.4094C36.8003 62.6424 38.233 61.2096 40 61.2094C41.7671 61.2094 43.1997 62.6423 43.2 64.4094V68.8C43.2 70.5673 41.7673 72 40 72C38.2329 71.9998 36.8 70.5672 36.8 68.8ZM20.4781 54.9969C21.7278 53.7478 23.7536 53.7476 25.0031 54.9969C26.2527 56.2464 26.2523 58.2721 25.0031 59.5219L21.9 62.6281C20.6507 63.8774 18.6248 63.8766 17.375 62.6281C16.1258 61.3789 16.1236 59.3529 17.3719 58.1031L20.4781 54.9969ZM54.9969 54.9969C56.2463 53.7476 58.2722 53.7481 59.5219 54.9969L62.6281 58.1031L62.8469 58.3438C63.8724 59.6006 63.7997 61.4564 62.6281 62.6281C61.4564 63.7997 59.6006 63.8723 58.3438 62.8469L58.1 62.6281L54.9969 59.5219C53.748 58.2721 53.7475 56.2463 54.9969 54.9969ZM15.5906 36.8L15.9188 36.8156C17.5316 36.9801 18.7905 38.3438 18.7906 40C18.7906 41.6564 17.5317 43.0199 15.9188 43.1844L15.5906 43.2H11.2C9.43269 43.2 8 41.7673 8 40C8.00017 38.2328 9.4328 36.8 11.2 36.8H15.5906ZM68.8 36.8C70.5672 36.8 71.9998 38.2328 72 40C72 41.7673 70.5673 43.2 68.8 43.2H64.4094C62.6423 43.1997 61.2094 41.7671 61.2094 40C61.2095 38.233 62.6424 36.8003 64.4094 36.8H68.8ZM25.0031 20.4781L25.2219 20.7219C26.2467 21.9787 26.1746 23.8316 25.0031 25.0031C23.8316 26.1746 21.9787 26.2467 20.7219 25.2219L20.4781 25.0031L17.3719 21.9L19.6375 19.6375L21.9 17.3719L25.0031 20.4781ZM58.1 17.3719C59.3496 16.1222 61.3784 16.1222 62.6281 17.3719C63.8769 18.6213 63.8768 20.6473 62.6281 21.8969L59.5219 25C58.2724 26.2496 56.2466 26.2524 54.9969 25.0031C53.7472 23.7535 53.7472 21.7247 54.9969 20.475L58.1 17.3719ZM17.3719 17.3719C18.6215 16.1223 20.6503 16.1224 21.9 17.3719L17.3719 21.9C16.1224 20.6503 16.1223 18.6215 17.3719 17.3719ZM36.8 15.5906V11.2C36.8 9.43281 38.2329 8.00019 40 8C41.7673 8 43.2 9.43269 43.2 11.2V15.5906C43.1997 17.3577 41.7671 18.7906 40 18.7906C38.233 18.7904 36.8003 17.3576 36.8 15.5906Z" fill="black"/>
<path d="M50.225 40C50.2247 34.3537 45.6483 29.775 40 29.775C34.3518 29.7754 29.7753 34.354 29.775 40C29.775 45.6497 34.352 50.2278 40 50.2281C45.6481 50.2281 50.225 45.6499 50.225 40ZM56.625 40C56.625 49.1828 49.1845 56.6281 40 56.6281C30.8155 56.6278 23.375 49.1825 23.375 40C23.3753 30.8203 30.8162 23.3754 40 23.375C49.1839 23.375 56.6247 30.82 56.625 40Z" fill="black"/>
</svg>
