<svg width="80" height="80" viewBox="0 0 80 80" fill="none" xmlns="http://www.w3.org/2000/svg">
<path d="M65.6 27.2844C65.6 23.233 64.3451 20.039 62.3427 17.8885C60.3643 15.7639 57.4201 14.4 53.4938 14.4H26.5031C22.5929 14.4 19.6474 15.7623 17.6646 17.8896C15.6585 20.0418 14.4 23.2366 14.4 27.2844V52.7156C14.4 56.7675 15.6546 59.9612 17.6563 62.1115C19.6338 64.2359 22.5768 65.6 26.5031 65.6H53.4906C57.4189 65.6 60.3641 64.2361 62.3427 62.1115C64.3453 59.9611 65.6 56.767 65.6 52.7156V27.2844ZM72 52.7156C72 58.0888 70.3187 62.9373 67.026 66.4729C63.7094 70.0343 58.9994 72 53.4906 72H26.5031C20.9955 72 16.2873 70.0335 12.9719 66.4719C9.68061 62.9362 8.00002 58.0883 8 52.7156V27.2844C8.00001 21.9077 9.68948 17.0598 12.9833 13.526C16.3005 9.96727 21.0075 8 26.5031 8H53.4938C59.0013 8 63.711 9.96573 67.0271 13.5271C70.3191 17.0627 72 21.9112 72 27.2844V52.7156Z" fill="black"/>
<path d="M34.5125 26.9625C35.7776 26.9559 36.9275 27.6954 37.4469 28.849L46.3021 48.5229C47.0274 50.1344 46.3093 52.0287 44.6979 52.7542C43.1366 53.4569 41.3095 52.8048 40.5375 51.2979L40.4667 51.15L34.5708 38.051L28.8531 51.1188C28.1448 52.7379 26.2587 53.476 24.6396 52.7677C23.0205 52.0594 22.2823 50.1733 22.9906 48.5542L31.5979 28.8802L31.7 28.6677C32.248 27.6299 33.3263 26.9687 34.5125 26.9625Z" fill="black"/>
<path d="M41.0781 41.5751V47.9751H28.2281V41.5751H41.0781Z" fill="black"/>
<path d="M49.6781 49.8313V30.8813C49.6781 29.1139 51.1108 27.6813 52.8781 27.6813C54.6454 27.6813 56.0781 29.1139 56.0781 30.8813V49.8313C56.0781 51.5986 54.6454 53.0313 52.8781 53.0313C51.1108 53.0313 49.6781 51.5986 49.6781 49.8313Z" fill="black"/>
</svg>
