<svg width="80" height="80" viewBox="0 0 80 80" fill="none" xmlns="http://www.w3.org/2000/svg">
<path d="M36.8 51.974V51.8208C36.8002 50.0537 38.2328 48.6208 40 48.6208C41.7671 48.621 43.1998 50.0538 43.2 51.8208V51.974C43.1999 53.7411 41.7671 55.1738 40 55.174C38.2328 55.174 36.8001 53.7412 36.8 51.974ZM36.7875 41.9396V28.1813C36.7875 26.4139 38.2202 24.9813 39.9875 24.9813C41.7548 24.9813 43.1875 26.4139 43.1875 28.1813V41.9396C43.1875 43.7069 41.7548 45.1396 39.9875 45.1396C38.2202 45.1396 36.7875 43.7069 36.7875 41.9396Z" fill="black"/>
<path d="M65.6 40C65.6 25.8604 54.1396 14.4 40 14.4C25.8604 14.4 14.4 25.8604 14.4 40C14.4 54.1366 25.8606 65.6 40 65.6C41.7673 65.6 43.2 67.0327 43.2 68.8C43.2 70.5673 41.7673 72 40 72C22.3255 72 8 57.6708 8 40C8 22.3257 22.3257 8 40 8C57.6742 8 72 22.3257 72 40C72 52.3872 64.9596 63.1267 54.676 68.4427L54.5281 68.5146C52.9869 69.2149 51.1509 68.5904 50.3646 67.0698C49.553 65.4998 50.1676 63.5689 51.7375 62.7573L52.5021 62.3458C60.3245 57.9591 65.6 49.5921 65.6 40Z" fill="black"/>
</svg>
