<svg width="80" height="80" viewBox="0 0 80 80" fill="none" xmlns="http://www.w3.org/2000/svg">
<path fill-rule="evenodd" clip-rule="evenodd" d="M52.0732 35.136L38.3515 48.8661C37.8765 49.3412 37.2331 49.6073 36.5626 49.6073C35.8922 49.6073 35.2488 49.3412 34.7771 48.8661L28.1169 42.1948C27.1332 41.2042 27.1332 39.6038 28.1203 38.6165C29.1107 37.6327 30.7076 37.6361 31.6947 38.6199L36.566 43.5021L48.4988 31.561C49.4859 30.5738 51.0861 30.5738 52.0732 31.561C53.0603 32.5482 53.0603 34.1488 52.0732 35.136ZM69.3221 33.5457L66.9673 31.1904C65.8926 30.1122 65.303 28.6769 65.303 27.1573V23.7879C65.303 18.771 61.2199 14.6907 56.2069 14.6907H52.8312C51.3051 14.6907 49.8733 14.1011 48.802 13.0296L46.4067 10.6374C42.8457 7.10632 37.0781 7.12317 33.5441 10.6745L31.1961 13.0296C30.1146 14.1044 28.6829 14.6941 27.1601 14.6941H23.7878C18.8321 14.6975 14.7894 18.6868 14.6984 23.6262C14.695 23.6801 14.6917 23.734 14.6917 23.7913V27.1506C14.6917 28.6735 14.1021 30.1055 13.0275 31.1803L10.6422 33.5693C10.6389 33.5794 10.6288 33.5827 10.622 33.5895C7.1015 37.1542 7.13182 42.9226 10.6793 46.4368L13.0342 48.7987C14.1055 49.8735 14.6984 51.3021 14.6984 52.8251V56.2113C14.6984 61.2248 18.7748 65.3051 23.7878 65.3051H27.1534C28.6795 65.3085 30.1113 65.8981 31.1826 66.9662L33.5845 69.3618C35.2959 71.0633 37.5666 72 39.9821 72H40.0225C42.4515 71.9899 44.7289 71.033 46.4336 69.318L48.7952 66.9595C49.8564 65.9015 51.3253 65.295 52.8245 65.295H56.2136C61.2165 65.295 65.2963 61.2215 65.3064 56.2113V52.8318C65.3064 51.3122 65.8959 49.8803 66.9639 48.8054L69.3592 46.4098C72.8966 42.8518 72.8764 37.0801 69.3221 33.5457Z" fill="black"/>
</svg>
