<svg width="80" height="80" viewBox="0 0 80 80" fill="none" xmlns="http://www.w3.org/2000/svg">
<path fill-rule="evenodd" clip-rule="evenodd" d="M52.0731 35.136L38.3515 48.8661C37.8765 49.3412 37.233 49.6073 36.5626 49.6073C35.8922 49.6073 35.2487 49.3412 34.777 48.8661L28.1168 42.1948C27.1331 41.2042 27.1331 39.6038 28.1202 38.6165C29.1107 37.6327 30.7075 37.6361 31.6946 38.6199L36.5659 43.5021L48.4987 31.561C49.4858 30.5738 51.086 30.5738 52.0731 31.561C53.0602 32.5482 53.0602 34.1488 52.0731 35.136ZM69.3221 33.5457L66.9672 31.1904C65.8925 30.1122 65.3029 28.6769 65.3029 27.1573V23.7879C65.3029 18.771 61.2198 14.6907 56.2068 14.6907H52.8312C51.305 14.6907 49.8732 14.1011 48.8019 13.0296L46.4066 10.6374C42.8456 7.10632 37.078 7.12317 33.544 10.6745L31.196 13.0296C30.1146 14.1044 28.6828 14.6941 27.1601 14.6941H23.7878C18.8321 14.6975 14.7893 18.6868 14.6984 23.6262C14.695 23.6801 14.6916 23.734 14.6916 23.7913V27.1506C14.6916 28.6735 14.1021 30.1055 13.0274 31.1803L10.6422 33.5693C10.6388 33.5794 10.6287 33.5827 10.622 33.5895C7.10144 37.1542 7.13176 42.9226 10.6792 46.4368L13.0341 48.7987C14.1054 49.8735 14.6984 51.3021 14.6984 52.8251V56.2113C14.6984 61.2248 18.7748 65.3051 23.7878 65.3051H27.1533C28.6794 65.3085 30.1112 65.8981 31.1826 66.9662L33.5844 69.3618C35.2959 71.0633 37.5665 72 39.982 72H40.0225C42.4515 71.9899 44.7289 71.033 46.4336 69.318L48.7952 66.9595C49.8564 65.9015 51.3252 65.295 52.8244 65.295H56.2136C61.2164 65.295 65.2962 61.2215 65.3063 56.2113V52.8318C65.3063 51.3122 65.8959 49.8803 66.9638 48.8054L69.3591 46.4098C72.8965 42.8518 72.8763 37.0801 69.3221 33.5457Z" fill="black"/>
</svg>
