<svg width="80" height="80" viewBox="0 0 80 80" fill="none" xmlns="http://www.w3.org/2000/svg">
<path opacity="0.4" d="M8.00061 51.6268V44.9487C8.00061 43.1814 9.43328 41.7488 11.2006 41.7488C12.9679 41.7488 14.4005 43.1814 14.4005 44.9487V51.6268C14.4005 53.3941 12.9679 54.8267 11.2006 54.8267C9.43328 54.8267 8.00061 53.3941 8.00061 51.6268Z" fill="black"/>
<path opacity="0.4" d="M20.2942 24.3427C22.0607 24.2908 23.536 25.6823 23.5879 27.4489C23.6396 29.2153 22.2481 30.6907 20.4817 30.7426C18.5916 30.7982 17.2166 31.4265 16.2692 32.3238C15.3099 33.2331 14.596 34.6029 14.3786 36.4456C14.1714 38.2005 12.5805 39.4557 10.8255 39.2487C9.0705 39.0416 7.81547 37.4507 8.02245 35.6956C8.39045 32.5755 9.67624 29.7558 11.8661 27.6801C14.0677 25.5936 16.9926 24.4397 20.2942 24.3427Z" fill="black"/>
<path opacity="0.4" d="M35.1439 65.6047C36.9112 65.6047 38.3439 67.0374 38.3439 68.8047C38.3439 70.572 36.9112 72.0046 35.1439 72.0046H28.469C26.7017 72.0046 25.269 70.572 25.269 68.8047C25.269 67.0374 26.7017 65.6047 28.469 65.6047H35.1439Z" fill="black"/>
<path opacity="0.4" d="M52.7874 57.0952C54.5425 57.3023 55.7976 58.8932 55.5905 60.6483C55.2223 63.7684 53.9367 66.5881 51.7468 68.6638C49.5452 70.7502 46.6202 71.9042 43.3188 72.0013C41.5524 72.053 40.077 70.6615 40.0251 68.895C39.9733 67.1286 41.3648 65.6533 43.1313 65.6013C45.0224 65.5457 46.3993 64.9182 47.3469 64.0201C48.3062 63.1108 49.0169 61.7412 49.2343 59.8983C49.4414 58.1434 51.0325 56.8885 52.7874 57.0952Z" fill="black"/>
<path opacity="0.4" d="M10.8255 57.0952C12.4711 56.9011 13.9708 57.9928 14.3223 59.5764L14.3786 59.8983L14.4817 60.567C14.7768 62.0761 15.4297 63.2244 16.2692 64.0201C17.2165 64.9174 18.5916 65.5456 20.4816 65.6013C22.2481 65.6533 23.6396 67.1286 23.5878 68.895C23.5391 70.551 22.2397 71.8753 20.6222 71.9919L20.2941 72.0012L19.6785 71.97C16.6291 71.7556 13.9299 70.6196 11.8661 68.6638C9.95021 66.8478 8.72614 64.4624 8.20365 61.8045L8.0224 60.6483L8.00053 60.3202C7.97482 58.699 9.18051 57.2893 10.8255 57.0952Z" fill="black"/>
<path opacity="0.4" d="M65.5997 35.0487V28.3738C65.5997 26.6066 67.0324 25.1739 68.7997 25.1739C70.567 25.1739 71.9996 26.6066 71.9996 28.3738V35.0487C71.9996 36.816 70.567 38.2487 68.7997 38.2487C67.0324 38.2487 65.5997 36.816 65.5997 35.0487Z" fill="black"/>
<path opacity="0.4" d="M69.1747 40.7518C70.9298 40.9589 72.1849 42.5497 71.9778 44.3048C71.6097 47.4249 70.324 50.2447 68.1341 52.3204C65.9325 54.4067 63.0076 55.5608 59.7061 55.6578C57.9397 55.7096 56.4643 54.318 56.4124 52.5516C56.3606 50.7852 57.7522 49.3098 59.5186 49.2579C61.4097 49.2023 62.7866 48.5748 63.7342 47.6767C64.6936 46.7673 65.4042 45.3976 65.6217 43.5549C65.8287 41.8 67.4199 40.5451 69.1747 40.7518Z" fill="black"/>
<path opacity="0.4" d="M51.5314 7.99915C53.2986 7.99915 54.7313 9.43181 54.7313 11.1991C54.7313 12.9664 53.2986 14.3991 51.5314 14.3991H44.8564C43.0892 14.3991 41.6565 12.9664 41.6565 11.1991C41.6565 9.43181 43.0892 7.99915 44.8564 7.99915H51.5314Z" fill="black"/>
<path opacity="0.4" d="M36.6814 7.99915C38.4479 7.94725 39.9232 9.33883 39.9751 11.1054C40.0268 12.8718 38.6353 14.3472 36.8689 14.3991C34.9789 14.4547 33.6038 15.0829 32.6564 15.9803C31.6971 16.8896 30.9832 18.2594 30.7658 20.1021C30.5586 21.857 28.9677 23.1122 27.2127 22.9052C25.4577 22.6981 24.2027 21.1072 24.4097 19.3521C24.7777 16.232 26.0635 13.4123 28.2534 11.3366C30.4549 9.25009 33.3798 8.09617 36.6814 7.99915Z" fill="black"/>
<path opacity="0.4" d="M60.3217 8.03039C63.3712 8.24466 66.0703 9.38078 68.1341 11.3366C70.05 13.1526 71.274 15.538 71.7966 18.1959L71.9778 19.3521L71.9997 19.6802C72.0253 21.3013 70.8197 22.7111 69.1747 22.9052C67.5293 23.099 66.0294 22.0074 65.6779 20.424L65.6217 20.1021L65.5185 19.4334C65.2234 17.9243 64.5737 16.776 63.7342 15.9803C62.9049 15.1943 61.7465 14.616 60.203 14.4459L59.5186 14.399L59.1905 14.3709C57.5832 14.1591 56.3639 12.7609 56.4124 11.1053C56.4643 9.33891 57.9397 7.94739 59.7061 7.99914L60.3217 8.03039Z" fill="black"/>
<path d="M48.7219 34.7363C48.7218 33.4471 48.3258 32.6109 47.875 32.127C47.448 31.6687 46.7463 31.2801 45.5844 31.2801H34.4158C33.2626 31.2801 32.5579 31.6662 32.1284 32.127C31.6757 32.6126 31.2816 33.4506 31.2815 34.7363V45.2643C31.2817 46.5517 31.6747 47.3892 32.1252 47.8736C32.5519 48.3321 33.2551 48.7205 34.4158 48.7205H45.5844C46.7448 48.7205 47.4475 48.3323 47.875 47.8736C48.3263 47.389 48.7217 46.5512 48.7219 45.2643V34.7363ZM55.1218 45.2643C55.1216 47.8744 54.2991 50.3643 52.5593 52.2329C50.795 54.1276 48.3279 55.1204 45.5844 55.1204H34.4158C31.6723 55.1204 29.2046 54.1282 27.4409 52.2329C25.7019 50.3639 24.8818 47.8735 24.8816 45.2643V34.7363C24.8817 32.1218 25.7072 29.6316 27.4472 27.7645C29.211 25.8723 31.6773 24.8802 34.4158 24.8802H45.5844C48.3269 24.8802 50.7945 25.8699 52.5593 27.7645C54.3001 29.6334 55.1217 32.1248 55.1218 34.7363V45.2643Z" fill="black"/>
</svg>
