<svg width="80" height="80" viewBox="0 0 80 80" fill="none" xmlns="http://www.w3.org/2000/svg">
<path d="M19.346 18.5144C20.6636 18.1247 22.0479 18.8769 22.4375 20.1946C22.8268 21.5119 22.0745 22.8953 20.7573 23.285C17.3925 24.28 15.7063 27.2863 14.8377 29.7338C14.7148 30.0801 14.5159 30.3953 14.2567 30.6559C13.0846 31.8351 11.5991 33.6905 11.1274 35.8402C10.7093 37.7459 10.9883 40.3082 14.2081 43.3731C14.7921 43.9291 15.0699 44.7337 14.9543 45.5317C14.8386 46.3299 14.3432 47.0228 13.625 47.3901C13.3032 47.5548 12.7288 48.1127 12.3498 49.1621C11.9903 50.1577 11.9058 51.3486 12.2591 52.4933C12.889 54.5341 15.3403 57.4846 23.2733 57.9562C24.5877 58.0343 25.6144 59.1231 25.6144 60.4398V63.9363H27.4987L30.8915 55.9067C31.3762 54.7602 32.6339 54.1487 33.8351 54.4748C34.3736 54.6211 35.4018 54.7165 36.4224 54.4338C37.3607 54.1738 38.278 53.6083 38.9157 52.3724C39.2768 51.6725 39.9483 51.1853 40.7255 51.0582C41.5027 50.9312 42.2941 51.1794 42.8593 51.7277C44.2707 53.0972 46.5642 53.6045 48.5532 53.0494C50.3962 52.5351 51.7952 51.1815 51.9017 48.7809C51.9629 47.4086 53.1242 46.3457 54.4966 46.4063C55.8693 46.4673 56.9331 47.6296 56.8722 49.0022C56.6585 53.8146 53.5409 56.823 49.8911 57.8417C47.2427 58.5808 44.2105 58.31 41.6714 56.9541C40.4934 58.1379 39.1094 58.8529 37.7506 59.2293C36.7026 59.5196 35.669 59.6119 34.7389 59.5856L31.507 67.233C31.0981 68.1999 30.1363 68.9121 28.9813 68.9121H23.3824C21.7546 68.9121 20.6386 67.5627 20.6385 66.1553V62.7031C13.0752 61.7239 8.85518 58.3364 7.50457 53.9619C6.80108 51.683 6.98159 49.3794 7.67087 47.471C7.98207 46.6096 8.4207 45.7695 8.97746 45.0263C6.16924 41.5159 5.56629 37.9675 6.26709 34.7733C6.9754 31.5454 8.94371 29.033 10.3391 27.5536C11.4597 24.6367 13.9452 20.1114 19.346 18.5144Z" fill="black"/>
<path d="M67.7992 29.6668C68.8687 28.9492 70.2943 29.1715 71.0991 30.142L71.2514 30.346L71.4749 30.6873C76.0564 37.8783 74.2297 46.8783 67.4029 51.0248C65.066 52.4442 62.3319 53.0087 59.8268 52.9609C57.35 52.9136 54.8222 52.2596 52.9461 50.9243C49.4905 48.4648 47.3921 44.1735 47.7478 40.4403L47.7845 40.1887C48.0302 38.9517 49.1779 38.0775 50.4604 38.1996C51.8282 38.33 52.8313 39.5443 52.701 40.9122C52.5399 42.6031 53.5684 45.1442 55.6284 46.7216L55.8314 46.8707L55.9967 46.983C56.8627 47.5325 58.2599 47.9544 59.9218 47.9861C61.666 48.0194 63.4321 47.6144 64.8199 46.7713C68.9593 44.2569 70.4656 38.6137 67.4277 33.6017L67.12 33.119L66.9893 32.8998C66.3964 31.7873 66.7299 30.3846 67.7992 29.6668Z" fill="black"/>
<path d="M33.4321 12.2891C44.9801 8.47278 54.0363 14.1256 57.8957 16.399C59.0796 17.0963 59.4742 18.6219 58.7768 19.8058C58.123 20.9155 56.7422 21.3314 55.5967 20.8047L55.371 20.687L53.7394 19.7367C49.5866 17.3803 43.049 14.3512 34.9936 17.0134C33.6889 17.4445 32.2813 16.7361 31.8502 15.4314C31.4193 14.1269 32.1277 12.7203 33.4321 12.2891Z" fill="black"/>
<path d="M23.3737 12.8377C25.7858 11.4589 28.7854 10.8452 31.8256 11.5235C34.9011 12.2099 37.8042 14.1701 40.0744 17.5576C40.8393 18.6991 40.5344 20.2449 39.393 21.0098C38.2516 21.7747 36.7057 21.4688 35.9408 20.3274C34.2927 17.8683 32.4232 16.7547 30.7425 16.3795C29.0264 15.9966 27.2855 16.3337 25.8433 17.1581C24.3842 17.9922 23.3636 19.2459 22.9688 20.5315C22.6224 21.6596 22.7065 22.9503 23.6275 24.3033L23.8229 24.5744L23.9666 24.7849C24.6242 25.8607 24.3732 27.2816 23.3478 28.0611C22.3222 28.8407 20.8858 28.7021 20.0252 27.7804L19.8611 27.586L19.6721 27.3301C17.7689 24.6765 17.396 21.73 18.2122 19.0715C19.0296 16.4096 20.9785 14.207 23.3737 12.8377Z" fill="black"/>
<path d="M49.6947 18.144C54.1217 15.8491 58.312 15.6143 61.8579 16.886C65.3498 18.1385 67.9635 20.7607 69.4793 23.7375C70.985 26.6942 71.5112 30.2107 70.5397 33.3685C69.5309 36.6471 66.9747 39.2824 62.9194 40.315C61.5879 40.6539 60.2338 39.8485 59.8948 38.5171C59.556 37.1857 60.3602 35.8316 61.6916 35.4925C64.1058 34.8778 65.2974 33.4869 65.7842 31.9053C66.308 30.2025 66.0782 28.0232 65.0456 25.9954C64.0232 23.9878 62.3166 22.3363 60.1777 21.5692C58.0925 20.8214 55.3399 20.8219 51.9839 22.5616C50.7643 23.1936 49.2635 22.7174 48.6311 21.4979C47.9987 20.278 48.4748 18.7763 49.6947 18.144Z" fill="black"/>
<path d="M41.2672 25.5386C41.2672 24.1646 42.3811 23.0507 43.7552 23.0507C45.1292 23.0507 46.2431 24.1646 46.2431 25.5386C46.2431 27.0324 46.6444 27.9002 47.0616 28.4131C47.4911 28.9412 48.1032 29.2965 48.8476 29.4714C49.6093 29.6503 50.4191 29.615 51.0699 29.4368C51.8001 29.2369 51.9455 28.9779 51.8809 29.0837C52.5969 27.9112 54.1281 27.5408 55.3007 28.2566C56.4732 28.9726 56.8436 30.5038 56.1279 31.6764C55.2624 33.0935 53.7258 33.8682 52.3841 34.2356C50.9632 34.6246 49.3108 34.6913 47.7106 34.3155C46.0931 33.9356 44.4432 33.0802 43.2012 31.5533C41.947 30.0111 41.2672 27.9786 41.2672 25.5386Z" fill="black"/>
<path d="M43.5934 29.9865C44.1498 28.7303 45.6198 28.1625 46.8761 28.7187C48.1323 29.2752 48.7001 30.7451 48.1438 32.0014C47.6464 33.1245 46.6339 34.6373 45.0879 35.7614C43.4678 36.9393 41.2201 37.7031 38.5441 37.0399C37.2106 36.7094 36.3975 35.3607 36.7278 34.0272C37.0584 32.6936 38.407 31.8795 39.7406 32.2098C40.7542 32.4611 41.5172 32.2053 42.1615 31.7369C42.8798 31.2146 43.3859 30.4548 43.5934 29.9865Z" fill="black"/>
<path d="M22.8923 37.4693C24.1792 37.4145 25.2794 38.3475 25.4602 39.5955L25.4839 39.8492L25.498 40.0857C25.5905 41.2402 25.9804 41.9759 26.4234 42.4603C26.9184 43.0015 27.622 43.3807 28.4599 43.5606C29.3072 43.7424 30.1927 43.6959 30.9165 43.4818C31.6719 43.2583 32.0158 42.9311 32.1173 42.7723L32.2653 42.565C33.0486 41.5769 34.4682 41.3235 35.5533 42.0175C36.7107 42.7579 37.0494 44.2961 36.3092 45.4536L36.1246 45.7235C35.1716 47.0382 33.729 47.8391 32.3279 48.2536C30.8016 48.7051 29.0718 48.7807 27.4157 48.4252C25.7507 48.0678 24.062 47.2508 22.752 45.8185C21.5026 44.4524 20.7156 42.6545 20.5394 40.4971L20.5124 40.0609L20.5146 39.8071C20.588 38.5481 21.6052 37.5243 22.8923 37.4693Z" fill="black"/>
</svg>
