<svg width="80" height="80" viewBox="0 0 80 80" fill="none" xmlns="http://www.w3.org/2000/svg">
<path d="M14.2656 22C14.2656 20.3431 15.6088 19 17.2656 19C18.9225 19 20.2656 20.3431 20.2656 22V39.8643C20.2767 39.9213 20.3069 40.054 20.3857 40.2412C20.547 40.6242 20.9493 41.3387 21.9697 42.1465C24.0551 43.7973 28.9492 45.998 40.002 45.998C51.0542 45.998 55.9477 43.7972 58.0332 42.1465C59.0535 41.3388 59.4559 40.6242 59.6172 40.2412C59.6943 40.0581 59.7256 39.9271 59.7373 39.8682V22C59.7373 20.3432 61.0806 19.0002 62.7373 19C64.3942 19 65.7373 20.3431 65.7373 22V39.999H62.7373C65.7373 39.999 65.7373 40.0031 65.7373 40.0068V40.0654C65.7368 40.0901 65.7356 40.118 65.7344 40.1475C65.732 40.2062 65.7282 40.2745 65.7217 40.3516C65.7086 40.5063 65.6854 40.6977 65.6455 40.9189C65.5656 41.3619 65.4179 41.9271 65.1475 42.5693C64.5982 43.8737 63.5791 45.4088 61.7578 46.8506C58.1592 49.6993 51.6848 51.998 40.002 51.998C28.319 51.998 21.8437 49.6993 18.2451 46.8506C16.424 45.4089 15.4057 43.8736 14.8564 42.5693C14.586 41.927 14.4374 41.3619 14.3574 40.9189C14.3175 40.6977 14.2953 40.5063 14.2822 40.3516C14.2757 40.2745 14.271 40.2063 14.2686 40.1475C14.2674 40.118 14.2671 40.0901 14.2666 40.0654C14.2664 40.0532 14.2657 40.0413 14.2656 40.0303V40.0068C14.2656 40.0031 14.2656 39.999 17.2656 39.999H14.2656V22Z" fill="black"/>
<path d="M59.7378 40C59.7378 38.3431 61.081 37 62.7378 37C64.3946 37.0001 65.7378 38.3432 65.7378 40V57.999H62.7378L65.3628 58.001C65.7179 58.0023 65.7369 58.0041 65.7378 58.0059V58.0303C65.7377 58.0414 65.7371 58.0531 65.7369 58.0654C65.7364 58.09 65.7361 58.1171 65.7349 58.1465C65.7325 58.2054 65.7278 58.2742 65.7212 58.3516C65.7082 58.5062 65.685 58.6968 65.6451 58.918C65.5651 59.361 65.4175 59.9267 65.147 60.5693C64.5979 61.8738 63.5794 63.4093 61.7583 64.8516C58.1596 67.7014 51.6848 70.001 40.0015 70.001C38.3447 70.001 37.0015 68.6578 37.0015 67.001C37.0016 65.3442 38.3447 64.001 40.0015 64.001C51.0536 64.001 55.9472 61.7998 58.0328 60.1484C59.0534 59.3402 59.4564 58.6245 59.6177 58.2412C59.6965 58.0539 59.7267 57.9213 59.7378 57.8643V40Z" fill="black"/>
<path d="M14.2656 39.999C14.2656 38.3422 15.6088 37 17.2656 37C18.9225 37 20.2656 38.3431 20.2656 40V57.8604C20.2716 57.8919 20.2829 57.9496 20.3076 58.0283C20.3775 58.2511 20.5544 58.6825 21.001 59.2178C21.8776 60.2685 24.05 62.016 29.3135 63.0869C30.9371 63.4172 31.9856 65.0014 31.6553 66.625C31.3352 68.1978 29.8388 69.2304 28.2695 68.9932L28.1172 68.9668L27.5449 68.8457C21.711 67.5663 18.3175 65.367 16.3936 63.0605C15.4091 61.8804 14.87 60.7418 14.582 59.8232C14.4392 59.3678 14.3597 58.9729 14.3164 58.6621C14.2948 58.5069 14.2827 58.372 14.2754 58.2607C14.2717 58.2052 14.269 58.155 14.2676 58.1113C14.2669 58.0896 14.2659 58.0695 14.2656 58.0508V58.0049L17.2656 57.999H14.2656L14.2656 39.999Z" fill="black"/>
<path d="M14.2656 22.0566C14.2656 19.7109 15.4712 17.783 16.9951 16.3477C18.5134 14.9178 20.5489 13.7677 22.8145 12.8652C27.3626 11.0536 33.441 10 40.002 10C41.6586 10.0003 43.002 11.3433 43.002 13C43.002 14.6567 41.6586 15.9997 40.002 16C34.0064 16 28.7158 16.9734 25.0352 18.4395C23.1866 19.1758 21.8921 19.9778 21.1094 20.7148C20.3325 21.4465 20.2656 21.9016 20.2656 22.0566C20.2657 22.2118 20.3327 22.666 21.1094 23.3975C21.8921 24.1346 23.1864 24.9374 25.0352 25.6738C28.7158 27.1399 34.0065 28.1133 40.002 28.1133C45.9972 28.1132 51.2872 27.1398 54.9678 25.6738C56.8166 24.9374 58.1118 24.1346 58.8945 23.3975C59.6709 22.6662 59.7373 22.2117 59.7373 22.0566C59.7373 21.8557 59.5887 21.0896 57.9707 19.9824C56.4256 18.9252 54.0202 17.9195 50.8926 17.1807L52.2725 11.3418C55.8227 12.1805 58.9956 13.4136 61.3584 15.0303C63.6481 16.5969 65.7373 18.9405 65.7373 22.0566C65.7373 24.4024 64.5318 26.3303 63.0078 27.7656C61.4896 29.1954 59.454 30.3446 57.1885 31.2471C52.6404 33.0587 46.5628 34.1132 40.002 34.1133C33.441 34.1133 27.3626 33.0587 22.8145 31.2471C20.549 30.3446 18.5133 29.1954 16.9951 27.7656C15.4712 26.3303 14.2657 24.4023 14.2656 22.0566ZM48.6631 13.5713C49.0441 11.959 50.6601 10.9609 52.2725 11.3418L50.8926 17.1807C49.2803 16.7996 48.2822 15.1836 48.6631 13.5713Z" fill="black"/>
</svg>
