<svg width="80" height="80" viewBox="0 0 80 80" fill="none" xmlns="http://www.w3.org/2000/svg">
<path d="M64.3534 25.8123C61.7497 25.8221 58.6797 25.8123 56.47 25.7893C52.9666 25.7893 50.0805 22.8736 50.0805 19.3341V10.8991C50.0805 9.52004 51.7386 8.8371 52.6842 9.83197L54.8197 12.0751C56.1426 13.465 57.6247 15.0221 59.1033 16.5728C61.441 19.0288 63.769 21.4749 65.4402 23.2315C66.3661 24.2001 65.6865 25.809 64.3534 25.8123Z" fill="black"/>
<path fill-rule="evenodd" clip-rule="evenodd" d="M65.775 30.4648C66.5663 30.4648 67.2 31.105 67.2 31.9029V57.6316C67.2 65.5676 60.8335 71.9998 52.9435 71.9998H27.7564C19.5184 71.9998 12.8005 65.2491 12.8005 56.9289V22.4336C12.8005 14.4976 19.2032 7.99976 27.0899 7.99976H44.0094C44.8335 7.99976 45.4672 8.67285 45.4672 9.474V19.7773C45.4672 25.6316 50.2511 30.4319 56.0496 30.4648H65.775ZM43.7221 58.8865C43.0917 58.8865 42.4613 58.6468 41.9819 58.1642C41.0198 57.2021 41.0198 55.6425 41.9819 54.6838L47.3667 49.3023L42.0902 44.0226C41.1282 43.0605 41.1282 41.5042 42.0902 40.5422C43.0523 39.5801 44.6119 39.5801 45.5706 40.5422L52.5906 47.5588C53.0535 48.0217 53.3129 48.6489 53.3129 49.3023C53.3129 49.9557 53.0535 50.5795 52.5906 51.0425L45.4623 58.1642C44.9829 58.6468 44.3525 58.8865 43.7221 58.8865ZM34.5381 51.5586C35.0175 52.0413 35.6479 52.281 36.2783 52.281C36.9087 52.281 37.5391 52.0413 38.0185 51.5586C38.9805 50.5966 38.9805 49.037 38.0185 48.0782L32.6338 42.6967L37.9101 37.417C38.8722 36.455 38.8722 34.8987 37.9101 33.9366C36.9481 32.9747 35.3885 32.9747 34.4297 33.9366L27.4099 40.9532C26.947 41.4162 26.6876 42.0433 26.6876 42.6967C26.6876 43.3501 26.947 43.974 27.4099 44.4369L34.5381 51.5586Z" fill="black"/>
</svg>
