<svg width="80" height="80" viewBox="0 0 80 80" fill="none" xmlns="http://www.w3.org/2000/svg">
<path fill-rule="evenodd" clip-rule="evenodd" d="M56.4683 25.7877C58.6781 25.8107 61.7483 25.8206 64.3521 25.8107C65.6853 25.8074 66.3617 24.1985 65.439 23.2266C63.7677 21.4731 61.4396 19.0269 59.1017 16.5708C56.754 14.1048 54.3964 11.629 52.6823 9.82959C51.7334 8.83467 50.0785 9.51765 50.0785 10.8968V19.3322C50.0785 22.8719 52.9647 25.7877 56.4683 25.7877Z" fill="black"/>
<path fill-rule="evenodd" clip-rule="evenodd" d="M65.7726 30.4612H56.0467C50.2479 30.4316 45.4638 25.6311 45.4638 19.7732V9.46933C45.4638 8.66814 44.83 7.99829 44.0059 7.99829H27.0856C19.1985 7.99829 12.7988 14.4932 12.7988 22.4296V56.9267C12.7988 65.2473 19.5137 71.9983 27.7522 71.9983H52.9405C60.8309 71.9983 67.201 65.5658 67.201 57.6327V31.9027C67.201 31.1015 66.5673 30.4612 65.7726 30.4612Z" fill="black"/>
</svg>
