<svg width="80" height="80" viewBox="0 0 80 80" fill="none" xmlns="http://www.w3.org/2000/svg">
<path fill-rule="evenodd" clip-rule="evenodd" d="M66.3412 31.1582H56.3092C50.3161 31.1256 45.3978 26.1748 45.3978 20.1491V9.53085C45.3978 8.684 44.7138 8 43.8995 8H26.4739C18.3311 8 11.7517 14.7097 11.7517 22.8851V46.0766C11.7517 46.5498 12.2428 46.8684 12.6949 46.729C13.4497 46.4964 14.2539 46.3691 15.074 46.3691H19.6014C22.7 46.3691 25.5208 47.425 27.7815 49.2031C28.0826 49.4399 28.5231 49.3894 28.7747 49.1005C30.2531 47.4026 32.432 46.3365 34.8773 46.3365H38.6555C42.1843 46.3365 47.6726 49.6262 49.2757 50.6372C49.5412 50.8043 49.8868 50.7685 50.1132 50.5512C51.2558 49.4526 54.71 46.3365 57.1235 46.3365H65.2663C65.8207 46.3365 66.3747 46.3883 66.9046 46.4997C67.3496 46.5935 67.8069 46.2746 67.8069 45.8199V32.6239C67.8069 31.8096 67.1229 31.1582 66.3412 31.1582Z" fill="black"/>
<path fill-rule="evenodd" clip-rule="evenodd" d="M56.7387 26.3335C59.0155 26.3563 62.1781 26.3661 64.862 26.3563C66.2365 26.3531 66.9336 24.6952 65.9825 23.6952C64.2595 21.8875 61.8622 19.3698 59.4519 16.8357C57.0351 14.2984 54.6053 11.7448 52.8367 9.89152C51.8628 8.86552 50.1528 9.56906 50.1528 10.9924V19.6825C50.1528 23.3304 53.1266 26.3335 56.7387 26.3335Z" fill="black"/>
<path fill-rule="evenodd" clip-rule="evenodd" d="M19.6173 62.1332H17.5099V56.9446H19.6173C21.0472 56.9446 22.2132 58.1074 22.2132 59.5373C22.2132 60.9705 21.0472 62.1332 19.6173 62.1332ZM19.6173 52.0589H15.0671C13.7186 52.0589 12.6242 53.1533 12.6242 54.5018V69.5335C12.6242 70.8819 13.7186 71.9763 15.0671 71.9763C16.4155 71.9763 17.5099 70.8819 17.5099 69.5335V67.0189H19.6173C23.7441 67.0189 27.0989 63.6641 27.0989 59.5373C27.0989 55.4138 23.7441 52.0589 19.6173 52.0589Z" fill="black"/>
<path fill-rule="evenodd" clip-rule="evenodd" d="M65.2728 52.0468H57.1104C55.762 52.0468 54.6676 53.1412 54.6676 54.4897V69.5572C54.6676 70.9056 55.762 72 57.1104 72C58.4589 72 59.5532 70.9056 59.5532 69.5572V65.7235H64.0188C65.3672 65.7235 66.4616 64.6291 66.4616 63.2807C66.4616 61.9322 65.3672 60.8378 64.0188 60.8378H59.5532V56.9325H65.2728C66.6212 56.9325 67.7156 55.8381 67.7156 54.4897C67.7156 53.1412 66.6212 52.0468 65.2728 52.0468Z" fill="black"/>
<path fill-rule="evenodd" clip-rule="evenodd" d="M42.2436 65.6211C41.2795 66.5819 40.0027 67.1128 38.6412 67.1128H37.3188V56.9343H38.6412C40.0027 56.9343 41.2827 57.462 42.2436 58.4261C43.2045 59.3837 43.7354 60.6637 43.7354 62.0252C43.7354 63.3834 43.2045 64.6602 42.2436 65.6211ZM38.6412 52.0486H34.876C33.5275 52.0486 32.4332 53.1397 32.4332 54.4914V69.5557C32.4332 70.9074 33.5275 71.9985 34.876 71.9985H38.6412C41.3055 71.9985 43.8103 70.9628 45.6962 69.0769C47.582 67.1943 48.6211 64.6895 48.6211 62.0252C48.6211 59.3544 47.582 56.8496 45.6994 54.9703C43.8135 53.0844 41.3055 52.0486 38.6412 52.0486Z" fill="black"/>
</svg>
