<svg width="80" height="80" viewBox="0 0 80 80" fill="none" xmlns="http://www.w3.org/2000/svg">
<path fill-rule="evenodd" clip-rule="evenodd" d="M56.6679 25.7895C58.8776 25.8125 61.9476 25.8224 64.5513 25.8125C65.8844 25.8092 66.5608 24.2004 65.6382 23.2285C63.9669 21.4751 61.639 19.029 59.3012 16.573C56.9536 14.1072 54.5961 11.6315 52.8821 9.8322C51.9332 8.83733 50.2784 9.52028 50.2784 10.8993V19.3344C50.2784 22.8739 53.1645 25.7895 56.6679 25.7895Z" fill="black"/>
<path fill-rule="evenodd" clip-rule="evenodd" d="M33.6033 28.6756C33.6033 30.0349 32.5001 31.1381 31.1408 31.1381C29.7815 31.1381 28.6782 30.0349 28.6782 28.6756V24.0887C28.6782 22.7261 29.7815 21.6261 31.1408 21.6261C32.5001 21.6261 33.6033 22.7261 33.6033 24.0887V28.6756ZM33.6033 42.2984C33.6033 43.6577 32.5001 44.7609 31.1408 44.7609C29.7815 44.7609 28.6782 43.6577 28.6782 42.2984V37.7115C28.6782 36.3521 29.7815 35.2489 31.1408 35.2489C32.5001 35.2489 33.6033 36.3521 33.6033 37.7115V42.2984ZM33.6033 55.9245C33.6033 57.2838 32.5001 58.387 31.1408 58.387C29.7815 58.387 28.6782 57.2838 28.6782 55.9245V51.3376C28.6782 49.9782 29.7815 48.875 31.1408 48.875C32.5001 48.875 33.6033 49.9782 33.6033 51.3376V55.9245ZM65.9744 30.465H56.2457C50.4505 30.4322 45.6633 25.6319 45.6633 19.7776V9.47096C45.6633 8.6731 45.0296 8 44.2087 8H33.6033V15.0495C33.6033 16.4088 32.5001 17.512 31.1408 17.512C29.7815 17.512 28.6782 16.4088 28.6782 15.0495V8H27.2894C19.3993 8 13 14.4978 13 22.4338V56.9259C13 65.246 19.7178 72 27.9526 72H28.6782V64.9571C28.6782 63.5978 29.7815 62.4946 31.1408 62.4946C32.5001 62.4946 33.6033 63.5978 33.6033 64.9571V72H53.1428C61.0296 72 67.3994 65.5678 67.3994 57.6318V31.9032C67.3994 31.1053 66.7657 30.465 65.9744 30.465Z" fill="black"/>
</svg>
