<svg width="80" height="80" viewBox="0 0 80 80" fill="none" xmlns="http://www.w3.org/2000/svg">
<path fill-rule="evenodd" clip-rule="evenodd" d="M34.9965 49.4609H28.1275V51.4179C28.1275 52.6591 28.4985 55.542 31.9298 55.542H34.9965V49.4609Z" fill="black"/>
<path fill-rule="evenodd" clip-rule="evenodd" d="M34.9965 44.5356V38.4512H31.9298C29.5493 38.4512 28.1275 39.9912 28.1275 42.5753V44.5356H34.9965Z" fill="black"/>
<path fill-rule="evenodd" clip-rule="evenodd" d="M56.3716 25.7898C58.5814 25.8128 61.6515 25.8227 64.2554 25.8128C65.5885 25.8095 66.2649 24.2006 65.3423 23.2287C63.6709 21.4752 61.3429 19.029 59.005 16.5729C56.6572 14.1069 54.2996 11.6311 52.5856 9.8317C51.6366 8.83678 49.9817 9.51976 49.9817 10.8989V19.3344C49.9817 22.874 52.868 25.7898 56.3716 25.7898Z" fill="black"/>
<path fill-rule="evenodd" clip-rule="evenodd" d="M39.9222 44.5356H46.7881V42.5753C46.7881 39.9912 45.3663 38.4512 42.9858 38.4512H39.9222V44.5356Z" fill="black"/>
<path fill-rule="evenodd" clip-rule="evenodd" d="M39.9222 49.4609V55.542H42.9858C46.4171 55.542 46.7881 52.6591 46.7881 51.4179V49.4609H39.9222Z" fill="black"/>
<path fill-rule="evenodd" clip-rule="evenodd" d="M51.7122 51.4186C51.7122 56.7478 48.1232 60.4681 42.9844 60.4681H31.9319C26.7899 60.4681 23.2009 56.7478 23.2009 51.4186V42.5759C23.2009 37.2467 26.7899 33.5264 31.9319 33.5264H42.9844C48.1232 33.5264 51.7122 37.2467 51.7122 42.5759V51.4186ZM65.6772 30.4629H55.9512C50.1525 30.4333 45.3683 25.6328 45.3683 19.7749V9.47104C45.3683 8.67313 44.7346 8 43.9104 8H26.9902C19.0997 8 12.7001 14.4949 12.7001 22.4313V56.9284C12.7001 65.249 19.4183 72 27.6567 72H52.845C60.7354 72 67.1022 65.5708 67.1022 57.6344V31.9044C67.1022 31.1032 66.4685 30.4629 65.6772 30.4629Z" fill="black"/>
</svg>
