<svg width="80" height="80" viewBox="0 0 80 80" fill="none" xmlns="http://www.w3.org/2000/svg">
<path fill-rule="evenodd" clip-rule="evenodd" d="M56.6679 25.7891C58.8776 25.8121 61.9476 25.822 64.5513 25.8121C65.8844 25.8088 66.5641 24.2 65.6382 23.2281C63.9669 21.4747 61.639 19.0286 59.3012 16.5726C56.9536 14.1068 54.5961 11.6311 52.8821 9.83181C51.9332 8.83694 50.2784 9.51989 50.2784 10.8989V19.334C50.2784 22.8735 53.1645 25.7891 56.6679 25.7891Z" fill="black"/>
<path fill-rule="evenodd" clip-rule="evenodd" d="M45.7453 47.0626L38.2986 54.5389C37.8488 55.0511 37.1888 55.3729 36.4533 55.3729C35.7737 55.3729 35.163 55.1003 34.7164 54.6571L34.7066 54.6472L27.1515 47.0626C26.1927 46.1005 26.196 44.5376 27.158 43.5789C28.1233 42.6201 29.6797 42.6234 30.6417 43.5855L33.9908 46.9477V33.4595C33.9908 32.1002 35.094 30.9969 36.4533 30.9969C37.8127 30.9969 38.9159 32.1002 38.9159 33.4595V46.9411L42.2584 43.5855C43.2171 42.6234 44.7767 42.6201 45.7388 43.5789C46.7041 44.5376 46.7041 46.1005 45.7453 47.0626ZM65.9744 30.465H56.2457C50.4505 30.4322 45.6633 25.6319 45.6633 19.7776V9.47096C45.6633 8.6731 45.0296 8 44.2087 8H27.2894C19.3993 8 13 14.4946 13 22.4305V56.9259C13 65.246 19.7178 72 27.9526 72H53.1428C61.0296 72 67.3994 65.5678 67.3994 57.6318V31.9032C67.3994 31.1053 66.7657 30.465 65.9744 30.465Z" fill="black"/>
</svg>
