<svg width="80" height="80" viewBox="0 0 80 80" fill="none" xmlns="http://www.w3.org/2000/svg">
<path fill-rule="evenodd" clip-rule="evenodd" d="M35.6637 49.1375H40.4476L41.0386 44.4619H36.258L35.6637 49.1375Z" fill="black"/>
<path fill-rule="evenodd" clip-rule="evenodd" d="M56.3676 25.7895C58.5773 25.8125 61.6473 25.8224 64.251 25.8125C65.5841 25.8092 66.2605 24.2004 65.3378 23.2285C63.6666 21.4751 61.3386 19.029 59.0009 16.573C56.6532 14.1072 54.2958 11.6315 52.5818 9.83221C51.6329 8.83734 49.9781 9.52029 49.9781 10.8993V19.3344C49.9781 22.8739 52.8642 25.7895 56.3676 25.7895Z" fill="black"/>
<path fill-rule="evenodd" clip-rule="evenodd" d="M48.6236 44.4621H46.0035L45.4092 49.1377H47.7765C49.1358 49.1377 50.2391 50.2409 50.2391 51.6002C50.2391 52.9596 49.1358 54.0628 47.7765 54.0628H44.7853L44.434 56.857C44.2764 58.1014 43.2159 59.0109 41.9912 59.0109C41.8894 59.0109 41.7843 59.0043 41.6825 58.9912C40.333 58.8204 39.3776 57.5892 39.545 56.2397L39.8208 54.0628H35.0369L34.6856 56.857C34.5149 58.2064 33.2934 59.1422 31.9308 58.9912C30.5846 58.8204 29.6292 57.5892 29.7999 56.2397L30.0757 54.0628H28.0137C26.6544 54.0628 25.5512 52.9596 25.5512 51.6002C25.5512 50.2409 26.6544 49.1377 28.0137 49.1377H30.6995L31.2938 44.4621H28.8576C27.4982 44.4621 26.395 43.3589 26.395 41.9996C26.395 40.6402 27.4982 39.537 28.8576 39.537H31.9177L32.2723 36.7461C32.4398 35.3967 33.6448 34.4346 35.0238 34.6119C36.3733 34.7827 37.3287 36.0172 37.158 37.3634L36.8822 39.537H41.6628L42.0141 36.7461C42.1849 35.3967 43.3899 34.4346 44.7689 34.6119C46.1151 34.7827 47.0706 36.0139 46.9031 37.3634L46.6273 39.537H48.6236C49.983 39.537 51.0862 40.6402 51.0862 41.9996C51.0862 43.3589 49.983 44.4621 48.6236 44.4621ZM65.671 30.465H55.9456C50.1471 30.4322 45.3632 25.6319 45.3632 19.7776V9.47096C45.3632 8.6731 44.7295 8 43.9054 8H26.986C19.0993 8 12.7 14.4946 12.7 22.4305V56.9259C12.7 65.246 19.4145 72 27.6526 72H52.8395C60.7295 72 67.0993 65.5678 67.0993 57.6318V31.9032C67.0993 31.1053 66.4656 30.465 65.671 30.465Z" fill="black"/>
</svg>
