<svg width="80" height="80" viewBox="0 0 80 80" fill="none" xmlns="http://www.w3.org/2000/svg">
<path d="M36.9414 39.8857C38.5261 39.8857 39.6651 40.2326 40.3584 40.9258C41.0765 41.6191 41.4355 42.5975 41.4355 43.8604C41.4355 45.0735 41.0764 46.0388 40.3584 46.7568C39.6651 47.4749 38.5261 47.834 36.9414 47.834H32.4844V39.8857H36.9414Z" fill="black"/>
<path fill-rule="evenodd" clip-rule="evenodd" d="M44.0059 8C44.8296 8.00001 45.4629 8.67317 45.4629 9.4707V19.7764C45.4631 25.6314 50.2486 30.4324 56.0479 30.4619H65.7725C66.5667 30.4619 67.2002 31.1025 67.2002 31.9033V57.6309C67.2002 65.5667 60.8299 71.9997 52.9434 72H27.7529C19.5151 71.9999 12.7998 65.2486 12.7998 56.9287V22.4316C12.7998 14.4956 19.2002 8.00002 27.0869 8H44.0059ZM27.4707 35.7998V61.7998H32.4844V51.8828H37.2393C39.3932 51.8828 41.1509 51.5113 42.5127 50.7686C43.8994 50.0009 44.9148 49.0102 45.5586 47.7969C46.2271 46.5837 46.5615 45.2716 46.5615 43.8604C46.5615 42.3251 46.2148 40.9506 45.5215 39.7373C44.8529 38.524 43.8251 37.5703 42.4385 36.877C41.0767 36.159 39.3436 35.7999 37.2393 35.7998H27.4707Z" fill="black"/>
<path d="M50.0781 10.8984C50.0782 9.52012 51.7355 8.83446 52.6807 9.83203C54.3972 11.6306 56.7539 14.1084 59.1006 16.5732C61.4407 19.0282 63.7679 21.4769 65.4385 23.2295C66.3637 24.1977 65.684 25.8092 64.3516 25.8125C61.7458 25.8223 58.6774 25.812 56.4688 25.7891C52.9635 25.7891 50.0781 22.8743 50.0781 19.333V10.8984Z" fill="black"/>
</svg>
