<svg width="80" height="80" viewBox="0 0 80 80" fill="none" xmlns="http://www.w3.org/2000/svg">
<path d="M28.0986 12.5581C40.0525 7.36663 54.7204 10.3683 63.54 21.5621C72.1003 32.4242 71.9569 48.162 63.3171 58.8923L62.8994 59.3995C56.8665 66.5567 48.3771 70.1198 39.9027 70.0908C37.4356 70.0827 27.0462 70.0868 19.9398 70.0898L18.3197 70.0908L18.3187 70.0898C13.7988 70.0929 11.2084 65.0607 13.6687 61.3672C14.3318 60.3708 15.1666 59.1759 15.8224 58.2497C14.909 56.6595 13.3694 53.9399 12.8421 52.6865C7.74773 41.5978 9.71542 28.0366 18.8503 18.8739L18.9623 18.7678C20.1347 17.7053 21.9474 17.7374 23.0806 18.8671C24.2504 20.0334 24.2527 21.9277 23.0865 23.0975L22.7486 23.4441C15.7264 30.7716 14.2476 41.4473 18.2895 50.2164C18.311 50.2631 18.3318 50.3109 18.3508 50.3586C18.6355 51.0699 19.975 53.4708 21.0331 55.3123C22.182 57.3103 22.0635 59.7813 20.7401 61.6583L20.7362 61.6632C20.2106 62.4052 19.5837 63.2993 19.0343 64.1079L31.6601 64.104C35.4591 64.1035 38.6813 64.1048 39.9222 64.1089C46.6999 64.1322 53.4805 61.2917 58.3254 55.544C65.4382 47.1064 65.7684 34.4664 59.1627 25.6805L58.8424 25.2647C51.7753 16.2946 40.0504 13.8894 30.4811 18.0454L28.0986 12.5581ZM30.4811 18.0454C28.9661 18.7031 27.2047 18.0082 26.5467 16.4935C25.8887 14.9783 26.5835 13.2161 28.0986 12.5581L30.4811 18.0454Z" fill="black"/>
<path d="M36.9916 47.8364V43.0755H32.2735C30.6216 43.0755 29.2825 41.7364 29.2825 40.0845C29.2826 38.4327 30.6217 37.0936 32.2735 37.0936H36.9916V32.3453C36.9916 30.6935 38.3307 29.3544 39.9825 29.3544C41.6343 29.3545 42.9735 30.6935 42.9735 32.3453V37.0936H47.6858C49.3376 37.0936 50.6766 38.4327 50.6767 40.0845C50.6767 41.7364 49.3376 43.0755 47.6858 43.0755H42.9735V47.8364C42.9734 49.4882 41.6342 50.8273 39.9825 50.8274C38.3307 50.8274 36.9917 49.4882 36.9916 47.8364Z" fill="black"/>
</svg>
