<svg width="80" height="80" viewBox="0 0 80 80" fill="none" xmlns="http://www.w3.org/2000/svg">
<path d="M28.0984 12.5581C40.0523 7.36663 54.7202 10.3683 63.5398 21.5621C72.1002 32.4242 71.9567 48.162 63.3169 58.8923L62.8992 59.3995C56.8663 66.5567 48.3769 70.1198 39.9025 70.0908C37.4354 70.0827 27.046 70.0868 19.9396 70.0898L18.3195 70.0908L18.3185 70.0898C13.7986 70.0929 11.2082 65.0607 13.6685 61.3672C14.3316 60.3708 15.1665 59.1759 15.8222 58.2497C14.9088 56.6595 13.3692 53.9399 12.8419 52.6865C7.74755 41.5978 9.71524 28.0366 18.8501 18.8739L18.9621 18.7678C20.1345 17.7053 21.9472 17.7374 23.0804 18.8671C24.2502 20.0334 24.2526 21.9277 23.0863 23.0975L22.7484 23.4441C15.7262 30.7716 14.2474 41.4473 18.2893 50.2164C18.3108 50.2631 18.3316 50.3109 18.3506 50.3586C18.6353 51.0699 19.9748 53.4708 21.0329 55.3123C22.1818 57.3103 22.0634 59.7813 20.7399 61.6583L20.736 61.6632C20.2104 62.4052 19.5836 63.2993 19.0341 64.1079L31.6599 64.104C35.4589 64.1035 38.6812 64.1048 39.922 64.1089C46.6997 64.1322 53.4803 61.2917 58.3252 55.544C65.438 47.1064 65.7682 34.4664 59.1625 25.6805L58.8422 25.2647C51.7751 16.2946 40.0503 13.8894 30.4809 18.0454L28.0984 12.5581ZM30.4809 18.0454C28.9659 18.7031 27.2046 18.0082 26.5465 16.4935C25.8885 14.9783 26.5833 13.2161 28.0984 12.5581L30.4809 18.0454Z" fill="black"/>
<path d="M36.9914 47.8364V43.0755H32.2733C30.6214 43.0755 29.2824 41.7364 29.2824 40.0845C29.2824 38.4327 30.6215 37.0936 32.2733 37.0936H36.9914V32.3453C36.9914 30.6935 38.3305 29.3544 39.9824 29.3544C41.6341 29.3545 42.9733 30.6935 42.9733 32.3453V37.0936H47.6856C49.3374 37.0936 50.6764 38.4327 50.6765 40.0845C50.6765 41.7364 49.3374 43.0755 47.6856 43.0755H42.9733V47.8364C42.9732 49.4882 41.6341 50.8273 39.9824 50.8274C38.3306 50.8274 36.9915 49.4882 36.9914 47.8364Z" fill="black"/>
</svg>
