<svg width="80" height="80" viewBox="0 0 80 80" fill="none" xmlns="http://www.w3.org/2000/svg">
<path d="M68.8 60.5477C70.5673 60.5477 72 61.9804 72 63.7477C72 65.515 70.5673 66.9477 68.8 66.9477H11.2C9.43269 66.9477 8 65.515 8 63.7477C8 61.9804 9.43269 60.5477 11.2 60.5477H68.8Z" fill="black"/>
<path d="M24.8571 40.2538V40.2226C24.8571 38.4553 26.2897 37.0226 28.0571 37.0226C29.8244 37.0226 31.2571 38.4553 31.2571 40.2226V40.2538C31.2571 42.0211 29.8244 43.4538 28.0571 43.4538C26.2897 43.4538 24.8571 42.0211 24.8571 40.2538Z" fill="black"/>
<path d="M24.8571 29.6227V29.5915C24.8571 27.8242 26.2897 26.3915 28.0571 26.3915C29.8244 26.3915 31.2571 27.8242 31.2571 29.5915V29.6227C31.2571 31.39 29.8244 32.8227 28.0571 32.8227C26.2897 32.8227 24.8571 31.39 24.8571 29.6227Z" fill="black"/>
<path d="M49.7523 53.2602V53.229C49.7523 51.4617 51.185 50.029 52.9523 50.029C54.7196 50.029 56.1523 51.4617 56.1523 53.229V53.2602C56.1523 55.0275 54.7196 56.4602 52.9523 56.4602C51.185 56.4602 49.7523 55.0275 49.7523 53.2602Z" fill="black"/>
<path d="M49.7523 43.8007V43.7695C49.7523 42.0021 51.185 40.5695 52.9523 40.5695C54.7196 40.5695 56.1523 42.0021 56.1523 43.7695V43.8007C56.1523 45.568 54.7196 47.0007 52.9523 47.0007C51.185 47.0007 49.7523 45.568 49.7523 43.8007Z" fill="black"/>
<path d="M61.8384 63.7508V35.2102C61.8381 34.2606 61.0169 33.5173 60.0665 33.6165L41.204 35.6383C39.4469 35.8264 37.8704 34.5517 37.6821 32.7946C37.4947 31.0379 38.766 29.4609 40.5227 29.2727L59.3852 27.254C64.1125 26.7512 68.2381 30.4513 68.2384 35.2102V63.7508C68.2375 65.5174 66.8052 66.9508 65.0384 66.9508C63.2722 66.9501 61.8392 65.517 61.8384 63.7508Z" fill="black"/>
<path d="M24.8571 63.7479V53.501C24.8571 51.7337 26.2897 50.301 28.0571 50.301C29.8244 50.301 31.2571 51.7337 31.2571 53.501V63.7479C31.2568 65.5149 29.8242 66.9479 28.0571 66.9479C26.2899 66.9479 24.8573 65.5149 24.8571 63.7479Z" fill="black"/>
<path d="M12.0805 31.6884V21.0009C12.0811 16.2625 16.1764 12.5644 20.8899 13.0415L36.8336 14.6571L36.8305 14.6602C40.9215 15.0704 44.0298 18.51 44.0305 22.6165V55.6509C44.0305 57.418 42.5976 58.8506 40.8305 58.8509C39.0632 58.8509 37.6305 57.4182 37.6305 55.6509V22.6165C37.6298 21.7925 37.0077 21.1078 36.193 21.0259L20.2461 19.4102C19.2999 19.3145 18.4811 20.0549 18.4805 21.0009V31.6884C18.4805 33.4557 17.0478 34.8884 15.2805 34.8884C13.5132 34.8884 12.0805 33.4557 12.0805 31.6884Z" fill="black"/>
<path d="M12.0813 63.7509V42.3759C12.0813 40.6085 13.5139 39.1759 15.2812 39.1759C17.0486 39.1759 18.4812 40.6085 18.4812 42.3759V63.7509C18.4809 65.5179 17.0484 66.9509 15.2812 66.9509C13.5141 66.9509 12.0816 65.5179 12.0813 63.7509Z" fill="black"/>
</svg>
