<svg width="80" height="80" viewBox="0 0 80 80" fill="none" xmlns="http://www.w3.org/2000/svg">
<path d="M24.3057 36.8074C24.3057 35.696 24.3042 35.0153 24.2686 34.5037C24.252 34.2655 24.2308 34.1191 24.2129 34.0291C24.2045 33.987 24.1977 33.9606 24.1934 33.9461L24.1875 33.9285L24.1865 33.9275C24.0346 33.5689 23.7493 33.2836 23.3906 33.1316L23.3897 33.1307L23.3721 33.1248C23.3576 33.1205 23.3305 33.1137 23.2881 33.1053C23.198 33.0874 23.0516 33.0662 22.8135 33.0496C22.3019 33.014 21.6217 33.0125 20.5107 33.0125H19.6865C18.5755 33.0125 17.8953 33.014 17.3838 33.0496C17.1453 33.0662 16.9983 33.0874 16.9082 33.1053C16.8656 33.1138 16.8386 33.1205 16.8242 33.1248C16.8175 33.1268 16.8131 33.1288 16.8106 33.1297C16.8094 33.1301 16.8082 33.1305 16.8076 33.1307L16.8066 33.1316C16.448 33.2836 16.1627 33.5689 16.0107 33.9275L16.0098 33.9285L16.0039 33.9461C15.9996 33.9606 15.9928 33.987 15.9844 34.0291C15.9665 34.1191 15.9453 34.2655 15.9287 34.5037C15.8931 35.0153 15.8916 35.696 15.8916 36.8074V43.201C15.8916 44.3124 15.8931 44.9931 15.9287 45.5047C15.9453 45.743 15.9665 45.8893 15.9844 45.9793C15.9929 46.022 15.9996 46.0489 16.0039 46.0633C16.0061 46.0704 16.0079 46.0754 16.0088 46.0779L16.0098 46.0799L16.0107 46.0809C16.1628 46.4399 16.4484 46.7261 16.8066 46.8777L16.8096 46.8787C16.8121 46.8796 16.8171 46.8815 16.8242 46.8836C16.8386 46.8879 16.8655 46.8946 16.9082 46.9031C16.9982 46.921 17.1446 46.9422 17.3828 46.9588C17.8945 46.9944 18.5752 46.9959 19.6865 46.9959H20.5107C21.6217 46.9959 22.3019 46.9944 22.8135 46.9588C23.052 46.9422 23.199 46.921 23.2891 46.9031C23.3318 46.8946 23.3587 46.8879 23.3731 46.8836C23.3802 46.8815 23.3852 46.8796 23.3877 46.8787L23.3897 46.8777C23.7479 46.7261 24.0344 46.4399 24.1865 46.0809L24.1875 46.0799L24.1885 46.0779C24.1894 46.0754 24.1912 46.0704 24.1934 46.0633C24.1977 46.0489 24.2044 46.022 24.2129 45.9793C24.2308 45.8893 24.252 45.743 24.2686 45.5047C24.3042 44.9931 24.3057 44.3124 24.3057 43.201V36.8074ZM30.3057 43.201C30.3057 44.2286 30.3074 45.1525 30.2539 45.9207C30.1985 46.7166 30.0736 47.5666 29.7119 48.4207C28.9523 50.2143 27.5242 51.6424 25.7295 52.4022C24.8755 52.7637 24.0262 52.8888 23.2305 52.9441C22.4624 52.9976 21.5383 52.9959 20.5107 52.9959H19.6865C18.6589 52.9959 17.7349 52.9976 16.9668 52.9441C16.1711 52.8888 15.3218 52.7636 14.4678 52.4022C12.6731 51.6424 11.2449 50.2143 10.4854 48.4207C10.1237 47.5666 9.99874 46.7166 9.94337 45.9207C9.88992 45.1525 9.89161 44.2286 9.89161 43.201V36.8074C9.89161 35.7798 9.88992 34.8559 9.94337 34.0877C9.99874 33.2918 10.1237 32.4418 10.4854 31.5877C11.245 29.7939 12.6729 28.366 14.4668 27.6063C15.3209 27.2446 16.171 27.1196 16.9668 27.0643C17.735 27.0108 18.6589 27.0125 19.6865 27.0125H20.5107C21.5383 27.0125 22.4623 27.0108 23.2305 27.0643C24.0263 27.1196 24.8764 27.2446 25.7305 27.6063C27.5244 28.366 28.9523 29.7939 29.7119 31.5877C30.0736 32.4418 30.1985 33.2918 30.2539 34.0877C30.3074 34.8559 30.3057 35.7798 30.3057 36.8074V43.201Z" fill="black"/>
<path d="M64.1082 52.2879C64.1082 51.1766 64.1067 50.4958 64.0711 49.9842C64.0545 49.7459 64.0333 49.5996 64.0154 49.5096C64.0069 49.4668 64.0002 49.44 63.9959 49.4256C63.9938 49.4184 63.9919 49.4135 63.991 49.4109L63.9901 49.409L63.9891 49.408C63.8368 49.0497 63.5517 48.7631 63.1932 48.6111L63.1903 48.6102C63.1877 48.6092 63.1828 48.6074 63.1756 48.6053C63.1612 48.601 63.1344 48.5943 63.0916 48.5857C63.0016 48.5678 62.8553 48.5467 62.617 48.5301C62.1054 48.4945 61.4246 48.493 60.3133 48.493H59.4891C58.3781 48.493 57.6979 48.4945 57.1863 48.5301C56.7586 48.5598 56.626 48.6049 56.6102 48.6111C56.2508 48.7633 55.965 49.0496 55.8133 49.408L55.8123 49.409L55.8065 49.4266C55.8022 49.441 55.7954 49.4678 55.7869 49.5105C55.769 49.6005 55.7479 49.7469 55.7313 49.9852C55.6957 50.4967 55.6942 51.1768 55.6942 52.2879V58.6814C55.6942 59.7929 55.6957 60.4736 55.7313 60.9852C55.7478 61.223 55.7691 61.3688 55.7869 61.4588C55.7954 61.5013 55.8022 61.5283 55.8065 61.5428L55.8123 61.5604L55.8133 61.5613L55.8758 61.6922C56.037 61.9893 56.2956 62.225 56.6102 62.3582C56.6257 62.3643 56.758 62.4095 57.1863 62.4393C57.6979 62.4748 58.3781 62.4764 59.4891 62.4764H60.3133C61.4246 62.4764 62.1054 62.4748 62.617 62.4393C62.8553 62.4227 63.0016 62.4015 63.0916 62.3836C63.1344 62.3751 63.1612 62.3684 63.1756 62.3641C63.1828 62.3619 63.1877 62.3601 63.1903 62.3592L63.1922 62.3582L63.324 62.2947C63.6211 62.1333 63.856 61.8752 63.9891 61.5613L63.9959 61.5438C64.0002 61.5293 64.0069 61.5026 64.0154 61.4598C64.0333 61.3697 64.0545 61.2235 64.0711 60.9852C64.1067 60.4735 64.1082 59.7928 64.1082 58.6814V52.2879ZM70.1082 58.6814C70.1082 59.709 70.1099 60.633 70.0565 61.4012C70.008 62.0975 69.9063 62.8352 69.6395 63.5809L69.5145 63.9012C68.7546 65.6949 67.3267 67.1227 65.533 67.8826L65.532 67.8836C64.6782 68.245 63.8287 68.3693 63.033 68.4246C62.2649 68.478 61.3409 68.4764 60.3133 68.4764H59.4891C58.4615 68.4764 57.5374 68.478 56.7694 68.4246C55.9737 68.3693 55.1243 68.2442 54.2703 67.8826C52.5887 67.1703 51.2276 65.8711 50.4383 64.2332L50.2879 63.9012C49.9261 63.047 49.8013 62.197 49.7459 61.4012C49.6924 60.633 49.6942 59.7089 49.6942 58.6814V52.2879C49.6942 51.2604 49.6924 50.3364 49.7459 49.5682C49.8013 48.7723 49.9261 47.9224 50.2879 47.0682C51.0475 45.2742 52.4756 43.8465 54.2694 43.0867C55.1233 42.7251 55.9737 42.6001 56.7694 42.5447C57.5374 42.4913 58.4615 42.493 59.4891 42.493H60.3133C61.3409 42.493 62.2649 42.4913 63.033 42.5447C63.8288 42.6001 64.6781 42.7253 65.532 43.0867C67.2136 43.7991 68.5745 45.0986 69.3641 46.7361L69.5145 47.0682C69.8759 47.9221 70.0011 48.7724 70.0565 49.5682C70.1099 50.3363 70.1082 51.2603 70.1082 52.2879V58.6814Z" fill="black"/>
<path d="M64.1082 21.3269C64.1082 20.2156 64.1067 19.5348 64.0711 19.0232C64.0545 18.785 64.0333 18.6386 64.0154 18.5486C64.0069 18.5058 64.0002 18.479 63.9959 18.4646C63.9938 18.4574 63.9919 18.4525 63.991 18.45L63.9901 18.448L63.9891 18.447C63.8368 18.0886 63.5513 17.8028 63.1932 17.6511C63.1927 17.6509 63.1906 17.6496 63.1893 17.6492C63.1867 17.6483 63.1823 17.6463 63.1756 17.6443C63.1613 17.64 63.1343 17.6333 63.0916 17.6248C63.0016 17.6069 62.8552 17.5857 62.617 17.5691C62.1054 17.5335 61.4247 17.532 60.3133 17.532H59.4891C58.378 17.532 57.6978 17.5335 57.1863 17.5691C56.7562 17.599 56.6246 17.6444 56.6102 17.6502L56.6092 17.6511C56.2504 17.8031 55.9651 18.0885 55.8133 18.447L55.8123 18.448L55.8065 18.4656C55.8022 18.48 55.7954 18.5068 55.7869 18.5496C55.769 18.6395 55.7479 18.7859 55.7313 19.0242C55.6957 19.5357 55.6942 20.2158 55.6942 21.3269V27.7205C55.6942 28.8319 55.6957 29.5126 55.7313 30.0242C55.7478 30.262 55.7691 30.4079 55.7869 30.4978C55.7954 30.5403 55.8022 30.5674 55.8065 30.5818L55.8123 30.5994L55.8133 30.6003L55.8758 30.7312C56.014 30.9861 56.2234 31.1954 56.4783 31.3337L56.6092 31.3962L56.6102 31.3972C56.6217 31.402 56.7508 31.448 57.1863 31.4783C57.6978 31.5139 58.3779 31.5154 59.4891 31.5154H60.3133C61.4244 31.5154 62.1045 31.5139 62.616 31.4783C62.8543 31.4617 63.0007 31.4405 63.0906 31.4226C63.1334 31.4141 63.1602 31.4074 63.1746 31.4031L63.1922 31.3972L63.1932 31.3962C63.5515 31.2445 63.8369 30.9594 63.9891 30.6003L63.9959 30.5828C64.0002 30.5683 64.0069 30.5416 64.0154 30.4988C64.0333 30.4087 64.0545 30.2625 64.0711 30.0242C64.1067 29.5125 64.1082 28.8318 64.1082 27.7205V21.3269ZM70.1082 27.7205C70.1082 28.748 70.1099 29.6721 70.0565 30.4402C70.008 31.1366 69.9063 31.8742 69.6395 32.6199L69.5145 32.9402C68.7547 34.7339 67.3264 36.161 65.532 36.9207L65.533 36.9216C64.6788 37.2835 63.8289 37.4082 63.033 37.4636C62.2648 37.5171 61.3408 37.5154 60.3133 37.5154H59.4891C58.4615 37.5154 57.5375 37.5171 56.7694 37.4636C55.9735 37.4082 55.1236 37.2836 54.2694 36.9216C52.5876 36.2094 51.2275 34.9098 50.4383 33.2722L50.2879 32.9402C49.9261 32.086 49.8013 31.236 49.7459 30.4402C49.6924 29.672 49.6942 28.7479 49.6942 27.7205V21.3269C49.6942 20.2994 49.6924 19.3754 49.7459 18.6072C49.8013 17.8113 49.926 16.9614 50.2879 16.1072C51.0474 14.3134 52.4756 12.8865 54.2694 12.1267C55.1236 11.7649 55.9736 11.6391 56.7694 11.5837C57.5375 11.5303 58.4615 11.532 59.4891 11.532H60.3133C61.3409 11.532 62.2648 11.5303 63.033 11.5837C63.8289 11.6391 64.6789 11.764 65.533 12.1257C67.2148 12.838 68.5746 14.1376 69.3641 15.7752L69.5145 16.1072C69.8759 16.9612 70.0011 17.8115 70.0565 18.6072C70.1099 19.3753 70.1082 20.2993 70.1082 21.3269V27.7205Z" fill="black"/>
<path d="M36.1856 47.3258V32.6744C36.1856 31.4329 36.1837 30.3479 36.2461 29.4518C36.3104 28.528 36.4533 27.5824 36.8506 26.6441C37.7015 24.6349 39.3011 23.0359 41.3096 22.1852C42.2477 21.788 43.1935 21.6449 44.1172 21.5807C45.0134 21.5183 46.0983 21.5201 47.3399 21.5201L52.708 21.5211L52.707 27.5211L47.3389 27.5201C46.0142 27.5201 45.1737 27.5215 44.5342 27.566C43.9223 27.6086 43.7206 27.6804 43.6494 27.7105C43.0754 27.9537 42.6189 28.4103 42.376 28.984C42.3459 29.0551 42.274 29.2569 42.2315 29.8687C42.187 30.5083 42.1856 31.3493 42.1856 32.6744V47.3258C42.1856 48.651 42.1869 49.4919 42.2315 50.1314C42.274 50.7432 42.345 50.9444 42.375 51.0152C42.618 51.5892 43.0757 52.0466 43.6494 52.2896C43.7206 52.3198 43.9223 52.3906 44.5342 52.4332C44.854 52.4555 45.224 52.4673 45.6797 52.4732L47.3399 52.4801L52.708 52.4811L52.707 58.4811L47.3389 58.4801C46.0976 58.4801 45.0132 58.4809 44.1172 58.4186C43.1934 58.3542 42.2478 58.2123 41.3096 57.815C39.426 57.0173 37.9026 55.5609 37.0186 53.7262L36.8506 53.3551C36.4532 52.4168 36.3104 51.4712 36.2461 50.5475C36.1838 49.6514 36.1856 48.5671 36.1856 47.3258Z" fill="black"/>
<path d="M39.0861 37C40.743 37 42.0861 38.3431 42.0861 40C42.0861 41.6568 40.743 43 39.0861 43H27.4318C25.775 43 24.4318 41.6568 24.4318 40C24.4318 38.3431 25.775 37 27.4318 37H39.0861Z" fill="black"/>
</svg>
