<svg width="80" height="80" viewBox="0 0 80 80" fill="none" xmlns="http://www.w3.org/2000/svg">
<path d="M15.0626 20.328C16.2013 19.1729 18.0525 19.0462 19.3438 20.0842C20.7209 21.1919 20.939 23.2071 19.8313 24.5841L19.1969 25.4123C16.1056 29.6082 14.4193 34.6853 14.4001 39.9152C14.3797 45.4935 16.2543 50.9144 19.7188 55.2868C23.1832 59.6592 28.033 62.7245 33.4686 63.9804C38.9031 65.2355 44.6031 64.6054 49.634 62.1961C51.2276 61.4328 53.139 62.1058 53.9026 63.6992C54.666 65.293 53.9933 67.2044 52.3995 67.9679L51.1996 68.5116C45.1621 71.0942 38.4483 71.6976 32.028 70.2147C25.1791 68.6323 19.0688 64.7711 14.7032 59.2617C10.3377 53.7521 7.97441 46.9196 8.00021 39.8902C8.02632 32.861 10.4414 26.0488 14.847 20.5717L15.0626 20.328ZM40.3216 9.02812C46.8829 9.30678 53.1994 11.6634 58.3494 15.7749C63.8429 20.1605 67.6827 26.2825 69.2399 33.1371C69.6314 34.8605 68.5508 36.5769 66.8274 36.9683C65.2124 37.3343 63.6041 36.408 63.0869 34.8715L62.9994 34.5559L62.7463 33.5434C61.3774 28.5139 58.4432 24.0379 54.3558 20.7748C50.2689 17.5125 45.2562 15.6429 40.0497 15.4218L39.006 15.3999L38.6779 15.3843C37.0644 15.2202 35.806 13.8567 35.806 12.2C35.806 10.4327 37.2387 9 39.006 9L40.3216 9.02812Z" fill="black"/>
<path d="M39.404 19.817C43.3084 19.894 47.1062 21.1032 50.3382 23.295C53.5707 25.4873 56.1004 28.57 57.6162 32.1699C58.3016 33.7986 57.5355 35.6747 55.9069 36.3605C54.2785 37.0456 52.4022 36.2823 51.7163 34.6542C50.6811 32.1958 48.9554 30.0893 46.7476 28.5918C44.5396 27.0943 41.9433 26.2693 39.2759 26.2169C36.6094 26.1646 33.9844 26.886 31.7197 28.295C29.4546 29.7045 27.6448 31.7411 26.5135 34.1574C25.3826 36.5732 24.9771 39.2656 25.3448 41.9072C25.7131 44.5491 26.8405 47.0301 28.5885 49.0446C30.3365 51.059 32.6315 52.5231 35.1947 53.2602C37.7592 53.9969 40.4841 53.977 43.0352 53.1977C44.7253 52.6814 46.5156 53.6325 47.032 55.3227C47.5475 57.0125 46.5936 58.8001 44.9039 59.3164C41.1687 60.4573 37.1827 60.4915 33.4291 59.4132C29.6753 58.3345 26.3141 56.1883 23.7542 53.2383C21.1949 50.2885 19.5462 46.6598 19.0074 42.7916C18.4685 38.9233 19.0638 34.9823 20.7199 31.4449C22.376 27.9075 25.0223 24.9243 28.3385 22.8607C31.6545 20.7976 35.4996 19.7402 39.404 19.817Z" fill="black"/>
<path d="M60.1627 38.4192C61.5017 38.4193 62.6982 39.2538 63.1626 40.5098L63.5001 41.4191L63.6908 41.891C64.6987 44.2211 66.6142 46.0463 69.0032 46.9315L69.9125 47.269C71.1667 47.7345 72 48.9311 72 50.269C71.9998 51.6068 71.1668 52.8036 69.9125 53.269L69.0032 53.6064C66.6148 54.4915 64.6989 56.3149 63.6908 58.6439L63.5001 59.1189L63.1626 60.0282C62.698 61.2839 61.5016 62.1187 60.1627 62.1188C58.8235 62.1186 57.624 61.2842 57.1596 60.0282L56.8252 59.1189L56.6346 58.6439C55.6266 56.315 53.7104 54.4916 51.3222 53.6064L50.4128 53.269C49.1582 52.8038 48.3255 51.6071 48.3254 50.269C48.3254 48.9309 49.1583 47.7343 50.4128 47.269L51.3222 46.9315C53.8701 45.9873 55.8814 43.974 56.8252 41.4191L57.1596 40.5098L57.369 40.0598C57.9275 39.0585 58.9908 38.4194 60.1627 38.4192ZM60.1596 48.2409C59.548 48.9761 58.8723 49.6538 58.1377 50.2659C58.8734 50.8786 59.5504 51.5578 60.1627 52.294C60.7745 51.5584 61.4495 50.8782 62.1845 50.2659C61.4496 49.6533 60.7713 48.9767 60.1596 48.2409Z" fill="black"/>
<path d="M39.6 31.0788C41.0086 31.0789 42.2526 32 42.6624 33.3475C43.2068 35.1392 44.6057 36.5408 46.3905 37.085C47.7369 37.4955 48.6558 38.7367 48.6561 40.1443C48.656 41.5522 47.7372 42.7963 46.3905 43.2067C44.6061 43.7507 43.2068 45.1494 42.6624 46.9411C42.2528 48.2891 41.0089 49.2097 39.6 49.2098C38.1914 49.2095 36.9472 48.2888 36.5375 46.9411C35.9926 45.1492 34.5935 43.7505 32.8095 43.2067C31.4633 42.796 30.5439 41.5518 30.5439 40.1443C30.5441 38.7372 31.4637 37.4959 32.8095 37.085C34.594 36.5408 35.9928 35.1397 36.5375 33.3475L36.7313 32.8632C37.263 31.7844 38.3678 31.0791 39.6 31.0788Z" fill="black"/>
</svg>
