<svg width="80" height="80" viewBox="0 0 80 80" fill="none" xmlns="http://www.w3.org/2000/svg">
<path d="M65.5 21.2608C65.4998 18.9747 63.4922 17.1609 61.1348 17.418C55.0768 18.0817 49.7573 20.5799 46.4902 22.4756L46.4883 22.4766C43.3957 24.2672 39.6043 24.2672 36.5117 22.4766L36.5098 22.4756C33.2426 20.5799 27.9223 18.0826 21.8643 17.419V17.418C19.505 17.1615 17.5002 18.9745 17.5 21.2608V52.2862C17.5 54.2106 18.9699 55.8674 21.0371 56.1114L21.2393 56.1299C29.0077 56.69 35.6698 59.8453 39.5186 62.0752L39.752 62.2002C40.9369 62.7859 42.3256 62.7443 43.4814 62.0752L44.2354 61.6475C48.167 59.4613 54.4776 56.655 61.7607 56.1299L61.9629 56.1114C64.03 55.8674 65.5 54.2106 65.5 52.2862V21.2608ZM71.5 52.2862C71.5 57.6085 67.3105 61.7454 62.1924 62.1143C55.7051 62.582 49.9557 65.2591 46.4893 67.2676H46.4883C43.3957 69.0582 39.6043 69.0582 36.5117 67.2676H36.5107C33.0443 65.2591 27.2949 62.582 20.8076 62.1143V62.1133C15.6893 61.7444 11.5 57.6085 11.5 52.2862V21.2608C11.5002 15.3167 16.6923 10.8187 22.5166 11.4541H22.5176C29.7271 12.2439 35.8724 15.1695 39.5176 17.2842C40.7503 17.998 42.2486 17.9979 43.4814 17.2842C47.1265 15.1695 53.2716 12.244 60.4814 11.4541H60.4834C66.3044 10.8188 71.4998 15.3162 71.5 21.2608V52.2862Z" fill="black"/>
<path opacity="0.4" d="M38.5 65.4404V21.6367C38.5 19.9799 39.8431 18.6367 41.5 18.6367C43.1569 18.6367 44.5 19.9799 44.5 21.6367V65.4404C44.5 67.0973 43.1569 68.4404 41.5 68.4404C39.8431 68.4404 38.5 67.0973 38.5 65.4404Z" fill="black"/>
</svg>
