<svg width="80" height="80" viewBox="0 0 80 80" fill="none" xmlns="http://www.w3.org/2000/svg">
<path fill-rule="evenodd" clip-rule="evenodd" d="M31.3612 54.7048C31.3612 55.2486 31.802 55.6894 32.3458 55.6894H61.8194C62.3626 55.6894 62.8031 56.1291 62.804 56.6723L62.808 59.0708H27.3872C26.0285 59.0708 24.9258 60.1735 24.9258 61.5322C24.9258 62.891 26.0285 63.9937 27.3872 63.9937H62.8162L62.8188 65.6272C62.8155 66.4247 62.1558 67.0778 61.3452 67.0778H24.5806C21.4365 67.0778 18.8799 64.5146 18.8799 61.3639C18.8799 58.2329 21.4365 55.6894 24.5806 55.6894H25.4536C25.9974 55.6894 26.4382 55.2486 26.4382 54.7048V8.98532C26.4382 8.44153 25.9974 8.00073 25.4536 8.00073H24.9227C18.8773 8.00073 13.9576 12.9171 13.9576 18.9625V61.2411L13.9569 61.3639C13.9569 67.232 18.7223 72.0007 24.5806 72.0007H61.3452C64.8602 72.0007 67.7319 69.1487 67.7418 65.6304L67.7188 53.284L67.7194 53.2295V14.4006C67.7194 10.8725 64.851 8.00073 61.3229 8.00073H32.3458C31.802 8.00073 31.3612 8.44153 31.3612 8.98532V54.7048ZM40.7843 26.4786H45.6187C46.9774 26.4786 48.0801 25.3759 48.0801 24.0172C48.0801 22.6584 46.9774 21.5557 45.6187 21.5557H40.7843C39.4256 21.5557 38.3229 22.6584 38.3229 24.0172C38.3229 25.3759 39.4256 26.4786 40.7843 26.4786ZM40.7843 35.9634H51.7067C53.0687 35.9634 54.1682 34.8607 54.1682 33.5019C54.1682 32.1433 53.0687 31.0406 51.7067 31.0406H40.7843C39.4256 31.0406 38.3229 32.1433 38.3229 33.5019C38.3229 34.8607 39.4256 35.9634 40.7843 35.9634Z" fill="black"/>
</svg>
