<svg width="80" height="80" viewBox="0 0 80 80" fill="none" xmlns="http://www.w3.org/2000/svg">
<path opacity="0.4" d="M39.1426 10.1201C45.0407 9.35559 49.8269 12.3181 51.9229 17.3721C52.5575 18.9026 51.8313 20.6583 50.3008 21.293C48.8181 21.9075 47.1246 21.2451 46.4434 19.8115L46.3809 19.6709L46.2774 19.4326C45.1746 17.0098 43.0001 15.6676 39.9082 16.0703L39.8975 16.0723L23.625 18.1357L23.624 18.1348C21.5111 18.4074 20.1147 19.3277 19.2735 20.501C18.4662 21.6269 18.0019 23.2263 18.1836 25.2393L18.2285 25.6475L18.2295 25.6543L22.0987 55.9609L22.1602 56.3711C22.5009 58.3836 23.3572 59.8151 24.418 60.6963C25.5215 61.6128 27.0972 62.1462 29.2129 61.877L35.4268 61.0566C37.0693 60.8399 38.5762 61.9961 38.793 63.6387C39.0098 65.2813 37.8545 66.789 36.2119 67.0059L29.9981 67.8252L29.9873 67.8272C26.4022 68.2874 23.1079 67.4091 20.583 65.3115C18.0843 63.2357 16.5953 60.1818 16.1485 56.7314L16.1475 56.7266L12.2774 26.4141L12.2783 26.4131C11.8322 22.9711 12.5056 19.6436 14.3975 17.0049C16.31 14.3374 19.2763 12.6445 22.8662 12.1836L22.8701 12.1826L39.1426 10.1191V10.1201Z" fill="black"/>
<path d="M36.3086 17.8145C38.7188 15.8135 41.8585 14.973 45.2549 15.4092L45.2539 15.4102L60.5098 17.3652C63.9115 17.8009 66.7387 19.4046 68.5654 21.9512C70.3729 24.471 71.0112 27.6457 70.5908 30.9238L66.9512 59.3086C66.5309 62.5872 65.1141 65.4985 62.7295 67.4815C60.3194 69.4856 57.1786 70.324 53.7764 69.8887H53.7754L38.5186 67.9297V67.9287C35.1176 67.493 32.291 65.8905 30.4649 63.3438C28.6582 60.8239 28.0214 57.6502 28.4414 54.3721L32.0781 25.9863L32.169 25.376C32.6809 22.345 34.0721 19.6714 36.3086 17.8145ZM44.4902 21.3604C42.5691 21.1136 41.1405 21.6015 40.1416 22.4307C39.118 23.2805 38.2916 24.7048 38.0293 26.75L34.3926 55.1348C34.1298 57.1856 34.5684 58.7703 35.3408 59.8477C36.0939 60.898 37.3503 61.7312 39.2813 61.9785H39.2822L54.5371 63.9365C56.4701 64.1839 57.8981 63.695 58.8926 62.8682C59.9125 62.02 60.7371 60.5966 61 58.5459L64.6397 30.1602C64.9023 28.1116 64.4639 26.5265 63.6904 25.4482C62.9363 24.3969 61.6786 23.5638 59.7481 23.3164H59.7471L44.4912 21.3604H44.4902ZM49.7061 51.1816C48.7329 51.4935 47.6678 51.2885 46.8799 50.6377L48.791 48.3242L49.7061 51.1816ZM46.9004 30.8154C48.6928 30.6056 50.479 31.0321 51.9678 31.9824C53.5443 31.6922 55.186 31.8916 56.6602 32.5791L57.0742 32.7881L57.0918 32.7979C61.5051 35.2241 61.7853 40.4217 59.9004 43.8613L59.8994 43.8604C58.4139 46.5904 55.6322 48.41 53.6602 49.4649C52.6097 50.0267 51.6404 50.4482 50.9336 50.7305C50.5783 50.8724 50.2842 50.9807 50.0732 51.0557C49.9676 51.0932 49.8824 51.1227 49.8203 51.1436C49.7894 51.154 49.7643 51.1627 49.7451 51.169C49.7355 51.1721 49.7272 51.1746 49.7207 51.1768L49.709 51.1807L49.707 51.1816L48.791 48.3242L46.8789 50.6367L46.877 50.6357C46.8762 50.6351 46.8759 50.6336 46.875 50.6328C46.873 50.6311 46.8698 50.6292 46.8672 50.627C46.862 50.6226 46.8552 50.6177 46.8477 50.6113C46.8322 50.5983 46.812 50.5808 46.7871 50.5596C46.7374 50.5172 46.6696 50.4585 46.5859 50.3848C46.4188 50.2374 46.1876 50.0283 45.9121 49.7656C45.3638 49.2429 44.6251 48.4928 43.8623 47.5811C42.4231 45.8607 40.5316 43.1376 40.1582 40.0342L40.1572 40.0293C39.6967 36.1442 41.8855 31.4176 46.8916 30.8164L46.9004 30.8154ZM47.8711 45.4688L47.8691 45.4697C47.8691 45.4697 47.8708 45.4695 47.8731 45.4688H47.8711ZM47.6025 36.7734C47.1113 36.8336 46.7601 37.0712 46.4971 37.4736C46.2048 37.9209 46.0291 38.5882 46.1162 39.3232C46.276 40.6348 47.2108 42.2336 48.4639 43.7315C48.8094 44.1445 49.1531 44.5164 49.4639 44.8369C49.8793 44.6524 50.3464 44.4326 50.8301 44.1738C52.5716 43.2423 54.024 42.1117 54.6328 40.9893L54.6387 40.9775L54.7588 40.7344C55.0115 40.1628 55.0661 39.5826 54.9746 39.124C54.8808 38.654 54.643 38.3024 54.2109 38.0615C53.7129 37.7952 53.1184 37.7816 52.6113 38.0244C51.4154 38.5971 49.9849 38.3168 49.0938 37.335C48.7163 36.919 48.1613 36.7094 47.6025 36.7734Z" fill="black"/>
</svg>
