<svg width="80" height="80" viewBox="0 0 80 80" fill="none" xmlns="http://www.w3.org/2000/svg">
<path opacity="0.4" d="M39.1426 10.1201C45.0407 9.35559 49.8269 12.3181 51.9229 17.3721C52.5575 18.9026 51.8313 20.6583 50.3008 21.293C48.8181 21.9075 47.1246 21.2451 46.4434 19.8115L46.3809 19.6709L46.2774 19.4326C45.1746 17.0098 43.0001 15.6676 39.9082 16.0703L39.8975 16.0723L23.625 18.1357L23.624 18.1348C21.5111 18.4074 20.1147 19.3277 19.2735 20.501C18.4662 21.6269 18.0019 23.2263 18.1836 25.2393L18.2285 25.6475L18.2295 25.6543L22.0987 55.9609L22.1602 56.3711C22.5009 58.3836 23.3572 59.8151 24.418 60.6963C25.5215 61.6128 27.0972 62.1462 29.2129 61.877L35.4268 61.0566C37.0693 60.8399 38.5762 61.9961 38.793 63.6387C39.0098 65.2813 37.8545 66.789 36.2119 67.0059L29.9981 67.8252L29.9873 67.8272C26.4022 68.2874 23.1079 67.4091 20.583 65.3115C18.0843 63.2357 16.5953 60.1818 16.1485 56.7314L16.1475 56.7266L12.2774 26.4141L12.2783 26.4131C11.8322 22.9711 12.5056 19.6436 14.3975 17.0049C16.31 14.3374 19.2763 12.6445 22.8662 12.1836L22.8701 12.1826L39.1426 10.1191V10.1201Z" fill="black"/>
<path d="M36.3085 17.8145C38.7187 15.8135 41.8584 14.973 45.2548 15.4092L45.2539 15.4102L60.5097 17.3652C63.9114 17.8009 66.7387 19.4046 68.5654 21.9512C70.3728 24.471 71.0112 27.6457 70.5908 30.9238L66.9511 59.3086C66.5308 62.5872 65.1141 65.4985 62.7294 67.4815C60.3193 69.4856 57.1786 70.324 53.7763 69.8887H53.7753L38.5185 67.9297V67.9287C35.1175 67.493 32.2909 65.8905 30.4648 63.3438C28.6581 60.8239 28.0213 57.6502 28.4414 54.3721L32.0781 25.9863L32.1689 25.376C32.6808 22.345 34.072 19.6714 36.3085 17.8145ZM44.4902 21.3604C42.5691 21.1136 41.1405 21.6015 40.1415 22.4307C39.118 23.2805 38.2915 24.7048 38.0292 26.75L34.3925 55.1348C34.1298 57.1856 34.5683 58.7703 35.3408 59.8477C36.0939 60.898 37.3502 61.7312 39.2812 61.9785H39.2822L54.5371 63.9365C56.47 64.1839 57.898 63.695 58.8925 62.8682C59.9125 62.02 60.737 60.5966 60.9999 58.5459L64.6396 30.1602C64.9023 28.1116 64.4638 26.5265 63.6904 25.4482C62.9362 24.3969 61.6785 23.5638 59.748 23.3164H59.747L44.4912 21.3604H44.4902ZM49.706 51.1816C48.7328 51.4935 47.6677 51.2885 46.8798 50.6377L48.791 48.3242L49.706 51.1816ZM46.9003 30.8154C48.6927 30.6056 50.4789 31.0321 51.9677 31.9824C53.5443 31.6922 55.1859 31.8916 56.6601 32.5791L57.0742 32.7881L57.0917 32.7979C61.505 35.2241 61.7853 40.4217 59.9003 43.8613L59.8994 43.8604C58.4139 46.5904 55.6322 48.41 53.6601 49.4649C52.6096 50.0267 51.6403 50.4482 50.9335 50.7305C50.5782 50.8724 50.2841 50.9807 50.0732 51.0557C49.9676 51.0932 49.8823 51.1227 49.8203 51.1436C49.7893 51.154 49.7642 51.1627 49.7451 51.169C49.7355 51.1721 49.7272 51.1746 49.7206 51.1768L49.7089 51.1807L49.707 51.1816L48.791 48.3242L46.8789 50.6367L46.8769 50.6357C46.8761 50.6351 46.8759 50.6336 46.8749 50.6328C46.8729 50.6311 46.8698 50.6292 46.8671 50.627C46.8619 50.6226 46.8551 50.6177 46.8476 50.6113C46.8321 50.5983 46.8119 50.5808 46.7871 50.5596C46.7374 50.5172 46.6695 50.4585 46.5859 50.3848C46.4187 50.2374 46.1876 50.0283 45.9121 49.7656C45.3638 49.2429 44.625 48.4928 43.8623 47.5811C42.423 45.8607 40.5315 43.1376 40.1581 40.0342L40.1572 40.0293C39.6967 36.1442 41.8854 31.4176 46.8915 30.8164L46.9003 30.8154ZM47.871 45.4688L47.8691 45.4697C47.8691 45.4697 47.8708 45.4695 47.873 45.4688H47.871ZM47.6025 36.7734C47.1113 36.8336 46.7601 37.0712 46.497 37.4736C46.2047 37.9209 46.029 38.5882 46.1162 39.3232C46.276 40.6348 47.2107 42.2336 48.4638 43.7315C48.8094 44.1445 49.1531 44.5164 49.4638 44.8369C49.8792 44.6524 50.3463 44.4326 50.83 44.1738C52.5716 43.2423 54.024 42.1117 54.6328 40.9893L54.6386 40.9775L54.7587 40.7344C55.0115 40.1628 55.0661 39.5826 54.9746 39.124C54.8807 38.654 54.643 38.3024 54.2109 38.0615C53.7128 37.7952 53.1184 37.7816 52.6113 38.0244C51.4153 38.5971 49.9849 38.3168 49.0937 37.335C48.7162 36.919 48.1612 36.7094 47.6025 36.7734Z" fill="black"/>
</svg>
