<svg width="80" height="80" viewBox="0 0 80 80" fill="none" xmlns="http://www.w3.org/2000/svg">
<path d="M9.25146 53.086C9.25147 51.4291 10.5946 50.086 12.2515 50.086C13.9083 50.086 15.2515 51.4291 15.2515 53.086C15.2515 57.0897 16.4909 60.2585 18.4819 62.3975C20.4505 64.5123 23.3755 65.8633 27.2603 65.8633H53.7329C57.6193 65.8632 60.5444 64.5121 62.5132 62.3975C64.5046 60.2585 65.7446 57.0899 65.7446 53.086V41.002C65.7446 39.3452 67.0878 38.002 68.7446 38.002C70.4014 38.0021 71.7446 39.3452 71.7446 41.002V53.086C71.7446 58.3281 70.1056 63.0484 66.9048 66.4864C63.6815 69.9484 59.101 71.8632 53.7329 71.8633H27.2603C21.8932 71.8633 17.3132 69.9476 14.0903 66.4854C10.8902 63.0475 9.25146 58.3279 9.25146 53.086Z" fill="black"/>
<path d="M9.25146 40.6151V28.1444C9.25146 22.8987 10.8993 18.1792 14.1021 14.743C17.3266 11.2835 21.9048 9.36707 27.2603 9.36702H38.4771C40.1339 9.36702 41.4771 10.7102 41.4771 12.367C41.4771 14.0239 40.1339 15.367 38.4771 15.367H27.2603C23.3909 15.3671 20.4643 16.7164 18.4907 18.8338C16.4954 20.9746 15.2515 24.1443 15.2515 28.1444V40.6151C15.2514 42.2719 13.9083 43.6151 12.2515 43.6151C10.5946 43.6151 9.25149 42.2719 9.25146 40.6151Z" fill="black"/>
<path d="M50.7827 12.2209C54.6231 8.38471 60.7726 8.26526 64.7573 11.8616L65.1362 12.2209L68.7886 15.8733C72.7521 19.8368 72.7531 26.2652 68.7876 30.2278L68.7886 30.2287L46.2612 52.7561C44.4784 54.5388 42.06 55.5431 39.5356 55.5432H28.2974C27.4889 55.5432 26.7145 55.2166 26.1499 54.6379C25.5853 54.0591 25.2782 53.2763 25.2983 52.468L25.5806 41.1272C25.6419 38.6907 26.6364 36.3684 28.3628 34.6418L50.7827 12.2209ZM60.896 16.466C59.2744 14.8463 56.6456 14.8464 55.0239 16.466L32.606 38.884C31.9686 39.5214 31.6013 40.3792 31.5786 41.2785L31.3726 49.5432H39.5356C40.4669 49.5431 41.3601 49.1719 42.019 48.5129L64.5474 25.9856C66.1665 24.3682 66.168 21.7385 64.5464 20.1164L60.896 16.466Z" fill="black"/>
<path d="M58.4672 22.535C59.6387 23.7066 59.6387 25.6067 58.4672 26.7782C57.2957 27.9497 55.3956 27.9496 54.224 26.7782L58.4672 22.535ZM47.3754 15.6864C48.547 14.5148 50.446 14.5148 51.6176 15.6864L58.4672 22.535L54.224 26.7782L47.3754 19.9286C46.2038 18.757 46.2038 16.858 47.3754 15.6864Z" fill="black"/>
</svg>
