<svg width="80" height="80" viewBox="0 0 80 80" fill="none" xmlns="http://www.w3.org/2000/svg">
<path d="M11.5805 32.0517C13.3367 32.2129 14.6294 33.7676 14.4692 35.5238C13.7077 43.8414 18.3431 53.6968 27.6868 60.24C31.041 62.5885 34.6137 64.2335 38.1684 65.2L39.6908 65.5744L40.0058 65.6586C41.545 66.1615 42.4825 67.758 42.1303 69.374C41.7777 70.9898 40.2605 72.053 38.652 71.8696L38.3307 71.8135L36.4932 71.3643C32.2167 70.2016 27.9737 68.2397 24.0244 65.4746C13.162 57.8686 7.10126 45.9489 8.10849 34.9436C8.26935 33.1867 9.82366 31.8909 11.5805 32.0517Z" fill="black"/>
<path d="M59.3374 27.2843C60.7018 26.1659 62.7143 26.366 63.8327 27.7303C68.0908 32.9251 70.387 38.4083 71.1636 43.3374C71.9253 48.1722 71.2588 52.7826 69.1453 55.9529C65.1878 61.8882 59.186 62.7664 54.7205 62.3199C52.4929 62.0971 50.5229 61.5458 49.1272 61.0627C48.4237 60.8192 47.8501 60.5863 47.4426 60.4107C47.2384 60.3227 47.074 60.2475 46.9559 60.1923C46.8971 60.1649 46.8483 60.1442 46.8124 60.1268C46.795 60.1184 46.7806 60.1108 46.7688 60.105C46.763 60.1022 46.7575 60.0978 46.7532 60.0956L46.7469 60.0925L48.1694 57.2319C46.842 59.8869 46.7462 60.0756 46.7407 60.0894C45.1636 59.3005 44.5241 57.3838 45.3119 55.8063C46.1004 54.2293 48.0177 53.5877 49.5951 54.3744C49.6057 54.3795 49.6287 54.3907 49.6606 54.4056C49.7242 54.4353 49.8288 54.4822 49.9694 54.5428C50.2534 54.6652 50.6813 54.8409 51.2172 55.0264C52.3021 55.4019 53.7683 55.8034 55.3569 55.9622C58.5236 56.2789 61.6809 55.6314 63.8296 52.4091C64.7691 50.9998 65.458 48.1752 64.8528 44.3326C64.2621 40.5834 62.4672 36.1418 58.8913 31.7795C57.7738 30.4152 57.9735 28.4025 59.3374 27.2843Z" fill="black"/>
<path d="M35.7168 13.1118L36.6838 13.1773C41.5241 13.5713 46.4887 15.0062 51.1897 17.4729C52.7509 18.2929 53.3534 20.2224 52.5342 21.7841C51.7145 23.3463 49.7821 23.9483 48.2199 23.1286C44.5135 21.1839 40.6662 20.0292 36.9584 19.6223L35.3799 19.4944L35.0554 19.46C33.455 19.2121 32.2698 17.7865 32.357 16.1346C32.4445 14.4833 33.7725 13.1904 35.3892 13.1118H35.7168Z" fill="black"/>
<path d="M58.3823 8.24644C59.7915 7.85856 61.1432 7.96776 62.3161 8.3026C64.5268 8.93385 66.395 10.4506 67.6442 11.5781C68.8934 12.7056 70.5932 14.4096 71.447 16.5444C71.8998 17.6769 72.1474 19.0088 71.9055 20.4501C71.6625 21.8984 70.9655 23.2091 69.9277 24.3589C69.91 24.3786 69.893 24.3989 69.8747 24.4182L44.466 51.1932L44.4629 51.1901C43.0447 52.7302 41.0782 53.6527 38.985 53.7513L32.6024 54.0507C29.9804 54.1738 27.7476 52.1616 27.6017 49.5399L27.2492 43.1604C27.132 41.0419 27.8644 38.9615 29.2863 37.3861L54.7512 10.5518C55.7775 9.4326 56.9909 8.6297 58.3823 8.24644ZM60.0793 14.4044C60.0252 14.4193 59.8022 14.4898 59.4398 14.8911C59.4219 14.9109 59.402 14.931 59.3837 14.9503L34.0311 41.6661L33.8471 41.9188C33.6896 42.1843 33.6116 42.4917 33.6287 42.8048L33.8907 47.5933L38.6855 47.3687C39.1033 47.3487 39.4971 47.1644 39.7773 46.854L39.8304 46.7947L65.2016 20.0539C65.5467 19.6655 65.5949 19.4471 65.6041 19.3926C65.6145 19.3303 65.6243 19.192 65.5136 18.9153C65.2397 18.2317 64.5104 17.3543 63.3642 16.3198C62.2183 15.2855 61.2708 14.6507 60.5629 14.4481C60.2772 14.3666 60.1405 14.3877 60.0793 14.4044Z" fill="black"/>
<path d="M21.4231 12.4746C22.7602 12.4746 23.9574 13.3074 24.421 14.5616L24.6955 15.3009C25.4049 17.2195 26.916 18.7348 28.8289 19.4437L29.5682 19.7182C30.8202 20.1829 31.6521 21.3774 31.6521 22.713C31.6517 24.0483 30.8202 25.2433 29.5682 25.7077L28.8289 25.9823C26.9155 26.6913 25.4047 28.2025 24.6955 30.1219L24.421 30.8612C23.9575 32.1156 22.7603 32.9482 21.4231 32.9482C20.0864 32.9477 18.8916 32.1152 18.4283 30.8612L18.1538 30.1219C17.4446 28.2025 15.9338 26.6913 14.0204 25.9823L13.2811 25.7077C12.0287 25.2435 11.1976 24.0486 11.1972 22.713C11.1972 21.3768 12.0282 20.1794 13.2811 19.7151L14.0204 19.4437C15.9333 18.7348 17.4444 17.2227 18.1538 15.304L18.4283 14.5616L18.6342 14.1124C19.1916 13.1127 20.2533 12.4751 21.4231 12.4746ZM21.4231 21.9549C21.1811 22.2172 20.9303 22.4708 20.6682 22.713C20.9292 22.9541 21.1821 23.2036 21.4231 23.4648C21.6641 23.2036 21.9171 22.9541 22.178 22.713C21.916 22.4708 21.665 22.2172 21.4231 21.9549Z" fill="black"/>
</svg>
