<svg width="80" height="80" viewBox="0 0 80 80" fill="none" xmlns="http://www.w3.org/2000/svg">
<path d="M25.4883 20.6523C27.1451 20.6523 28.4883 21.9955 28.4883 23.6523C28.4883 25.3092 27.1451 26.6523 25.4883 26.6523H25.3223C23.6654 26.6523 22.3223 25.3092 22.3223 23.6523C22.3223 21.9955 23.6654 20.6523 25.3223 20.6523H25.4883ZM32.9482 20.6523C34.6051 20.6523 35.9482 21.9955 35.9482 23.6523C35.9482 25.3092 34.6051 26.6523 32.9482 26.6523H32.7822C31.1254 26.6523 29.7822 25.3092 29.7822 23.6523C29.7822 21.9955 31.1254 20.6523 32.7822 20.6523H32.9482ZM40.4082 20.6523C42.0651 20.6523 43.4082 21.9955 43.4082 23.6523C43.4082 25.3092 42.0651 26.6523 40.4082 26.6523H40.2422C38.5853 26.6523 37.2422 25.3092 37.2422 23.6523C37.2422 21.9955 38.5853 20.6523 40.2422 20.6523H40.4082Z" fill="black"/>
<path d="M49.7715 51.0742L49.9258 51.0781C51.5108 51.1585 52.7715 52.4692 52.7715 54.0742C52.7715 55.6792 51.5108 56.9899 49.9258 57.0703L49.7715 57.0742H29.3066C27.6498 57.0742 26.3067 55.7311 26.3066 54.0742C26.3066 52.4174 27.6498 51.0742 29.3066 51.0742H49.7715ZM40.4688 40.7383L40.623 40.7422C42.2081 40.8226 43.4688 42.1332 43.4688 43.7383C43.4688 45.3433 42.2081 46.654 40.623 46.7344L40.4688 46.7383H29.3066C27.6498 46.7383 26.3066 45.3951 26.3066 43.7383C26.3066 42.0814 27.6498 40.7383 29.3066 40.7383H40.4688Z" fill="black"/>
<path d="M66.4521 51.9189V28.0781C66.4521 24.2801 65.2765 21.2862 63.4004 19.2705C61.5466 17.279 58.7872 16 55.1064 16H29.8037C26.138 16 23.3762 17.277 21.5166 19.2715C19.6354 21.2892 18.4551 24.284 18.4551 28.0781V51.9189C18.4551 55.7169 19.6317 58.7106 21.5088 60.7266C23.3634 62.7184 26.123 63.9971 29.8037 63.9971H31.8574L32.0117 64.001C33.5968 64.0813 34.8573 65.3921 34.8574 66.9971C34.8574 68.6022 33.5968 69.9128 32.0117 69.9932L31.8574 69.9971H29.8037C24.6406 69.9971 20.2259 68.1541 17.1172 64.8154C14.0311 61.501 12.4551 56.956 12.4551 51.9189V28.0781C12.4551 23.0373 14.0403 18.4923 17.1289 15.1797C20.2392 11.844 24.652 10 29.8037 10H55.1064C60.2696 10 64.6839 11.8428 67.792 15.1816C70.8774 18.4962 72.4521 23.0415 72.4521 28.0781V51.9189C72.4521 56.9556 70.8769 61.5008 67.791 64.8154C64.6825 68.1544 60.2679 69.9971 55.1035 69.9971H42.4541C40.7972 69.9971 39.4541 68.6539 39.4541 66.9971C39.4542 65.3403 40.7973 63.9971 42.4541 63.9971H55.1035C58.7861 63.9971 61.5454 62.718 63.3994 60.7266C65.276 58.7109 66.4521 55.7173 66.4521 51.9189Z" fill="black"/>
<path d="M60.5967 29.4766C62.2535 29.4766 63.5967 30.8197 63.5967 32.4766C63.5967 34.1334 62.2535 35.4766 60.5967 35.4766H15.4551C13.7982 35.4766 12.4551 34.1334 12.4551 32.4766C12.4551 30.8197 13.7982 29.4766 15.4551 29.4766H60.5967Z" fill="black"/>
</svg>
