<svg width="80" height="80" viewBox="0 0 80 80" fill="none" xmlns="http://www.w3.org/2000/svg">
<path fill-rule="evenodd" clip-rule="evenodd" d="M14.1833 21.048C14.2015 20.2084 13.3821 19.5515 12.6456 19.9552C9.34497 21.7644 7.07544 25.2825 7.07544 29.2711V50.729C7.07544 54.787 9.35047 58.2898 12.6576 60.0905C13.3921 60.4905 14.2047 59.8397 14.1845 59.0038C14.1802 58.8247 14.1782 58.646 14.1782 58.4673V21.5328C14.1782 21.3711 14.1799 21.2094 14.1833 21.048Z" fill="black"/>
<path fill-rule="evenodd" clip-rule="evenodd" d="M68.469 20.0006C67.7337 19.5924 66.9131 20.2492 66.9299 21.0901C66.9329 21.2362 66.934 21.3834 66.934 21.5319V58.4666C66.934 58.6263 66.9325 58.7863 66.9292 58.9455C66.9112 59.7866 67.7337 60.4434 68.469 60.0352C71.7195 58.2296 73.9247 54.741 73.9247 50.7283V29.2703C73.9247 25.2897 71.7195 21.8053 68.469 20.0006Z" fill="black"/>
<path fill-rule="evenodd" clip-rule="evenodd" d="M49.6264 8H31.4494C23.9727 8 17.9167 14.0935 17.9167 21.5327V58.4673C17.9167 65.9439 23.9727 72 31.4494 72H49.6264C57.103 72 63.1965 65.9439 63.1965 58.4673V21.5327C63.1965 14.0935 57.103 8 49.6264 8Z" fill="black"/>
</svg>
