<svg width="80" height="80" viewBox="0 0 80 80" fill="none" xmlns="http://www.w3.org/2000/svg">
<path fill-rule="evenodd" clip-rule="evenodd" d="M66.5956 54.1876C63.9919 54.1778 60.9219 54.1876 58.7122 54.2106C55.2088 54.2106 52.3227 57.1263 52.3227 60.6658V69.1008C52.3227 70.4799 53.9808 71.1628 54.9264 70.1679C56.6403 68.3686 58.9978 65.8897 61.3455 63.4271C63.6832 60.9711 66.0112 58.525 67.6824 56.7684C68.6083 55.7998 67.9287 54.1909 66.5956 54.1876Z" fill="black"/>
<path fill-rule="evenodd" clip-rule="evenodd" d="M55.1861 8H29.9992C22.7494 8 16.7408 13.2469 15.3913 20.1748H12.4626C11.1164 20.1748 10 21.2584 10 22.6374C10 23.9836 11.1164 25.0999 12.4626 25.0999H23.3963C24.2335 25.0999 24.946 24.6403 25.3926 23.9869C25.5896 24.3415 25.7308 24.7289 25.7308 25.1656C25.7308 26.5118 24.6144 27.6282 23.2682 27.6282H15.7C15.3373 27.6282 15.0433 27.9222 15.0433 28.2848V36.4605H12.4626C11.1164 36.4605 10 37.5768 10 38.923C10 40.3021 11.1164 41.3856 12.4626 41.3856H23.3963C24.2335 41.3856 24.946 40.9358 25.3926 40.2856C25.5896 40.6402 25.7308 41.0244 25.7308 41.4512C25.7308 42.8303 24.6144 43.9138 23.2682 43.9138H15.7C15.3373 43.9138 15.0433 44.2077 15.0433 44.5705V52.779H12.4626C11.1164 52.779 10 53.8625 10 55.2415C10 56.5877 11.1164 57.7041 12.4626 57.7041H23.3963C24.2335 57.7041 24.946 57.2444 25.3926 56.591C25.5896 56.9456 25.7308 57.3331 25.7308 57.7697C25.7308 59.1159 24.6144 60.2323 23.2682 60.2323H16.103C15.6921 60.2323 15.3814 60.6063 15.4787 61.0055C17.0107 67.2939 22.6243 72 29.3327 72H46.252C47.0762 72 47.7098 71.3269 47.7098 70.5258V60.2224C47.7098 54.3681 52.4938 49.5678 58.2922 49.535H68.0177C68.809 49.535 69.4427 48.8947 69.4427 48.0936V22.3682C69.4427 14.4322 63.0762 8 55.1861 8Z" fill="black"/>
</svg>
