<svg width="80" height="80" viewBox="0 0 80 80" fill="none" xmlns="http://www.w3.org/2000/svg">
<path fill-rule="evenodd" clip-rule="evenodd" d="M43.9411 27.6042C43.9411 24.7747 46.2316 22.4842 49.0611 22.4842C51.9242 22.4842 54.2147 24.7747 54.2147 27.6042C54.2147 30.4337 51.9242 32.7243 49.0611 32.7243C46.2316 32.7243 43.9411 30.4337 43.9411 27.6042ZM54.8547 57.5495H25.1453C23.2589 57.5495 22.1137 55.4948 23.0905 53.878L32.1516 39.158C33.0611 37.7095 35.1495 37.6422 36.16 39.0232L41.8189 47.0064C42.7284 48.2527 44.5811 48.3538 45.5916 47.1411L47.6463 44.7832C48.6905 43.5369 50.6779 43.6716 51.52 45.0864L56.9095 53.878C57.8863 55.4948 56.7411 57.5495 54.8547 57.5495ZM54.2147 8H25.7853C15.1411 8 8 15.5116 8 26.6274V53.4064C8 64.5222 15.1411 72.0001 25.7853 72.0001H54.2147C64.8589 72.0001 72 64.5222 72 53.4064V26.6274C72 15.5116 64.8589 8 54.2147 8Z" fill="black"/>
</svg>
