<svg width="80" height="80" viewBox="0 0 80 80" fill="none" xmlns="http://www.w3.org/2000/svg">
<path fill-rule="evenodd" clip-rule="evenodd" d="M57.6606 41.7886L48.7343 50.7116C48.2425 51.2067 47.5958 51.4526 46.9491 51.4526C46.3023 51.4526 45.6556 51.2067 45.1638 50.7116C44.1768 49.7246 44.1768 48.128 45.1638 47.1411L52.3015 40.0034L45.1638 32.8657C44.1768 31.8787 44.1768 30.2787 45.1638 29.2918C46.1507 28.3048 47.7474 28.3048 48.7343 29.2918L57.6606 38.2147C58.1356 38.6897 58.4017 39.3331 58.4017 40.0034C58.4017 40.6703 58.1356 41.3137 57.6606 41.7886ZM34.8396 47.1411C35.8265 48.128 35.8265 49.7246 34.8396 50.7116C34.3478 51.2067 33.7011 51.4526 33.0543 51.4526C32.4076 51.4526 31.7608 51.2067 31.2691 50.7116L22.3461 41.7886C21.3592 40.8017 21.3592 39.2017 22.3461 38.2147L31.2691 29.2918C32.256 28.3048 33.8526 28.3048 34.8396 29.2918C35.8265 30.2787 35.8265 31.8787 34.8396 32.8657L27.7019 40.0034L34.8396 47.1411ZM54.208 8H25.7954C15.1512 8 8 15.4779 8 26.6139V53.3827C8 64.5187 15.1512 72 25.7954 72H54.2046C64.8488 72 72 64.5187 72 53.3827V26.6139C72 15.4779 64.8488 8 54.208 8Z" fill="black"/>
</svg>
