<svg width="80" height="80" viewBox="0 0 80 80" fill="none" xmlns="http://www.w3.org/2000/svg">
<path fill-rule="evenodd" clip-rule="evenodd" d="M20.7615 19.1196C22.156 19.1196 23.3047 20.2515 23.3047 21.6461C23.3047 23.0406 22.1897 24.1725 20.7951 24.1725H20.7615C19.3669 24.1725 18.235 23.0406 18.235 21.6461C18.235 20.2515 19.3669 19.1196 20.7615 19.1196ZM29.1357 19.1196C30.5303 19.1196 31.679 20.2515 31.679 21.6461C31.679 23.0406 30.564 24.1725 29.1694 24.1725H29.1357C27.7411 24.1725 26.6093 23.0406 26.6093 21.6461C26.6093 20.2515 27.7411 19.1196 29.1357 19.1196ZM37.51 19.1196C38.9046 19.1196 40.0532 20.2515 40.0532 21.6461C40.0532 23.0406 38.9382 24.1725 37.5437 24.1725H37.51C36.1154 24.1725 34.9835 23.0406 34.9835 21.6461C34.9835 20.2515 36.1154 19.1196 37.51 19.1196ZM70.9901 29.0266C71.5483 29.0266 72.0007 28.5742 72.0007 28.016V26.6147C72.0007 15.4816 64.8492 8 54.2046 8H25.7941C15.1494 8 8.00134 15.4816 8.00134 26.6147V28.016C8.00134 28.5742 8.45377 29.0266 9.01191 29.0266H70.9901Z" fill="black"/>
<path fill-rule="evenodd" clip-rule="evenodd" d="M54.6344 52.2737L47.9108 58.9906C47.4189 59.4824 46.7722 59.7283 46.1254 59.7283C45.4786 59.7283 44.8319 59.4824 44.3367 58.9906C43.3531 58.0036 43.3531 56.4035 44.3401 55.4166L49.275 50.485L44.3401 45.55C43.3531 44.563 43.3531 42.963 44.3401 41.976C45.3271 40.989 46.9238 40.989 47.9108 41.976L54.6344 48.6996C55.1094 49.1746 55.3755 49.818 55.3755 50.485C55.3755 51.1553 55.1094 51.7987 54.6344 52.2737ZM35.6627 58.9906C35.1708 59.4824 34.5207 59.7283 33.8739 59.7283C33.2306 59.7283 32.5838 59.4824 32.0886 58.9906L25.3683 52.2737C24.8934 51.7987 24.6272 51.1553 24.6272 50.485C24.6272 49.818 24.8934 49.1746 25.3683 48.6996L32.0886 41.976C33.0756 40.989 34.6757 40.989 35.6627 41.976C36.6496 42.963 36.6496 44.563 35.6627 45.55L30.7277 50.485L35.6627 55.4166C36.6496 56.4035 36.6496 58.0036 35.6627 58.9906ZM9.01057 34.0801C8.45243 34.0801 8 34.5325 8 35.0906V53.3853C8 64.5184 15.1515 72 25.7928 72H54.2032C64.8479 72 72.0027 64.5184 72.0027 53.3853V35.0906C72.0027 34.5325 71.5503 34.0801 70.9922 34.0801H9.01057Z" fill="black"/>
</svg>
