<svg width="80" height="80" viewBox="0 0 80 80" fill="none" xmlns="http://www.w3.org/2000/svg">
<path d="M44.2754 9.47901C46.3247 7.94421 48.9703 7.61208 51.2974 8.44463C51.8146 8.62968 52.3246 8.82936 52.8286 9.03838L54.3193 9.69776L54.3287 9.70089C56.562 10.7615 58.1921 12.8667 58.5568 15.3947L58.5599 15.4009L59.1787 19.7479V19.7541C59.1956 19.8722 59.2521 20.0362 59.3912 20.2229L59.5631 20.4166L59.5881 20.4447C59.8393 20.697 60.0788 20.7941 60.2537 20.8197L64.6038 21.4416C66.988 21.78 68.977 23.2468 70.0882 25.2635L70.3007 25.6729L70.3038 25.6854C70.7646 26.6655 71.1843 27.6716 71.5538 28.7042L71.5569 28.7073C72.3896 31.0405 72.0513 33.6807 70.5194 35.7261L70.5163 35.7293L67.8632 39.2668C67.7326 39.4404 67.6587 39.6523 67.6569 39.8762C67.6597 39.9777 67.6601 40.0643 67.66 40.1074L67.6757 40.2824C67.7035 40.4532 67.7707 40.6079 67.8663 40.7356L70.5194 44.2762C72.059 46.3263 72.3853 48.9693 71.5538 51.295C71.1861 52.323 70.7654 53.3352 70.2976 54.3201L70.3007 54.3232C69.2428 56.5626 67.134 58.193 64.6069 58.5576L64.6006 58.5607L60.2225 59.1857C60.0026 59.2172 59.7988 59.3195 59.6381 59.4826L59.5475 59.5732C59.5278 59.5941 59.5083 59.6154 59.4881 59.6357C59.3171 59.8076 59.2158 60.0166 59.185 60.2295L58.5599 64.6014C58.1956 67.1359 56.5607 69.2415 54.3287 70.3015L54.3193 70.3046C53.3365 70.7668 52.3246 71.1859 51.2943 71.5546C48.9621 72.3892 46.3176 72.052 44.2723 70.5202L44.2692 70.5171L40.7567 67.8827C40.6241 67.7832 40.3885 67.6815 40.0254 67.6827H39.9754C39.6115 67.6815 39.3789 67.7837 39.2473 67.8827L39.241 67.8858L35.7254 70.5202L35.7222 70.5171C33.671 72.0563 31.0292 72.3877 28.7034 71.5577L28.6972 71.5546C27.6726 71.1867 26.6625 70.7659 25.6753 70.2983C23.4373 69.2411 21.8016 67.1357 21.4409 64.6045L20.819 60.2576L20.7877 60.117C20.7376 59.9637 20.6319 59.7801 20.4377 59.5857C20.4302 59.5782 20.4229 59.5678 20.4158 59.5607C20.1522 59.2977 19.9169 59.2055 19.7565 59.1826H19.7471L15.3971 58.5607C12.8665 58.1969 10.7557 56.5637 9.697 54.3232L9.70012 54.3201C9.23017 53.328 8.81293 52.3175 8.44699 51.295C7.61502 48.9693 7.94274 46.3217 9.48137 44.2731L12.1376 40.7324C12.2726 40.5497 12.3421 40.3354 12.3408 40.1137C12.3386 40.0223 12.3376 39.9417 12.3376 39.898L12.322 39.7168C12.2939 39.5424 12.2276 39.3894 12.1376 39.2699L12.1345 39.2668L9.48137 35.7293L9.47825 35.7261C7.9429 33.676 7.61335 31.0316 8.44386 28.7042L8.44699 28.6979C8.81303 27.6785 9.22928 26.6666 9.70012 25.6729C10.7595 23.4423 12.8614 21.8021 15.4002 21.4416L19.7408 20.8229C19.9127 20.7981 20.154 20.7004 20.4158 20.4385C20.4217 20.4326 20.429 20.4284 20.4346 20.4229L20.6033 20.2291C20.7438 20.0406 20.8006 19.8718 20.819 19.7447L21.4409 15.3978C21.8022 12.8601 23.4441 10.7536 25.6784 9.69776C26.669 9.22847 27.6774 8.81495 28.7034 8.44775L28.7065 8.44463C31.0347 7.61384 33.6758 7.94412 35.7254 9.47901L35.7285 9.48214L39.2441 12.1165L39.2535 12.1259C39.38 12.2214 39.6132 12.3228 39.9817 12.3228H40.0192C40.383 12.3228 40.6161 12.2233 40.7504 12.1228L40.7567 12.1165L44.2754 9.47901ZM49.1411 14.4728C48.7544 14.3344 48.3739 14.4061 48.113 14.6009L44.5942 17.2385C43.1976 18.2874 41.5643 18.7228 40.0192 18.7228H39.9817C38.4388 18.7228 36.7965 18.2887 35.3972 17.2322L31.8878 14.6009C31.6274 14.4065 31.2482 14.3299 30.8566 14.4697L30.8597 14.4728C30.0253 14.7714 29.2112 15.1085 28.4159 15.4853C28.0428 15.6616 27.8235 15.983 27.7784 16.301V16.3072L27.1565 20.6541L27.1534 20.6604C26.9096 22.3476 26.0917 23.7729 25.044 24.8542C25.0528 24.8445 25.0599 24.8331 25.069 24.8229C25.0401 24.8555 25.0118 24.8884 24.9815 24.9198C24.9914 24.9096 25.0023 24.8996 25.0128 24.8885C24.9974 24.9042 24.9844 24.923 24.969 24.9385L24.9596 24.9479L24.9409 24.9604L24.944 24.9635C23.8487 26.0588 22.3832 26.9078 20.6565 27.1573L20.6502 27.1604L16.3033 27.7792C15.9861 27.8241 15.6612 28.035 15.4814 28.4104C15.1067 29.2012 14.7684 30.0179 14.4689 30.8511L14.472 30.8542C14.3319 31.2467 14.4062 31.6287 14.6002 31.8886L17.2471 35.4199C18.2295 36.7239 18.7323 38.2962 18.7377 39.8762V39.948L18.7408 40.0699C18.7518 41.6953 18.2302 43.2718 17.2596 44.57L17.2564 44.5731L14.6002 48.1137C14.4085 48.3688 14.333 48.7501 14.472 49.1388L14.9502 50.3794L15.4846 51.5857C15.6587 51.9541 15.979 52.1759 16.3064 52.2232L20.644 52.845C22.3303 53.0826 23.7597 53.8965 24.8409 54.9419C24.8323 54.9342 24.8218 54.928 24.8128 54.9201C24.8438 54.9473 24.8734 54.976 24.9034 55.0044C24.8931 54.9946 24.8833 54.9835 24.8721 54.9732C24.8895 54.9902 24.908 55.0061 24.9253 55.0232C24.9381 55.0356 24.9533 55.048 24.9659 55.0607C25.9215 56.017 26.6906 57.2567 27.0347 58.7076L27.1534 59.3451L27.1565 59.3482L27.7784 63.6951V63.7014C27.8239 64.0198 28.0401 64.3393 28.4097 64.5139C29.2057 64.891 30.0235 65.2324 30.8503 65.5295C31.2431 65.6698 31.6267 65.5953 31.8847 65.4014L31.8878 65.3983L35.4035 62.7639C36.7992 61.7155 38.4353 61.2795 39.9848 61.2826H40.016C41.5661 61.2795 43.2016 61.7159 44.5973 62.7639L48.1099 65.3983L48.3286 65.5202C48.5656 65.6175 48.8514 65.6321 49.138 65.5295C49.9692 65.2321 50.7903 64.892 51.5943 64.5139C51.9645 64.3339 52.1762 64.0156 52.2224 63.6951L52.8474 59.3201L52.8505 59.3139C53.0775 57.7443 53.7984 56.3033 54.888 55.1826C54.9624 55.1036 55.0342 55.0333 55.0787 54.9888L55.5224 54.5732C56.5926 53.651 57.9066 53.0497 59.3162 52.8482L63.6944 52.2232L63.9319 52.1575C64.1676 52.0593 64.382 51.8664 64.5131 51.5888L64.5163 51.5825C64.8933 50.7893 65.2315 49.9729 65.5288 49.1419L65.5944 48.8544C65.6229 48.5728 65.5467 48.3111 65.4006 48.1169L65.3975 48.1137L62.7444 44.5731C61.7762 43.2803 61.265 41.7168 61.26 40.1262V40.0699C61.2578 40.0254 61.2572 39.9801 61.2569 39.9355C61.2458 38.3097 61.7672 36.7266 62.7475 35.423L65.3975 31.8886L65.5194 31.6698C65.6163 31.4341 65.6316 31.1499 65.5288 30.8605C65.2337 30.036 64.8963 29.2223 64.5194 28.4198L64.36 28.1636C64.1781 27.9402 63.9364 27.8126 63.7006 27.7792L59.3443 27.1573L59.3381 27.1542C57.6224 26.9058 56.1562 26.0665 55.0568 24.9635L55.0349 24.9417C53.9477 23.8532 53.0872 22.3884 52.8411 20.651L52.2224 16.3072C52.1754 15.9847 51.9592 15.6603 51.5849 15.4822C50.7818 15.1047 49.9667 14.7682 49.1411 14.4728ZM20.3283 59.4732C20.3228 59.4672 20.3173 59.4595 20.3127 59.4545L20.294 59.4326C20.3032 59.443 20.3139 59.4576 20.3283 59.4732ZM25.1096 55.2201C25.1303 55.2441 25.0976 55.2021 25.0659 55.1669C25.0523 55.1519 25.0304 55.1327 25.0065 55.1076C25.0648 55.1694 25.1069 55.2169 25.1096 55.2201ZM24.7909 25.1042C24.8014 25.095 24.8185 25.0815 24.8315 25.0698C24.845 25.0577 24.8611 25.0358 24.8846 25.0135C24.833 25.0619 24.797 25.0989 24.7909 25.1042Z" fill="black"/>
<path d="M46.227 30.4699C47.5665 30.4701 48.766 31.3041 49.2302 32.5605L49.5521 33.4355C50.4472 35.8586 52.3543 37.768 54.7709 38.6637L55.6459 38.9887C56.9006 39.4541 57.7335 40.6505 57.7334 41.9887C57.7332 43.3268 56.9004 44.5236 55.6459 44.9888L54.7709 45.3138C52.3546 46.2095 50.4472 48.1189 49.5521 50.542L49.2302 51.417C48.7658 52.673 47.5663 53.5074 46.227 53.5076C44.8881 53.5075 43.6916 52.6727 43.227 51.417L42.902 50.542C42.0068 48.1187 40.0997 46.2094 37.6832 45.3138L36.8082 44.9888C35.5537 44.5236 34.7209 43.3268 34.7207 41.9887C34.7205 40.6505 35.5534 39.4541 36.8082 38.9887L37.6832 38.6637C40.1 37.7681 42.0068 35.8588 42.902 33.4355L43.227 32.5605L43.4333 32.1105C43.9918 31.109 45.055 30.47 46.227 30.4699ZM46.227 40.2294C45.69 40.8626 45.1035 41.4512 44.4708 41.9887C45.1029 42.5258 45.6904 43.1124 46.227 43.745C46.7636 43.1124 47.3512 42.5258 47.9833 41.9887C47.3506 41.4513 46.7641 40.8626 46.227 40.2294Z" fill="black"/>
<path d="M29.233 26.4952C30.6417 26.4953 31.8858 27.4162 32.2956 28.764C32.5349 29.5515 33.1482 30.1658 33.93 30.4046C35.2767 30.8152 36.1988 32.0592 36.1987 33.4671C36.1984 34.8748 35.2765 36.1161 33.93 36.5265C33.1486 36.7649 32.5352 37.3798 32.2956 38.1672C31.8859 39.5151 30.6418 40.4358 29.233 40.4359C27.8242 40.4359 26.5802 39.5152 26.1705 38.1672C25.9308 37.3795 25.3147 36.7648 24.533 36.5265C23.1873 36.1157 22.2677 34.8742 22.2673 33.4671C22.2673 32.0595 23.1868 30.8155 24.533 30.4046C25.3154 30.1661 25.931 29.5519 26.1705 28.764L26.3611 28.2796C26.8928 27.2001 28.0002 26.4952 29.233 26.4952Z" fill="black"/>
</svg>
