<svg width="80" height="80" viewBox="0 0 80 80" fill="none" xmlns="http://www.w3.org/2000/svg">
<path d="M40 8C41.3869 8 42.6158 8.89337 43.0438 10.2125C47.1568 22.8967 57.1033 32.8432 69.7875 36.9563C71.1066 37.3842 72 38.6131 72 40C72 41.3869 71.1066 42.6158 69.7875 43.0438C57.1033 47.1568 47.1568 57.1033 43.0438 69.7875C42.6158 71.1066 41.3869 72 40 72C38.6131 72 37.3842 71.1066 36.9563 69.7875C32.8432 57.1033 22.8967 47.1568 10.2125 43.0438C8.89337 42.6158 8 41.3869 8 40C8 38.6131 8.89337 37.3842 10.2125 36.9563C22.8967 32.8432 32.8432 22.8967 36.9563 10.2125L37.1531 9.7375C37.6942 8.68336 38.7869 8 40 8ZM40 19.4594C35.4405 28.2609 28.2609 35.4405 19.4594 40C28.2601 44.5591 35.4404 51.7371 40 60.5375C44.5591 51.7379 51.7379 44.5591 60.5375 40C51.7371 35.4404 44.5591 28.2601 40 19.4594Z" fill="black"/>
</svg>
