<svg width="80" height="80" viewBox="0 0 80 80" fill="none" xmlns="http://www.w3.org/2000/svg">
<path d="M49.9793 14.1923C54.2811 9.80126 61.3262 9.71715 65.7303 14.0097C70.1416 18.3093 70.234 25.3718 65.9334 29.7841C65.9257 29.792 65.9177 29.7997 65.91 29.8076L33.3846 62.4482C29.6057 66.3251 24.3269 68.35 18.9422 68.0038L18.4207 67.9628C15.2262 67.6661 12.6644 65.1763 12.2869 61.9843L12.2859 61.9853C11.6243 56.4334 13.506 50.8838 17.408 46.8808L17.4305 46.8564L49.9793 14.1923ZM61.5428 18.3066C59.5046 16.3201 56.241 16.3616 54.2537 18.4023C54.2457 18.4105 54.2374 18.4195 54.2293 18.4277L21.6814 51.0917C19.0609 53.7942 17.7979 57.5328 18.2439 61.2753L18.2449 61.2792C18.289 61.6529 18.5923 61.9526 18.9754 61.9882C22.6169 62.3257 26.2192 61.0509 28.8387 58.5107L29.1121 58.2372L61.6365 25.5966C63.6232 23.5583 63.5817 20.2942 61.5428 18.3066Z" fill="black"/>
<path d="M36.3183 27.955C37.4921 26.7857 39.3912 26.7892 40.5605 27.9628L52.0293 39.4745C53.1986 40.6484 53.1943 42.5484 52.0205 43.7177C50.8467 44.8867 48.9475 44.8826 47.7783 43.7089L36.3105 32.1972C35.1412 31.0234 35.1447 29.1244 36.3183 27.955Z" fill="black"/>
<path d="M17.2791 13.7558C22.2565 8.74846 30.356 8.74805 35.3338 13.7548L38.492 16.913C39.6635 18.0846 39.6636 19.9846 38.492 21.1562C37.357 22.291 35.5387 22.3266 34.3611 21.2626L34.2498 21.1562L31.0916 17.998L31.0838 17.9892C28.451 15.3363 24.1629 15.3364 21.5301 17.9892L21.5232 17.997L17.9764 21.5458L17.9754 21.5478C15.3425 24.1787 15.3407 28.478 17.9754 31.1132L21.1336 34.2714C22.3052 35.443 22.3052 37.343 21.1336 38.5146C19.9621 39.6858 18.0629 39.6858 16.8914 38.5146L13.7332 35.3564C8.75597 30.379 8.7549 22.2791 13.7342 17.3036L17.2791 13.7558Z" fill="black"/>
<path d="M58.8873 41.5469C60.0589 40.3754 61.9579 40.3754 63.1295 41.5469L66.2477 44.6641C71.255 49.6419 71.2533 57.7411 66.2457 62.7188L62.6969 66.2657C57.7167 71.2476 49.6536 71.2348 44.6539 66.2735L44.6461 66.2647L41.5289 63.1475C40.3574 61.9759 40.3574 60.0769 41.5289 58.9053C42.664 57.7702 44.4821 57.7345 45.6598 58.7989L45.7711 58.9053L48.8795 62.0137C51.5502 64.6639 55.8279 64.652 58.4547 62.0235L62.0123 58.4678C64.6653 55.8347 64.6651 51.5477 62.0123 48.9151L62.0045 48.9063L58.8873 45.7891L58.7809 45.6778C57.7167 44.5001 57.7524 42.6819 58.8873 41.5469Z" fill="black"/>
</svg>
