<svg width="80" height="80" viewBox="0 0 80 80" fill="none" xmlns="http://www.w3.org/2000/svg">
<path d="M33.1588 50.3897C34.2802 49.0239 36.296 48.8248 37.6619 49.946C43.0624 54.3799 48.8169 56.8567 53.0928 56.5646C54.8559 56.4442 56.3817 57.7764 56.5021 59.5395C56.6221 61.3019 55.2925 62.8276 53.5303 62.9488C46.8541 63.4049 39.4972 59.7348 33.5995 54.8928C32.2344 53.7712 32.0377 51.7553 33.1588 50.3897ZM22.2528 31.1589C23.8654 30.7776 25.4816 31.6915 26.0121 33.2245L26.1059 33.537L26.2715 34.1807C27.1791 37.4226 29.2172 41.0003 32.0557 44.3961C33.1892 45.752 33.0085 47.7719 31.6526 48.9054C30.3816 49.9669 28.5286 49.8753 27.3683 48.7429L27.1465 48.5023L25.8934 46.9335C23.2583 43.4826 21.1632 39.6871 20.1029 35.8869L19.8748 35.0119L19.8185 34.6901C19.6058 33.0817 20.6404 31.5406 22.2528 31.1589Z" fill="black"/>
<path d="M54.4209 15.3811C56.1882 15.3811 57.6208 16.8138 57.6208 18.5811C57.6208 20.3483 56.1882 21.781 54.4209 21.781H11.1999C9.43266 21.781 8 20.3483 8 18.5811C8 16.8138 9.43266 15.3811 11.1999 15.3811H54.4209Z" fill="black"/>
<path d="M28.4918 18.5842V13.1999C28.4918 11.4327 29.9244 10 31.6917 10C33.459 10 34.8916 11.4327 34.8916 13.1999V18.5842C34.8909 20.3508 33.4585 21.7841 31.6917 21.7841C29.9249 21.7841 28.4925 20.3508 28.4918 18.5842Z" fill="black"/>
<path d="M41.176 68.3552C40.3723 69.9289 38.4437 70.5524 36.8699 69.7489C35.2971 68.9451 34.6735 67.0192 35.4761 65.4458L41.176 68.3552ZM53.5633 33.8559C54.7651 33.8561 55.8665 34.5293 56.4132 35.5996L71.6504 65.4458C72.4528 67.0196 71.827 68.9455 70.2535 69.7489C68.6799 70.5522 66.7544 69.9284 65.9505 68.3552L53.5633 44.0932L41.176 68.3552L35.4761 65.4458L50.7133 35.5996L50.9414 35.2184C51.5348 34.3716 52.5109 33.8559 53.5633 33.8559Z" fill="black"/>
<path d="M39.1665 27.7558C39.7743 26.0968 41.6105 25.2427 43.2696 25.8496C44.9287 26.4574 45.7829 28.2966 45.1758 29.9558C41.6873 39.479 33.278 52.4987 14.0046 58.3958C12.315 58.9127 10.5253 57.9632 10.0078 56.274C9.49089 54.5845 10.4405 52.7948 12.1296 52.2772C29.0546 47.0991 36.1951 35.8675 39.1665 27.7558Z" fill="black"/>
</svg>
