<svg width="80" height="80" viewBox="0 0 80 80" fill="none" xmlns="http://www.w3.org/2000/svg">
<path d="M65.6 27.2844C65.6 23.233 64.3461 20.038 62.3438 17.8875C60.3654 15.7629 57.42 14.4 53.4938 14.4H26.5031C22.5929 14.4 19.6485 15.7633 17.6656 17.8906C15.6596 20.0429 14.4 23.2366 14.4 27.2844V52.7156C14.4 56.7675 15.6546 59.9622 17.6563 62.1125C19.6338 64.2366 22.5771 65.6 26.5031 65.6H53.4906C57.4188 65.6 60.3651 64.2371 62.3438 62.1125C64.3464 59.9621 65.6 56.767 65.6 52.7156V27.2844ZM72 52.7156C72 58.0888 70.3176 62.9362 67.025 66.4719C63.7084 70.0332 58.9994 72 53.4906 72H26.5031C20.9955 72 16.2873 70.0335 12.9719 66.4719C9.68061 62.9362 8.00002 58.0883 8 52.7156V27.2844C8.00001 21.9076 9.69052 17.0588 12.9844 13.525C16.3015 9.9669 21.008 8 26.5031 8H53.4938C59.0013 8 63.712 9.96677 67.0281 13.5281C70.3195 17.0636 72 21.9118 72 27.2844V52.7156Z" fill="black"/>
<path d="M49.975 56.7751C49.975 55.4647 49.4588 53.9484 48.1094 52.7344C46.7648 51.5254 44.3024 50.3628 39.9875 50.3626C35.6927 50.3626 33.2376 51.5344 31.8938 52.7532C30.5409 53.9803 30.0219 55.5113 30.0219 56.8251C30.0211 58.5917 28.5887 60.0251 26.8219 60.0251C25.055 60.0251 23.6226 58.5917 23.6219 56.8251C23.6219 53.8424 24.8054 50.5418 27.5938 48.0126C30.3918 45.4749 34.5213 43.9626 39.9875 43.9626C45.4554 43.9628 49.5874 45.4565 52.3906 47.9782C55.1889 50.4957 56.375 53.7889 56.375 56.7751C56.3743 58.5417 54.9418 59.9749 53.175 59.9751C51.4081 59.9751 49.9757 58.5418 49.975 56.7751Z" fill="black"/>
<path d="M45.2063 31.5875C45.2061 28.7072 42.8726 26.375 39.9938 26.375C37.115 26.3751 34.7814 28.7073 34.7813 31.5875C34.7813 34.4654 37.1157 36.7999 39.9938 36.8C42.8719 36.8 45.2063 34.4654 45.2063 31.5875ZM51.6063 31.5875C51.6063 38.0001 46.4065 43.2 39.9938 43.2C33.5811 43.1999 28.3813 38 28.3813 31.5875C28.3814 25.1711 33.5819 19.9751 39.9938 19.975C46.4056 19.975 51.6061 25.171 51.6063 31.5875Z" fill="black"/>
</svg>
