<svg width="80" height="80" viewBox="0 0 80 80" fill="none" xmlns="http://www.w3.org/2000/svg">
<path d="M29.9805 51.1797C29.9805 50.167 29.6717 49.5475 29.3574 49.21C29.0656 48.8967 28.5651 48.6016 27.6709 48.6016H18.3096C17.4215 48.6016 16.9193 48.8962 16.625 49.212C16.309 49.5511 16 50.1707 16 51.1797V60.001C16 61.0158 16.3098 61.636 16.624 61.9737C16.9158 62.287 17.4157 62.5821 18.3096 62.5821H27.6709C28.5651 62.5821 29.0657 62.2871 29.3574 61.9737C29.6717 61.636 29.9805 61.0157 29.9805 60.001V51.1797ZM35.9805 60.001C35.9805 62.2553 35.2715 64.4259 33.749 66.0616C32.2039 67.7215 30.049 68.5821 27.6709 68.5821H18.3096C15.9315 68.5821 13.7765 67.7215 12.2314 66.0616C10.709 64.4259 10 62.2552 10 60.001V51.1797C10 48.9229 10.7137 46.7535 12.2363 45.1202C13.7809 43.4634 15.9343 42.6016 18.3096 42.6016H27.6709C30.0487 42.6016 32.203 43.4622 33.748 45.1211C35.2706 46.7562 35.9805 48.9262 35.9805 51.1797V60.001Z" fill="black"/>
<path d="M63.9981 55.5907C63.9981 51.3189 60.5358 47.8575 56.2677 47.8573C51.9995 47.8573 48.5372 51.3186 48.5372 55.5907C48.5374 59.8594 51.9991 63.3212 56.2677 63.3212C60.5361 63.321 63.998 59.8592 63.9981 55.5907ZM69.9981 55.5907C69.998 63.1729 63.8499 69.321 56.2677 69.3212C48.6852 69.3212 42.5374 63.1729 42.5372 55.5907C42.5372 48.0061 48.6846 41.8573 56.2677 41.8573C63.8504 41.8575 69.9981 48.0061 69.9981 55.5907Z" fill="black"/>
<path d="M33.9482 12.7402C36.0008 9.19063 41.0344 9.09113 43.2559 12.4326L43.4619 12.7666L43.4629 12.7685L52.1357 27.9941C54.2156 31.646 51.5825 36.1923 47.3711 36.1923H29.9131C25.6904 36.1923 23.0561 31.6221 25.1631 27.9687L33.9463 12.7431L33.9482 12.7402ZM30.8066 30.1923H46.4824L38.6943 16.5185L30.8066 30.1923Z" fill="black"/>
</svg>
