<svg width="80" height="80" viewBox="0 0 80 80" fill="none" xmlns="http://www.w3.org/2000/svg">
<path d="M65.5963 37.3621L65.7506 37.366C67.3357 37.4463 68.5963 38.757 68.5963 40.3621C68.5963 41.9672 67.3357 43.2779 65.7506 43.3582L65.5963 43.3621H31.4733C29.8164 43.3621 28.4733 42.0189 28.4733 40.3621C28.4733 38.7052 29.8164 37.3621 31.4733 37.3621H65.5963Z" fill="black"/>
<path d="M54.6901 29.4969C55.8228 28.3596 57.6411 28.3209 58.8209 29.3827L58.9332 29.4881L67.7174 38.2362C68.2826 38.7991 68.6002 39.5644 68.6002 40.3622C68.6002 41.1599 68.2827 41.9252 67.7174 42.4881L58.9332 51.2362C57.7593 52.4053 55.8592 52.4013 54.6901 51.2274C53.5209 50.0534 53.5249 48.1534 54.6989 46.9842L61.3483 40.3622L54.6989 33.7401L54.5924 33.6278C53.5261 32.4523 53.5575 30.6342 54.6901 29.4969Z" fill="black"/>
<path d="M11 39.9996C11 34.8434 10.9971 30.3489 11.3457 26.6021C11.6933 22.8663 12.4149 19.5003 14.1064 16.7467C17.6991 10.8982 24.6541 9.24963 35.3027 9.2496C39.2608 9.2496 42.6178 9.24173 45.3701 9.40683C48.096 9.57036 50.5457 9.91556 52.5928 10.7779C54.7838 11.701 56.426 13.1782 57.5254 15.3326C58.5526 17.3456 59.0314 19.8082 59.29 22.6139C59.4421 24.2637 58.228 25.7245 56.5781 25.8766C54.9284 26.0285 53.4675 24.8144 53.3154 23.1646C53.0791 20.601 52.6851 19.0489 52.1807 18.0601C51.7483 17.2129 51.1999 16.7017 50.2637 16.3072C49.1833 15.8521 47.5667 15.5494 45.0107 15.3961C42.4813 15.2444 39.3392 15.2496 35.3027 15.2496C24.6488 15.2496 20.9519 17.0659 19.2188 19.8873C18.2475 21.4685 17.6384 23.739 17.3203 27.1578C17.0032 30.566 17 34.7458 17 39.9996C17 45.2534 17.0032 49.4332 17.3203 52.8414C17.6384 56.2602 18.2475 58.5307 19.2188 60.1119C20.9519 62.9333 24.6488 64.7496 35.3027 64.7496C39.3392 64.7496 42.4813 64.7548 45.0107 64.6031C47.5667 64.4498 49.1833 64.1481 50.2637 63.693C51.2001 63.2985 51.7483 62.7864 52.1807 61.9391C52.6851 60.9503 53.0791 59.3982 53.3154 56.8346C53.4675 55.1848 54.9284 53.9708 56.5781 54.1227C58.228 54.2747 59.4421 55.7355 59.29 57.3853C59.0314 60.191 58.5526 62.6536 57.5254 64.6666C56.4259 66.8211 54.7839 68.2992 52.5928 69.2223C50.5457 70.0846 48.096 70.4288 45.3701 70.5924C42.6178 70.7575 39.2608 70.7496 35.3027 70.7496C24.6541 70.7496 17.6991 69.1011 14.1064 63.2525C12.4149 60.4988 11.6933 57.1329 11.3457 53.3971C10.9971 49.6503 11 45.1558 11 39.9996Z" fill="black"/>
</svg>
