<svg width="80" height="80" viewBox="0 0 80 80" fill="none" xmlns="http://www.w3.org/2000/svg">
<path d="M52.123 37.1125L52.2773 37.1164C53.8625 37.1967 55.123 38.5074 55.123 40.1125C55.123 41.7175 53.8625 43.0282 52.2773 43.1085L52.123 43.1125H18C16.3431 43.1125 15 41.7693 15 40.1125C15 38.4556 16.3431 37.1125 18 37.1125H52.123Z" fill="black"/>
<path d="M41.2168 29.2473C42.3495 28.1099 44.1678 28.0712 45.3477 29.133L45.46 29.2385L54.2441 37.9866C54.8094 38.5495 55.127 39.3148 55.127 40.1125C55.1269 40.9103 54.8094 41.6756 54.2441 42.2385L45.46 50.9866C44.286 52.1556 42.3859 52.1517 41.2168 50.9778C40.0476 49.8038 40.0516 47.9038 41.2256 46.7346L47.875 40.1125L41.2256 33.4905L41.1191 33.3782C40.0529 32.2027 40.0843 30.3845 41.2168 29.2473Z" fill="black"/>
<path d="M59.8291 39.75C59.8291 34.4962 59.8269 30.3164 59.5098 26.9082C59.1916 23.4893 58.5817 21.2189 57.6104 19.6377C55.8772 16.8163 52.1806 15 41.5264 15C37.4897 15 34.3478 14.9947 31.8184 15.1465C29.2625 15.2998 27.6468 15.6025 26.5664 16.0576C25.63 16.4521 25.0809 16.9632 24.6484 17.8105C24.144 18.7993 23.75 20.3515 23.5137 22.915C23.3616 24.5649 21.9008 25.779 20.251 25.627C18.6011 25.4748 17.387 24.0141 17.5391 22.3643C17.7977 19.5585 18.2774 17.096 19.3047 15.083C20.4041 12.9286 22.0453 11.4504 24.2363 10.5273C26.2834 9.66498 28.7331 9.32076 31.459 9.15723C34.2113 8.99211 37.5682 9 41.5264 9C52.1751 9 59.13 10.6486 62.7227 16.4971C64.4142 19.2507 65.1358 22.6167 65.4834 26.3525C65.832 30.0993 65.8291 34.5938 65.8291 39.75C65.8291 44.9062 65.832 49.4007 65.4834 53.1475C65.1358 56.8833 64.4142 60.2492 62.7227 63.0029C59.13 68.8514 52.1751 70.5 41.5264 70.5C37.5682 70.5 34.2113 70.5079 31.459 70.3428C28.7331 70.1792 26.2834 69.835 24.2363 68.9727C22.0453 68.0496 20.4041 66.5715 19.3047 64.417C18.4058 62.6554 17.9266 60.5497 17.6475 58.1709L17.5391 57.1357L17.5283 56.9814C17.4628 55.3956 18.6527 54.0204 20.251 53.873C21.8494 53.7257 23.2708 54.8604 23.4961 56.4316L23.5137 56.585L23.6094 57.5C23.85 59.5278 24.2071 60.8243 24.6484 61.6895C25.0809 62.5368 25.63 63.0479 26.5664 63.4424C27.6468 63.8975 29.2625 64.2002 31.8184 64.3535C34.3478 64.5053 37.4897 64.5 41.5264 64.5C52.1806 64.5 55.8772 62.6837 57.6104 59.8623C58.5816 58.2811 59.1916 56.0107 59.5098 52.5918C59.8269 49.1836 59.8291 45.0038 59.8291 39.75Z" fill="black"/>
</svg>
