<svg width="80" height="80" viewBox="0 0 80 80" fill="none" xmlns="http://www.w3.org/2000/svg">
<path d="M52.123 37.1125L52.2773 37.1164C53.8625 37.1968 55.123 38.5074 55.123 40.1125C55.123 41.7176 53.8625 43.0283 52.2773 43.1086L52.123 43.1125H18C16.3431 43.1125 15 41.7694 15 40.1125C15 38.4557 16.3431 37.1125 18 37.1125H52.123Z" fill="black"/>
<path d="M41.2168 29.2474C42.3495 28.11 44.1678 28.0713 45.3477 29.1331L45.46 29.2386L54.2441 37.9866C54.8094 38.5496 55.127 39.3149 55.127 40.1126C55.1269 40.9103 54.8094 41.6756 54.2441 42.2386L45.46 50.9866C44.286 52.1557 42.3859 52.1517 41.2168 50.9778C40.0476 49.8039 40.0516 47.9038 41.2256 46.7347L47.875 40.1126L41.2256 33.4905L41.1191 33.3782C40.0529 32.2028 40.0843 30.3846 41.2168 29.2474Z" fill="black"/>
<path d="M59.8291 39.7501C59.8291 34.4963 59.8269 30.3165 59.5098 26.9083C59.1916 23.4893 58.5817 21.219 57.6104 19.6378C55.8772 16.8163 52.1806 15.0001 41.5264 15.0001C37.4897 15.0001 34.3478 14.9948 31.8184 15.1465C29.2625 15.2999 27.6468 15.6026 26.5664 16.0577C25.63 16.4521 25.0809 16.9632 24.6484 17.8106C24.144 18.7993 23.75 20.3516 23.5137 22.9151C23.3616 24.565 21.9008 25.7791 20.251 25.627C18.6011 25.4749 17.387 24.0142 17.5391 22.3643C17.7977 19.5586 18.2774 17.0961 19.3047 15.0831C20.4041 12.9286 22.0453 11.4504 24.2363 10.5274C26.2834 9.66504 28.7331 9.32082 31.459 9.15729C34.2113 8.99217 37.5682 9.00006 41.5264 9.00006C52.1751 9.00006 59.13 10.6487 62.7227 16.4971C64.4142 19.2508 65.1358 22.6168 65.4834 26.3526C65.832 30.0993 65.8291 34.5939 65.8291 39.7501C65.8291 44.9063 65.832 49.4008 65.4834 53.1475C65.1358 56.8834 64.4142 60.2493 62.7227 63.003C59.13 68.8515 52.1751 70.5001 41.5264 70.5001C37.5682 70.5001 34.2113 70.5079 31.459 70.3428C28.7331 70.1793 26.2834 69.8351 24.2363 68.9727C22.0453 68.0497 20.4041 66.5715 19.3047 64.4171C18.4058 62.6555 17.9266 60.5497 17.6475 58.171L17.5391 57.1358L17.5283 56.9815C17.4628 55.3957 18.6527 54.0205 20.251 53.8731C21.8494 53.7258 23.2708 54.8605 23.4961 56.4317L23.5137 56.585L23.6094 57.5001C23.85 59.5279 24.2071 60.8244 24.6484 61.6895C25.0809 62.5369 25.63 63.048 26.5664 63.4424C27.6468 63.8975 29.2625 64.2002 31.8184 64.3536C34.3478 64.5053 37.4897 64.5001 41.5264 64.5001C52.1806 64.5001 55.8772 62.6838 57.6104 59.8624C58.5816 58.2811 59.1916 56.0108 59.5098 52.5919C59.8269 49.1836 59.8291 45.0039 59.8291 39.7501Z" fill="black"/>
</svg>
