<svg width="80" height="80" viewBox="0 0 80 80" fill="none" xmlns="http://www.w3.org/2000/svg">
<path d="M33.3045 64.5911C35.2356 63.6281 37.5836 64.4107 38.5491 66.338C39.5139 68.2655 38.7298 70.6091 36.7989 71.5727L36.7683 71.588C34.8372 72.5509 32.4892 71.7684 31.5237 69.8411C30.559 67.9136 31.343 65.57 33.274 64.6063L33.3045 64.5911Z" fill="black"/>
<path d="M46.1916 64.8746C47.2968 63.0238 49.6946 62.4157 51.5492 63.5179C53.4035 64.6211 54.0129 67.0173 52.9085 68.8685L52.8901 68.899C51.7848 70.7499 49.3841 71.3581 47.5295 70.2557C45.675 69.1524 45.0656 66.7562 46.1702 64.9051L46.1916 64.8746Z" fill="black"/>
<path d="M17.2164 58.7863C18.3299 56.9402 20.7334 56.3432 22.5832 57.454C24.4328 58.5654 25.031 60.9643 23.918 62.8107L23.8997 62.8411C22.7861 64.6873 20.3827 65.2843 18.5329 64.1734C16.6832 63.062 16.0851 60.6631 17.1981 58.8168L17.2164 58.7863Z" fill="black"/>
<path d="M58.2872 56.6187C59.4148 54.7807 61.8216 54.2006 63.6632 55.326C65.5039 56.4514 66.0817 58.8541 64.9552 60.6918L64.9369 60.7223C63.8096 62.5599 61.4023 63.1393 59.561 62.015C57.7199 60.8898 57.1394 58.4871 58.2658 56.6492L58.2872 56.6187Z" fill="black"/>
<path d="M27.113 11.0947C28.2233 9.2466 30.625 8.64566 32.4767 9.75322C34.3284 10.8614 34.9305 13.2585 33.8207 15.1068L33.8024 15.1373C32.6921 16.9855 30.2905 17.5865 28.4387 16.4788C26.587 15.3706 25.9848 12.9735 27.0947 11.1252L27.113 11.0947Z" fill="black"/>
<path d="M15.0446 19.308C16.1548 17.4599 18.5565 16.859 20.4084 17.9666C22.26 19.0747 22.8621 21.4718 21.7523 23.3202L21.734 23.3507C20.6238 25.1989 18.2221 25.7999 16.3703 24.6921C14.5185 23.5839 13.9164 21.1869 15.0263 19.3385L15.0446 19.308Z" fill="black"/>
<path d="M56.0942 17.1647C57.2044 15.3165 59.6061 14.7157 61.4579 15.8233C63.3097 16.9314 63.9117 19.3285 62.8019 21.1769L62.7836 21.2074C61.6733 23.0556 59.2717 23.6566 57.4199 22.5488C55.5681 21.4407 54.966 19.0436 56.0759 17.1952L56.0942 17.1647Z" fill="black"/>
<path d="M43.2377 8.40872C45.1709 7.44978 47.5178 8.23574 48.4792 10.1648C49.4401 12.0946 48.6529 14.437 46.7198 15.3965L46.6893 15.4117C44.756 16.3707 42.4091 15.5849 41.4477 13.6556C40.487 11.726 41.2743 9.38348 43.2071 8.42397L43.2377 8.40872Z" fill="black"/>
<path d="M63.9719 29.1342C65.0834 27.2873 67.4846 26.687 69.3356 27.7958C71.187 28.9048 71.7876 31.3044 70.6765 33.1524L70.6582 33.1829C69.5471 35.0309 67.1429 35.6303 65.2914 34.5213C63.4401 33.4122 62.8394 31.0126 63.9505 29.1646L63.9719 29.1342Z" fill="black"/>
<path d="M8.57822 32.3873C9.69173 30.5412 12.0952 29.9442 13.945 31.055C15.7946 32.1664 16.3928 34.5653 15.2798 36.4117L15.2615 36.4421C14.148 38.2883 11.7445 38.8853 9.89471 37.7745C8.04508 36.663 7.4469 34.2641 8.55989 32.4178L8.57822 32.3873Z" fill="black"/>
<path d="M9.34183 46.829C10.4486 44.9785 12.8485 44.3739 14.7025 45.4784C16.5566 46.5831 17.1624 48.9784 16.0557 50.829L16.0373 50.8595C14.9305 52.7101 12.5307 53.3148 10.6767 52.2101C8.82263 51.1054 8.21672 48.7101 9.32351 46.8595L9.34183 46.829Z" fill="black"/>
<path d="M64.7385 43.5547C65.852 41.7086 68.2554 41.1116 70.1053 42.2224C71.955 43.3338 72.5531 45.7327 71.4401 47.5791L71.4218 47.6096C70.3083 49.4558 67.9048 50.0528 66.055 48.9419C64.2053 47.8305 63.6071 45.4316 64.7202 43.5852L64.7385 43.5547Z" fill="black"/>
</svg>
