<svg width="80" height="80" viewBox="0 0 80 80" fill="none" xmlns="http://www.w3.org/2000/svg">
<path d="M9.14783 31.3093C9.61286 29.6042 11.371 28.5973 13.0761 29.0623C14.7808 29.5273 15.7843 31.2858 15.3199 32.9906C14.6626 35.4006 14.3343 37.9204 14.4105 40.5096L14.4699 41.6221L14.4761 41.9502C14.4314 43.5713 13.1656 44.9281 11.5135 45.0503C9.86125 45.1722 8.40813 44.0162 8.12592 42.419L8.0853 42.094L8.01342 40.694C7.91812 37.4411 8.334 34.2936 9.14783 31.3093Z" fill="black"/>
<path d="M19.4607 24.7091C18.4154 26.1341 16.4106 26.4418 14.9855 25.3966C13.5613 24.3516 13.2541 22.3494 14.298 20.9246L19.4607 24.7091ZM19.72 15.2056C21.0586 14.2896 22.901 14.5181 23.9702 15.7838C25.1103 17.134 24.939 19.153 23.5889 20.2933C22.0376 21.6032 20.6531 23.0832 19.4607 24.7091L14.298 20.9246C15.7956 18.8827 17.5312 17.0349 19.4607 15.4057L19.72 15.2056Z" fill="black"/>
<path d="M12.2386 48.5222C13.7544 47.8541 15.5096 48.456 16.3105 49.866L16.4574 50.1598L16.8324 50.9723C18.7775 55.0015 21.7176 58.424 25.3296 60.9195C26.7837 61.924 27.1498 63.9186 26.1452 65.3727C25.1407 66.8268 23.1461 67.1898 21.692 66.1853C17.1664 63.0586 13.4953 58.7802 11.0698 53.7568L10.601 52.7411L10.4854 52.4348C9.98441 50.8922 10.7224 49.1906 12.2386 48.5222Z" fill="black"/>
<path d="M55.815 60.1569C57.2063 59.067 59.2189 59.3125 60.3089 60.7038C61.3974 62.095 61.1527 64.105 59.762 65.1945C54.9405 68.9716 48.9816 71.4192 42.4146 71.9104C39.5841 72.1221 36.8108 71.9541 34.1456 71.4541L33.0112 71.2197L32.6955 71.1291C31.1579 70.6146 30.2289 69.0105 30.5923 67.3946C30.9565 65.7779 32.485 64.7243 34.0956 64.9195L34.4175 64.9758L35.3269 65.1633C37.4584 65.5631 39.676 65.6984 41.9396 65.5289C47.1976 65.1354 51.9562 63.1797 55.815 60.1569Z" fill="black"/>
<path d="M38.7206 8.02418C51.6986 7.52451 63.1613 14.814 68.6121 25.7091L69.1184 26.7747L69.2403 27.0779C69.7598 28.6149 69.0394 30.3263 67.5308 31.0124C66.0226 31.6982 64.2604 31.1164 63.4432 29.7155L63.2932 29.4248L62.8869 28.5717C58.5206 19.8439 49.3414 14.0182 38.9643 14.4181C37.1989 14.4854 35.7135 13.1086 35.6455 11.343C35.5781 9.57753 36.955 8.09223 38.7206 8.02418Z" fill="black"/>
<path d="M68.6402 35.7283C70.4059 35.6611 71.8914 37.0376 71.9591 38.8034C72.2122 45.4121 70.4024 51.5943 67.1746 56.8039C66.2437 58.306 64.2735 58.7689 62.7713 57.8383C61.2691 56.9076 60.8064 54.9374 61.7369 53.4351C64.169 49.5099 65.5828 44.9277 65.5839 40.0315L65.5651 39.0471L65.5683 38.719C65.6708 37.1008 66.9849 35.7917 68.6402 35.7283Z" fill="black"/>
</svg>
