<svg width="80" height="80" viewBox="0 0 80 80" fill="none" xmlns="http://www.w3.org/2000/svg">
<path d="M57.1939 57.2874C57.1937 53.8319 54.3955 51.0318 50.9408 51.0312C47.4833 51.0312 44.6816 53.8334 44.6814 57.2874C44.6814 60.7455 47.4835 63.5468 50.9408 63.5468C54.3952 63.5462 57.1939 60.747 57.1939 57.2874ZM63.5939 57.2874C63.5939 64.277 57.9345 69.9462 50.9408 69.9468C43.9481 69.9468 38.2814 64.2793 38.2814 57.2874C38.2816 50.2989 43.9485 44.6312 50.9408 44.6312C57.934 44.6318 63.5937 50.3012 63.5939 57.2874Z" fill="black"/>
<path d="M36.1812 23.6594C36.1812 20.2023 33.379 17.4006 29.9219 17.4C26.4652 17.4 23.6627 20.2014 23.6625 23.6594C23.6625 27.1135 26.4641 29.9156 29.9219 29.9156C33.3797 29.915 36.1812 27.1127 36.1812 23.6594ZM42.5812 23.6594C42.5812 30.6487 36.9129 36.315 29.9219 36.3156C22.93 36.3156 17.2625 30.6486 17.2625 23.6594C17.2627 16.6681 22.9292 11 29.9219 11C36.9136 11.0006 42.5812 16.6677 42.5812 23.6594Z" fill="black"/>
<path d="M20.4625 20.4625C22.2298 20.4625 23.6625 21.8921 23.6625 23.6594C23.6625 25.4267 22.2298 26.8625 20.4625 26.8625H11.2C9.43269 26.8625 8 25.4298 8 23.6625C8 21.8952 9.43269 20.4625 11.2 20.4625H20.4625ZM68.8 20.4625C70.5673 20.4625 72 21.8952 72 23.6625C72 25.4298 70.5673 26.8625 68.8 26.8625H39.375C37.6079 26.8622 36.175 25.4297 36.175 23.6625C36.175 21.8953 37.6079 20.4627 39.375 20.4625H68.8Z" fill="black"/>
<path d="M41.4813 54.0875L41.8094 54.1031C43.4223 54.2676 44.6814 55.631 44.6814 57.2874C44.6814 58.9438 43.4223 60.3074 41.8094 60.4719L41.4813 60.4875H11.2C9.43269 60.4875 8 59.0548 8 57.2875C8 55.5202 9.43269 54.0875 11.2 54.0875H41.4813ZM68.8 54.0875C70.5673 54.0875 72 55.5202 72 57.2875C72 59.0548 70.5673 60.4875 68.8 60.4875H60.3937C58.6264 60.4875 57.1939 59.0547 57.1939 57.2874C57.1939 55.5201 58.6264 54.0875 60.3937 54.0875H68.8Z" fill="black"/>
</svg>
