<svg width="80" height="80" viewBox="0 0 80 80" fill="none" xmlns="http://www.w3.org/2000/svg">
<path d="M29.778 15.1495C36.4748 8.45011 47.3303 8.45024 54.0273 15.1495L54.3361 15.4663C60.7231 22.1821 60.6197 32.8077 54.0283 39.3997L40.7866 52.6414C36.8076 56.6203 30.359 56.6203 26.3801 52.6414C22.4012 48.6625 22.4012 42.2138 26.3801 38.2349L38.8754 25.7396L38.991 25.63C40.2041 24.5339 42.0769 24.5705 43.246 25.7396C44.4525 26.9463 44.4525 28.9025 43.246 30.1092L30.7507 42.6055C29.1854 44.1709 29.1853 46.7054 30.7507 48.2708C32.3161 49.8362 34.8505 49.8362 36.4159 48.2708L49.6576 35.0301C53.9412 30.7464 53.9407 23.8 49.6586 19.5201L49.6576 19.5191C45.3744 15.2336 38.432 15.2338 34.1486 19.5191L20.573 33.0927C13.5148 40.1513 13.5147 51.5944 20.573 58.6527C27.6282 65.708 39.0719 65.7088 46.1309 58.6527L65.6263 39.1583C66.8331 37.9516 68.7892 37.9516 69.9959 39.1583C71.2027 40.3651 71.2027 42.3212 69.9959 43.528L50.5016 63.0233C41.0296 72.4917 25.6716 72.4927 16.2023 63.0233C6.7304 53.5514 6.73137 38.1941 16.2034 28.7221L29.778 15.1495Z" fill="black"/>
</svg>
