<svg width="80" height="80" viewBox="0 0 80 80" fill="none" xmlns="http://www.w3.org/2000/svg">
<path d="M29.7782 15.1495C36.4751 8.45011 47.3306 8.45024 54.0275 15.1495L54.3363 15.4663C60.7234 22.1821 60.6199 32.8077 54.0285 39.3997L40.7868 52.6414C36.8079 56.6203 30.3592 56.6203 26.3803 52.6414C22.4014 48.6625 22.4014 42.2138 26.3803 38.2349L38.8756 25.7396L38.9913 25.63C40.2043 24.5339 42.0772 24.5705 43.2462 25.7396C44.4528 26.9463 44.4528 28.9025 43.2462 30.1092L30.7509 42.6055C29.1856 44.1709 29.1856 46.7054 30.7509 48.2708C32.3163 49.8362 34.8508 49.8362 36.4162 48.2708L49.6579 35.0301C53.9414 30.7464 53.9409 23.8 49.6589 19.5201L49.6579 19.5191C45.3746 15.2336 38.4323 15.2338 34.1489 19.5191L20.5732 33.0927C13.515 40.1513 13.5149 51.5944 20.5732 58.6527C27.6284 65.708 39.0721 65.7088 46.1312 58.6527L65.6265 39.1583C66.8333 37.9516 68.7894 37.9516 69.9962 39.1583C71.2029 40.3651 71.2029 42.3212 69.9962 43.528L50.5018 63.0233C41.0299 72.4917 25.6719 72.4927 16.2026 63.0233C6.73064 53.5514 6.73162 38.1941 16.2036 28.7221L29.7782 15.1495Z" fill="black"/>
</svg>
