<svg width="80" height="80" viewBox="0 0 80 80" fill="none" xmlns="http://www.w3.org/2000/svg">
<path d="M61.2042 30.3979C61.2042 29.528 60.8688 28.6945 60.2698 28.0719L60.2677 28.0698L48.1365 15.4313L48.1355 15.4302C47.5053 14.7731 46.6311 14.4001 45.7146 14.4H27.6146C22.8382 14.3795 18.9223 18.1822 18.7969 22.9563V56.5229C18.7969 56.5462 18.7964 56.5695 18.7959 56.5927C18.6886 61.4524 22.5337 65.4782 27.3907 65.5969L52.6188 65.599C57.4446 65.378 61.2386 61.3853 61.2042 56.5448V30.3979ZM67.6042 56.5L67.6021 56.8885C67.4583 65.019 60.9996 71.6641 52.8334 71.9969C52.79 71.9986 52.7466 72 52.7032 72L27.3417 71.9969C27.3183 71.9969 27.2942 71.9964 27.2709 71.9958C18.8939 71.8111 12.2505 64.892 12.3969 56.5229V22.901C12.3969 22.8757 12.3974 22.8503 12.398 22.825C12.5951 14.5639 19.3619 7.97287 27.6282 8.00104L45.7146 8C48.3667 8.00009 50.9116 9.07809 52.7542 10.999L64.8813 23.6354C66.6311 25.4545 67.6042 27.8793 67.6042 30.3979V56.5Z" fill="black"/>
<path d="M44.0624 11.4C44.0624 9.63269 45.4951 8.2 47.2624 8.2C49.0298 8.2 50.4624 9.63269 50.4624 11.4V20.6583C50.4607 23.4094 52.6887 25.6454 55.4416 25.651H64.1989L64.3645 25.6552C66.0551 25.7411 67.3989 27.1391 67.3989 28.851C67.3987 30.5628 66.055 31.961 64.3645 32.0469L64.1989 32.051H55.4281C49.143 32.0379 44.0584 26.935 44.0624 20.6542V11.4Z" fill="black"/>
</svg>
