<svg width="80" height="80" viewBox="0 0 80 80" fill="none" xmlns="http://www.w3.org/2000/svg">
<g opacity="0.4">
<path d="M32.5 19.5938C32.4999 17.6088 30.8912 16.0001 28.9062 16H21.0938C19.1088 16.0001 17.5001 17.6088 17.5 19.5938V27.4062C17.5001 29.3912 19.1088 30.9999 21.0938 31H28.9062C30.8912 30.9999 32.4999 29.3912 32.5 27.4062V19.5938ZM38.5 27.4062C38.4999 32.7049 34.2049 36.9999 28.9062 37H21.0938C15.7951 36.9999 11.5001 32.7049 11.5 27.4062V19.5938C11.5001 14.2951 15.7951 10.0001 21.0938 10H28.9062C34.2049 10.0001 38.4999 14.2951 38.5 19.5938V27.4062Z" fill="black"/>
<path d="M65.5 52.5938C65.4999 50.6088 63.8912 49.0001 61.9062 49H54.0938C52.1088 49.0001 50.5001 50.6088 50.5 52.5938V60.4062C50.5001 62.3912 52.1088 63.9999 54.0938 64H61.9062C63.8912 63.9999 65.4999 62.3912 65.5 60.4062V52.5938ZM71.5 60.4062C71.4999 65.7049 67.2049 69.9999 61.9062 70H54.0938C48.7951 69.9999 44.5001 65.7049 44.5 60.4062V52.5938C44.5001 47.2951 48.7951 43.0001 54.0938 43H61.9062C67.2049 43.0001 71.4999 47.2951 71.5 52.5938V60.4062Z" fill="black"/>
</g>
<path d="M32.5 56.5C32.5 52.3579 29.1421 49 25 49C20.8579 49 17.5 52.3579 17.5 56.5C17.5 60.6422 20.8579 64 25 64C29.1421 64 32.5 60.6422 32.5 56.5ZM38.5 56.5C38.5 63.9559 32.4559 70 25 70C17.5441 70 11.5 63.9559 11.5 56.5C11.5 49.0442 17.5441 43 25 43C32.4559 43 38.5 49.0442 38.5 56.5Z" fill="black"/>
<path d="M51.6378 28.792H64.9727L58.3106 17.1465L51.6378 28.792ZM71.4991 29.5244C71.499 32.4403 69.1332 34.792 66.2276 34.792H50.3819C49.4622 34.792 48.5571 34.5504 47.7647 34.0986L47.754 34.0918C45.2332 32.6402 44.3603 29.4246 45.8077 26.8984L53.7374 13.0596C54.2091 12.2363 54.8881 11.568 55.6925 11.1074C58.2211 9.65922 61.4363 10.5391 62.8829 13.0567L62.8858 13.0615L70.8009 26.8965C71.265 27.7052 71.4991 28.6123 71.4991 29.5244Z" fill="black"/>
</svg>
