<svg width="80" height="80" viewBox="0 0 80 80" fill="none" xmlns="http://www.w3.org/2000/svg">
<path fill-rule="evenodd" clip-rule="evenodd" d="M39.6474 29C37.0813 33.3985 33.4058 37.0741 29 39.6438C33.4058 42.2099 37.0813 45.8855 39.6474 50.284C42.21 45.8855 45.8891 42.2099 50.2948 39.6438C45.8891 37.0741 42.21 33.3985 39.6474 29Z" fill="black"/>
<path fill-rule="evenodd" clip-rule="evenodd" d="M58.0057 42.5518C50.6903 44.9318 44.9139 50.7082 42.5554 58.0021C42.1975 59.108 41.1667 59.8596 40 59.8596C38.8368 59.8596 37.8061 59.1116 37.4482 58.0057C35.0825 50.7046 29.3061 44.9282 21.9943 42.5518C20.8884 42.1903 20.1404 41.1596 20.1404 40C20.1404 38.8368 20.8884 37.8061 21.9943 37.4446C29.3061 35.0682 35.0825 29.2918 37.4482 21.9907C37.8061 20.8848 38.8368 20.1368 40 20.1368C41.1667 20.1368 42.1975 20.8884 42.5554 21.9943C44.9139 29.2882 50.6903 35.0682 58.0057 37.4446C59.1116 37.8061 59.8596 38.8368 59.8596 40C59.8596 41.1596 59.1116 42.1903 58.0057 42.5518ZM55.0924 6H24.904C13.5981 6 6 13.9524 6 25.7916V54.2048C6 66.044 13.5981 74 24.904 74H55.0888C66.4019 74 74 66.044 74 54.2048V25.7916C74 13.9524 66.4019 6 55.0924 6Z" fill="black"/>
</svg>
